%TF.GenerationSoftware,KiCad,Pcbnew,(5.0.0-3-g5ebb6b6)*%
%TF.CreationDate,2018-10-14T10:55:46+02:00*%
%TF.ProjectId,BricoLabs_ESP8266_LoRa_shield,427269636F4C6162735F455350383236,rev?*%
%TF.SameCoordinates,Original*%
%TF.FileFunction,Copper,L2,Bot,Signal*%
%TF.FilePolarity,Positive*%
%FSLAX46Y46*%
G04 Gerber Fmt 4.6, Leading zero omitted, Abs format (unit mm)*
G04 Created by KiCad (PCBNEW (5.0.0-3-g5ebb6b6)) date Sunday, 14 de October de 2018, 10:55:46*
%MOMM*%
%LPD*%
G01*
G04 APERTURE LIST*
%ADD10C,0.150000*%
%ADD11R,1.524000X4.064000*%
%ADD12C,1.800000*%
%ADD13O,1.700000X1.700000*%
%ADD14R,1.700000X1.700000*%
%ADD15R,1.800000X1.800000*%
%ADD16O,1.800000X1.800000*%
%ADD17C,0.685800*%
%ADD18C,0.400000*%
%ADD19C,0.200000*%
G04 APERTURE END LIST*
D10*
X140878600Y-80062000D02*
G75*
G02X141878600Y-81062000I0J-1000000D01*
G01*
X151620379Y-81068606D02*
G75*
G02X152628600Y-83312000I-1991779J-2243394D01*
G01*
X140878600Y-80062000D02*
X130225800Y-80060800D01*
X152628600Y-114452400D02*
X152628600Y-83312000D01*
X126976364Y-83308794D02*
G75*
G02X130225800Y-80060800I3779835J-532077D01*
G01*
X151628600Y-81062000D02*
X141878600Y-81062000D01*
X127027671Y-114490707D02*
X126974600Y-83312000D01*
X127027671Y-114490707D02*
X152628600Y-114452400D01*
D11*
X144257671Y-84132707D03*
X149337671Y-84132707D03*
D12*
X146797671Y-82350707D03*
D13*
X128297671Y-110680707D03*
D14*
X128297671Y-113220707D03*
X151157671Y-113220707D03*
D13*
X151157671Y-110680707D03*
D15*
X151157671Y-105600707D03*
D16*
X151157671Y-103060707D03*
X151157671Y-100520707D03*
X151157671Y-97980707D03*
X151157671Y-95440707D03*
X151157671Y-92900707D03*
X151157671Y-90360707D03*
X151157671Y-87820707D03*
D15*
X128297671Y-105600707D03*
D16*
X128297671Y-103060707D03*
X128297671Y-100520707D03*
X128297671Y-97980707D03*
X128297671Y-95440707D03*
X128297671Y-92900707D03*
X128297671Y-90360707D03*
X128297671Y-87820707D03*
D17*
X133060171Y-94140707D03*
X143797671Y-87350707D03*
X148797671Y-87350707D03*
X146797671Y-92850707D03*
X140257671Y-92940707D03*
X139047671Y-98850707D03*
X145797671Y-102850707D03*
X131547671Y-91350707D03*
X128297671Y-107505707D03*
X140797671Y-107600707D03*
X148297671Y-113350707D03*
X131297671Y-113350707D03*
X140797671Y-113350707D03*
X143797671Y-96350707D03*
X148797671Y-88350707D03*
X148797671Y-89350707D03*
X148797671Y-90350707D03*
X148797671Y-91350707D03*
X147797671Y-91350707D03*
X146797671Y-91350707D03*
X145797671Y-91350707D03*
X144797671Y-91350707D03*
X145797671Y-87350707D03*
X147797671Y-87350707D03*
X129567671Y-101790707D03*
X129567671Y-99250707D03*
X129567671Y-96710707D03*
X147030171Y-99250707D03*
X151157671Y-107505707D03*
X135797671Y-87350707D03*
X143797671Y-91350707D03*
X134797671Y-91350697D03*
X136797671Y-91350707D03*
X140680171Y-103378207D03*
X136870171Y-102108207D03*
X134647671Y-100838207D03*
X138775171Y-101473207D03*
D18*
X143967681Y-100520707D02*
X135140570Y-91693596D01*
X135140570Y-91693596D02*
X134797671Y-91350697D01*
X151157671Y-100520707D02*
X143967681Y-100520707D01*
X137140570Y-91693606D02*
X136797671Y-91350707D01*
X151157671Y-97980707D02*
X143427671Y-97980707D01*
X143427671Y-97980707D02*
X137140570Y-91693606D01*
X140362671Y-103060707D02*
X140680171Y-103378207D01*
X128297671Y-103060707D02*
X140362671Y-103060707D01*
X128297671Y-100520707D02*
X129567671Y-100520707D01*
X130837671Y-101790707D02*
X136552671Y-101790707D01*
X136552671Y-101790707D02*
X136870171Y-102108207D01*
X129567671Y-100520707D02*
X130837671Y-101790707D01*
X134330171Y-100520707D02*
X134647671Y-100838207D01*
X129567671Y-97980707D02*
X132107671Y-100520707D01*
X132107671Y-100520707D02*
X134330171Y-100520707D01*
X128297671Y-97980707D02*
X129567671Y-97980707D01*
X128297671Y-95440707D02*
X129567671Y-95440707D01*
X129567671Y-95440707D02*
X133377671Y-99250707D01*
X133377671Y-99250707D02*
X136552671Y-99250707D01*
X136552671Y-99250707D02*
X138775171Y-101473207D01*
X128513001Y-87873001D02*
X128297671Y-87873001D01*
D19*
G36*
X146032957Y-83495182D02*
X146529139Y-83700707D01*
X147066203Y-83700707D01*
X147562385Y-83495182D01*
X147606860Y-83450707D01*
X148125671Y-83450707D01*
X148125671Y-83866207D01*
X148238171Y-83978707D01*
X149183671Y-83978707D01*
X149183671Y-83958707D01*
X149491671Y-83958707D01*
X149491671Y-83978707D01*
X149511671Y-83978707D01*
X149511671Y-84286707D01*
X149491671Y-84286707D01*
X149491671Y-86502207D01*
X149604171Y-86614707D01*
X150189182Y-86614707D01*
X150354576Y-86546198D01*
X150480067Y-86420707D01*
X152103601Y-86420707D01*
X152103601Y-86829126D01*
X151684415Y-86549035D01*
X151290634Y-86470707D01*
X151024708Y-86470707D01*
X150630927Y-86549035D01*
X150184375Y-86847411D01*
X149885999Y-87293963D01*
X149781223Y-87820707D01*
X149885999Y-88347451D01*
X150184375Y-88794003D01*
X150628425Y-89090707D01*
X150184375Y-89387411D01*
X149885999Y-89833963D01*
X149781223Y-90360707D01*
X149885999Y-90887451D01*
X150184375Y-91334003D01*
X150628425Y-91630707D01*
X150184375Y-91927411D01*
X149885999Y-92373963D01*
X149781223Y-92900707D01*
X149885999Y-93427451D01*
X150184375Y-93874003D01*
X150628425Y-94170707D01*
X150184375Y-94467411D01*
X149885999Y-94913963D01*
X149781223Y-95440707D01*
X149885999Y-95967451D01*
X150184375Y-96414003D01*
X150628425Y-96710707D01*
X150184375Y-97007411D01*
X149968356Y-97330707D01*
X143696910Y-97330707D01*
X137645458Y-91279257D01*
X137645456Y-91279254D01*
X137590571Y-91224369D01*
X137590571Y-91192989D01*
X137469859Y-90901565D01*
X137246813Y-90678519D01*
X136955389Y-90557807D01*
X136639953Y-90557807D01*
X136348529Y-90678519D01*
X136125483Y-90901565D01*
X136004771Y-91192989D01*
X136004771Y-91508425D01*
X136096791Y-91730580D01*
X135645458Y-91279247D01*
X135645456Y-91279244D01*
X135590571Y-91224359D01*
X135590571Y-91192979D01*
X135469859Y-90901555D01*
X135246813Y-90678509D01*
X134955389Y-90557797D01*
X134639953Y-90557797D01*
X134348529Y-90678509D01*
X134125483Y-90901555D01*
X134004771Y-91192979D01*
X134004771Y-91508415D01*
X134125483Y-91799839D01*
X134348529Y-92022885D01*
X134639953Y-92143597D01*
X134671333Y-92143597D01*
X134726218Y-92198482D01*
X134726221Y-92198484D01*
X143462792Y-100935056D01*
X143499057Y-100989331D01*
X143714064Y-101132993D01*
X143903663Y-101170707D01*
X143903664Y-101170707D01*
X143967680Y-101183441D01*
X144031697Y-101170707D01*
X149968356Y-101170707D01*
X150184375Y-101494003D01*
X150630927Y-101792379D01*
X150703355Y-101806786D01*
X150325589Y-101997611D01*
X149982098Y-102396958D01*
X149857086Y-102698795D01*
X149929791Y-102906707D01*
X151003671Y-102906707D01*
X151003671Y-102886707D01*
X151311671Y-102886707D01*
X151311671Y-102906707D01*
X151331671Y-102906707D01*
X151331671Y-103214707D01*
X151311671Y-103214707D01*
X151311671Y-103234707D01*
X151003671Y-103234707D01*
X151003671Y-103214707D01*
X149929791Y-103214707D01*
X149857086Y-103422619D01*
X149982098Y-103724456D01*
X150325589Y-104123803D01*
X150559361Y-104241891D01*
X150257671Y-104241891D01*
X150082090Y-104276816D01*
X149933239Y-104376275D01*
X149833780Y-104525126D01*
X149798855Y-104700707D01*
X149798855Y-106500707D01*
X149833780Y-106676288D01*
X149933239Y-106825139D01*
X150082090Y-106924598D01*
X150257671Y-106959523D01*
X152057671Y-106959523D01*
X152103600Y-106950387D01*
X152103600Y-109756454D01*
X152094918Y-109743460D01*
X151664906Y-109456134D01*
X151285708Y-109380707D01*
X151029634Y-109380707D01*
X150650436Y-109456134D01*
X150220424Y-109743460D01*
X149933098Y-110173472D01*
X149832203Y-110680707D01*
X149933098Y-111187942D01*
X150220424Y-111617954D01*
X150650436Y-111905280D01*
X150683672Y-111911891D01*
X150307671Y-111911891D01*
X150132090Y-111946816D01*
X149983239Y-112046275D01*
X149883780Y-112195126D01*
X149848855Y-112370707D01*
X149848855Y-113931559D01*
X129606487Y-113961848D01*
X129606487Y-112370707D01*
X129571562Y-112195126D01*
X129472103Y-112046275D01*
X129323252Y-111946816D01*
X129147671Y-111911891D01*
X128771670Y-111911891D01*
X128804906Y-111905280D01*
X129234918Y-111617954D01*
X129522244Y-111187942D01*
X129623139Y-110680707D01*
X129522244Y-110173472D01*
X129234918Y-109743460D01*
X128804906Y-109456134D01*
X128425708Y-109380707D01*
X128169634Y-109380707D01*
X127790436Y-109456134D01*
X127544382Y-109620543D01*
X127539852Y-106959523D01*
X129197671Y-106959523D01*
X129373252Y-106924598D01*
X129522103Y-106825139D01*
X129621562Y-106676288D01*
X129656487Y-106500707D01*
X129656487Y-104700707D01*
X129621562Y-104525126D01*
X129522103Y-104376275D01*
X129373252Y-104276816D01*
X129197671Y-104241891D01*
X128959840Y-104241891D01*
X129270967Y-104034003D01*
X129486986Y-103710707D01*
X139959668Y-103710707D01*
X140007983Y-103827349D01*
X140231029Y-104050395D01*
X140522453Y-104171107D01*
X140837889Y-104171107D01*
X141129313Y-104050395D01*
X141352359Y-103827349D01*
X141473071Y-103535925D01*
X141473071Y-103220489D01*
X141352359Y-102929065D01*
X141129313Y-102706019D01*
X140837889Y-102585307D01*
X140821154Y-102585307D01*
X140616288Y-102448421D01*
X140426689Y-102410707D01*
X140426687Y-102410707D01*
X140362671Y-102397973D01*
X140298655Y-102410707D01*
X137603100Y-102410707D01*
X137663071Y-102265925D01*
X137663071Y-101950489D01*
X137542359Y-101659065D01*
X137319313Y-101436019D01*
X137027889Y-101315307D01*
X137011154Y-101315307D01*
X136806288Y-101178421D01*
X136616689Y-101140707D01*
X136616687Y-101140707D01*
X136552671Y-101127973D01*
X136488655Y-101140707D01*
X135380600Y-101140707D01*
X135440571Y-100995925D01*
X135440571Y-100680489D01*
X135319859Y-100389065D01*
X135096813Y-100166019D01*
X134805389Y-100045307D01*
X134788654Y-100045307D01*
X134583788Y-99908421D01*
X134545008Y-99900707D01*
X136283434Y-99900707D01*
X137982271Y-101599546D01*
X137982271Y-101630925D01*
X138102983Y-101922349D01*
X138326029Y-102145395D01*
X138617453Y-102266107D01*
X138932889Y-102266107D01*
X139224313Y-102145395D01*
X139447359Y-101922349D01*
X139568071Y-101630925D01*
X139568071Y-101315489D01*
X139447359Y-101024065D01*
X139224313Y-100801019D01*
X138932889Y-100680307D01*
X138901510Y-100680307D01*
X137057562Y-98836361D01*
X137021295Y-98782083D01*
X136806288Y-98638421D01*
X136616689Y-98600707D01*
X136616687Y-98600707D01*
X136552671Y-98587973D01*
X136488655Y-98600707D01*
X133646910Y-98600707D01*
X130072562Y-95026361D01*
X130036295Y-94972083D01*
X129821288Y-94828421D01*
X129631689Y-94790707D01*
X129631687Y-94790707D01*
X129567671Y-94777973D01*
X129503655Y-94790707D01*
X129486986Y-94790707D01*
X129270967Y-94467411D01*
X128826917Y-94170707D01*
X129270967Y-93874003D01*
X129569343Y-93427451D01*
X129674119Y-92900707D01*
X129569343Y-92373963D01*
X129270967Y-91927411D01*
X128826917Y-91630707D01*
X129270967Y-91334003D01*
X129569343Y-90887451D01*
X129674119Y-90360707D01*
X129569343Y-89833963D01*
X129270967Y-89387411D01*
X128826917Y-89090707D01*
X129270967Y-88794003D01*
X129569343Y-88347451D01*
X129674119Y-87820707D01*
X129569343Y-87293963D01*
X129270967Y-86847411D01*
X128824415Y-86549035D01*
X128430634Y-86470707D01*
X128164708Y-86470707D01*
X127770927Y-86549035D01*
X127505412Y-86726446D01*
X127504892Y-86420707D01*
X143115275Y-86420707D01*
X143240766Y-86546198D01*
X143406160Y-86614707D01*
X143991171Y-86614707D01*
X144103671Y-86502207D01*
X144103671Y-84286707D01*
X144411671Y-84286707D01*
X144411671Y-86502207D01*
X144524171Y-86614707D01*
X145109182Y-86614707D01*
X145274576Y-86546198D01*
X145401163Y-86419611D01*
X145469671Y-86254217D01*
X145469671Y-84399207D01*
X148125671Y-84399207D01*
X148125671Y-86254217D01*
X148194179Y-86419611D01*
X148320766Y-86546198D01*
X148486160Y-86614707D01*
X149071171Y-86614707D01*
X149183671Y-86502207D01*
X149183671Y-84286707D01*
X148238171Y-84286707D01*
X148125671Y-84399207D01*
X145469671Y-84399207D01*
X145357171Y-84286707D01*
X144411671Y-84286707D01*
X144103671Y-84286707D01*
X144083671Y-84286707D01*
X144083671Y-83978707D01*
X144103671Y-83978707D01*
X144103671Y-83958707D01*
X144411671Y-83958707D01*
X144411671Y-83978707D01*
X145357171Y-83978707D01*
X145469671Y-83866207D01*
X145469671Y-83450707D01*
X145988482Y-83450707D01*
X146032957Y-83495182D01*
X146032957Y-83495182D01*
G37*
X146032957Y-83495182D02*
X146529139Y-83700707D01*
X147066203Y-83700707D01*
X147562385Y-83495182D01*
X147606860Y-83450707D01*
X148125671Y-83450707D01*
X148125671Y-83866207D01*
X148238171Y-83978707D01*
X149183671Y-83978707D01*
X149183671Y-83958707D01*
X149491671Y-83958707D01*
X149491671Y-83978707D01*
X149511671Y-83978707D01*
X149511671Y-84286707D01*
X149491671Y-84286707D01*
X149491671Y-86502207D01*
X149604171Y-86614707D01*
X150189182Y-86614707D01*
X150354576Y-86546198D01*
X150480067Y-86420707D01*
X152103601Y-86420707D01*
X152103601Y-86829126D01*
X151684415Y-86549035D01*
X151290634Y-86470707D01*
X151024708Y-86470707D01*
X150630927Y-86549035D01*
X150184375Y-86847411D01*
X149885999Y-87293963D01*
X149781223Y-87820707D01*
X149885999Y-88347451D01*
X150184375Y-88794003D01*
X150628425Y-89090707D01*
X150184375Y-89387411D01*
X149885999Y-89833963D01*
X149781223Y-90360707D01*
X149885999Y-90887451D01*
X150184375Y-91334003D01*
X150628425Y-91630707D01*
X150184375Y-91927411D01*
X149885999Y-92373963D01*
X149781223Y-92900707D01*
X149885999Y-93427451D01*
X150184375Y-93874003D01*
X150628425Y-94170707D01*
X150184375Y-94467411D01*
X149885999Y-94913963D01*
X149781223Y-95440707D01*
X149885999Y-95967451D01*
X150184375Y-96414003D01*
X150628425Y-96710707D01*
X150184375Y-97007411D01*
X149968356Y-97330707D01*
X143696910Y-97330707D01*
X137645458Y-91279257D01*
X137645456Y-91279254D01*
X137590571Y-91224369D01*
X137590571Y-91192989D01*
X137469859Y-90901565D01*
X137246813Y-90678519D01*
X136955389Y-90557807D01*
X136639953Y-90557807D01*
X136348529Y-90678519D01*
X136125483Y-90901565D01*
X136004771Y-91192989D01*
X136004771Y-91508425D01*
X136096791Y-91730580D01*
X135645458Y-91279247D01*
X135645456Y-91279244D01*
X135590571Y-91224359D01*
X135590571Y-91192979D01*
X135469859Y-90901555D01*
X135246813Y-90678509D01*
X134955389Y-90557797D01*
X134639953Y-90557797D01*
X134348529Y-90678509D01*
X134125483Y-90901555D01*
X134004771Y-91192979D01*
X134004771Y-91508415D01*
X134125483Y-91799839D01*
X134348529Y-92022885D01*
X134639953Y-92143597D01*
X134671333Y-92143597D01*
X134726218Y-92198482D01*
X134726221Y-92198484D01*
X143462792Y-100935056D01*
X143499057Y-100989331D01*
X143714064Y-101132993D01*
X143903663Y-101170707D01*
X143903664Y-101170707D01*
X143967680Y-101183441D01*
X144031697Y-101170707D01*
X149968356Y-101170707D01*
X150184375Y-101494003D01*
X150630927Y-101792379D01*
X150703355Y-101806786D01*
X150325589Y-101997611D01*
X149982098Y-102396958D01*
X149857086Y-102698795D01*
X149929791Y-102906707D01*
X151003671Y-102906707D01*
X151003671Y-102886707D01*
X151311671Y-102886707D01*
X151311671Y-102906707D01*
X151331671Y-102906707D01*
X151331671Y-103214707D01*
X151311671Y-103214707D01*
X151311671Y-103234707D01*
X151003671Y-103234707D01*
X151003671Y-103214707D01*
X149929791Y-103214707D01*
X149857086Y-103422619D01*
X149982098Y-103724456D01*
X150325589Y-104123803D01*
X150559361Y-104241891D01*
X150257671Y-104241891D01*
X150082090Y-104276816D01*
X149933239Y-104376275D01*
X149833780Y-104525126D01*
X149798855Y-104700707D01*
X149798855Y-106500707D01*
X149833780Y-106676288D01*
X149933239Y-106825139D01*
X150082090Y-106924598D01*
X150257671Y-106959523D01*
X152057671Y-106959523D01*
X152103600Y-106950387D01*
X152103600Y-109756454D01*
X152094918Y-109743460D01*
X151664906Y-109456134D01*
X151285708Y-109380707D01*
X151029634Y-109380707D01*
X150650436Y-109456134D01*
X150220424Y-109743460D01*
X149933098Y-110173472D01*
X149832203Y-110680707D01*
X149933098Y-111187942D01*
X150220424Y-111617954D01*
X150650436Y-111905280D01*
X150683672Y-111911891D01*
X150307671Y-111911891D01*
X150132090Y-111946816D01*
X149983239Y-112046275D01*
X149883780Y-112195126D01*
X149848855Y-112370707D01*
X149848855Y-113931559D01*
X129606487Y-113961848D01*
X129606487Y-112370707D01*
X129571562Y-112195126D01*
X129472103Y-112046275D01*
X129323252Y-111946816D01*
X129147671Y-111911891D01*
X128771670Y-111911891D01*
X128804906Y-111905280D01*
X129234918Y-111617954D01*
X129522244Y-111187942D01*
X129623139Y-110680707D01*
X129522244Y-110173472D01*
X129234918Y-109743460D01*
X128804906Y-109456134D01*
X128425708Y-109380707D01*
X128169634Y-109380707D01*
X127790436Y-109456134D01*
X127544382Y-109620543D01*
X127539852Y-106959523D01*
X129197671Y-106959523D01*
X129373252Y-106924598D01*
X129522103Y-106825139D01*
X129621562Y-106676288D01*
X129656487Y-106500707D01*
X129656487Y-104700707D01*
X129621562Y-104525126D01*
X129522103Y-104376275D01*
X129373252Y-104276816D01*
X129197671Y-104241891D01*
X128959840Y-104241891D01*
X129270967Y-104034003D01*
X129486986Y-103710707D01*
X139959668Y-103710707D01*
X140007983Y-103827349D01*
X140231029Y-104050395D01*
X140522453Y-104171107D01*
X140837889Y-104171107D01*
X141129313Y-104050395D01*
X141352359Y-103827349D01*
X141473071Y-103535925D01*
X141473071Y-103220489D01*
X141352359Y-102929065D01*
X141129313Y-102706019D01*
X140837889Y-102585307D01*
X140821154Y-102585307D01*
X140616288Y-102448421D01*
X140426689Y-102410707D01*
X140426687Y-102410707D01*
X140362671Y-102397973D01*
X140298655Y-102410707D01*
X137603100Y-102410707D01*
X137663071Y-102265925D01*
X137663071Y-101950489D01*
X137542359Y-101659065D01*
X137319313Y-101436019D01*
X137027889Y-101315307D01*
X137011154Y-101315307D01*
X136806288Y-101178421D01*
X136616689Y-101140707D01*
X136616687Y-101140707D01*
X136552671Y-101127973D01*
X136488655Y-101140707D01*
X135380600Y-101140707D01*
X135440571Y-100995925D01*
X135440571Y-100680489D01*
X135319859Y-100389065D01*
X135096813Y-100166019D01*
X134805389Y-100045307D01*
X134788654Y-100045307D01*
X134583788Y-99908421D01*
X134545008Y-99900707D01*
X136283434Y-99900707D01*
X137982271Y-101599546D01*
X137982271Y-101630925D01*
X138102983Y-101922349D01*
X138326029Y-102145395D01*
X138617453Y-102266107D01*
X138932889Y-102266107D01*
X139224313Y-102145395D01*
X139447359Y-101922349D01*
X139568071Y-101630925D01*
X139568071Y-101315489D01*
X139447359Y-101024065D01*
X139224313Y-100801019D01*
X138932889Y-100680307D01*
X138901510Y-100680307D01*
X137057562Y-98836361D01*
X137021295Y-98782083D01*
X136806288Y-98638421D01*
X136616689Y-98600707D01*
X136616687Y-98600707D01*
X136552671Y-98587973D01*
X136488655Y-98600707D01*
X133646910Y-98600707D01*
X130072562Y-95026361D01*
X130036295Y-94972083D01*
X129821288Y-94828421D01*
X129631689Y-94790707D01*
X129631687Y-94790707D01*
X129567671Y-94777973D01*
X129503655Y-94790707D01*
X129486986Y-94790707D01*
X129270967Y-94467411D01*
X128826917Y-94170707D01*
X129270967Y-93874003D01*
X129569343Y-93427451D01*
X129674119Y-92900707D01*
X129569343Y-92373963D01*
X129270967Y-91927411D01*
X128826917Y-91630707D01*
X129270967Y-91334003D01*
X129569343Y-90887451D01*
X129674119Y-90360707D01*
X129569343Y-89833963D01*
X129270967Y-89387411D01*
X128826917Y-89090707D01*
X129270967Y-88794003D01*
X129569343Y-88347451D01*
X129674119Y-87820707D01*
X129569343Y-87293963D01*
X129270967Y-86847411D01*
X128824415Y-86549035D01*
X128430634Y-86470707D01*
X128164708Y-86470707D01*
X127770927Y-86549035D01*
X127505412Y-86726446D01*
X127504892Y-86420707D01*
X143115275Y-86420707D01*
X143240766Y-86546198D01*
X143406160Y-86614707D01*
X143991171Y-86614707D01*
X144103671Y-86502207D01*
X144103671Y-84286707D01*
X144411671Y-84286707D01*
X144411671Y-86502207D01*
X144524171Y-86614707D01*
X145109182Y-86614707D01*
X145274576Y-86546198D01*
X145401163Y-86419611D01*
X145469671Y-86254217D01*
X145469671Y-84399207D01*
X148125671Y-84399207D01*
X148125671Y-86254217D01*
X148194179Y-86419611D01*
X148320766Y-86546198D01*
X148486160Y-86614707D01*
X149071171Y-86614707D01*
X149183671Y-86502207D01*
X149183671Y-84286707D01*
X148238171Y-84286707D01*
X148125671Y-84399207D01*
X145469671Y-84399207D01*
X145357171Y-84286707D01*
X144411671Y-84286707D01*
X144103671Y-84286707D01*
X144083671Y-84286707D01*
X144083671Y-83978707D01*
X144103671Y-83978707D01*
X144103671Y-83958707D01*
X144411671Y-83958707D01*
X144411671Y-83978707D01*
X145357171Y-83978707D01*
X145469671Y-83866207D01*
X145469671Y-83450707D01*
X145988482Y-83450707D01*
X146032957Y-83495182D01*
G36*
X130332783Y-102205058D02*
X130369047Y-102259331D01*
X130584054Y-102402993D01*
X130622834Y-102410707D01*
X129486986Y-102410707D01*
X129270967Y-102087411D01*
X128826917Y-101790707D01*
X129270967Y-101494003D01*
X129411463Y-101283736D01*
X130332783Y-102205058D01*
X130332783Y-102205058D01*
G37*
X130332783Y-102205058D02*
X130369047Y-102259331D01*
X130584054Y-102402993D01*
X130622834Y-102410707D01*
X129486986Y-102410707D01*
X129270967Y-102087411D01*
X128826917Y-101790707D01*
X129270967Y-101494003D01*
X129411463Y-101283736D01*
X130332783Y-102205058D01*
G36*
X131602784Y-100935058D02*
X131639047Y-100989331D01*
X131854054Y-101132993D01*
X131892834Y-101140707D01*
X131106910Y-101140707D01*
X130072562Y-100106361D01*
X130036295Y-100052083D01*
X129821288Y-99908421D01*
X129631689Y-99870707D01*
X129631687Y-99870707D01*
X129567671Y-99857973D01*
X129503655Y-99870707D01*
X129486986Y-99870707D01*
X129270967Y-99547411D01*
X128826917Y-99250707D01*
X129270967Y-98954003D01*
X129411463Y-98743736D01*
X131602784Y-100935058D01*
X131602784Y-100935058D01*
G37*
X131602784Y-100935058D02*
X131639047Y-100989331D01*
X131854054Y-101132993D01*
X131892834Y-101140707D01*
X131106910Y-101140707D01*
X130072562Y-100106361D01*
X130036295Y-100052083D01*
X129821288Y-99908421D01*
X129631689Y-99870707D01*
X129631687Y-99870707D01*
X129567671Y-99857973D01*
X129503655Y-99870707D01*
X129486986Y-99870707D01*
X129270967Y-99547411D01*
X128826917Y-99250707D01*
X129270967Y-98954003D01*
X129411463Y-98743736D01*
X131602784Y-100935058D01*
G36*
X136639953Y-92143607D02*
X136671333Y-92143607D01*
X136726218Y-92198492D01*
X136726221Y-92198494D01*
X142922783Y-98395058D01*
X142959047Y-98449331D01*
X143174054Y-98592993D01*
X143212835Y-98600707D01*
X143427671Y-98643441D01*
X143491689Y-98630707D01*
X149968356Y-98630707D01*
X150184375Y-98954003D01*
X150628425Y-99250707D01*
X150184375Y-99547411D01*
X149968356Y-99870707D01*
X144236919Y-99870707D01*
X136417799Y-92051587D01*
X136639953Y-92143607D01*
X136639953Y-92143607D01*
G37*
X136639953Y-92143607D02*
X136671333Y-92143607D01*
X136726218Y-92198492D01*
X136726221Y-92198494D01*
X142922783Y-98395058D01*
X142959047Y-98449331D01*
X143174054Y-98592993D01*
X143212835Y-98600707D01*
X143427671Y-98643441D01*
X143491689Y-98630707D01*
X149968356Y-98630707D01*
X150184375Y-98954003D01*
X150628425Y-99250707D01*
X150184375Y-99547411D01*
X149968356Y-99870707D01*
X144236919Y-99870707D01*
X136417799Y-92051587D01*
X136639953Y-92143607D01*
G36*
X132872783Y-99665058D02*
X132909047Y-99719331D01*
X132963319Y-99755594D01*
X133124053Y-99862993D01*
X133162834Y-99870707D01*
X132376910Y-99870707D01*
X130072562Y-97566361D01*
X130036295Y-97512083D01*
X129821288Y-97368421D01*
X129631689Y-97330707D01*
X129631687Y-97330707D01*
X129567671Y-97317973D01*
X129503655Y-97330707D01*
X129486986Y-97330707D01*
X129270967Y-97007411D01*
X128826917Y-96710707D01*
X129270967Y-96414003D01*
X129411463Y-96203736D01*
X132872783Y-99665058D01*
X132872783Y-99665058D01*
G37*
X132872783Y-99665058D02*
X132909047Y-99719331D01*
X132963319Y-99755594D01*
X133124053Y-99862993D01*
X133162834Y-99870707D01*
X132376910Y-99870707D01*
X130072562Y-97566361D01*
X130036295Y-97512083D01*
X129821288Y-97368421D01*
X129631689Y-97330707D01*
X129631687Y-97330707D01*
X129567671Y-97317973D01*
X129503655Y-97330707D01*
X129486986Y-97330707D01*
X129270967Y-97007411D01*
X128826917Y-96710707D01*
X129270967Y-96414003D01*
X129411463Y-96203736D01*
X132872783Y-99665058D01*
M02*
