%TF.GenerationSoftware,KiCad,Pcbnew,(5.0.0-3-g5ebb6b6)*%
%TF.CreationDate,2018-10-14T10:55:46+02:00*%
%TF.ProjectId,BricoLabs_ESP8266_LoRa_shield,427269636F4C6162735F455350383236,rev?*%
%TF.SameCoordinates,Original*%
%TF.FileFunction,Copper,L1,Top,Signal*%
%TF.FilePolarity,Positive*%
%FSLAX46Y46*%
G04 Gerber Fmt 4.6, Leading zero omitted, Abs format (unit mm)*
G04 Created by KiCad (PCBNEW (5.0.0-3-g5ebb6b6)) date Sunday, 14 de October de 2018, 10:55:46*
%MOMM*%
%LPD*%
G01*
G04 APERTURE LIST*
%ADD10C,0.150000*%
%ADD11R,1.016000X2.032000*%
%ADD12R,1.524000X4.064000*%
%ADD13R,1.000000X2.000000*%
%ADD14C,1.800000*%
%ADD15O,1.700000X1.700000*%
%ADD16R,1.700000X1.700000*%
%ADD17R,1.800000X1.800000*%
%ADD18O,1.800000X1.800000*%
%ADD19R,1.400000X1.295000*%
%ADD20C,0.500000*%
%ADD21C,0.100000*%
%ADD22R,1.500000X1.000000*%
%ADD23C,0.685800*%
%ADD24C,0.800000*%
%ADD25C,0.400000*%
%ADD26C,0.254000*%
%ADD27C,0.200000*%
G04 APERTURE END LIST*
D10*
X140878600Y-80062000D02*
G75*
G02X141878600Y-81062000I0J-1000000D01*
G01*
X151620379Y-81068606D02*
G75*
G02X152628600Y-83312000I-1991779J-2243394D01*
G01*
X140878600Y-80062000D02*
X130225800Y-80060800D01*
X152628600Y-114452400D02*
X152628600Y-83312000D01*
X126976364Y-83308794D02*
G75*
G02X130225800Y-80060800I3779835J-532077D01*
G01*
X151628600Y-81062000D02*
X141878600Y-81062000D01*
X127027671Y-114490707D02*
X126974600Y-83312000D01*
X127027671Y-114490707D02*
X152628600Y-114452400D01*
D11*
X146797671Y-85148707D03*
D12*
X144257671Y-84132707D03*
X149337671Y-84132707D03*
D13*
X132797671Y-105350707D03*
X134797671Y-105350707D03*
X136797671Y-105350707D03*
X138797671Y-105350707D03*
X140797671Y-105350707D03*
X142797671Y-105350707D03*
X144797671Y-105350707D03*
X146797671Y-105350707D03*
X146797671Y-89350707D03*
X144797671Y-89350707D03*
X142797671Y-89350707D03*
X140797671Y-89350707D03*
X138797671Y-89350707D03*
X136797671Y-89350707D03*
X134797671Y-89350707D03*
X132797671Y-89350707D03*
D14*
X146797671Y-82350707D03*
D15*
X128297671Y-110680707D03*
D16*
X128297671Y-113220707D03*
X151157671Y-113220707D03*
D15*
X151157671Y-110680707D03*
D17*
X151157671Y-105600707D03*
D18*
X151157671Y-103060707D03*
X151157671Y-100520707D03*
X151157671Y-97980707D03*
X151157671Y-95440707D03*
X151157671Y-92900707D03*
X151157671Y-90360707D03*
X151157671Y-87820707D03*
D17*
X128297671Y-105600707D03*
D18*
X128297671Y-103060707D03*
X128297671Y-100520707D03*
X128297671Y-97980707D03*
X128297671Y-95440707D03*
X128297671Y-92900707D03*
X128297671Y-90360707D03*
X128297671Y-87820707D03*
D19*
X137822671Y-83345707D03*
X137822671Y-85280707D03*
X140362671Y-85280707D03*
X140362671Y-83345707D03*
D20*
X134965171Y-85628207D03*
D21*
G36*
X134665171Y-85078207D02*
X134665171Y-84728207D01*
X135265171Y-84728207D01*
X135265171Y-85078207D01*
X135715171Y-85078207D01*
X135715171Y-85628207D01*
X135714569Y-85628207D01*
X135714569Y-85652741D01*
X135709759Y-85701572D01*
X135700187Y-85749697D01*
X135685943Y-85796652D01*
X135667166Y-85841985D01*
X135644035Y-85885258D01*
X135616775Y-85926057D01*
X135585647Y-85963986D01*
X135550950Y-85998683D01*
X135513021Y-86029811D01*
X135472222Y-86057071D01*
X135428949Y-86080202D01*
X135383616Y-86098979D01*
X135336661Y-86113223D01*
X135288536Y-86122795D01*
X135239705Y-86127605D01*
X135215171Y-86127605D01*
X135215171Y-86128207D01*
X134715171Y-86128207D01*
X134715171Y-86127605D01*
X134690637Y-86127605D01*
X134641806Y-86122795D01*
X134593681Y-86113223D01*
X134546726Y-86098979D01*
X134501393Y-86080202D01*
X134458120Y-86057071D01*
X134417321Y-86029811D01*
X134379392Y-85998683D01*
X134344695Y-85963986D01*
X134313567Y-85926057D01*
X134286307Y-85885258D01*
X134263176Y-85841985D01*
X134244399Y-85796652D01*
X134230155Y-85749697D01*
X134220583Y-85701572D01*
X134215773Y-85652741D01*
X134215773Y-85628207D01*
X134215171Y-85628207D01*
X134215171Y-85078207D01*
X134665171Y-85078207D01*
X134665171Y-85078207D01*
G37*
D20*
X134965171Y-83028207D03*
D21*
G36*
X134215773Y-83028207D02*
X134215773Y-83003673D01*
X134220583Y-82954842D01*
X134230155Y-82906717D01*
X134244399Y-82859762D01*
X134263176Y-82814429D01*
X134286307Y-82771156D01*
X134313567Y-82730357D01*
X134344695Y-82692428D01*
X134379392Y-82657731D01*
X134417321Y-82626603D01*
X134458120Y-82599343D01*
X134501393Y-82576212D01*
X134546726Y-82557435D01*
X134593681Y-82543191D01*
X134641806Y-82533619D01*
X134690637Y-82528809D01*
X134715171Y-82528809D01*
X134715171Y-82528207D01*
X135215171Y-82528207D01*
X135215171Y-82528809D01*
X135239705Y-82528809D01*
X135288536Y-82533619D01*
X135336661Y-82543191D01*
X135383616Y-82557435D01*
X135428949Y-82576212D01*
X135472222Y-82599343D01*
X135513021Y-82626603D01*
X135550950Y-82657731D01*
X135585647Y-82692428D01*
X135616775Y-82730357D01*
X135644035Y-82771156D01*
X135667166Y-82814429D01*
X135685943Y-82859762D01*
X135700187Y-82906717D01*
X135709759Y-82954842D01*
X135714569Y-83003673D01*
X135714569Y-83028207D01*
X135715171Y-83028207D01*
X135715171Y-83578207D01*
X134215171Y-83578207D01*
X134215171Y-83028207D01*
X134215773Y-83028207D01*
X134215773Y-83028207D01*
G37*
D22*
X134965171Y-84328207D03*
D23*
X133060171Y-94140707D03*
X143797671Y-87350707D03*
X148797671Y-87350707D03*
X146797671Y-92850707D03*
X140257671Y-92940707D03*
X139047671Y-98850707D03*
X145797671Y-102850707D03*
X131547671Y-91350707D03*
X128297671Y-107505707D03*
X140797671Y-107600707D03*
X148297671Y-113350707D03*
X131297671Y-113350707D03*
X140797671Y-113350707D03*
X143797671Y-96350707D03*
X148797671Y-88350707D03*
X148797671Y-89350707D03*
X148797671Y-90350707D03*
X148797671Y-91350707D03*
X147797671Y-91350707D03*
X146797671Y-91350707D03*
X145797671Y-91350707D03*
X144797671Y-91350707D03*
X145797671Y-87350707D03*
X147797671Y-87350707D03*
X129567671Y-101790707D03*
X129567671Y-99250707D03*
X129567671Y-96710707D03*
X147030171Y-99250707D03*
X151157671Y-107505707D03*
X135797671Y-87350707D03*
X143797671Y-91350707D03*
X134797671Y-91350697D03*
X136797671Y-91350707D03*
X140680171Y-103378207D03*
X136870171Y-102108207D03*
X134647671Y-100838207D03*
X138775171Y-101473207D03*
D24*
X137822671Y-83345707D02*
X140362671Y-83345707D01*
X140362671Y-83345707D02*
X141920171Y-83345707D01*
X142695671Y-84132707D02*
X144257671Y-84132707D01*
X141920171Y-83357207D02*
X142695671Y-84132707D01*
X141920171Y-83345707D02*
X141920171Y-83357207D01*
D25*
X134797671Y-89350707D02*
X134797671Y-91350697D01*
X136797671Y-89350707D02*
X136797671Y-91350707D01*
D24*
X137822671Y-85280707D02*
X140362671Y-85280707D01*
X138797671Y-89850707D02*
X138775171Y-89873207D01*
X138797671Y-89350707D02*
X138797671Y-89850707D01*
X128297671Y-105600707D02*
X129250171Y-105600707D01*
X129250171Y-105600707D02*
X130837671Y-104013207D01*
X130837671Y-104013207D02*
X130837671Y-100520707D01*
X138797671Y-92560707D02*
X138797671Y-91018207D01*
X130837671Y-100520707D02*
X138797671Y-92560707D01*
X138797671Y-91018207D02*
X138797671Y-89350707D01*
X138797671Y-87495707D02*
X137822671Y-86520707D01*
X137822671Y-86520707D02*
X137822671Y-85280707D01*
X138797671Y-89350707D02*
X138797671Y-87495707D01*
D25*
X140797671Y-103495707D02*
X140797671Y-105350707D01*
X140680171Y-103378207D02*
X140797671Y-103495707D01*
X136797671Y-102180707D02*
X136797671Y-105350707D01*
X136870171Y-102108207D02*
X136797671Y-102180707D01*
X134797671Y-100988207D02*
X134797671Y-105350707D01*
X134647671Y-100838207D02*
X134797671Y-100988207D01*
X138775171Y-101473207D02*
X138775171Y-105328207D01*
X138775171Y-105328207D02*
X138797671Y-105350707D01*
X132820171Y-84328207D02*
X134323103Y-84328207D01*
X130202671Y-86945707D02*
X132820171Y-84328207D01*
X130202671Y-92265707D02*
X130202671Y-86945707D01*
X129567671Y-92900707D02*
X130202671Y-92265707D01*
X128297671Y-92900707D02*
X129567671Y-92900707D01*
X128297671Y-87820707D02*
X128297671Y-87503207D01*
X132772671Y-83028207D02*
X134965171Y-83028207D01*
X128297671Y-87503207D02*
X132772671Y-83028207D01*
X146797671Y-89350707D02*
X146797671Y-85148707D01*
D24*
X146797671Y-85148707D02*
X146797671Y-82350707D01*
D25*
X142797671Y-107765707D02*
X142797671Y-105350707D01*
X139882671Y-110680707D02*
X142797671Y-107765707D01*
X128297671Y-110680707D02*
X139882671Y-110680707D01*
D26*
X142797671Y-89350707D02*
X142797671Y-89850707D01*
D25*
X149297671Y-98390707D02*
X142797671Y-91890707D01*
X149297671Y-110180707D02*
X149297671Y-98390707D01*
X149797671Y-110680707D02*
X149297671Y-110180707D01*
X142797671Y-91890707D02*
X142797671Y-89350707D01*
X151157671Y-110680707D02*
X149797671Y-110680707D01*
D26*
X140797671Y-89350707D02*
X140797671Y-89850707D01*
D25*
X149907671Y-113220707D02*
X148367671Y-111680707D01*
X151157671Y-113220707D02*
X149907671Y-113220707D01*
X148367671Y-111680707D02*
X148367671Y-98750707D01*
X148367671Y-98750707D02*
X140797671Y-91180707D01*
X140797671Y-91180707D02*
X140797671Y-89350707D01*
X131402671Y-111575707D02*
X129757671Y-113220707D01*
X129757671Y-113220707D02*
X128297671Y-113220707D01*
X140402671Y-111575707D02*
X131402671Y-111575707D01*
X144797671Y-107180707D02*
X140402671Y-111575707D01*
X144797671Y-105350707D02*
X144797671Y-107180707D01*
X132797671Y-87795707D02*
X134965171Y-85628207D01*
X132797671Y-89350707D02*
X132797671Y-87795707D01*
D27*
G36*
X145947671Y-83834567D02*
X145865780Y-83957126D01*
X145830855Y-84132707D01*
X145830855Y-86164707D01*
X145865780Y-86340288D01*
X145965239Y-86489139D01*
X146114090Y-86588598D01*
X146147672Y-86595278D01*
X146147671Y-87921728D01*
X146122090Y-87926816D01*
X145973239Y-88026275D01*
X145873780Y-88175126D01*
X145838855Y-88350707D01*
X145838855Y-90350707D01*
X145873780Y-90526288D01*
X145973239Y-90675139D01*
X146122090Y-90774598D01*
X146297671Y-90809523D01*
X147297671Y-90809523D01*
X147473252Y-90774598D01*
X147622103Y-90675139D01*
X147721562Y-90526288D01*
X147756487Y-90350707D01*
X147756487Y-88350707D01*
X147721562Y-88175126D01*
X147622103Y-88026275D01*
X147473252Y-87926816D01*
X147447671Y-87921728D01*
X147447671Y-86595278D01*
X147481252Y-86588598D01*
X147630103Y-86489139D01*
X147729562Y-86340288D01*
X147764487Y-86164707D01*
X147764487Y-84399207D01*
X148125671Y-84399207D01*
X148125671Y-86254217D01*
X148194179Y-86419611D01*
X148320766Y-86546198D01*
X148486160Y-86614707D01*
X149071171Y-86614707D01*
X149183671Y-86502207D01*
X149183671Y-84286707D01*
X148238171Y-84286707D01*
X148125671Y-84399207D01*
X147764487Y-84399207D01*
X147764487Y-84132707D01*
X147729562Y-83957126D01*
X147647671Y-83834567D01*
X147647671Y-83450707D01*
X148125671Y-83450707D01*
X148125671Y-83866207D01*
X148238171Y-83978707D01*
X149183671Y-83978707D01*
X149183671Y-83958707D01*
X149491671Y-83958707D01*
X149491671Y-83978707D01*
X149511671Y-83978707D01*
X149511671Y-84286707D01*
X149491671Y-84286707D01*
X149491671Y-86502207D01*
X149604171Y-86614707D01*
X150189182Y-86614707D01*
X150354576Y-86546198D01*
X150480067Y-86420707D01*
X152103601Y-86420707D01*
X152103601Y-86829126D01*
X151684415Y-86549035D01*
X151290634Y-86470707D01*
X151024708Y-86470707D01*
X150630927Y-86549035D01*
X150184375Y-86847411D01*
X149885999Y-87293963D01*
X149781223Y-87820707D01*
X149885999Y-88347451D01*
X150184375Y-88794003D01*
X150628425Y-89090707D01*
X150184375Y-89387411D01*
X149885999Y-89833963D01*
X149781223Y-90360707D01*
X149885999Y-90887451D01*
X150184375Y-91334003D01*
X150628425Y-91630707D01*
X150184375Y-91927411D01*
X149885999Y-92373963D01*
X149781223Y-92900707D01*
X149885999Y-93427451D01*
X150184375Y-93874003D01*
X150628425Y-94170707D01*
X150184375Y-94467411D01*
X149885999Y-94913963D01*
X149781223Y-95440707D01*
X149885999Y-95967451D01*
X150184375Y-96414003D01*
X150628425Y-96710707D01*
X150184375Y-97007411D01*
X149885999Y-97453963D01*
X149786784Y-97952748D01*
X149766295Y-97922083D01*
X149712020Y-97885818D01*
X143447671Y-91621470D01*
X143447671Y-90779686D01*
X143473252Y-90774598D01*
X143622103Y-90675139D01*
X143721562Y-90526288D01*
X143756487Y-90350707D01*
X143756487Y-89617207D01*
X143847671Y-89617207D01*
X143847671Y-90440218D01*
X143916180Y-90605612D01*
X144042767Y-90732199D01*
X144208161Y-90800707D01*
X144531171Y-90800707D01*
X144643671Y-90688207D01*
X144643671Y-89504707D01*
X144951671Y-89504707D01*
X144951671Y-90688207D01*
X145064171Y-90800707D01*
X145387181Y-90800707D01*
X145552575Y-90732199D01*
X145679162Y-90605612D01*
X145747671Y-90440218D01*
X145747671Y-89617207D01*
X145635171Y-89504707D01*
X144951671Y-89504707D01*
X144643671Y-89504707D01*
X143960171Y-89504707D01*
X143847671Y-89617207D01*
X143756487Y-89617207D01*
X143756487Y-88350707D01*
X143738683Y-88261196D01*
X143847671Y-88261196D01*
X143847671Y-89084207D01*
X143960171Y-89196707D01*
X144643671Y-89196707D01*
X144643671Y-88013207D01*
X144951671Y-88013207D01*
X144951671Y-89196707D01*
X145635171Y-89196707D01*
X145747671Y-89084207D01*
X145747671Y-88261196D01*
X145679162Y-88095802D01*
X145552575Y-87969215D01*
X145387181Y-87900707D01*
X145064171Y-87900707D01*
X144951671Y-88013207D01*
X144643671Y-88013207D01*
X144531171Y-87900707D01*
X144208161Y-87900707D01*
X144042767Y-87969215D01*
X143916180Y-88095802D01*
X143847671Y-88261196D01*
X143738683Y-88261196D01*
X143721562Y-88175126D01*
X143622103Y-88026275D01*
X143473252Y-87926816D01*
X143297671Y-87891891D01*
X142297671Y-87891891D01*
X142122090Y-87926816D01*
X141973239Y-88026275D01*
X141873780Y-88175126D01*
X141838855Y-88350707D01*
X141838855Y-90350707D01*
X141873780Y-90526288D01*
X141973239Y-90675139D01*
X142122090Y-90774598D01*
X142147671Y-90779686D01*
X142147671Y-91611470D01*
X141447671Y-90911470D01*
X141447671Y-90779686D01*
X141473252Y-90774598D01*
X141622103Y-90675139D01*
X141721562Y-90526288D01*
X141756487Y-90350707D01*
X141756487Y-88350707D01*
X141721562Y-88175126D01*
X141622103Y-88026275D01*
X141473252Y-87926816D01*
X141297671Y-87891891D01*
X140297671Y-87891891D01*
X140122090Y-87926816D01*
X139973239Y-88026275D01*
X139873780Y-88175126D01*
X139838855Y-88350707D01*
X139838855Y-90350707D01*
X139873780Y-90526288D01*
X139973239Y-90675139D01*
X140122090Y-90774598D01*
X140147671Y-90779686D01*
X140147671Y-91116690D01*
X140134937Y-91180707D01*
X140147671Y-91244723D01*
X140147671Y-91244724D01*
X140185385Y-91434323D01*
X140329047Y-91649331D01*
X140383325Y-91685598D01*
X147717672Y-99019947D01*
X147717672Y-104188772D01*
X147679162Y-104095802D01*
X147552575Y-103969215D01*
X147387181Y-103900707D01*
X147064171Y-103900707D01*
X146951671Y-104013207D01*
X146951671Y-105196707D01*
X146971671Y-105196707D01*
X146971671Y-105504707D01*
X146951671Y-105504707D01*
X146951671Y-106688207D01*
X147064171Y-106800707D01*
X147387181Y-106800707D01*
X147552575Y-106732199D01*
X147679162Y-106605612D01*
X147717671Y-106512643D01*
X147717671Y-111616691D01*
X147704937Y-111680707D01*
X147717671Y-111744723D01*
X147717671Y-111744724D01*
X147755385Y-111934323D01*
X147899047Y-112149331D01*
X147953325Y-112185598D01*
X149402783Y-113635058D01*
X149439047Y-113689331D01*
X149654054Y-113832993D01*
X149843653Y-113870707D01*
X149843654Y-113870707D01*
X149848855Y-113871741D01*
X149848855Y-113931559D01*
X129606487Y-113961848D01*
X129606487Y-113870707D01*
X129693655Y-113870707D01*
X129757671Y-113883441D01*
X129821687Y-113870707D01*
X129821689Y-113870707D01*
X130011288Y-113832993D01*
X130226295Y-113689331D01*
X130262562Y-113635053D01*
X131671910Y-112225707D01*
X140338655Y-112225707D01*
X140402671Y-112238441D01*
X140466687Y-112225707D01*
X140466689Y-112225707D01*
X140656288Y-112187993D01*
X140871295Y-112044331D01*
X140907562Y-111990053D01*
X145212023Y-107685594D01*
X145266295Y-107649331D01*
X145357996Y-107512090D01*
X145409957Y-107434325D01*
X145460405Y-107180707D01*
X145447671Y-107116689D01*
X145447671Y-106779686D01*
X145473252Y-106774598D01*
X145622103Y-106675139D01*
X145721562Y-106526288D01*
X145756487Y-106350707D01*
X145756487Y-105617207D01*
X145847671Y-105617207D01*
X145847671Y-106440218D01*
X145916180Y-106605612D01*
X146042767Y-106732199D01*
X146208161Y-106800707D01*
X146531171Y-106800707D01*
X146643671Y-106688207D01*
X146643671Y-105504707D01*
X145960171Y-105504707D01*
X145847671Y-105617207D01*
X145756487Y-105617207D01*
X145756487Y-104350707D01*
X145738683Y-104261196D01*
X145847671Y-104261196D01*
X145847671Y-105084207D01*
X145960171Y-105196707D01*
X146643671Y-105196707D01*
X146643671Y-104013207D01*
X146531171Y-103900707D01*
X146208161Y-103900707D01*
X146042767Y-103969215D01*
X145916180Y-104095802D01*
X145847671Y-104261196D01*
X145738683Y-104261196D01*
X145721562Y-104175126D01*
X145622103Y-104026275D01*
X145473252Y-103926816D01*
X145297671Y-103891891D01*
X144297671Y-103891891D01*
X144122090Y-103926816D01*
X143973239Y-104026275D01*
X143873780Y-104175126D01*
X143838855Y-104350707D01*
X143838855Y-106350707D01*
X143873780Y-106526288D01*
X143973239Y-106675139D01*
X144122090Y-106774598D01*
X144147672Y-106779686D01*
X144147672Y-106911467D01*
X143447671Y-107611468D01*
X143447671Y-106779686D01*
X143473252Y-106774598D01*
X143622103Y-106675139D01*
X143721562Y-106526288D01*
X143756487Y-106350707D01*
X143756487Y-104350707D01*
X143721562Y-104175126D01*
X143622103Y-104026275D01*
X143473252Y-103926816D01*
X143297671Y-103891891D01*
X142297671Y-103891891D01*
X142122090Y-103926816D01*
X141973239Y-104026275D01*
X141873780Y-104175126D01*
X141838855Y-104350707D01*
X141838855Y-106350707D01*
X141873780Y-106526288D01*
X141973239Y-106675139D01*
X142122090Y-106774598D01*
X142147671Y-106779686D01*
X142147671Y-107496468D01*
X139613434Y-110030707D01*
X129426851Y-110030707D01*
X129234918Y-109743460D01*
X128804906Y-109456134D01*
X128425708Y-109380707D01*
X128169634Y-109380707D01*
X127790436Y-109456134D01*
X127544382Y-109620543D01*
X127539852Y-106959523D01*
X129197671Y-106959523D01*
X129373252Y-106924598D01*
X129522103Y-106825139D01*
X129621562Y-106676288D01*
X129656487Y-106500707D01*
X129656487Y-106351501D01*
X129862987Y-106213523D01*
X129910410Y-106142549D01*
X130435752Y-105617207D01*
X131847671Y-105617207D01*
X131847671Y-106440218D01*
X131916180Y-106605612D01*
X132042767Y-106732199D01*
X132208161Y-106800707D01*
X132531171Y-106800707D01*
X132643671Y-106688207D01*
X132643671Y-105504707D01*
X132951671Y-105504707D01*
X132951671Y-106688207D01*
X133064171Y-106800707D01*
X133387181Y-106800707D01*
X133552575Y-106732199D01*
X133679162Y-106605612D01*
X133747671Y-106440218D01*
X133747671Y-105617207D01*
X133635171Y-105504707D01*
X132951671Y-105504707D01*
X132643671Y-105504707D01*
X131960171Y-105504707D01*
X131847671Y-105617207D01*
X130435752Y-105617207D01*
X131379516Y-104673444D01*
X131450487Y-104626023D01*
X131638353Y-104344860D01*
X131654994Y-104261196D01*
X131847671Y-104261196D01*
X131847671Y-105084207D01*
X131960171Y-105196707D01*
X132643671Y-105196707D01*
X132643671Y-104013207D01*
X132951671Y-104013207D01*
X132951671Y-105196707D01*
X133635171Y-105196707D01*
X133747671Y-105084207D01*
X133747671Y-104350707D01*
X133838855Y-104350707D01*
X133838855Y-106350707D01*
X133873780Y-106526288D01*
X133973239Y-106675139D01*
X134122090Y-106774598D01*
X134297671Y-106809523D01*
X135297671Y-106809523D01*
X135473252Y-106774598D01*
X135622103Y-106675139D01*
X135721562Y-106526288D01*
X135756487Y-106350707D01*
X135756487Y-104350707D01*
X135838855Y-104350707D01*
X135838855Y-106350707D01*
X135873780Y-106526288D01*
X135973239Y-106675139D01*
X136122090Y-106774598D01*
X136297671Y-106809523D01*
X137297671Y-106809523D01*
X137473252Y-106774598D01*
X137622103Y-106675139D01*
X137721562Y-106526288D01*
X137756487Y-106350707D01*
X137756487Y-104350707D01*
X137838855Y-104350707D01*
X137838855Y-106350707D01*
X137873780Y-106526288D01*
X137973239Y-106675139D01*
X138122090Y-106774598D01*
X138297671Y-106809523D01*
X139297671Y-106809523D01*
X139473252Y-106774598D01*
X139622103Y-106675139D01*
X139721562Y-106526288D01*
X139756487Y-106350707D01*
X139756487Y-104350707D01*
X139838855Y-104350707D01*
X139838855Y-106350707D01*
X139873780Y-106526288D01*
X139973239Y-106675139D01*
X140122090Y-106774598D01*
X140297671Y-106809523D01*
X141297671Y-106809523D01*
X141473252Y-106774598D01*
X141622103Y-106675139D01*
X141721562Y-106526288D01*
X141756487Y-106350707D01*
X141756487Y-104350707D01*
X141721562Y-104175126D01*
X141622103Y-104026275D01*
X141473252Y-103926816D01*
X141447671Y-103921728D01*
X141447671Y-103597246D01*
X141473071Y-103535925D01*
X141473071Y-103220489D01*
X141352359Y-102929065D01*
X141129313Y-102706019D01*
X140837889Y-102585307D01*
X140522453Y-102585307D01*
X140231029Y-102706019D01*
X140007983Y-102929065D01*
X139887271Y-103220489D01*
X139887271Y-103535925D01*
X140007983Y-103827349D01*
X140113314Y-103932680D01*
X139973239Y-104026275D01*
X139873780Y-104175126D01*
X139838855Y-104350707D01*
X139756487Y-104350707D01*
X139721562Y-104175126D01*
X139622103Y-104026275D01*
X139473252Y-103926816D01*
X139425171Y-103917252D01*
X139425171Y-101944537D01*
X139447359Y-101922349D01*
X139568071Y-101630925D01*
X139568071Y-101315489D01*
X139447359Y-101024065D01*
X139224313Y-100801019D01*
X138932889Y-100680307D01*
X138617453Y-100680307D01*
X138326029Y-100801019D01*
X138102983Y-101024065D01*
X137982271Y-101315489D01*
X137982271Y-101630925D01*
X138102983Y-101922349D01*
X138125171Y-101944537D01*
X138125172Y-103926203D01*
X138122090Y-103926816D01*
X137973239Y-104026275D01*
X137873780Y-104175126D01*
X137838855Y-104350707D01*
X137756487Y-104350707D01*
X137721562Y-104175126D01*
X137622103Y-104026275D01*
X137473252Y-103926816D01*
X137447671Y-103921728D01*
X137447671Y-102652037D01*
X137542359Y-102557349D01*
X137663071Y-102265925D01*
X137663071Y-101950489D01*
X137542359Y-101659065D01*
X137319313Y-101436019D01*
X137027889Y-101315307D01*
X136712453Y-101315307D01*
X136421029Y-101436019D01*
X136197983Y-101659065D01*
X136077271Y-101950489D01*
X136077271Y-102265925D01*
X136147671Y-102435886D01*
X136147672Y-103921728D01*
X136122090Y-103926816D01*
X135973239Y-104026275D01*
X135873780Y-104175126D01*
X135838855Y-104350707D01*
X135756487Y-104350707D01*
X135721562Y-104175126D01*
X135622103Y-104026275D01*
X135473252Y-103926816D01*
X135447671Y-103921728D01*
X135447671Y-101052223D01*
X135460405Y-100988206D01*
X135440571Y-100888497D01*
X135440571Y-100680489D01*
X135319859Y-100389065D01*
X135096813Y-100166019D01*
X134805389Y-100045307D01*
X134489953Y-100045307D01*
X134198529Y-100166019D01*
X133975483Y-100389065D01*
X133854771Y-100680489D01*
X133854771Y-100995925D01*
X133975483Y-101287349D01*
X134147671Y-101459537D01*
X134147672Y-103921728D01*
X134122090Y-103926816D01*
X133973239Y-104026275D01*
X133873780Y-104175126D01*
X133838855Y-104350707D01*
X133747671Y-104350707D01*
X133747671Y-104261196D01*
X133679162Y-104095802D01*
X133552575Y-103969215D01*
X133387181Y-103900707D01*
X133064171Y-103900707D01*
X132951671Y-104013207D01*
X132643671Y-104013207D01*
X132531171Y-103900707D01*
X132208161Y-103900707D01*
X132042767Y-103969215D01*
X131916180Y-104095802D01*
X131847671Y-104261196D01*
X131654994Y-104261196D01*
X131687671Y-104096922D01*
X131687671Y-104096921D01*
X131704323Y-104013208D01*
X131687671Y-103929494D01*
X131687671Y-100872788D01*
X139339516Y-93220944D01*
X139410487Y-93173523D01*
X139598353Y-92892360D01*
X139647671Y-92644422D01*
X139647671Y-92644421D01*
X139664323Y-92560707D01*
X139647671Y-92476993D01*
X139647671Y-90636874D01*
X139721562Y-90526288D01*
X139756487Y-90350707D01*
X139756487Y-88350707D01*
X139721562Y-88175126D01*
X139647671Y-88064540D01*
X139647671Y-87579420D01*
X139664323Y-87495706D01*
X139641577Y-87381356D01*
X139598353Y-87164054D01*
X139410487Y-86882891D01*
X139339516Y-86835470D01*
X138924752Y-86420707D01*
X143115275Y-86420707D01*
X143240766Y-86546198D01*
X143406160Y-86614707D01*
X143991171Y-86614707D01*
X144103671Y-86502207D01*
X144103671Y-84286707D01*
X144411671Y-84286707D01*
X144411671Y-86502207D01*
X144524171Y-86614707D01*
X145109182Y-86614707D01*
X145274576Y-86546198D01*
X145401163Y-86419611D01*
X145469671Y-86254217D01*
X145469671Y-84399207D01*
X145357171Y-84286707D01*
X144411671Y-84286707D01*
X144103671Y-84286707D01*
X144083671Y-84286707D01*
X144083671Y-83978707D01*
X144103671Y-83978707D01*
X144103671Y-83958707D01*
X144411671Y-83958707D01*
X144411671Y-83978707D01*
X145357171Y-83978707D01*
X145469671Y-83866207D01*
X145469671Y-83450707D01*
X145947672Y-83450707D01*
X145947671Y-83834567D01*
X145947671Y-83834567D01*
G37*
X145947671Y-83834567D02*
X145865780Y-83957126D01*
X145830855Y-84132707D01*
X145830855Y-86164707D01*
X145865780Y-86340288D01*
X145965239Y-86489139D01*
X146114090Y-86588598D01*
X146147672Y-86595278D01*
X146147671Y-87921728D01*
X146122090Y-87926816D01*
X145973239Y-88026275D01*
X145873780Y-88175126D01*
X145838855Y-88350707D01*
X145838855Y-90350707D01*
X145873780Y-90526288D01*
X145973239Y-90675139D01*
X146122090Y-90774598D01*
X146297671Y-90809523D01*
X147297671Y-90809523D01*
X147473252Y-90774598D01*
X147622103Y-90675139D01*
X147721562Y-90526288D01*
X147756487Y-90350707D01*
X147756487Y-88350707D01*
X147721562Y-88175126D01*
X147622103Y-88026275D01*
X147473252Y-87926816D01*
X147447671Y-87921728D01*
X147447671Y-86595278D01*
X147481252Y-86588598D01*
X147630103Y-86489139D01*
X147729562Y-86340288D01*
X147764487Y-86164707D01*
X147764487Y-84399207D01*
X148125671Y-84399207D01*
X148125671Y-86254217D01*
X148194179Y-86419611D01*
X148320766Y-86546198D01*
X148486160Y-86614707D01*
X149071171Y-86614707D01*
X149183671Y-86502207D01*
X149183671Y-84286707D01*
X148238171Y-84286707D01*
X148125671Y-84399207D01*
X147764487Y-84399207D01*
X147764487Y-84132707D01*
X147729562Y-83957126D01*
X147647671Y-83834567D01*
X147647671Y-83450707D01*
X148125671Y-83450707D01*
X148125671Y-83866207D01*
X148238171Y-83978707D01*
X149183671Y-83978707D01*
X149183671Y-83958707D01*
X149491671Y-83958707D01*
X149491671Y-83978707D01*
X149511671Y-83978707D01*
X149511671Y-84286707D01*
X149491671Y-84286707D01*
X149491671Y-86502207D01*
X149604171Y-86614707D01*
X150189182Y-86614707D01*
X150354576Y-86546198D01*
X150480067Y-86420707D01*
X152103601Y-86420707D01*
X152103601Y-86829126D01*
X151684415Y-86549035D01*
X151290634Y-86470707D01*
X151024708Y-86470707D01*
X150630927Y-86549035D01*
X150184375Y-86847411D01*
X149885999Y-87293963D01*
X149781223Y-87820707D01*
X149885999Y-88347451D01*
X150184375Y-88794003D01*
X150628425Y-89090707D01*
X150184375Y-89387411D01*
X149885999Y-89833963D01*
X149781223Y-90360707D01*
X149885999Y-90887451D01*
X150184375Y-91334003D01*
X150628425Y-91630707D01*
X150184375Y-91927411D01*
X149885999Y-92373963D01*
X149781223Y-92900707D01*
X149885999Y-93427451D01*
X150184375Y-93874003D01*
X150628425Y-94170707D01*
X150184375Y-94467411D01*
X149885999Y-94913963D01*
X149781223Y-95440707D01*
X149885999Y-95967451D01*
X150184375Y-96414003D01*
X150628425Y-96710707D01*
X150184375Y-97007411D01*
X149885999Y-97453963D01*
X149786784Y-97952748D01*
X149766295Y-97922083D01*
X149712020Y-97885818D01*
X143447671Y-91621470D01*
X143447671Y-90779686D01*
X143473252Y-90774598D01*
X143622103Y-90675139D01*
X143721562Y-90526288D01*
X143756487Y-90350707D01*
X143756487Y-89617207D01*
X143847671Y-89617207D01*
X143847671Y-90440218D01*
X143916180Y-90605612D01*
X144042767Y-90732199D01*
X144208161Y-90800707D01*
X144531171Y-90800707D01*
X144643671Y-90688207D01*
X144643671Y-89504707D01*
X144951671Y-89504707D01*
X144951671Y-90688207D01*
X145064171Y-90800707D01*
X145387181Y-90800707D01*
X145552575Y-90732199D01*
X145679162Y-90605612D01*
X145747671Y-90440218D01*
X145747671Y-89617207D01*
X145635171Y-89504707D01*
X144951671Y-89504707D01*
X144643671Y-89504707D01*
X143960171Y-89504707D01*
X143847671Y-89617207D01*
X143756487Y-89617207D01*
X143756487Y-88350707D01*
X143738683Y-88261196D01*
X143847671Y-88261196D01*
X143847671Y-89084207D01*
X143960171Y-89196707D01*
X144643671Y-89196707D01*
X144643671Y-88013207D01*
X144951671Y-88013207D01*
X144951671Y-89196707D01*
X145635171Y-89196707D01*
X145747671Y-89084207D01*
X145747671Y-88261196D01*
X145679162Y-88095802D01*
X145552575Y-87969215D01*
X145387181Y-87900707D01*
X145064171Y-87900707D01*
X144951671Y-88013207D01*
X144643671Y-88013207D01*
X144531171Y-87900707D01*
X144208161Y-87900707D01*
X144042767Y-87969215D01*
X143916180Y-88095802D01*
X143847671Y-88261196D01*
X143738683Y-88261196D01*
X143721562Y-88175126D01*
X143622103Y-88026275D01*
X143473252Y-87926816D01*
X143297671Y-87891891D01*
X142297671Y-87891891D01*
X142122090Y-87926816D01*
X141973239Y-88026275D01*
X141873780Y-88175126D01*
X141838855Y-88350707D01*
X141838855Y-90350707D01*
X141873780Y-90526288D01*
X141973239Y-90675139D01*
X142122090Y-90774598D01*
X142147671Y-90779686D01*
X142147671Y-91611470D01*
X141447671Y-90911470D01*
X141447671Y-90779686D01*
X141473252Y-90774598D01*
X141622103Y-90675139D01*
X141721562Y-90526288D01*
X141756487Y-90350707D01*
X141756487Y-88350707D01*
X141721562Y-88175126D01*
X141622103Y-88026275D01*
X141473252Y-87926816D01*
X141297671Y-87891891D01*
X140297671Y-87891891D01*
X140122090Y-87926816D01*
X139973239Y-88026275D01*
X139873780Y-88175126D01*
X139838855Y-88350707D01*
X139838855Y-90350707D01*
X139873780Y-90526288D01*
X139973239Y-90675139D01*
X140122090Y-90774598D01*
X140147671Y-90779686D01*
X140147671Y-91116690D01*
X140134937Y-91180707D01*
X140147671Y-91244723D01*
X140147671Y-91244724D01*
X140185385Y-91434323D01*
X140329047Y-91649331D01*
X140383325Y-91685598D01*
X147717672Y-99019947D01*
X147717672Y-104188772D01*
X147679162Y-104095802D01*
X147552575Y-103969215D01*
X147387181Y-103900707D01*
X147064171Y-103900707D01*
X146951671Y-104013207D01*
X146951671Y-105196707D01*
X146971671Y-105196707D01*
X146971671Y-105504707D01*
X146951671Y-105504707D01*
X146951671Y-106688207D01*
X147064171Y-106800707D01*
X147387181Y-106800707D01*
X147552575Y-106732199D01*
X147679162Y-106605612D01*
X147717671Y-106512643D01*
X147717671Y-111616691D01*
X147704937Y-111680707D01*
X147717671Y-111744723D01*
X147717671Y-111744724D01*
X147755385Y-111934323D01*
X147899047Y-112149331D01*
X147953325Y-112185598D01*
X149402783Y-113635058D01*
X149439047Y-113689331D01*
X149654054Y-113832993D01*
X149843653Y-113870707D01*
X149843654Y-113870707D01*
X149848855Y-113871741D01*
X149848855Y-113931559D01*
X129606487Y-113961848D01*
X129606487Y-113870707D01*
X129693655Y-113870707D01*
X129757671Y-113883441D01*
X129821687Y-113870707D01*
X129821689Y-113870707D01*
X130011288Y-113832993D01*
X130226295Y-113689331D01*
X130262562Y-113635053D01*
X131671910Y-112225707D01*
X140338655Y-112225707D01*
X140402671Y-112238441D01*
X140466687Y-112225707D01*
X140466689Y-112225707D01*
X140656288Y-112187993D01*
X140871295Y-112044331D01*
X140907562Y-111990053D01*
X145212023Y-107685594D01*
X145266295Y-107649331D01*
X145357996Y-107512090D01*
X145409957Y-107434325D01*
X145460405Y-107180707D01*
X145447671Y-107116689D01*
X145447671Y-106779686D01*
X145473252Y-106774598D01*
X145622103Y-106675139D01*
X145721562Y-106526288D01*
X145756487Y-106350707D01*
X145756487Y-105617207D01*
X145847671Y-105617207D01*
X145847671Y-106440218D01*
X145916180Y-106605612D01*
X146042767Y-106732199D01*
X146208161Y-106800707D01*
X146531171Y-106800707D01*
X146643671Y-106688207D01*
X146643671Y-105504707D01*
X145960171Y-105504707D01*
X145847671Y-105617207D01*
X145756487Y-105617207D01*
X145756487Y-104350707D01*
X145738683Y-104261196D01*
X145847671Y-104261196D01*
X145847671Y-105084207D01*
X145960171Y-105196707D01*
X146643671Y-105196707D01*
X146643671Y-104013207D01*
X146531171Y-103900707D01*
X146208161Y-103900707D01*
X146042767Y-103969215D01*
X145916180Y-104095802D01*
X145847671Y-104261196D01*
X145738683Y-104261196D01*
X145721562Y-104175126D01*
X145622103Y-104026275D01*
X145473252Y-103926816D01*
X145297671Y-103891891D01*
X144297671Y-103891891D01*
X144122090Y-103926816D01*
X143973239Y-104026275D01*
X143873780Y-104175126D01*
X143838855Y-104350707D01*
X143838855Y-106350707D01*
X143873780Y-106526288D01*
X143973239Y-106675139D01*
X144122090Y-106774598D01*
X144147672Y-106779686D01*
X144147672Y-106911467D01*
X143447671Y-107611468D01*
X143447671Y-106779686D01*
X143473252Y-106774598D01*
X143622103Y-106675139D01*
X143721562Y-106526288D01*
X143756487Y-106350707D01*
X143756487Y-104350707D01*
X143721562Y-104175126D01*
X143622103Y-104026275D01*
X143473252Y-103926816D01*
X143297671Y-103891891D01*
X142297671Y-103891891D01*
X142122090Y-103926816D01*
X141973239Y-104026275D01*
X141873780Y-104175126D01*
X141838855Y-104350707D01*
X141838855Y-106350707D01*
X141873780Y-106526288D01*
X141973239Y-106675139D01*
X142122090Y-106774598D01*
X142147671Y-106779686D01*
X142147671Y-107496468D01*
X139613434Y-110030707D01*
X129426851Y-110030707D01*
X129234918Y-109743460D01*
X128804906Y-109456134D01*
X128425708Y-109380707D01*
X128169634Y-109380707D01*
X127790436Y-109456134D01*
X127544382Y-109620543D01*
X127539852Y-106959523D01*
X129197671Y-106959523D01*
X129373252Y-106924598D01*
X129522103Y-106825139D01*
X129621562Y-106676288D01*
X129656487Y-106500707D01*
X129656487Y-106351501D01*
X129862987Y-106213523D01*
X129910410Y-106142549D01*
X130435752Y-105617207D01*
X131847671Y-105617207D01*
X131847671Y-106440218D01*
X131916180Y-106605612D01*
X132042767Y-106732199D01*
X132208161Y-106800707D01*
X132531171Y-106800707D01*
X132643671Y-106688207D01*
X132643671Y-105504707D01*
X132951671Y-105504707D01*
X132951671Y-106688207D01*
X133064171Y-106800707D01*
X133387181Y-106800707D01*
X133552575Y-106732199D01*
X133679162Y-106605612D01*
X133747671Y-106440218D01*
X133747671Y-105617207D01*
X133635171Y-105504707D01*
X132951671Y-105504707D01*
X132643671Y-105504707D01*
X131960171Y-105504707D01*
X131847671Y-105617207D01*
X130435752Y-105617207D01*
X131379516Y-104673444D01*
X131450487Y-104626023D01*
X131638353Y-104344860D01*
X131654994Y-104261196D01*
X131847671Y-104261196D01*
X131847671Y-105084207D01*
X131960171Y-105196707D01*
X132643671Y-105196707D01*
X132643671Y-104013207D01*
X132951671Y-104013207D01*
X132951671Y-105196707D01*
X133635171Y-105196707D01*
X133747671Y-105084207D01*
X133747671Y-104350707D01*
X133838855Y-104350707D01*
X133838855Y-106350707D01*
X133873780Y-106526288D01*
X133973239Y-106675139D01*
X134122090Y-106774598D01*
X134297671Y-106809523D01*
X135297671Y-106809523D01*
X135473252Y-106774598D01*
X135622103Y-106675139D01*
X135721562Y-106526288D01*
X135756487Y-106350707D01*
X135756487Y-104350707D01*
X135838855Y-104350707D01*
X135838855Y-106350707D01*
X135873780Y-106526288D01*
X135973239Y-106675139D01*
X136122090Y-106774598D01*
X136297671Y-106809523D01*
X137297671Y-106809523D01*
X137473252Y-106774598D01*
X137622103Y-106675139D01*
X137721562Y-106526288D01*
X137756487Y-106350707D01*
X137756487Y-104350707D01*
X137838855Y-104350707D01*
X137838855Y-106350707D01*
X137873780Y-106526288D01*
X137973239Y-106675139D01*
X138122090Y-106774598D01*
X138297671Y-106809523D01*
X139297671Y-106809523D01*
X139473252Y-106774598D01*
X139622103Y-106675139D01*
X139721562Y-106526288D01*
X139756487Y-106350707D01*
X139756487Y-104350707D01*
X139838855Y-104350707D01*
X139838855Y-106350707D01*
X139873780Y-106526288D01*
X139973239Y-106675139D01*
X140122090Y-106774598D01*
X140297671Y-106809523D01*
X141297671Y-106809523D01*
X141473252Y-106774598D01*
X141622103Y-106675139D01*
X141721562Y-106526288D01*
X141756487Y-106350707D01*
X141756487Y-104350707D01*
X141721562Y-104175126D01*
X141622103Y-104026275D01*
X141473252Y-103926816D01*
X141447671Y-103921728D01*
X141447671Y-103597246D01*
X141473071Y-103535925D01*
X141473071Y-103220489D01*
X141352359Y-102929065D01*
X141129313Y-102706019D01*
X140837889Y-102585307D01*
X140522453Y-102585307D01*
X140231029Y-102706019D01*
X140007983Y-102929065D01*
X139887271Y-103220489D01*
X139887271Y-103535925D01*
X140007983Y-103827349D01*
X140113314Y-103932680D01*
X139973239Y-104026275D01*
X139873780Y-104175126D01*
X139838855Y-104350707D01*
X139756487Y-104350707D01*
X139721562Y-104175126D01*
X139622103Y-104026275D01*
X139473252Y-103926816D01*
X139425171Y-103917252D01*
X139425171Y-101944537D01*
X139447359Y-101922349D01*
X139568071Y-101630925D01*
X139568071Y-101315489D01*
X139447359Y-101024065D01*
X139224313Y-100801019D01*
X138932889Y-100680307D01*
X138617453Y-100680307D01*
X138326029Y-100801019D01*
X138102983Y-101024065D01*
X137982271Y-101315489D01*
X137982271Y-101630925D01*
X138102983Y-101922349D01*
X138125171Y-101944537D01*
X138125172Y-103926203D01*
X138122090Y-103926816D01*
X137973239Y-104026275D01*
X137873780Y-104175126D01*
X137838855Y-104350707D01*
X137756487Y-104350707D01*
X137721562Y-104175126D01*
X137622103Y-104026275D01*
X137473252Y-103926816D01*
X137447671Y-103921728D01*
X137447671Y-102652037D01*
X137542359Y-102557349D01*
X137663071Y-102265925D01*
X137663071Y-101950489D01*
X137542359Y-101659065D01*
X137319313Y-101436019D01*
X137027889Y-101315307D01*
X136712453Y-101315307D01*
X136421029Y-101436019D01*
X136197983Y-101659065D01*
X136077271Y-101950489D01*
X136077271Y-102265925D01*
X136147671Y-102435886D01*
X136147672Y-103921728D01*
X136122090Y-103926816D01*
X135973239Y-104026275D01*
X135873780Y-104175126D01*
X135838855Y-104350707D01*
X135756487Y-104350707D01*
X135721562Y-104175126D01*
X135622103Y-104026275D01*
X135473252Y-103926816D01*
X135447671Y-103921728D01*
X135447671Y-101052223D01*
X135460405Y-100988206D01*
X135440571Y-100888497D01*
X135440571Y-100680489D01*
X135319859Y-100389065D01*
X135096813Y-100166019D01*
X134805389Y-100045307D01*
X134489953Y-100045307D01*
X134198529Y-100166019D01*
X133975483Y-100389065D01*
X133854771Y-100680489D01*
X133854771Y-100995925D01*
X133975483Y-101287349D01*
X134147671Y-101459537D01*
X134147672Y-103921728D01*
X134122090Y-103926816D01*
X133973239Y-104026275D01*
X133873780Y-104175126D01*
X133838855Y-104350707D01*
X133747671Y-104350707D01*
X133747671Y-104261196D01*
X133679162Y-104095802D01*
X133552575Y-103969215D01*
X133387181Y-103900707D01*
X133064171Y-103900707D01*
X132951671Y-104013207D01*
X132643671Y-104013207D01*
X132531171Y-103900707D01*
X132208161Y-103900707D01*
X132042767Y-103969215D01*
X131916180Y-104095802D01*
X131847671Y-104261196D01*
X131654994Y-104261196D01*
X131687671Y-104096922D01*
X131687671Y-104096921D01*
X131704323Y-104013208D01*
X131687671Y-103929494D01*
X131687671Y-100872788D01*
X139339516Y-93220944D01*
X139410487Y-93173523D01*
X139598353Y-92892360D01*
X139647671Y-92644422D01*
X139647671Y-92644421D01*
X139664323Y-92560707D01*
X139647671Y-92476993D01*
X139647671Y-90636874D01*
X139721562Y-90526288D01*
X139756487Y-90350707D01*
X139756487Y-88350707D01*
X139721562Y-88175126D01*
X139647671Y-88064540D01*
X139647671Y-87579420D01*
X139664323Y-87495706D01*
X139641577Y-87381356D01*
X139598353Y-87164054D01*
X139410487Y-86882891D01*
X139339516Y-86835470D01*
X138924752Y-86420707D01*
X143115275Y-86420707D01*
X143240766Y-86546198D01*
X143406160Y-86614707D01*
X143991171Y-86614707D01*
X144103671Y-86502207D01*
X144103671Y-84286707D01*
X144411671Y-84286707D01*
X144411671Y-86502207D01*
X144524171Y-86614707D01*
X145109182Y-86614707D01*
X145274576Y-86546198D01*
X145401163Y-86419611D01*
X145469671Y-86254217D01*
X145469671Y-84399207D01*
X145357171Y-84286707D01*
X144411671Y-84286707D01*
X144103671Y-84286707D01*
X144083671Y-84286707D01*
X144083671Y-83978707D01*
X144103671Y-83978707D01*
X144103671Y-83958707D01*
X144411671Y-83958707D01*
X144411671Y-83978707D01*
X145357171Y-83978707D01*
X145469671Y-83866207D01*
X145469671Y-83450707D01*
X145947672Y-83450707D01*
X145947671Y-83834567D01*
G36*
X150082090Y-106924598D02*
X150257671Y-106959523D01*
X152057671Y-106959523D01*
X152103600Y-106950387D01*
X152103600Y-109756454D01*
X152094918Y-109743460D01*
X151664906Y-109456134D01*
X151285708Y-109380707D01*
X151029634Y-109380707D01*
X150650436Y-109456134D01*
X150220424Y-109743460D01*
X150043879Y-110007677D01*
X149947671Y-109911469D01*
X149947671Y-106834782D01*
X150082090Y-106924598D01*
X150082090Y-106924598D01*
G37*
X150082090Y-106924598D02*
X150257671Y-106959523D01*
X152057671Y-106959523D01*
X152103600Y-106950387D01*
X152103600Y-109756454D01*
X152094918Y-109743460D01*
X151664906Y-109456134D01*
X151285708Y-109380707D01*
X151029634Y-109380707D01*
X150650436Y-109456134D01*
X150220424Y-109743460D01*
X150043879Y-110007677D01*
X149947671Y-109911469D01*
X149947671Y-106834782D01*
X150082090Y-106924598D01*
G36*
X132383323Y-87290818D02*
X132329048Y-87327083D01*
X132246522Y-87450593D01*
X132185386Y-87542090D01*
X132134937Y-87795707D01*
X132147672Y-87859728D01*
X132147672Y-87921727D01*
X132122090Y-87926816D01*
X131973239Y-88026275D01*
X131873780Y-88175126D01*
X131838855Y-88350707D01*
X131838855Y-90350707D01*
X131873780Y-90526288D01*
X131973239Y-90675139D01*
X132122090Y-90774598D01*
X132297671Y-90809523D01*
X133297671Y-90809523D01*
X133473252Y-90774598D01*
X133622103Y-90675139D01*
X133721562Y-90526288D01*
X133756487Y-90350707D01*
X133756487Y-88350707D01*
X133838855Y-88350707D01*
X133838855Y-90350707D01*
X133873780Y-90526288D01*
X133973239Y-90675139D01*
X134122090Y-90774598D01*
X134147672Y-90779686D01*
X134147672Y-90879366D01*
X134125483Y-90901555D01*
X134004771Y-91192979D01*
X134004771Y-91508415D01*
X134125483Y-91799839D01*
X134348529Y-92022885D01*
X134639953Y-92143597D01*
X134955389Y-92143597D01*
X135246813Y-92022885D01*
X135469859Y-91799839D01*
X135590571Y-91508415D01*
X135590571Y-91192979D01*
X135469859Y-90901555D01*
X135447671Y-90879367D01*
X135447671Y-90779686D01*
X135473252Y-90774598D01*
X135622103Y-90675139D01*
X135721562Y-90526288D01*
X135756487Y-90350707D01*
X135756487Y-88350707D01*
X135838855Y-88350707D01*
X135838855Y-90350707D01*
X135873780Y-90526288D01*
X135973239Y-90675139D01*
X136122090Y-90774598D01*
X136147672Y-90779686D01*
X136147672Y-90879376D01*
X136125483Y-90901565D01*
X136004771Y-91192989D01*
X136004771Y-91508425D01*
X136125483Y-91799849D01*
X136348529Y-92022895D01*
X136639953Y-92143607D01*
X136955389Y-92143607D01*
X137246813Y-92022895D01*
X137469859Y-91799849D01*
X137590571Y-91508425D01*
X137590571Y-91192989D01*
X137469859Y-90901565D01*
X137447671Y-90879377D01*
X137447671Y-90779686D01*
X137473252Y-90774598D01*
X137622103Y-90675139D01*
X137721562Y-90526288D01*
X137756487Y-90350707D01*
X137756487Y-88350707D01*
X137721562Y-88175126D01*
X137622103Y-88026275D01*
X137473252Y-87926816D01*
X137297671Y-87891891D01*
X136297671Y-87891891D01*
X136122090Y-87926816D01*
X135973239Y-88026275D01*
X135873780Y-88175126D01*
X135838855Y-88350707D01*
X135756487Y-88350707D01*
X135721562Y-88175126D01*
X135622103Y-88026275D01*
X135473252Y-87926816D01*
X135297671Y-87891891D01*
X134297671Y-87891891D01*
X134122090Y-87926816D01*
X133973239Y-88026275D01*
X133873780Y-88175126D01*
X133838855Y-88350707D01*
X133756487Y-88350707D01*
X133721562Y-88175126D01*
X133622103Y-88026275D01*
X133540719Y-87971896D01*
X134925594Y-86587023D01*
X135215171Y-86587023D01*
X135227277Y-86584615D01*
X135264180Y-86584615D01*
X135353690Y-86575799D01*
X135449823Y-86556677D01*
X135535892Y-86530569D01*
X135626448Y-86493060D01*
X135705774Y-86450659D01*
X135750600Y-86420707D01*
X136972671Y-86420707D01*
X136972671Y-86436993D01*
X136956019Y-86520707D01*
X136972671Y-86604421D01*
X137021989Y-86852359D01*
X137209855Y-87133523D01*
X137280829Y-87180946D01*
X137947672Y-87847790D01*
X137947672Y-88064539D01*
X137873780Y-88175126D01*
X137838855Y-88350707D01*
X137838855Y-90350707D01*
X137873780Y-90526288D01*
X137947671Y-90636874D01*
X137947671Y-91101921D01*
X137947672Y-91101926D01*
X137947671Y-92208625D01*
X130295827Y-99860470D01*
X130224856Y-99907891D01*
X130177435Y-99978862D01*
X130036990Y-100189054D01*
X129971019Y-100520707D01*
X129987672Y-100604426D01*
X129987671Y-103661125D01*
X129372191Y-104276605D01*
X129197671Y-104241891D01*
X128959840Y-104241891D01*
X129270967Y-104034003D01*
X129569343Y-103587451D01*
X129674119Y-103060707D01*
X129569343Y-102533963D01*
X129270967Y-102087411D01*
X128826917Y-101790707D01*
X129270967Y-101494003D01*
X129569343Y-101047451D01*
X129674119Y-100520707D01*
X129569343Y-99993963D01*
X129270967Y-99547411D01*
X128826917Y-99250707D01*
X129270967Y-98954003D01*
X129569343Y-98507451D01*
X129674119Y-97980707D01*
X129569343Y-97453963D01*
X129270967Y-97007411D01*
X128826917Y-96710707D01*
X129270967Y-96414003D01*
X129569343Y-95967451D01*
X129674119Y-95440707D01*
X129569343Y-94913963D01*
X129270967Y-94467411D01*
X128826917Y-94170707D01*
X129270967Y-93874003D01*
X129486986Y-93550707D01*
X129503655Y-93550707D01*
X129567671Y-93563441D01*
X129631687Y-93550707D01*
X129631689Y-93550707D01*
X129821288Y-93512993D01*
X130036295Y-93369331D01*
X130072562Y-93315053D01*
X130617022Y-92770594D01*
X130671295Y-92734331D01*
X130731370Y-92644422D01*
X130814957Y-92519325D01*
X130865405Y-92265707D01*
X130852671Y-92201689D01*
X130852671Y-87214944D01*
X131646908Y-86420707D01*
X133253433Y-86420707D01*
X132383323Y-87290818D01*
X132383323Y-87290818D01*
G37*
X132383323Y-87290818D02*
X132329048Y-87327083D01*
X132246522Y-87450593D01*
X132185386Y-87542090D01*
X132134937Y-87795707D01*
X132147672Y-87859728D01*
X132147672Y-87921727D01*
X132122090Y-87926816D01*
X131973239Y-88026275D01*
X131873780Y-88175126D01*
X131838855Y-88350707D01*
X131838855Y-90350707D01*
X131873780Y-90526288D01*
X131973239Y-90675139D01*
X132122090Y-90774598D01*
X132297671Y-90809523D01*
X133297671Y-90809523D01*
X133473252Y-90774598D01*
X133622103Y-90675139D01*
X133721562Y-90526288D01*
X133756487Y-90350707D01*
X133756487Y-88350707D01*
X133838855Y-88350707D01*
X133838855Y-90350707D01*
X133873780Y-90526288D01*
X133973239Y-90675139D01*
X134122090Y-90774598D01*
X134147672Y-90779686D01*
X134147672Y-90879366D01*
X134125483Y-90901555D01*
X134004771Y-91192979D01*
X134004771Y-91508415D01*
X134125483Y-91799839D01*
X134348529Y-92022885D01*
X134639953Y-92143597D01*
X134955389Y-92143597D01*
X135246813Y-92022885D01*
X135469859Y-91799839D01*
X135590571Y-91508415D01*
X135590571Y-91192979D01*
X135469859Y-90901555D01*
X135447671Y-90879367D01*
X135447671Y-90779686D01*
X135473252Y-90774598D01*
X135622103Y-90675139D01*
X135721562Y-90526288D01*
X135756487Y-90350707D01*
X135756487Y-88350707D01*
X135838855Y-88350707D01*
X135838855Y-90350707D01*
X135873780Y-90526288D01*
X135973239Y-90675139D01*
X136122090Y-90774598D01*
X136147672Y-90779686D01*
X136147672Y-90879376D01*
X136125483Y-90901565D01*
X136004771Y-91192989D01*
X136004771Y-91508425D01*
X136125483Y-91799849D01*
X136348529Y-92022895D01*
X136639953Y-92143607D01*
X136955389Y-92143607D01*
X137246813Y-92022895D01*
X137469859Y-91799849D01*
X137590571Y-91508425D01*
X137590571Y-91192989D01*
X137469859Y-90901565D01*
X137447671Y-90879377D01*
X137447671Y-90779686D01*
X137473252Y-90774598D01*
X137622103Y-90675139D01*
X137721562Y-90526288D01*
X137756487Y-90350707D01*
X137756487Y-88350707D01*
X137721562Y-88175126D01*
X137622103Y-88026275D01*
X137473252Y-87926816D01*
X137297671Y-87891891D01*
X136297671Y-87891891D01*
X136122090Y-87926816D01*
X135973239Y-88026275D01*
X135873780Y-88175126D01*
X135838855Y-88350707D01*
X135756487Y-88350707D01*
X135721562Y-88175126D01*
X135622103Y-88026275D01*
X135473252Y-87926816D01*
X135297671Y-87891891D01*
X134297671Y-87891891D01*
X134122090Y-87926816D01*
X133973239Y-88026275D01*
X133873780Y-88175126D01*
X133838855Y-88350707D01*
X133756487Y-88350707D01*
X133721562Y-88175126D01*
X133622103Y-88026275D01*
X133540719Y-87971896D01*
X134925594Y-86587023D01*
X135215171Y-86587023D01*
X135227277Y-86584615D01*
X135264180Y-86584615D01*
X135353690Y-86575799D01*
X135449823Y-86556677D01*
X135535892Y-86530569D01*
X135626448Y-86493060D01*
X135705774Y-86450659D01*
X135750600Y-86420707D01*
X136972671Y-86420707D01*
X136972671Y-86436993D01*
X136956019Y-86520707D01*
X136972671Y-86604421D01*
X137021989Y-86852359D01*
X137209855Y-87133523D01*
X137280829Y-87180946D01*
X137947672Y-87847790D01*
X137947672Y-88064539D01*
X137873780Y-88175126D01*
X137838855Y-88350707D01*
X137838855Y-90350707D01*
X137873780Y-90526288D01*
X137947671Y-90636874D01*
X137947671Y-91101921D01*
X137947672Y-91101926D01*
X137947671Y-92208625D01*
X130295827Y-99860470D01*
X130224856Y-99907891D01*
X130177435Y-99978862D01*
X130036990Y-100189054D01*
X129971019Y-100520707D01*
X129987672Y-100604426D01*
X129987671Y-103661125D01*
X129372191Y-104276605D01*
X129197671Y-104241891D01*
X128959840Y-104241891D01*
X129270967Y-104034003D01*
X129569343Y-103587451D01*
X129674119Y-103060707D01*
X129569343Y-102533963D01*
X129270967Y-102087411D01*
X128826917Y-101790707D01*
X129270967Y-101494003D01*
X129569343Y-101047451D01*
X129674119Y-100520707D01*
X129569343Y-99993963D01*
X129270967Y-99547411D01*
X128826917Y-99250707D01*
X129270967Y-98954003D01*
X129569343Y-98507451D01*
X129674119Y-97980707D01*
X129569343Y-97453963D01*
X129270967Y-97007411D01*
X128826917Y-96710707D01*
X129270967Y-96414003D01*
X129569343Y-95967451D01*
X129674119Y-95440707D01*
X129569343Y-94913963D01*
X129270967Y-94467411D01*
X128826917Y-94170707D01*
X129270967Y-93874003D01*
X129486986Y-93550707D01*
X129503655Y-93550707D01*
X129567671Y-93563441D01*
X129631687Y-93550707D01*
X129631689Y-93550707D01*
X129821288Y-93512993D01*
X130036295Y-93369331D01*
X130072562Y-93315053D01*
X130617022Y-92770594D01*
X130671295Y-92734331D01*
X130731370Y-92644422D01*
X130814957Y-92519325D01*
X130865405Y-92265707D01*
X130852671Y-92201689D01*
X130852671Y-87214944D01*
X131646908Y-86420707D01*
X133253433Y-86420707D01*
X132383323Y-87290818D01*
G36*
X151311671Y-102906707D02*
X151331671Y-102906707D01*
X151331671Y-103214707D01*
X151311671Y-103214707D01*
X151311671Y-103234707D01*
X151003671Y-103234707D01*
X151003671Y-103214707D01*
X150983671Y-103214707D01*
X150983671Y-102906707D01*
X151003671Y-102906707D01*
X151003671Y-102886707D01*
X151311671Y-102886707D01*
X151311671Y-102906707D01*
X151311671Y-102906707D01*
G37*
X151311671Y-102906707D02*
X151331671Y-102906707D01*
X151331671Y-103214707D01*
X151311671Y-103214707D01*
X151311671Y-103234707D01*
X151003671Y-103234707D01*
X151003671Y-103214707D01*
X150983671Y-103214707D01*
X150983671Y-102906707D01*
X151003671Y-102906707D01*
X151003671Y-102886707D01*
X151311671Y-102886707D01*
X151311671Y-102906707D01*
M02*
