%TF.GenerationSoftware,KiCad,Pcbnew,(5.0.0-3-g5ebb6b6)*%
%TF.CreationDate,2018-10-14T10:55:47+02:00*%
%TF.ProjectId,BricoLabs_ESP8266_LoRa_shield,427269636F4C6162735F455350383236,rev?*%
%TF.SameCoordinates,Original*%
%TF.FileFunction,Legend,Bot*%
%TF.FilePolarity,Positive*%
%FSLAX46Y46*%
G04 Gerber Fmt 4.6, Leading zero omitted, Abs format (unit mm)*
G04 Created by KiCad (PCBNEW (5.0.0-3-g5ebb6b6)) date Sunday, 14 de October de 2018, 10:55:47*
%MOMM*%
%LPD*%
G01*
G04 APERTURE LIST*
%ADD10C,0.125000*%
%ADD11C,0.150000*%
%ADD12C,0.122500*%
%ADD13C,0.010000*%
G04 APERTURE END LIST*
D10*
X142070528Y-83722135D02*
X142108623Y-83836421D01*
X142146718Y-83874516D01*
X142222909Y-83912611D01*
X142337194Y-83912611D01*
X142413385Y-83874516D01*
X142451480Y-83836421D01*
X142489575Y-83760230D01*
X142489575Y-83455468D01*
X141689575Y-83455468D01*
X141689575Y-83722135D01*
X141727671Y-83798326D01*
X141765766Y-83836421D01*
X141841956Y-83874516D01*
X141918147Y-83874516D01*
X141994337Y-83836421D01*
X142032432Y-83798326D01*
X142070528Y-83722135D01*
X142070528Y-83455468D01*
X141956242Y-84179278D02*
X142489575Y-84369754D01*
X141956242Y-84560230D02*
X142489575Y-84369754D01*
X142680051Y-84293564D01*
X142718147Y-84255468D01*
X142756242Y-84179278D01*
X141689575Y-85360230D02*
X141689575Y-85817373D01*
X142489575Y-85588802D02*
X141689575Y-85588802D01*
X142413385Y-86541183D02*
X142451480Y-86503087D01*
X142489575Y-86388802D01*
X142489575Y-86312611D01*
X142451480Y-86198326D01*
X142375290Y-86122135D01*
X142299099Y-86084040D01*
X142146718Y-86045945D01*
X142032432Y-86045945D01*
X141880051Y-86084040D01*
X141803861Y-86122135D01*
X141727671Y-86198326D01*
X141689575Y-86312611D01*
X141689575Y-86388802D01*
X141727671Y-86503087D01*
X141765766Y-86541183D01*
X142489575Y-87341183D02*
X142108623Y-87074516D01*
X142489575Y-86884040D02*
X141689575Y-86884040D01*
X141689575Y-87188802D01*
X141727671Y-87264992D01*
X141765766Y-87303087D01*
X141841956Y-87341183D01*
X141956242Y-87341183D01*
X142032432Y-87303087D01*
X142070528Y-87264992D01*
X142108623Y-87188802D01*
X142108623Y-86884040D01*
X142489575Y-87798326D02*
X142451480Y-87722135D01*
X142413385Y-87684040D01*
X142337194Y-87645945D01*
X142108623Y-87645945D01*
X142032432Y-87684040D01*
X141994337Y-87722135D01*
X141956242Y-87798326D01*
X141956242Y-87912611D01*
X141994337Y-87988802D01*
X142032432Y-88026897D01*
X142108623Y-88064992D01*
X142337194Y-88064992D01*
X142413385Y-88026897D01*
X142451480Y-87988802D01*
X142489575Y-87912611D01*
X142489575Y-87798326D01*
X142489575Y-88407849D02*
X141689575Y-88407849D01*
X141994337Y-88407849D02*
X141956242Y-88484040D01*
X141956242Y-88636421D01*
X141994337Y-88712611D01*
X142032432Y-88750707D01*
X142108623Y-88788802D01*
X142337194Y-88788802D01*
X142413385Y-88750707D01*
X142451480Y-88712611D01*
X142489575Y-88636421D01*
X142489575Y-88484040D01*
X142451480Y-88407849D01*
X142489575Y-89245945D02*
X142451480Y-89169754D01*
X142413385Y-89131659D01*
X142337194Y-89093564D01*
X142108623Y-89093564D01*
X142032432Y-89131659D01*
X141994337Y-89169754D01*
X141956242Y-89245945D01*
X141956242Y-89360230D01*
X141994337Y-89436421D01*
X142032432Y-89474516D01*
X142108623Y-89512611D01*
X142337194Y-89512611D01*
X142413385Y-89474516D01*
X142451480Y-89436421D01*
X142489575Y-89360230D01*
X142489575Y-89245945D01*
X141956242Y-89741183D02*
X141956242Y-90045945D01*
X141689575Y-89855468D02*
X142375290Y-89855468D01*
X142451480Y-89893564D01*
X142489575Y-89969754D01*
X142489575Y-90045945D01*
X142489575Y-90312611D02*
X141956242Y-90312611D01*
X141689575Y-90312611D02*
X141727671Y-90274516D01*
X141765766Y-90312611D01*
X141727671Y-90350707D01*
X141689575Y-90312611D01*
X141765766Y-90312611D01*
X142451480Y-91036421D02*
X142489575Y-90960230D01*
X142489575Y-90807849D01*
X142451480Y-90731659D01*
X142413385Y-90693564D01*
X142337194Y-90655468D01*
X142108623Y-90655468D01*
X142032432Y-90693564D01*
X141994337Y-90731659D01*
X141956242Y-90807849D01*
X141956242Y-90960230D01*
X141994337Y-91036421D01*
X142451480Y-91341183D02*
X142489575Y-91417373D01*
X142489575Y-91569754D01*
X142451480Y-91645945D01*
X142375290Y-91684040D01*
X142337194Y-91684040D01*
X142261004Y-91645945D01*
X142222909Y-91569754D01*
X142222909Y-91455468D01*
X142184813Y-91379278D01*
X142108623Y-91341183D01*
X142070528Y-91341183D01*
X141994337Y-91379278D01*
X141956242Y-91455468D01*
X141956242Y-91569754D01*
X141994337Y-91645945D01*
D11*
X140878600Y-80062000D02*
G75*
G02X141878600Y-81062000I0J-1000000D01*
G01*
X151620379Y-81068606D02*
G75*
G02X152628600Y-83312000I-1991779J-2243394D01*
G01*
X139919330Y-108699048D02*
X131419330Y-108699048D01*
X139919330Y-112699048D02*
X139919330Y-108699048D01*
X131419330Y-112699048D02*
X139919330Y-112699048D01*
X131419330Y-108699048D02*
X131419330Y-112699048D01*
D12*
X132468496Y-109275339D02*
X131768496Y-109275339D01*
X132268496Y-109438673D01*
X131768496Y-109602006D01*
X132468496Y-109602006D01*
X132468496Y-109835339D02*
X131768496Y-109835339D01*
X132435163Y-110045339D02*
X132468496Y-110115339D01*
X132468496Y-110232006D01*
X132435163Y-110278673D01*
X132401830Y-110302006D01*
X132335163Y-110325339D01*
X132268496Y-110325339D01*
X132201830Y-110302006D01*
X132168496Y-110278673D01*
X132135163Y-110232006D01*
X132101830Y-110138673D01*
X132068496Y-110092006D01*
X132035163Y-110068673D01*
X131968496Y-110045339D01*
X131901830Y-110045339D01*
X131835163Y-110068673D01*
X131801830Y-110092006D01*
X131768496Y-110138673D01*
X131768496Y-110255339D01*
X131801830Y-110325339D01*
X131768496Y-110628673D02*
X131768496Y-110722006D01*
X131801830Y-110768673D01*
X131868496Y-110815339D01*
X132001830Y-110838673D01*
X132235163Y-110838673D01*
X132368496Y-110815339D01*
X132435163Y-110768673D01*
X132468496Y-110722006D01*
X132468496Y-110628673D01*
X132435163Y-110582006D01*
X132368496Y-110535339D01*
X132235163Y-110512006D01*
X132001830Y-110512006D01*
X131868496Y-110535339D01*
X131801830Y-110582006D01*
X131768496Y-110628673D01*
X132201830Y-111048673D02*
X132201830Y-111422006D01*
X132468496Y-111655339D02*
X131768496Y-111655339D01*
X131768496Y-111772006D01*
X131801830Y-111842006D01*
X131868496Y-111888673D01*
X131935163Y-111912006D01*
X132068496Y-111935339D01*
X132168496Y-111935339D01*
X132301830Y-111912006D01*
X132368496Y-111888673D01*
X132435163Y-111842006D01*
X132468496Y-111772006D01*
X132468496Y-111655339D01*
X131768496Y-112355339D02*
X131768496Y-112262006D01*
X131801830Y-112215339D01*
X131835163Y-112192006D01*
X131935163Y-112145339D01*
X132068496Y-112122006D01*
X132335163Y-112122006D01*
X132401830Y-112145339D01*
X132435163Y-112168673D01*
X132468496Y-112215339D01*
X132468496Y-112308673D01*
X132435163Y-112355339D01*
X132401830Y-112378673D01*
X132335163Y-112402006D01*
X132168496Y-112402006D01*
X132101830Y-112378673D01*
X132068496Y-112355339D01*
X132035163Y-112308673D01*
X132035163Y-112215339D01*
X132068496Y-112168673D01*
X132101830Y-112145339D01*
X132168496Y-112122006D01*
X133640996Y-109275339D02*
X132940996Y-109275339D01*
X133440996Y-109438673D01*
X132940996Y-109602006D01*
X133640996Y-109602006D01*
X132940996Y-109928673D02*
X132940996Y-110022006D01*
X132974330Y-110068673D01*
X133040996Y-110115339D01*
X133174330Y-110138673D01*
X133407663Y-110138673D01*
X133540996Y-110115339D01*
X133607663Y-110068673D01*
X133640996Y-110022006D01*
X133640996Y-109928673D01*
X133607663Y-109882006D01*
X133540996Y-109835339D01*
X133407663Y-109812006D01*
X133174330Y-109812006D01*
X133040996Y-109835339D01*
X132974330Y-109882006D01*
X132940996Y-109928673D01*
X133607663Y-110325339D02*
X133640996Y-110395339D01*
X133640996Y-110512006D01*
X133607663Y-110558673D01*
X133574330Y-110582006D01*
X133507663Y-110605339D01*
X133440996Y-110605339D01*
X133374330Y-110582006D01*
X133340996Y-110558673D01*
X133307663Y-110512006D01*
X133274330Y-110418673D01*
X133240996Y-110372006D01*
X133207663Y-110348673D01*
X133140996Y-110325339D01*
X133074330Y-110325339D01*
X133007663Y-110348673D01*
X132974330Y-110372006D01*
X132940996Y-110418673D01*
X132940996Y-110535339D01*
X132974330Y-110605339D01*
X133640996Y-110815339D02*
X132940996Y-110815339D01*
X133374330Y-111048673D02*
X133374330Y-111422006D01*
X133640996Y-111655339D02*
X132940996Y-111655339D01*
X132940996Y-111772006D01*
X132974330Y-111842006D01*
X133040996Y-111888673D01*
X133107663Y-111912006D01*
X133240996Y-111935339D01*
X133340996Y-111935339D01*
X133474330Y-111912006D01*
X133540996Y-111888673D01*
X133607663Y-111842006D01*
X133640996Y-111772006D01*
X133640996Y-111655339D01*
X132940996Y-112098673D02*
X132940996Y-112425339D01*
X133640996Y-112215339D01*
X134780163Y-109252006D02*
X134813496Y-109322006D01*
X134813496Y-109438673D01*
X134780163Y-109485339D01*
X134746830Y-109508673D01*
X134680163Y-109532006D01*
X134613496Y-109532006D01*
X134546830Y-109508673D01*
X134513496Y-109485339D01*
X134480163Y-109438673D01*
X134446830Y-109345339D01*
X134413496Y-109298673D01*
X134380163Y-109275339D01*
X134313496Y-109252006D01*
X134246830Y-109252006D01*
X134180163Y-109275339D01*
X134146830Y-109298673D01*
X134113496Y-109345339D01*
X134113496Y-109462006D01*
X134146830Y-109532006D01*
X134746830Y-110022006D02*
X134780163Y-109998673D01*
X134813496Y-109928673D01*
X134813496Y-109882006D01*
X134780163Y-109812006D01*
X134713496Y-109765339D01*
X134646830Y-109742006D01*
X134513496Y-109718673D01*
X134413496Y-109718673D01*
X134280163Y-109742006D01*
X134213496Y-109765339D01*
X134146830Y-109812006D01*
X134113496Y-109882006D01*
X134113496Y-109928673D01*
X134146830Y-109998673D01*
X134180163Y-110022006D01*
X134813496Y-110232006D02*
X134113496Y-110232006D01*
X134813496Y-110512006D02*
X134413496Y-110302006D01*
X134113496Y-110512006D02*
X134513496Y-110232006D01*
X134546830Y-111095339D02*
X134546830Y-111468673D01*
X134813496Y-111702006D02*
X134113496Y-111702006D01*
X134113496Y-111818673D01*
X134146830Y-111888673D01*
X134213496Y-111935339D01*
X134280163Y-111958673D01*
X134413496Y-111982006D01*
X134513496Y-111982006D01*
X134646830Y-111958673D01*
X134713496Y-111935339D01*
X134780163Y-111888673D01*
X134813496Y-111818673D01*
X134813496Y-111702006D01*
X134113496Y-112425339D02*
X134113496Y-112192006D01*
X134446830Y-112168673D01*
X134413496Y-112192006D01*
X134380163Y-112238673D01*
X134380163Y-112355339D01*
X134413496Y-112402006D01*
X134446830Y-112425339D01*
X134513496Y-112448673D01*
X134680163Y-112448673D01*
X134746830Y-112425339D01*
X134780163Y-112402006D01*
X134813496Y-112355339D01*
X134813496Y-112238673D01*
X134780163Y-112192006D01*
X134746830Y-112168673D01*
X135985996Y-109275339D02*
X135285996Y-109275339D01*
X135985996Y-109555339D01*
X135285996Y-109555339D01*
X135952663Y-109765339D02*
X135985996Y-109835339D01*
X135985996Y-109952006D01*
X135952663Y-109998673D01*
X135919330Y-110022006D01*
X135852663Y-110045339D01*
X135785996Y-110045339D01*
X135719330Y-110022006D01*
X135685996Y-109998673D01*
X135652663Y-109952006D01*
X135619330Y-109858673D01*
X135585996Y-109812006D01*
X135552663Y-109788673D01*
X135485996Y-109765339D01*
X135419330Y-109765339D01*
X135352663Y-109788673D01*
X135319330Y-109812006D01*
X135285996Y-109858673D01*
X135285996Y-109975339D01*
X135319330Y-110045339D01*
X135952663Y-110232006D02*
X135985996Y-110302006D01*
X135985996Y-110418673D01*
X135952663Y-110465339D01*
X135919330Y-110488673D01*
X135852663Y-110512006D01*
X135785996Y-110512006D01*
X135719330Y-110488673D01*
X135685996Y-110465339D01*
X135652663Y-110418673D01*
X135619330Y-110325339D01*
X135585996Y-110278673D01*
X135552663Y-110255339D01*
X135485996Y-110232006D01*
X135419330Y-110232006D01*
X135352663Y-110255339D01*
X135319330Y-110278673D01*
X135285996Y-110325339D01*
X135285996Y-110442006D01*
X135319330Y-110512006D01*
X135719330Y-111095339D02*
X135719330Y-111468673D01*
X135985996Y-111702006D02*
X135285996Y-111702006D01*
X135285996Y-111818673D01*
X135319330Y-111888673D01*
X135385996Y-111935339D01*
X135452663Y-111958673D01*
X135585996Y-111982006D01*
X135685996Y-111982006D01*
X135819330Y-111958673D01*
X135885996Y-111935339D01*
X135952663Y-111888673D01*
X135985996Y-111818673D01*
X135985996Y-111702006D01*
X135585996Y-112262006D02*
X135552663Y-112215339D01*
X135519330Y-112192006D01*
X135452663Y-112168673D01*
X135419330Y-112168673D01*
X135352663Y-112192006D01*
X135319330Y-112215339D01*
X135285996Y-112262006D01*
X135285996Y-112355339D01*
X135319330Y-112402006D01*
X135352663Y-112425339D01*
X135419330Y-112448673D01*
X135452663Y-112448673D01*
X135519330Y-112425339D01*
X135552663Y-112402006D01*
X135585996Y-112355339D01*
X135585996Y-112262006D01*
X135619330Y-112215339D01*
X135652663Y-112192006D01*
X135719330Y-112168673D01*
X135852663Y-112168673D01*
X135919330Y-112192006D01*
X135952663Y-112215339D01*
X135985996Y-112262006D01*
X135985996Y-112355339D01*
X135952663Y-112402006D01*
X135919330Y-112425339D01*
X135852663Y-112448673D01*
X135719330Y-112448673D01*
X135652663Y-112425339D01*
X135619330Y-112402006D01*
X135585996Y-112355339D01*
X137158496Y-109275339D02*
X136458496Y-109275339D01*
X136458496Y-109392006D01*
X136491830Y-109462006D01*
X136558496Y-109508673D01*
X136625163Y-109532006D01*
X136758496Y-109555339D01*
X136858496Y-109555339D01*
X136991830Y-109532006D01*
X137058496Y-109508673D01*
X137125163Y-109462006D01*
X137158496Y-109392006D01*
X137158496Y-109275339D01*
X137158496Y-109765339D02*
X136458496Y-109765339D01*
X136458496Y-110092006D02*
X136458496Y-110185339D01*
X136491830Y-110232006D01*
X136558496Y-110278673D01*
X136691830Y-110302006D01*
X136925163Y-110302006D01*
X137058496Y-110278673D01*
X137125163Y-110232006D01*
X137158496Y-110185339D01*
X137158496Y-110092006D01*
X137125163Y-110045339D01*
X137058496Y-109998673D01*
X136925163Y-109975339D01*
X136691830Y-109975339D01*
X136558496Y-109998673D01*
X136491830Y-110045339D01*
X136458496Y-110092006D01*
X136458496Y-110605339D02*
X136458496Y-110652006D01*
X136491830Y-110698673D01*
X136525163Y-110722006D01*
X136591830Y-110745339D01*
X136725163Y-110768673D01*
X136891830Y-110768673D01*
X137025163Y-110745339D01*
X137091830Y-110722006D01*
X137125163Y-110698673D01*
X137158496Y-110652006D01*
X137158496Y-110605339D01*
X137125163Y-110558673D01*
X137091830Y-110535339D01*
X137025163Y-110512006D01*
X136891830Y-110488673D01*
X136725163Y-110488673D01*
X136591830Y-110512006D01*
X136525163Y-110535339D01*
X136491830Y-110558673D01*
X136458496Y-110605339D01*
X136891830Y-110978673D02*
X136891830Y-111352006D01*
X137158496Y-111585339D02*
X136458496Y-111585339D01*
X136458496Y-111702006D01*
X136491830Y-111772006D01*
X136558496Y-111818673D01*
X136625163Y-111842006D01*
X136758496Y-111865339D01*
X136858496Y-111865339D01*
X136991830Y-111842006D01*
X137058496Y-111818673D01*
X137125163Y-111772006D01*
X137158496Y-111702006D01*
X137158496Y-111585339D01*
X136458496Y-112028673D02*
X136458496Y-112332006D01*
X136725163Y-112168673D01*
X136725163Y-112238673D01*
X136758496Y-112285339D01*
X136791830Y-112308673D01*
X136858496Y-112332006D01*
X137025163Y-112332006D01*
X137091830Y-112308673D01*
X137125163Y-112285339D01*
X137158496Y-112238673D01*
X137158496Y-112098673D01*
X137125163Y-112052006D01*
X137091830Y-112028673D01*
X138330996Y-109275339D02*
X137630996Y-109275339D01*
X137630996Y-109392006D01*
X137664330Y-109462006D01*
X137730996Y-109508673D01*
X137797663Y-109532006D01*
X137930996Y-109555339D01*
X138030996Y-109555339D01*
X138164330Y-109532006D01*
X138230996Y-109508673D01*
X138297663Y-109462006D01*
X138330996Y-109392006D01*
X138330996Y-109275339D01*
X138330996Y-109765339D02*
X137630996Y-109765339D01*
X137630996Y-110092006D02*
X137630996Y-110185339D01*
X137664330Y-110232006D01*
X137730996Y-110278673D01*
X137864330Y-110302006D01*
X138097663Y-110302006D01*
X138230996Y-110278673D01*
X138297663Y-110232006D01*
X138330996Y-110185339D01*
X138330996Y-110092006D01*
X138297663Y-110045339D01*
X138230996Y-109998673D01*
X138097663Y-109975339D01*
X137864330Y-109975339D01*
X137730996Y-109998673D01*
X137664330Y-110045339D01*
X137630996Y-110092006D01*
X138330996Y-110768673D02*
X138330996Y-110488673D01*
X138330996Y-110628673D02*
X137630996Y-110628673D01*
X137730996Y-110582006D01*
X137797663Y-110535339D01*
X137830996Y-110488673D01*
X138064330Y-110978673D02*
X138064330Y-111352006D01*
X138330996Y-111585339D02*
X137630996Y-111585339D01*
X137630996Y-111702006D01*
X137664330Y-111772006D01*
X137730996Y-111818673D01*
X137797663Y-111842006D01*
X137930996Y-111865339D01*
X138030996Y-111865339D01*
X138164330Y-111842006D01*
X138230996Y-111818673D01*
X138297663Y-111772006D01*
X138330996Y-111702006D01*
X138330996Y-111585339D01*
X137864330Y-112285339D02*
X138330996Y-112285339D01*
X137597663Y-112168673D02*
X138097663Y-112052006D01*
X138097663Y-112355339D01*
X139503496Y-109275339D02*
X138803496Y-109275339D01*
X138803496Y-109392006D01*
X138836830Y-109462006D01*
X138903496Y-109508673D01*
X138970163Y-109532006D01*
X139103496Y-109555339D01*
X139203496Y-109555339D01*
X139336830Y-109532006D01*
X139403496Y-109508673D01*
X139470163Y-109462006D01*
X139503496Y-109392006D01*
X139503496Y-109275339D01*
X139503496Y-109765339D02*
X138803496Y-109765339D01*
X138803496Y-110092006D02*
X138803496Y-110185339D01*
X138836830Y-110232006D01*
X138903496Y-110278673D01*
X139036830Y-110302006D01*
X139270163Y-110302006D01*
X139403496Y-110278673D01*
X139470163Y-110232006D01*
X139503496Y-110185339D01*
X139503496Y-110092006D01*
X139470163Y-110045339D01*
X139403496Y-109998673D01*
X139270163Y-109975339D01*
X139036830Y-109975339D01*
X138903496Y-109998673D01*
X138836830Y-110045339D01*
X138803496Y-110092006D01*
X138870163Y-110488673D02*
X138836830Y-110512006D01*
X138803496Y-110558673D01*
X138803496Y-110675339D01*
X138836830Y-110722006D01*
X138870163Y-110745339D01*
X138936830Y-110768673D01*
X139003496Y-110768673D01*
X139103496Y-110745339D01*
X139503496Y-110465339D01*
X139503496Y-110768673D01*
X139236830Y-110978673D02*
X139236830Y-111352006D01*
X139503496Y-111585339D02*
X138803496Y-111585339D01*
X138803496Y-111702006D01*
X138836830Y-111772006D01*
X138903496Y-111818673D01*
X138970163Y-111842006D01*
X139103496Y-111865339D01*
X139203496Y-111865339D01*
X139336830Y-111842006D01*
X139403496Y-111818673D01*
X139470163Y-111772006D01*
X139503496Y-111702006D01*
X139503496Y-111585339D01*
X138803496Y-112168673D02*
X138803496Y-112215339D01*
X138836830Y-112262006D01*
X138870163Y-112285339D01*
X138936830Y-112308673D01*
X139070163Y-112332006D01*
X139236830Y-112332006D01*
X139370163Y-112308673D01*
X139436830Y-112285339D01*
X139470163Y-112262006D01*
X139503496Y-112215339D01*
X139503496Y-112168673D01*
X139470163Y-112122006D01*
X139436830Y-112098673D01*
X139370163Y-112075339D01*
X139236830Y-112052006D01*
X139070163Y-112052006D01*
X138936830Y-112075339D01*
X138870163Y-112098673D01*
X138836830Y-112122006D01*
X138803496Y-112168673D01*
D11*
X140878600Y-80062000D02*
X130225800Y-80060800D01*
X152628600Y-114452400D02*
X152628600Y-83312000D01*
X126976364Y-83308794D02*
G75*
G02X130225800Y-80060800I3779835J-532077D01*
G01*
X151628600Y-81062000D02*
X141878600Y-81062000D01*
X127027671Y-114490707D02*
X126974600Y-83312000D01*
X127027671Y-114490707D02*
X152628600Y-114452400D01*
D13*
G36*
X135339242Y-87417664D02*
X135363480Y-87513939D01*
X135406312Y-87600523D01*
X135466090Y-87675334D01*
X135541165Y-87736289D01*
X135629891Y-87781308D01*
X135726201Y-87807571D01*
X135823466Y-87813421D01*
X135917325Y-87798567D01*
X136005182Y-87764867D01*
X136084441Y-87714179D01*
X136152507Y-87648362D01*
X136206783Y-87569273D01*
X136244673Y-87478773D01*
X136257097Y-87427507D01*
X136264618Y-87383009D01*
X136267590Y-87348708D01*
X136265765Y-87315747D01*
X136258896Y-87275273D01*
X136251921Y-87242176D01*
X136220412Y-87148760D01*
X136169288Y-87065088D01*
X136100100Y-86993042D01*
X136014399Y-86934507D01*
X135987160Y-86920559D01*
X135950793Y-86904121D01*
X135920253Y-86893813D01*
X135888121Y-86888247D01*
X135846978Y-86886038D01*
X135800893Y-86885759D01*
X135716536Y-86889846D01*
X135647257Y-86903261D01*
X135586632Y-86928451D01*
X135528238Y-86967861D01*
X135483973Y-87006409D01*
X135418155Y-87078301D01*
X135372724Y-87153394D01*
X135345521Y-87236145D01*
X135335247Y-87313779D01*
X135339242Y-87417664D01*
X135339242Y-87417664D01*
G37*
X135339242Y-87417664D02*
X135363480Y-87513939D01*
X135406312Y-87600523D01*
X135466090Y-87675334D01*
X135541165Y-87736289D01*
X135629891Y-87781308D01*
X135726201Y-87807571D01*
X135823466Y-87813421D01*
X135917325Y-87798567D01*
X136005182Y-87764867D01*
X136084441Y-87714179D01*
X136152507Y-87648362D01*
X136206783Y-87569273D01*
X136244673Y-87478773D01*
X136257097Y-87427507D01*
X136264618Y-87383009D01*
X136267590Y-87348708D01*
X136265765Y-87315747D01*
X136258896Y-87275273D01*
X136251921Y-87242176D01*
X136220412Y-87148760D01*
X136169288Y-87065088D01*
X136100100Y-86993042D01*
X136014399Y-86934507D01*
X135987160Y-86920559D01*
X135950793Y-86904121D01*
X135920253Y-86893813D01*
X135888121Y-86888247D01*
X135846978Y-86886038D01*
X135800893Y-86885759D01*
X135716536Y-86889846D01*
X135647257Y-86903261D01*
X135586632Y-86928451D01*
X135528238Y-86967861D01*
X135483973Y-87006409D01*
X135418155Y-87078301D01*
X135372724Y-87153394D01*
X135345521Y-87236145D01*
X135335247Y-87313779D01*
X135339242Y-87417664D01*
G36*
X137784916Y-95877214D02*
X138019333Y-95877233D01*
X138232274Y-95877259D01*
X138424839Y-95877332D01*
X138598130Y-95877489D01*
X138753247Y-95877771D01*
X138891291Y-95878216D01*
X139013363Y-95878863D01*
X139120565Y-95879752D01*
X139213997Y-95880920D01*
X139294761Y-95882408D01*
X139363957Y-95884253D01*
X139422686Y-95886496D01*
X139472050Y-95889176D01*
X139513149Y-95892330D01*
X139547084Y-95895999D01*
X139574957Y-95900220D01*
X139597869Y-95905034D01*
X139616920Y-95910480D01*
X139633211Y-95916595D01*
X139647844Y-95923419D01*
X139661920Y-95930992D01*
X139676539Y-95939352D01*
X139685645Y-95944546D01*
X139746360Y-95978811D01*
X139746360Y-95120662D01*
X139650404Y-95120662D01*
X139607041Y-95119931D01*
X139573876Y-95117979D01*
X139556095Y-95115170D01*
X139554449Y-95113928D01*
X139561333Y-95102506D01*
X139579176Y-95079791D01*
X139598550Y-95057092D01*
X139639285Y-95002507D01*
X139680288Y-94933028D01*
X139717794Y-94855977D01*
X139748035Y-94778672D01*
X139757683Y-94747820D01*
X139772249Y-94679323D01*
X139782210Y-94596471D01*
X139787254Y-94507078D01*
X139787067Y-94418955D01*
X139781337Y-94339914D01*
X139775529Y-94302218D01*
X139737468Y-94164121D01*
X139679744Y-94036820D01*
X139602882Y-93920999D01*
X139507410Y-93817344D01*
X139393850Y-93726540D01*
X139283052Y-93659738D01*
X139166296Y-93604871D01*
X139046947Y-93562870D01*
X138920954Y-93532874D01*
X138784265Y-93514018D01*
X138632829Y-93505439D01*
X138555382Y-93504713D01*
X138498605Y-93506807D01*
X138498605Y-94335924D01*
X138591673Y-94336131D01*
X138679363Y-94339044D01*
X138756443Y-94344707D01*
X138817680Y-94353162D01*
X138830021Y-94355745D01*
X138937304Y-94387547D01*
X139024329Y-94429205D01*
X139091313Y-94481070D01*
X139138476Y-94543488D01*
X139166036Y-94616807D01*
X139174212Y-94701376D01*
X139163222Y-94797542D01*
X139147500Y-94861018D01*
X139129310Y-94910161D01*
X139103462Y-94964290D01*
X139079760Y-95004951D01*
X139033392Y-95075507D01*
X137883201Y-95075507D01*
X137839633Y-95008099D01*
X137798711Y-94929574D01*
X137772060Y-94845388D01*
X137760136Y-94760264D01*
X137763393Y-94678923D01*
X137782286Y-94606087D01*
X137797855Y-94574133D01*
X137840852Y-94516208D01*
X137897624Y-94467251D01*
X137970246Y-94426097D01*
X138060792Y-94391581D01*
X138171337Y-94362540D01*
X138177204Y-94361259D01*
X138239459Y-94351088D01*
X138317265Y-94343446D01*
X138405391Y-94338377D01*
X138498605Y-94335924D01*
X138498605Y-93506807D01*
X138342566Y-93512564D01*
X138146730Y-93534509D01*
X137968003Y-93570493D01*
X137806516Y-93620466D01*
X137662397Y-93684375D01*
X137535777Y-93762169D01*
X137426786Y-93853796D01*
X137335554Y-93959204D01*
X137304603Y-94004369D01*
X137248456Y-94105318D01*
X137208845Y-94208608D01*
X137184685Y-94318696D01*
X137174890Y-94440037D01*
X137175936Y-94532543D01*
X137186902Y-94662197D01*
X137208717Y-94774791D01*
X137242385Y-94873582D01*
X137288907Y-94961828D01*
X137323119Y-95010693D01*
X137345033Y-95040060D01*
X137360004Y-95061750D01*
X137364404Y-95069960D01*
X137353575Y-95071575D01*
X137322922Y-95072866D01*
X137275197Y-95073845D01*
X137213150Y-95074524D01*
X137139533Y-95074917D01*
X137057098Y-95075037D01*
X136968596Y-95074895D01*
X136876778Y-95074504D01*
X136784395Y-95073878D01*
X136694199Y-95073027D01*
X136608942Y-95071967D01*
X136531374Y-95070708D01*
X136464247Y-95069263D01*
X136410312Y-95067645D01*
X136372321Y-95065868D01*
X136365338Y-95065376D01*
X136294922Y-95057799D01*
X136239773Y-95046238D01*
X136192652Y-95028499D01*
X136146318Y-95002389D01*
X136136738Y-94996122D01*
X136100049Y-94971690D01*
X136100049Y-95877018D01*
X137784916Y-95877214D01*
X137784916Y-95877214D01*
G37*
X137784916Y-95877214D02*
X138019333Y-95877233D01*
X138232274Y-95877259D01*
X138424839Y-95877332D01*
X138598130Y-95877489D01*
X138753247Y-95877771D01*
X138891291Y-95878216D01*
X139013363Y-95878863D01*
X139120565Y-95879752D01*
X139213997Y-95880920D01*
X139294761Y-95882408D01*
X139363957Y-95884253D01*
X139422686Y-95886496D01*
X139472050Y-95889176D01*
X139513149Y-95892330D01*
X139547084Y-95895999D01*
X139574957Y-95900220D01*
X139597869Y-95905034D01*
X139616920Y-95910480D01*
X139633211Y-95916595D01*
X139647844Y-95923419D01*
X139661920Y-95930992D01*
X139676539Y-95939352D01*
X139685645Y-95944546D01*
X139746360Y-95978811D01*
X139746360Y-95120662D01*
X139650404Y-95120662D01*
X139607041Y-95119931D01*
X139573876Y-95117979D01*
X139556095Y-95115170D01*
X139554449Y-95113928D01*
X139561333Y-95102506D01*
X139579176Y-95079791D01*
X139598550Y-95057092D01*
X139639285Y-95002507D01*
X139680288Y-94933028D01*
X139717794Y-94855977D01*
X139748035Y-94778672D01*
X139757683Y-94747820D01*
X139772249Y-94679323D01*
X139782210Y-94596471D01*
X139787254Y-94507078D01*
X139787067Y-94418955D01*
X139781337Y-94339914D01*
X139775529Y-94302218D01*
X139737468Y-94164121D01*
X139679744Y-94036820D01*
X139602882Y-93920999D01*
X139507410Y-93817344D01*
X139393850Y-93726540D01*
X139283052Y-93659738D01*
X139166296Y-93604871D01*
X139046947Y-93562870D01*
X138920954Y-93532874D01*
X138784265Y-93514018D01*
X138632829Y-93505439D01*
X138555382Y-93504713D01*
X138498605Y-93506807D01*
X138498605Y-94335924D01*
X138591673Y-94336131D01*
X138679363Y-94339044D01*
X138756443Y-94344707D01*
X138817680Y-94353162D01*
X138830021Y-94355745D01*
X138937304Y-94387547D01*
X139024329Y-94429205D01*
X139091313Y-94481070D01*
X139138476Y-94543488D01*
X139166036Y-94616807D01*
X139174212Y-94701376D01*
X139163222Y-94797542D01*
X139147500Y-94861018D01*
X139129310Y-94910161D01*
X139103462Y-94964290D01*
X139079760Y-95004951D01*
X139033392Y-95075507D01*
X137883201Y-95075507D01*
X137839633Y-95008099D01*
X137798711Y-94929574D01*
X137772060Y-94845388D01*
X137760136Y-94760264D01*
X137763393Y-94678923D01*
X137782286Y-94606087D01*
X137797855Y-94574133D01*
X137840852Y-94516208D01*
X137897624Y-94467251D01*
X137970246Y-94426097D01*
X138060792Y-94391581D01*
X138171337Y-94362540D01*
X138177204Y-94361259D01*
X138239459Y-94351088D01*
X138317265Y-94343446D01*
X138405391Y-94338377D01*
X138498605Y-94335924D01*
X138498605Y-93506807D01*
X138342566Y-93512564D01*
X138146730Y-93534509D01*
X137968003Y-93570493D01*
X137806516Y-93620466D01*
X137662397Y-93684375D01*
X137535777Y-93762169D01*
X137426786Y-93853796D01*
X137335554Y-93959204D01*
X137304603Y-94004369D01*
X137248456Y-94105318D01*
X137208845Y-94208608D01*
X137184685Y-94318696D01*
X137174890Y-94440037D01*
X137175936Y-94532543D01*
X137186902Y-94662197D01*
X137208717Y-94774791D01*
X137242385Y-94873582D01*
X137288907Y-94961828D01*
X137323119Y-95010693D01*
X137345033Y-95040060D01*
X137360004Y-95061750D01*
X137364404Y-95069960D01*
X137353575Y-95071575D01*
X137322922Y-95072866D01*
X137275197Y-95073845D01*
X137213150Y-95074524D01*
X137139533Y-95074917D01*
X137057098Y-95075037D01*
X136968596Y-95074895D01*
X136876778Y-95074504D01*
X136784395Y-95073878D01*
X136694199Y-95073027D01*
X136608942Y-95071967D01*
X136531374Y-95070708D01*
X136464247Y-95069263D01*
X136410312Y-95067645D01*
X136372321Y-95065868D01*
X136365338Y-95065376D01*
X136294922Y-95057799D01*
X136239773Y-95046238D01*
X136192652Y-95028499D01*
X136146318Y-95002389D01*
X136136738Y-94996122D01*
X136100049Y-94971690D01*
X136100049Y-95877018D01*
X137784916Y-95877214D01*
G36*
X137179223Y-92364281D02*
X137199238Y-92516199D01*
X137232873Y-92651463D01*
X137280396Y-92770946D01*
X137342076Y-92875522D01*
X137405636Y-92953131D01*
X137479770Y-93021972D01*
X137559542Y-93075713D01*
X137651762Y-93118617D01*
X137694832Y-93134091D01*
X137733813Y-93146951D01*
X137769960Y-93158153D01*
X137805105Y-93167827D01*
X137841081Y-93176103D01*
X137879721Y-93183110D01*
X137922856Y-93188979D01*
X137972320Y-93193838D01*
X138029944Y-93197817D01*
X138097562Y-93201047D01*
X138177005Y-93203656D01*
X138270107Y-93205774D01*
X138378698Y-93207531D01*
X138504613Y-93209056D01*
X138649683Y-93210479D01*
X138792449Y-93211732D01*
X138948639Y-93213058D01*
X139083910Y-93214263D01*
X139199917Y-93215473D01*
X139298316Y-93216813D01*
X139380764Y-93218407D01*
X139448917Y-93220382D01*
X139504431Y-93222863D01*
X139548963Y-93225976D01*
X139584169Y-93229845D01*
X139611705Y-93234596D01*
X139633227Y-93240355D01*
X139650393Y-93247246D01*
X139664857Y-93255396D01*
X139678277Y-93264930D01*
X139692309Y-93275973D01*
X139697742Y-93280273D01*
X139720581Y-93296093D01*
X139736134Y-93303129D01*
X139736593Y-93303151D01*
X139738792Y-93292274D01*
X139740818Y-93261289D01*
X139742613Y-93212664D01*
X139744122Y-93148870D01*
X139745287Y-93072376D01*
X139746051Y-92985651D01*
X139746357Y-92891164D01*
X139746360Y-92880257D01*
X139746360Y-92457364D01*
X139650293Y-92454102D01*
X139554227Y-92450840D01*
X139605214Y-92388751D01*
X139672728Y-92291421D01*
X139727420Y-92181520D01*
X139757649Y-92095056D01*
X139772337Y-92025985D01*
X139782330Y-91942632D01*
X139787317Y-91852866D01*
X139786984Y-91764552D01*
X139781022Y-91685558D01*
X139775309Y-91649329D01*
X139737447Y-91509310D01*
X139682603Y-91382885D01*
X139611595Y-91270967D01*
X139525239Y-91174469D01*
X139424350Y-91094307D01*
X139309747Y-91031394D01*
X139183655Y-90987019D01*
X139127072Y-90974685D01*
X139064873Y-90967075D01*
X138990034Y-90963446D01*
X138956138Y-90962952D01*
X138952953Y-90963017D01*
X138952953Y-91722955D01*
X139028004Y-91732248D01*
X139091831Y-91760435D01*
X139147469Y-91808904D01*
X139151882Y-91813961D01*
X139186708Y-91862255D01*
X139209291Y-91913964D01*
X139221211Y-91974696D01*
X139224054Y-92050059D01*
X139223649Y-92068166D01*
X139220996Y-92121985D01*
X139215580Y-92162015D01*
X139205416Y-92197031D01*
X139188521Y-92235810D01*
X139183343Y-92246452D01*
X139147515Y-92307103D01*
X139104883Y-92353922D01*
X139089644Y-92366659D01*
X139033133Y-92411329D01*
X138837257Y-92411329D01*
X138758610Y-92410793D01*
X138700659Y-92409103D01*
X138661546Y-92406135D01*
X138639412Y-92401764D01*
X138632945Y-92397679D01*
X138629782Y-92381754D01*
X138627159Y-92347971D01*
X138625326Y-92301047D01*
X138624528Y-92245700D01*
X138624513Y-92236813D01*
X138629767Y-92116037D01*
X138645934Y-92013367D01*
X138673632Y-91926813D01*
X138713479Y-91854388D01*
X138760429Y-91799458D01*
X138818316Y-91754911D01*
X138881364Y-91730187D01*
X138952953Y-91722955D01*
X138952953Y-90963017D01*
X138862383Y-90964885D01*
X138783483Y-90973229D01*
X138712261Y-90989475D01*
X138641535Y-91015112D01*
X138589164Y-91039108D01*
X138493867Y-91097727D01*
X138405841Y-91175824D01*
X138326688Y-91271022D01*
X138258011Y-91380945D01*
X138201412Y-91503217D01*
X138158492Y-91635462D01*
X138143553Y-91700129D01*
X138121448Y-91836311D01*
X138106865Y-91984756D01*
X138100484Y-92136212D01*
X138102116Y-92262771D01*
X138108895Y-92424657D01*
X138049916Y-92417237D01*
X137950763Y-92397945D01*
X137870043Y-92366811D01*
X137807137Y-92322976D01*
X137761427Y-92265578D01*
X137732293Y-92193755D01*
X137719118Y-92106648D01*
X137721282Y-92003393D01*
X137725283Y-91965418D01*
X137750451Y-91824227D01*
X137791485Y-91687414D01*
X137829486Y-91592885D01*
X137848861Y-91547725D01*
X137864431Y-91509292D01*
X137874076Y-91482941D01*
X137876123Y-91475253D01*
X137867045Y-91465509D01*
X137838076Y-91448790D01*
X137788888Y-91424939D01*
X137719155Y-91393800D01*
X137628550Y-91355214D01*
X137612760Y-91348617D01*
X137540443Y-91318560D01*
X137475096Y-91291581D01*
X137419577Y-91268843D01*
X137376743Y-91251513D01*
X137349452Y-91240755D01*
X137340613Y-91237648D01*
X137335858Y-91247647D01*
X137330581Y-91273924D01*
X137326902Y-91302196D01*
X137322145Y-91332353D01*
X137312699Y-91380140D01*
X137299491Y-91441319D01*
X137283447Y-91511653D01*
X137265491Y-91586901D01*
X137258468Y-91615462D01*
X137232880Y-91720523D01*
X137212818Y-91808187D01*
X137197640Y-91882775D01*
X137186706Y-91948610D01*
X137179375Y-92010014D01*
X137175006Y-92071309D01*
X137172958Y-92136817D01*
X137172560Y-92194835D01*
X137179223Y-92364281D01*
X137179223Y-92364281D01*
G37*
X137179223Y-92364281D02*
X137199238Y-92516199D01*
X137232873Y-92651463D01*
X137280396Y-92770946D01*
X137342076Y-92875522D01*
X137405636Y-92953131D01*
X137479770Y-93021972D01*
X137559542Y-93075713D01*
X137651762Y-93118617D01*
X137694832Y-93134091D01*
X137733813Y-93146951D01*
X137769960Y-93158153D01*
X137805105Y-93167827D01*
X137841081Y-93176103D01*
X137879721Y-93183110D01*
X137922856Y-93188979D01*
X137972320Y-93193838D01*
X138029944Y-93197817D01*
X138097562Y-93201047D01*
X138177005Y-93203656D01*
X138270107Y-93205774D01*
X138378698Y-93207531D01*
X138504613Y-93209056D01*
X138649683Y-93210479D01*
X138792449Y-93211732D01*
X138948639Y-93213058D01*
X139083910Y-93214263D01*
X139199917Y-93215473D01*
X139298316Y-93216813D01*
X139380764Y-93218407D01*
X139448917Y-93220382D01*
X139504431Y-93222863D01*
X139548963Y-93225976D01*
X139584169Y-93229845D01*
X139611705Y-93234596D01*
X139633227Y-93240355D01*
X139650393Y-93247246D01*
X139664857Y-93255396D01*
X139678277Y-93264930D01*
X139692309Y-93275973D01*
X139697742Y-93280273D01*
X139720581Y-93296093D01*
X139736134Y-93303129D01*
X139736593Y-93303151D01*
X139738792Y-93292274D01*
X139740818Y-93261289D01*
X139742613Y-93212664D01*
X139744122Y-93148870D01*
X139745287Y-93072376D01*
X139746051Y-92985651D01*
X139746357Y-92891164D01*
X139746360Y-92880257D01*
X139746360Y-92457364D01*
X139650293Y-92454102D01*
X139554227Y-92450840D01*
X139605214Y-92388751D01*
X139672728Y-92291421D01*
X139727420Y-92181520D01*
X139757649Y-92095056D01*
X139772337Y-92025985D01*
X139782330Y-91942632D01*
X139787317Y-91852866D01*
X139786984Y-91764552D01*
X139781022Y-91685558D01*
X139775309Y-91649329D01*
X139737447Y-91509310D01*
X139682603Y-91382885D01*
X139611595Y-91270967D01*
X139525239Y-91174469D01*
X139424350Y-91094307D01*
X139309747Y-91031394D01*
X139183655Y-90987019D01*
X139127072Y-90974685D01*
X139064873Y-90967075D01*
X138990034Y-90963446D01*
X138956138Y-90962952D01*
X138952953Y-90963017D01*
X138952953Y-91722955D01*
X139028004Y-91732248D01*
X139091831Y-91760435D01*
X139147469Y-91808904D01*
X139151882Y-91813961D01*
X139186708Y-91862255D01*
X139209291Y-91913964D01*
X139221211Y-91974696D01*
X139224054Y-92050059D01*
X139223649Y-92068166D01*
X139220996Y-92121985D01*
X139215580Y-92162015D01*
X139205416Y-92197031D01*
X139188521Y-92235810D01*
X139183343Y-92246452D01*
X139147515Y-92307103D01*
X139104883Y-92353922D01*
X139089644Y-92366659D01*
X139033133Y-92411329D01*
X138837257Y-92411329D01*
X138758610Y-92410793D01*
X138700659Y-92409103D01*
X138661546Y-92406135D01*
X138639412Y-92401764D01*
X138632945Y-92397679D01*
X138629782Y-92381754D01*
X138627159Y-92347971D01*
X138625326Y-92301047D01*
X138624528Y-92245700D01*
X138624513Y-92236813D01*
X138629767Y-92116037D01*
X138645934Y-92013367D01*
X138673632Y-91926813D01*
X138713479Y-91854388D01*
X138760429Y-91799458D01*
X138818316Y-91754911D01*
X138881364Y-91730187D01*
X138952953Y-91722955D01*
X138952953Y-90963017D01*
X138862383Y-90964885D01*
X138783483Y-90973229D01*
X138712261Y-90989475D01*
X138641535Y-91015112D01*
X138589164Y-91039108D01*
X138493867Y-91097727D01*
X138405841Y-91175824D01*
X138326688Y-91271022D01*
X138258011Y-91380945D01*
X138201412Y-91503217D01*
X138158492Y-91635462D01*
X138143553Y-91700129D01*
X138121448Y-91836311D01*
X138106865Y-91984756D01*
X138100484Y-92136212D01*
X138102116Y-92262771D01*
X138108895Y-92424657D01*
X138049916Y-92417237D01*
X137950763Y-92397945D01*
X137870043Y-92366811D01*
X137807137Y-92322976D01*
X137761427Y-92265578D01*
X137732293Y-92193755D01*
X137719118Y-92106648D01*
X137721282Y-92003393D01*
X137725283Y-91965418D01*
X137750451Y-91824227D01*
X137791485Y-91687414D01*
X137829486Y-91592885D01*
X137848861Y-91547725D01*
X137864431Y-91509292D01*
X137874076Y-91482941D01*
X137876123Y-91475253D01*
X137867045Y-91465509D01*
X137838076Y-91448790D01*
X137788888Y-91424939D01*
X137719155Y-91393800D01*
X137628550Y-91355214D01*
X137612760Y-91348617D01*
X137540443Y-91318560D01*
X137475096Y-91291581D01*
X137419577Y-91268843D01*
X137376743Y-91251513D01*
X137349452Y-91240755D01*
X137340613Y-91237648D01*
X137335858Y-91247647D01*
X137330581Y-91273924D01*
X137326902Y-91302196D01*
X137322145Y-91332353D01*
X137312699Y-91380140D01*
X137299491Y-91441319D01*
X137283447Y-91511653D01*
X137265491Y-91586901D01*
X137258468Y-91615462D01*
X137232880Y-91720523D01*
X137212818Y-91808187D01*
X137197640Y-91882775D01*
X137186706Y-91948610D01*
X137179375Y-92010014D01*
X137175006Y-92071309D01*
X137172958Y-92136817D01*
X137172560Y-92194835D01*
X137179223Y-92364281D01*
G36*
X136261742Y-90019136D02*
X136282916Y-90179277D01*
X136323056Y-90343217D01*
X136382560Y-90513020D01*
X136461825Y-90690750D01*
X136467370Y-90702017D01*
X136495396Y-90759712D01*
X136519473Y-90811259D01*
X136537920Y-90852898D01*
X136549057Y-90880869D01*
X136551604Y-90890440D01*
X136556612Y-90909657D01*
X136560818Y-90914268D01*
X136571251Y-90909165D01*
X136597539Y-90893125D01*
X136636928Y-90867995D01*
X136686662Y-90835621D01*
X136743986Y-90797850D01*
X136806147Y-90756529D01*
X136870389Y-90713505D01*
X136933956Y-90670624D01*
X136994096Y-90629733D01*
X137048051Y-90592678D01*
X137093068Y-90561307D01*
X137126392Y-90537466D01*
X137145268Y-90523001D01*
X137147458Y-90521016D01*
X137142809Y-90510898D01*
X137125633Y-90488557D01*
X137099111Y-90457987D01*
X137084635Y-90442243D01*
X137009353Y-90345754D01*
X136953912Y-90239043D01*
X136918812Y-90123539D01*
X136904551Y-90000669D01*
X136905722Y-89931268D01*
X136922883Y-89810130D01*
X136958765Y-89700912D01*
X137013630Y-89603289D01*
X137087741Y-89516935D01*
X137181359Y-89441522D01*
X137294747Y-89376725D01*
X137381338Y-89339308D01*
X137517037Y-89295455D01*
X137664521Y-89263135D01*
X137819985Y-89242264D01*
X137979627Y-89232758D01*
X138139644Y-89234534D01*
X138296232Y-89247510D01*
X138445589Y-89271601D01*
X138583911Y-89306725D01*
X138707395Y-89352799D01*
X138741649Y-89369080D01*
X138855735Y-89437327D01*
X138952228Y-89517786D01*
X139030341Y-89609277D01*
X139089288Y-89710618D01*
X139128283Y-89820627D01*
X139146539Y-89938122D01*
X139147882Y-89979590D01*
X139136961Y-90101148D01*
X139104145Y-90221585D01*
X139050110Y-90339373D01*
X138975536Y-90452984D01*
X138897210Y-90544392D01*
X138852679Y-90590922D01*
X139149942Y-90772190D01*
X139224104Y-90817287D01*
X139292317Y-90858526D01*
X139352130Y-90894442D01*
X139401091Y-90923573D01*
X139436750Y-90944457D01*
X139456655Y-90955631D01*
X139459750Y-90957082D01*
X139469389Y-90948853D01*
X139486670Y-90923274D01*
X139509954Y-90883580D01*
X139537605Y-90833004D01*
X139567986Y-90774781D01*
X139599461Y-90712144D01*
X139630393Y-90648328D01*
X139659144Y-90586567D01*
X139684079Y-90530095D01*
X139703560Y-90482145D01*
X139711989Y-90458693D01*
X139749804Y-90324928D01*
X139774807Y-90187034D01*
X139787811Y-90039329D01*
X139790139Y-89912540D01*
X139789044Y-89844585D01*
X139786946Y-89778984D01*
X139784105Y-89721554D01*
X139780777Y-89678110D01*
X139779093Y-89664005D01*
X139750258Y-89524991D01*
X139705139Y-89383464D01*
X139646421Y-89245982D01*
X139576791Y-89119101D01*
X139524112Y-89041596D01*
X139415910Y-88914188D01*
X139289342Y-88795885D01*
X139147537Y-88688879D01*
X138993622Y-88595359D01*
X138830724Y-88517517D01*
X138713427Y-88473663D01*
X138529799Y-88423415D01*
X138335252Y-88389916D01*
X138133996Y-88373156D01*
X137930239Y-88373123D01*
X137728192Y-88389808D01*
X137532063Y-88423200D01*
X137346062Y-88473287D01*
X137334474Y-88477104D01*
X137172421Y-88539988D01*
X137024503Y-88616735D01*
X136886536Y-88709949D01*
X136754332Y-88822234D01*
X136709070Y-88866099D01*
X136585128Y-89002241D01*
X136482586Y-89142198D01*
X136400327Y-89288118D01*
X136337235Y-89442149D01*
X136292194Y-89606439D01*
X136274704Y-89701996D01*
X136259137Y-89860730D01*
X136261742Y-90019136D01*
X136261742Y-90019136D01*
G37*
X136261742Y-90019136D02*
X136282916Y-90179277D01*
X136323056Y-90343217D01*
X136382560Y-90513020D01*
X136461825Y-90690750D01*
X136467370Y-90702017D01*
X136495396Y-90759712D01*
X136519473Y-90811259D01*
X136537920Y-90852898D01*
X136549057Y-90880869D01*
X136551604Y-90890440D01*
X136556612Y-90909657D01*
X136560818Y-90914268D01*
X136571251Y-90909165D01*
X136597539Y-90893125D01*
X136636928Y-90867995D01*
X136686662Y-90835621D01*
X136743986Y-90797850D01*
X136806147Y-90756529D01*
X136870389Y-90713505D01*
X136933956Y-90670624D01*
X136994096Y-90629733D01*
X137048051Y-90592678D01*
X137093068Y-90561307D01*
X137126392Y-90537466D01*
X137145268Y-90523001D01*
X137147458Y-90521016D01*
X137142809Y-90510898D01*
X137125633Y-90488557D01*
X137099111Y-90457987D01*
X137084635Y-90442243D01*
X137009353Y-90345754D01*
X136953912Y-90239043D01*
X136918812Y-90123539D01*
X136904551Y-90000669D01*
X136905722Y-89931268D01*
X136922883Y-89810130D01*
X136958765Y-89700912D01*
X137013630Y-89603289D01*
X137087741Y-89516935D01*
X137181359Y-89441522D01*
X137294747Y-89376725D01*
X137381338Y-89339308D01*
X137517037Y-89295455D01*
X137664521Y-89263135D01*
X137819985Y-89242264D01*
X137979627Y-89232758D01*
X138139644Y-89234534D01*
X138296232Y-89247510D01*
X138445589Y-89271601D01*
X138583911Y-89306725D01*
X138707395Y-89352799D01*
X138741649Y-89369080D01*
X138855735Y-89437327D01*
X138952228Y-89517786D01*
X139030341Y-89609277D01*
X139089288Y-89710618D01*
X139128283Y-89820627D01*
X139146539Y-89938122D01*
X139147882Y-89979590D01*
X139136961Y-90101148D01*
X139104145Y-90221585D01*
X139050110Y-90339373D01*
X138975536Y-90452984D01*
X138897210Y-90544392D01*
X138852679Y-90590922D01*
X139149942Y-90772190D01*
X139224104Y-90817287D01*
X139292317Y-90858526D01*
X139352130Y-90894442D01*
X139401091Y-90923573D01*
X139436750Y-90944457D01*
X139456655Y-90955631D01*
X139459750Y-90957082D01*
X139469389Y-90948853D01*
X139486670Y-90923274D01*
X139509954Y-90883580D01*
X139537605Y-90833004D01*
X139567986Y-90774781D01*
X139599461Y-90712144D01*
X139630393Y-90648328D01*
X139659144Y-90586567D01*
X139684079Y-90530095D01*
X139703560Y-90482145D01*
X139711989Y-90458693D01*
X139749804Y-90324928D01*
X139774807Y-90187034D01*
X139787811Y-90039329D01*
X139790139Y-89912540D01*
X139789044Y-89844585D01*
X139786946Y-89778984D01*
X139784105Y-89721554D01*
X139780777Y-89678110D01*
X139779093Y-89664005D01*
X139750258Y-89524991D01*
X139705139Y-89383464D01*
X139646421Y-89245982D01*
X139576791Y-89119101D01*
X139524112Y-89041596D01*
X139415910Y-88914188D01*
X139289342Y-88795885D01*
X139147537Y-88688879D01*
X138993622Y-88595359D01*
X138830724Y-88517517D01*
X138713427Y-88473663D01*
X138529799Y-88423415D01*
X138335252Y-88389916D01*
X138133996Y-88373156D01*
X137930239Y-88373123D01*
X137728192Y-88389808D01*
X137532063Y-88423200D01*
X137346062Y-88473287D01*
X137334474Y-88477104D01*
X137172421Y-88539988D01*
X137024503Y-88616735D01*
X136886536Y-88709949D01*
X136754332Y-88822234D01*
X136709070Y-88866099D01*
X136585128Y-89002241D01*
X136482586Y-89142198D01*
X136400327Y-89288118D01*
X136337235Y-89442149D01*
X136292194Y-89606439D01*
X136274704Y-89701996D01*
X136259137Y-89860730D01*
X136261742Y-90019136D01*
G36*
X135801725Y-86744307D02*
X135915664Y-86755172D01*
X136023287Y-86786789D01*
X136122286Y-86837692D01*
X136210355Y-86906414D01*
X136285187Y-86991488D01*
X136343055Y-87088475D01*
X136382676Y-87194743D01*
X136401244Y-87301757D01*
X136400105Y-87407407D01*
X136380601Y-87509582D01*
X136344077Y-87606173D01*
X136291876Y-87695069D01*
X136225344Y-87774161D01*
X136145823Y-87841338D01*
X136054658Y-87894490D01*
X135953194Y-87931508D01*
X135842773Y-87950280D01*
X135792877Y-87952218D01*
X135704938Y-87952218D01*
X135704938Y-88004147D01*
X135707782Y-88040454D01*
X135719582Y-88067352D01*
X135743320Y-88094458D01*
X135781702Y-88132840D01*
X137973273Y-88132840D01*
X138235410Y-88132831D01*
X138475912Y-88132799D01*
X138695719Y-88132735D01*
X138895772Y-88132631D01*
X139077015Y-88132480D01*
X139240387Y-88132273D01*
X139386831Y-88132001D01*
X139517288Y-88131657D01*
X139632700Y-88131233D01*
X139734009Y-88130720D01*
X139822155Y-88130110D01*
X139898081Y-88129395D01*
X139962728Y-88128567D01*
X140017038Y-88127618D01*
X140061951Y-88126540D01*
X140098411Y-88125324D01*
X140127358Y-88123962D01*
X140149734Y-88122446D01*
X140166480Y-88120769D01*
X140178539Y-88118921D01*
X140186851Y-88116894D01*
X140192358Y-88114682D01*
X140194208Y-88113599D01*
X140201220Y-88109436D01*
X140207667Y-88105902D01*
X140213571Y-88102072D01*
X140218957Y-88097025D01*
X140223849Y-88089836D01*
X140228269Y-88079584D01*
X140232243Y-88065343D01*
X140235792Y-88046193D01*
X140238941Y-88021208D01*
X140241713Y-87989467D01*
X140244132Y-87950045D01*
X140246222Y-87902021D01*
X140248006Y-87844470D01*
X140249508Y-87776470D01*
X140250751Y-87697097D01*
X140251760Y-87605428D01*
X140252556Y-87500541D01*
X140253165Y-87381511D01*
X140253610Y-87247417D01*
X140253914Y-87097334D01*
X140254101Y-86930340D01*
X140254195Y-86745511D01*
X140254219Y-86541924D01*
X140254196Y-86318657D01*
X140254151Y-86074785D01*
X140254108Y-85809386D01*
X140254103Y-85771003D01*
X140254060Y-85504025D01*
X140253989Y-85258705D01*
X140253884Y-85034124D01*
X140253737Y-84829362D01*
X140253540Y-84643501D01*
X140253287Y-84475619D01*
X140252971Y-84324799D01*
X140252584Y-84190120D01*
X140252118Y-84070663D01*
X140251568Y-83965508D01*
X140250924Y-83873736D01*
X140250182Y-83794428D01*
X140249332Y-83726664D01*
X140248368Y-83669525D01*
X140247282Y-83622090D01*
X140246068Y-83583441D01*
X140244718Y-83552658D01*
X140243226Y-83528822D01*
X140241582Y-83511013D01*
X140239782Y-83498312D01*
X140237816Y-83489799D01*
X140236148Y-83485441D01*
X140232577Y-83476979D01*
X140229941Y-83469210D01*
X140227305Y-83462105D01*
X140223733Y-83455634D01*
X140218292Y-83449768D01*
X140210046Y-83444478D01*
X140198061Y-83439733D01*
X140181402Y-83435505D01*
X140159134Y-83431764D01*
X140130323Y-83428480D01*
X140094034Y-83425624D01*
X140049332Y-83423167D01*
X139995282Y-83421078D01*
X139930950Y-83419329D01*
X139855401Y-83417890D01*
X139767701Y-83416731D01*
X139666914Y-83415824D01*
X139552105Y-83415138D01*
X139422341Y-83414644D01*
X139276686Y-83414312D01*
X139114206Y-83414114D01*
X138933966Y-83414020D01*
X138735031Y-83413999D01*
X138516467Y-83414022D01*
X138277339Y-83414061D01*
X138016711Y-83414085D01*
X137974560Y-83414085D01*
X137711663Y-83414071D01*
X137470403Y-83414046D01*
X137249836Y-83414036D01*
X137049023Y-83414065D01*
X136867020Y-83414159D01*
X136702887Y-83414345D01*
X136555682Y-83414648D01*
X136424463Y-83415093D01*
X136314538Y-83415673D01*
X136314538Y-83718510D01*
X136372382Y-83758300D01*
X136388150Y-83769471D01*
X136402112Y-83779541D01*
X136415455Y-83788569D01*
X136429364Y-83796610D01*
X136445027Y-83803721D01*
X136463629Y-83809960D01*
X136486357Y-83815382D01*
X136514398Y-83820045D01*
X136548938Y-83824006D01*
X136591163Y-83827322D01*
X136642260Y-83830048D01*
X136703415Y-83832243D01*
X136775815Y-83833962D01*
X136860646Y-83835263D01*
X136959093Y-83836202D01*
X137072345Y-83836837D01*
X137201587Y-83837223D01*
X137348005Y-83837419D01*
X137512787Y-83837480D01*
X137697118Y-83837464D01*
X137902184Y-83837427D01*
X138024804Y-83837418D01*
X138241753Y-83837442D01*
X138437313Y-83837476D01*
X138612670Y-83837464D01*
X138769012Y-83837349D01*
X138907528Y-83837077D01*
X139029405Y-83836589D01*
X139135831Y-83835831D01*
X139227993Y-83834745D01*
X139307080Y-83833276D01*
X139374279Y-83831367D01*
X139430778Y-83828963D01*
X139477764Y-83826006D01*
X139516426Y-83822441D01*
X139547951Y-83818212D01*
X139573526Y-83813261D01*
X139594341Y-83807534D01*
X139611582Y-83800974D01*
X139626436Y-83793524D01*
X139640093Y-83785128D01*
X139653740Y-83775731D01*
X139668564Y-83765275D01*
X139677454Y-83759184D01*
X139735071Y-83720411D01*
X139735071Y-84251975D01*
X139735036Y-84375224D01*
X139734886Y-84477720D01*
X139734549Y-84561287D01*
X139733957Y-84627751D01*
X139733038Y-84678936D01*
X139731722Y-84716666D01*
X139729940Y-84742767D01*
X139727622Y-84759063D01*
X139724697Y-84767379D01*
X139721095Y-84769539D01*
X139716746Y-84767368D01*
X139715316Y-84766172D01*
X139678244Y-84741022D01*
X139625443Y-84715124D01*
X139563441Y-84691515D01*
X139537028Y-84683246D01*
X139519087Y-84678629D01*
X139498026Y-84674728D01*
X139471760Y-84671459D01*
X139438203Y-84668741D01*
X139395270Y-84666492D01*
X139340875Y-84664630D01*
X139272933Y-84663071D01*
X139189359Y-84661735D01*
X139088066Y-84660538D01*
X138966971Y-84659399D01*
X138922271Y-84659022D01*
X138797120Y-84658005D01*
X138692753Y-84657247D01*
X138607378Y-84656804D01*
X138539204Y-84656737D01*
X138486436Y-84657102D01*
X138447285Y-84657959D01*
X138419956Y-84659366D01*
X138402657Y-84661382D01*
X138393597Y-84664064D01*
X138390983Y-84667471D01*
X138393022Y-84671663D01*
X138397338Y-84676136D01*
X138410273Y-84686491D01*
X138439347Y-84708549D01*
X138482430Y-84740750D01*
X138537389Y-84781533D01*
X138602094Y-84829337D01*
X138674413Y-84882602D01*
X138752215Y-84939767D01*
X138833369Y-84999270D01*
X138915743Y-85059552D01*
X138997207Y-85119052D01*
X139075628Y-85176209D01*
X139148875Y-85229462D01*
X139214818Y-85277250D01*
X139271325Y-85318014D01*
X139316264Y-85350191D01*
X139347505Y-85372222D01*
X139354137Y-85376790D01*
X139391040Y-85399711D01*
X139439030Y-85426519D01*
X139488568Y-85451918D01*
X139495248Y-85455139D01*
X139543443Y-85476817D01*
X139581005Y-85489403D01*
X139616831Y-85495133D01*
X139658871Y-85496251D01*
X139735071Y-85495617D01*
X139735071Y-86650056D01*
X139641340Y-86558892D01*
X139591446Y-86512095D01*
X139534966Y-86461808D01*
X139480697Y-86415763D01*
X139455344Y-86395338D01*
X139415799Y-86364900D01*
X139362587Y-86324845D01*
X139297338Y-86276346D01*
X139221682Y-86220572D01*
X139137248Y-86158696D01*
X139045665Y-86091888D01*
X138948563Y-86021320D01*
X138847572Y-85948162D01*
X138744321Y-85873586D01*
X138640439Y-85798763D01*
X138537556Y-85724864D01*
X138437302Y-85653061D01*
X138341307Y-85584523D01*
X138251198Y-85520423D01*
X138168607Y-85461932D01*
X138095163Y-85410221D01*
X138032495Y-85366460D01*
X137982232Y-85331822D01*
X137946005Y-85307477D01*
X137925442Y-85294596D01*
X137921339Y-85292838D01*
X137910013Y-85300797D01*
X137882833Y-85321592D01*
X137841500Y-85353860D01*
X137787715Y-85396237D01*
X137723177Y-85447360D01*
X137649589Y-85505866D01*
X137568649Y-85570393D01*
X137482059Y-85639576D01*
X137391519Y-85712054D01*
X137298731Y-85786461D01*
X137224373Y-85846190D01*
X137224373Y-86857196D01*
X137237330Y-86863105D01*
X137259579Y-86877435D01*
X137261062Y-86878482D01*
X137291215Y-86897269D01*
X137328046Y-86916916D01*
X137336182Y-86920815D01*
X137344611Y-86924351D01*
X137354730Y-86927477D01*
X137367931Y-86930221D01*
X137385609Y-86932615D01*
X137409155Y-86934688D01*
X137439964Y-86936472D01*
X137479428Y-86937995D01*
X137528940Y-86939288D01*
X137589894Y-86940381D01*
X137663682Y-86941304D01*
X137751699Y-86942088D01*
X137855336Y-86942762D01*
X137975987Y-86943357D01*
X138115045Y-86943902D01*
X138273903Y-86944428D01*
X138452760Y-86944962D01*
X138637878Y-86945501D01*
X138801816Y-86945935D01*
X138945974Y-86946198D01*
X139071750Y-86946223D01*
X139180542Y-86945942D01*
X139273748Y-86945288D01*
X139352768Y-86944193D01*
X139418999Y-86942589D01*
X139473841Y-86940410D01*
X139518692Y-86937588D01*
X139554949Y-86934056D01*
X139584012Y-86929746D01*
X139607280Y-86924590D01*
X139626150Y-86918522D01*
X139642022Y-86911474D01*
X139656293Y-86903378D01*
X139670362Y-86894167D01*
X139682829Y-86885667D01*
X139709123Y-86868531D01*
X139726708Y-86858385D01*
X139729928Y-86857196D01*
X139731005Y-86868103D01*
X139732006Y-86899296D01*
X139732906Y-86948484D01*
X139733681Y-87013374D01*
X139734308Y-87091677D01*
X139734762Y-87181100D01*
X139735020Y-87279351D01*
X139735071Y-87348262D01*
X139734851Y-87453255D01*
X139734219Y-87550097D01*
X139733220Y-87636600D01*
X139731898Y-87710575D01*
X139730297Y-87769833D01*
X139728462Y-87812187D01*
X139726436Y-87835447D01*
X139725164Y-87839329D01*
X139710262Y-87831631D01*
X139702231Y-87823633D01*
X139685105Y-87810461D01*
X139654854Y-87793222D01*
X139630293Y-87781300D01*
X139571382Y-87754662D01*
X138394516Y-87751587D01*
X137217649Y-87748512D01*
X137217649Y-87302854D01*
X137217813Y-87205037D01*
X137218282Y-87114643D01*
X137219018Y-87034077D01*
X137219987Y-86965745D01*
X137221151Y-86912051D01*
X137222474Y-86875402D01*
X137223920Y-86858203D01*
X137224373Y-86857196D01*
X137224373Y-85846190D01*
X137205393Y-85861437D01*
X137113208Y-85935617D01*
X137023875Y-86007638D01*
X136939095Y-86076138D01*
X136860569Y-86139752D01*
X136789997Y-86197119D01*
X136729080Y-86246874D01*
X136679518Y-86287655D01*
X136658849Y-86304819D01*
X136558187Y-86391111D01*
X136474930Y-86467710D01*
X136407109Y-86536524D01*
X136352760Y-86599459D01*
X136345393Y-86608840D01*
X136314788Y-86648351D01*
X136314538Y-85516591D01*
X136362515Y-85521880D01*
X136419859Y-85518577D01*
X136488134Y-85497046D01*
X136567883Y-85457072D01*
X136640166Y-85411764D01*
X136662811Y-85395546D01*
X136700367Y-85367493D01*
X136750692Y-85329277D01*
X136811644Y-85282570D01*
X136881082Y-85229046D01*
X136956865Y-85170376D01*
X137036851Y-85108232D01*
X137118899Y-85044286D01*
X137200867Y-84980212D01*
X137280614Y-84917680D01*
X137355998Y-84858364D01*
X137424878Y-84803936D01*
X137485113Y-84756068D01*
X137534560Y-84716432D01*
X137571079Y-84686701D01*
X137592529Y-84668546D01*
X137595827Y-84665487D01*
X137587820Y-84662628D01*
X137557526Y-84660414D01*
X137505227Y-84658850D01*
X137431202Y-84657940D01*
X137335734Y-84657687D01*
X137219105Y-84658094D01*
X137099116Y-84659003D01*
X136967004Y-84660325D01*
X136855265Y-84661850D01*
X136761696Y-84663826D01*
X136684090Y-84666501D01*
X136620245Y-84670125D01*
X136567954Y-84674946D01*
X136525015Y-84681213D01*
X136489222Y-84689175D01*
X136458371Y-84699080D01*
X136430257Y-84711176D01*
X136402676Y-84725714D01*
X136377637Y-84740396D01*
X136314538Y-84778393D01*
X136314538Y-83718510D01*
X136314538Y-83415673D01*
X136308288Y-83415706D01*
X136206215Y-83416512D01*
X136117304Y-83417537D01*
X136040612Y-83418807D01*
X135975198Y-83420347D01*
X135920120Y-83422183D01*
X135874436Y-83424340D01*
X135837205Y-83426844D01*
X135807484Y-83429720D01*
X135784333Y-83432994D01*
X135766810Y-83436692D01*
X135753972Y-83440838D01*
X135744879Y-83445460D01*
X135738589Y-83450581D01*
X135734159Y-83456229D01*
X135730649Y-83462428D01*
X135727116Y-83469203D01*
X135723547Y-83475199D01*
X135720971Y-83480432D01*
X135718643Y-83488608D01*
X135716549Y-83500821D01*
X135714678Y-83518166D01*
X135713018Y-83541738D01*
X135711555Y-83572630D01*
X135710279Y-83611939D01*
X135709175Y-83660757D01*
X135708232Y-83720180D01*
X135707438Y-83791303D01*
X135706780Y-83875219D01*
X135706246Y-83973024D01*
X135705824Y-84085813D01*
X135705500Y-84214678D01*
X135705263Y-84360716D01*
X135705101Y-84525021D01*
X135705001Y-84708687D01*
X135704951Y-84912810D01*
X135704938Y-85123954D01*
X135704938Y-86744307D01*
X135801725Y-86744307D01*
X135801725Y-86744307D01*
G37*
X135801725Y-86744307D02*
X135915664Y-86755172D01*
X136023287Y-86786789D01*
X136122286Y-86837692D01*
X136210355Y-86906414D01*
X136285187Y-86991488D01*
X136343055Y-87088475D01*
X136382676Y-87194743D01*
X136401244Y-87301757D01*
X136400105Y-87407407D01*
X136380601Y-87509582D01*
X136344077Y-87606173D01*
X136291876Y-87695069D01*
X136225344Y-87774161D01*
X136145823Y-87841338D01*
X136054658Y-87894490D01*
X135953194Y-87931508D01*
X135842773Y-87950280D01*
X135792877Y-87952218D01*
X135704938Y-87952218D01*
X135704938Y-88004147D01*
X135707782Y-88040454D01*
X135719582Y-88067352D01*
X135743320Y-88094458D01*
X135781702Y-88132840D01*
X137973273Y-88132840D01*
X138235410Y-88132831D01*
X138475912Y-88132799D01*
X138695719Y-88132735D01*
X138895772Y-88132631D01*
X139077015Y-88132480D01*
X139240387Y-88132273D01*
X139386831Y-88132001D01*
X139517288Y-88131657D01*
X139632700Y-88131233D01*
X139734009Y-88130720D01*
X139822155Y-88130110D01*
X139898081Y-88129395D01*
X139962728Y-88128567D01*
X140017038Y-88127618D01*
X140061951Y-88126540D01*
X140098411Y-88125324D01*
X140127358Y-88123962D01*
X140149734Y-88122446D01*
X140166480Y-88120769D01*
X140178539Y-88118921D01*
X140186851Y-88116894D01*
X140192358Y-88114682D01*
X140194208Y-88113599D01*
X140201220Y-88109436D01*
X140207667Y-88105902D01*
X140213571Y-88102072D01*
X140218957Y-88097025D01*
X140223849Y-88089836D01*
X140228269Y-88079584D01*
X140232243Y-88065343D01*
X140235792Y-88046193D01*
X140238941Y-88021208D01*
X140241713Y-87989467D01*
X140244132Y-87950045D01*
X140246222Y-87902021D01*
X140248006Y-87844470D01*
X140249508Y-87776470D01*
X140250751Y-87697097D01*
X140251760Y-87605428D01*
X140252556Y-87500541D01*
X140253165Y-87381511D01*
X140253610Y-87247417D01*
X140253914Y-87097334D01*
X140254101Y-86930340D01*
X140254195Y-86745511D01*
X140254219Y-86541924D01*
X140254196Y-86318657D01*
X140254151Y-86074785D01*
X140254108Y-85809386D01*
X140254103Y-85771003D01*
X140254060Y-85504025D01*
X140253989Y-85258705D01*
X140253884Y-85034124D01*
X140253737Y-84829362D01*
X140253540Y-84643501D01*
X140253287Y-84475619D01*
X140252971Y-84324799D01*
X140252584Y-84190120D01*
X140252118Y-84070663D01*
X140251568Y-83965508D01*
X140250924Y-83873736D01*
X140250182Y-83794428D01*
X140249332Y-83726664D01*
X140248368Y-83669525D01*
X140247282Y-83622090D01*
X140246068Y-83583441D01*
X140244718Y-83552658D01*
X140243226Y-83528822D01*
X140241582Y-83511013D01*
X140239782Y-83498312D01*
X140237816Y-83489799D01*
X140236148Y-83485441D01*
X140232577Y-83476979D01*
X140229941Y-83469210D01*
X140227305Y-83462105D01*
X140223733Y-83455634D01*
X140218292Y-83449768D01*
X140210046Y-83444478D01*
X140198061Y-83439733D01*
X140181402Y-83435505D01*
X140159134Y-83431764D01*
X140130323Y-83428480D01*
X140094034Y-83425624D01*
X140049332Y-83423167D01*
X139995282Y-83421078D01*
X139930950Y-83419329D01*
X139855401Y-83417890D01*
X139767701Y-83416731D01*
X139666914Y-83415824D01*
X139552105Y-83415138D01*
X139422341Y-83414644D01*
X139276686Y-83414312D01*
X139114206Y-83414114D01*
X138933966Y-83414020D01*
X138735031Y-83413999D01*
X138516467Y-83414022D01*
X138277339Y-83414061D01*
X138016711Y-83414085D01*
X137974560Y-83414085D01*
X137711663Y-83414071D01*
X137470403Y-83414046D01*
X137249836Y-83414036D01*
X137049023Y-83414065D01*
X136867020Y-83414159D01*
X136702887Y-83414345D01*
X136555682Y-83414648D01*
X136424463Y-83415093D01*
X136314538Y-83415673D01*
X136314538Y-83718510D01*
X136372382Y-83758300D01*
X136388150Y-83769471D01*
X136402112Y-83779541D01*
X136415455Y-83788569D01*
X136429364Y-83796610D01*
X136445027Y-83803721D01*
X136463629Y-83809960D01*
X136486357Y-83815382D01*
X136514398Y-83820045D01*
X136548938Y-83824006D01*
X136591163Y-83827322D01*
X136642260Y-83830048D01*
X136703415Y-83832243D01*
X136775815Y-83833962D01*
X136860646Y-83835263D01*
X136959093Y-83836202D01*
X137072345Y-83836837D01*
X137201587Y-83837223D01*
X137348005Y-83837419D01*
X137512787Y-83837480D01*
X137697118Y-83837464D01*
X137902184Y-83837427D01*
X138024804Y-83837418D01*
X138241753Y-83837442D01*
X138437313Y-83837476D01*
X138612670Y-83837464D01*
X138769012Y-83837349D01*
X138907528Y-83837077D01*
X139029405Y-83836589D01*
X139135831Y-83835831D01*
X139227993Y-83834745D01*
X139307080Y-83833276D01*
X139374279Y-83831367D01*
X139430778Y-83828963D01*
X139477764Y-83826006D01*
X139516426Y-83822441D01*
X139547951Y-83818212D01*
X139573526Y-83813261D01*
X139594341Y-83807534D01*
X139611582Y-83800974D01*
X139626436Y-83793524D01*
X139640093Y-83785128D01*
X139653740Y-83775731D01*
X139668564Y-83765275D01*
X139677454Y-83759184D01*
X139735071Y-83720411D01*
X139735071Y-84251975D01*
X139735036Y-84375224D01*
X139734886Y-84477720D01*
X139734549Y-84561287D01*
X139733957Y-84627751D01*
X139733038Y-84678936D01*
X139731722Y-84716666D01*
X139729940Y-84742767D01*
X139727622Y-84759063D01*
X139724697Y-84767379D01*
X139721095Y-84769539D01*
X139716746Y-84767368D01*
X139715316Y-84766172D01*
X139678244Y-84741022D01*
X139625443Y-84715124D01*
X139563441Y-84691515D01*
X139537028Y-84683246D01*
X139519087Y-84678629D01*
X139498026Y-84674728D01*
X139471760Y-84671459D01*
X139438203Y-84668741D01*
X139395270Y-84666492D01*
X139340875Y-84664630D01*
X139272933Y-84663071D01*
X139189359Y-84661735D01*
X139088066Y-84660538D01*
X138966971Y-84659399D01*
X138922271Y-84659022D01*
X138797120Y-84658005D01*
X138692753Y-84657247D01*
X138607378Y-84656804D01*
X138539204Y-84656737D01*
X138486436Y-84657102D01*
X138447285Y-84657959D01*
X138419956Y-84659366D01*
X138402657Y-84661382D01*
X138393597Y-84664064D01*
X138390983Y-84667471D01*
X138393022Y-84671663D01*
X138397338Y-84676136D01*
X138410273Y-84686491D01*
X138439347Y-84708549D01*
X138482430Y-84740750D01*
X138537389Y-84781533D01*
X138602094Y-84829337D01*
X138674413Y-84882602D01*
X138752215Y-84939767D01*
X138833369Y-84999270D01*
X138915743Y-85059552D01*
X138997207Y-85119052D01*
X139075628Y-85176209D01*
X139148875Y-85229462D01*
X139214818Y-85277250D01*
X139271325Y-85318014D01*
X139316264Y-85350191D01*
X139347505Y-85372222D01*
X139354137Y-85376790D01*
X139391040Y-85399711D01*
X139439030Y-85426519D01*
X139488568Y-85451918D01*
X139495248Y-85455139D01*
X139543443Y-85476817D01*
X139581005Y-85489403D01*
X139616831Y-85495133D01*
X139658871Y-85496251D01*
X139735071Y-85495617D01*
X139735071Y-86650056D01*
X139641340Y-86558892D01*
X139591446Y-86512095D01*
X139534966Y-86461808D01*
X139480697Y-86415763D01*
X139455344Y-86395338D01*
X139415799Y-86364900D01*
X139362587Y-86324845D01*
X139297338Y-86276346D01*
X139221682Y-86220572D01*
X139137248Y-86158696D01*
X139045665Y-86091888D01*
X138948563Y-86021320D01*
X138847572Y-85948162D01*
X138744321Y-85873586D01*
X138640439Y-85798763D01*
X138537556Y-85724864D01*
X138437302Y-85653061D01*
X138341307Y-85584523D01*
X138251198Y-85520423D01*
X138168607Y-85461932D01*
X138095163Y-85410221D01*
X138032495Y-85366460D01*
X137982232Y-85331822D01*
X137946005Y-85307477D01*
X137925442Y-85294596D01*
X137921339Y-85292838D01*
X137910013Y-85300797D01*
X137882833Y-85321592D01*
X137841500Y-85353860D01*
X137787715Y-85396237D01*
X137723177Y-85447360D01*
X137649589Y-85505866D01*
X137568649Y-85570393D01*
X137482059Y-85639576D01*
X137391519Y-85712054D01*
X137298731Y-85786461D01*
X137224373Y-85846190D01*
X137224373Y-86857196D01*
X137237330Y-86863105D01*
X137259579Y-86877435D01*
X137261062Y-86878482D01*
X137291215Y-86897269D01*
X137328046Y-86916916D01*
X137336182Y-86920815D01*
X137344611Y-86924351D01*
X137354730Y-86927477D01*
X137367931Y-86930221D01*
X137385609Y-86932615D01*
X137409155Y-86934688D01*
X137439964Y-86936472D01*
X137479428Y-86937995D01*
X137528940Y-86939288D01*
X137589894Y-86940381D01*
X137663682Y-86941304D01*
X137751699Y-86942088D01*
X137855336Y-86942762D01*
X137975987Y-86943357D01*
X138115045Y-86943902D01*
X138273903Y-86944428D01*
X138452760Y-86944962D01*
X138637878Y-86945501D01*
X138801816Y-86945935D01*
X138945974Y-86946198D01*
X139071750Y-86946223D01*
X139180542Y-86945942D01*
X139273748Y-86945288D01*
X139352768Y-86944193D01*
X139418999Y-86942589D01*
X139473841Y-86940410D01*
X139518692Y-86937588D01*
X139554949Y-86934056D01*
X139584012Y-86929746D01*
X139607280Y-86924590D01*
X139626150Y-86918522D01*
X139642022Y-86911474D01*
X139656293Y-86903378D01*
X139670362Y-86894167D01*
X139682829Y-86885667D01*
X139709123Y-86868531D01*
X139726708Y-86858385D01*
X139729928Y-86857196D01*
X139731005Y-86868103D01*
X139732006Y-86899296D01*
X139732906Y-86948484D01*
X139733681Y-87013374D01*
X139734308Y-87091677D01*
X139734762Y-87181100D01*
X139735020Y-87279351D01*
X139735071Y-87348262D01*
X139734851Y-87453255D01*
X139734219Y-87550097D01*
X139733220Y-87636600D01*
X139731898Y-87710575D01*
X139730297Y-87769833D01*
X139728462Y-87812187D01*
X139726436Y-87835447D01*
X139725164Y-87839329D01*
X139710262Y-87831631D01*
X139702231Y-87823633D01*
X139685105Y-87810461D01*
X139654854Y-87793222D01*
X139630293Y-87781300D01*
X139571382Y-87754662D01*
X138394516Y-87751587D01*
X137217649Y-87748512D01*
X137217649Y-87302854D01*
X137217813Y-87205037D01*
X137218282Y-87114643D01*
X137219018Y-87034077D01*
X137219987Y-86965745D01*
X137221151Y-86912051D01*
X137222474Y-86875402D01*
X137223920Y-86858203D01*
X137224373Y-86857196D01*
X137224373Y-85846190D01*
X137205393Y-85861437D01*
X137113208Y-85935617D01*
X137023875Y-86007638D01*
X136939095Y-86076138D01*
X136860569Y-86139752D01*
X136789997Y-86197119D01*
X136729080Y-86246874D01*
X136679518Y-86287655D01*
X136658849Y-86304819D01*
X136558187Y-86391111D01*
X136474930Y-86467710D01*
X136407109Y-86536524D01*
X136352760Y-86599459D01*
X136345393Y-86608840D01*
X136314788Y-86648351D01*
X136314538Y-85516591D01*
X136362515Y-85521880D01*
X136419859Y-85518577D01*
X136488134Y-85497046D01*
X136567883Y-85457072D01*
X136640166Y-85411764D01*
X136662811Y-85395546D01*
X136700367Y-85367493D01*
X136750692Y-85329277D01*
X136811644Y-85282570D01*
X136881082Y-85229046D01*
X136956865Y-85170376D01*
X137036851Y-85108232D01*
X137118899Y-85044286D01*
X137200867Y-84980212D01*
X137280614Y-84917680D01*
X137355998Y-84858364D01*
X137424878Y-84803936D01*
X137485113Y-84756068D01*
X137534560Y-84716432D01*
X137571079Y-84686701D01*
X137592529Y-84668546D01*
X137595827Y-84665487D01*
X137587820Y-84662628D01*
X137557526Y-84660414D01*
X137505227Y-84658850D01*
X137431202Y-84657940D01*
X137335734Y-84657687D01*
X137219105Y-84658094D01*
X137099116Y-84659003D01*
X136967004Y-84660325D01*
X136855265Y-84661850D01*
X136761696Y-84663826D01*
X136684090Y-84666501D01*
X136620245Y-84670125D01*
X136567954Y-84674946D01*
X136525015Y-84681213D01*
X136489222Y-84689175D01*
X136458371Y-84699080D01*
X136430257Y-84711176D01*
X136402676Y-84725714D01*
X136377637Y-84740396D01*
X136314538Y-84778393D01*
X136314538Y-83718510D01*
X136314538Y-83415673D01*
X136308288Y-83415706D01*
X136206215Y-83416512D01*
X136117304Y-83417537D01*
X136040612Y-83418807D01*
X135975198Y-83420347D01*
X135920120Y-83422183D01*
X135874436Y-83424340D01*
X135837205Y-83426844D01*
X135807484Y-83429720D01*
X135784333Y-83432994D01*
X135766810Y-83436692D01*
X135753972Y-83440838D01*
X135744879Y-83445460D01*
X135738589Y-83450581D01*
X135734159Y-83456229D01*
X135730649Y-83462428D01*
X135727116Y-83469203D01*
X135723547Y-83475199D01*
X135720971Y-83480432D01*
X135718643Y-83488608D01*
X135716549Y-83500821D01*
X135714678Y-83518166D01*
X135713018Y-83541738D01*
X135711555Y-83572630D01*
X135710279Y-83611939D01*
X135709175Y-83660757D01*
X135708232Y-83720180D01*
X135707438Y-83791303D01*
X135706780Y-83875219D01*
X135706246Y-83973024D01*
X135705824Y-84085813D01*
X135705500Y-84214678D01*
X135705263Y-84360716D01*
X135705101Y-84525021D01*
X135705001Y-84708687D01*
X135704951Y-84912810D01*
X135704938Y-85123954D01*
X135704938Y-86744307D01*
X135801725Y-86744307D01*
G36*
X140587204Y-95919530D02*
X140609447Y-95950909D01*
X140637156Y-95978618D01*
X140946591Y-95978618D01*
X141038470Y-95978545D01*
X141110511Y-95978202D01*
X141165451Y-95977399D01*
X141206031Y-95975948D01*
X141234988Y-95973659D01*
X141255062Y-95970343D01*
X141268992Y-95965812D01*
X141279516Y-95959876D01*
X141285771Y-95955221D01*
X141310344Y-95924490D01*
X141313012Y-95889203D01*
X141297942Y-95856952D01*
X141289045Y-95846295D01*
X141277228Y-95839171D01*
X141258197Y-95834874D01*
X141227663Y-95832698D01*
X141181333Y-95831935D01*
X141145542Y-95831862D01*
X141010716Y-95831862D01*
X141010716Y-95335151D01*
X141133371Y-95335151D01*
X141189458Y-95334638D01*
X141228004Y-95332583D01*
X141254032Y-95328215D01*
X141272568Y-95320763D01*
X141285771Y-95311754D01*
X141310275Y-95280851D01*
X141313177Y-95245903D01*
X141295760Y-95212445D01*
X141286630Y-95203311D01*
X141274526Y-95196859D01*
X141255672Y-95192604D01*
X141226291Y-95190059D01*
X141182608Y-95188736D01*
X141120846Y-95188150D01*
X141106671Y-95188082D01*
X140990302Y-95187598D01*
X140894398Y-95187348D01*
X140816848Y-95187430D01*
X140755540Y-95187938D01*
X140708361Y-95188969D01*
X140673201Y-95190620D01*
X140647947Y-95192986D01*
X140630488Y-95196164D01*
X140618712Y-95200251D01*
X140610506Y-95205341D01*
X140604316Y-95210973D01*
X140584515Y-95242835D01*
X140587204Y-95276064D01*
X140609447Y-95307442D01*
X140623797Y-95320140D01*
X140639649Y-95328233D01*
X140662225Y-95332749D01*
X140696749Y-95334713D01*
X140748447Y-95335151D01*
X140863960Y-95335151D01*
X140863960Y-95831862D01*
X140745427Y-95831862D01*
X140690819Y-95832369D01*
X140653946Y-95834405D01*
X140629978Y-95838742D01*
X140614086Y-95846154D01*
X140604316Y-95854440D01*
X140584515Y-95886301D01*
X140587204Y-95919530D01*
X140587204Y-95919530D01*
G37*
X140587204Y-95919530D02*
X140609447Y-95950909D01*
X140637156Y-95978618D01*
X140946591Y-95978618D01*
X141038470Y-95978545D01*
X141110511Y-95978202D01*
X141165451Y-95977399D01*
X141206031Y-95975948D01*
X141234988Y-95973659D01*
X141255062Y-95970343D01*
X141268992Y-95965812D01*
X141279516Y-95959876D01*
X141285771Y-95955221D01*
X141310344Y-95924490D01*
X141313012Y-95889203D01*
X141297942Y-95856952D01*
X141289045Y-95846295D01*
X141277228Y-95839171D01*
X141258197Y-95834874D01*
X141227663Y-95832698D01*
X141181333Y-95831935D01*
X141145542Y-95831862D01*
X141010716Y-95831862D01*
X141010716Y-95335151D01*
X141133371Y-95335151D01*
X141189458Y-95334638D01*
X141228004Y-95332583D01*
X141254032Y-95328215D01*
X141272568Y-95320763D01*
X141285771Y-95311754D01*
X141310275Y-95280851D01*
X141313177Y-95245903D01*
X141295760Y-95212445D01*
X141286630Y-95203311D01*
X141274526Y-95196859D01*
X141255672Y-95192604D01*
X141226291Y-95190059D01*
X141182608Y-95188736D01*
X141120846Y-95188150D01*
X141106671Y-95188082D01*
X140990302Y-95187598D01*
X140894398Y-95187348D01*
X140816848Y-95187430D01*
X140755540Y-95187938D01*
X140708361Y-95188969D01*
X140673201Y-95190620D01*
X140647947Y-95192986D01*
X140630488Y-95196164D01*
X140618712Y-95200251D01*
X140610506Y-95205341D01*
X140604316Y-95210973D01*
X140584515Y-95242835D01*
X140587204Y-95276064D01*
X140609447Y-95307442D01*
X140623797Y-95320140D01*
X140639649Y-95328233D01*
X140662225Y-95332749D01*
X140696749Y-95334713D01*
X140748447Y-95335151D01*
X140863960Y-95335151D01*
X140863960Y-95831862D01*
X140745427Y-95831862D01*
X140690819Y-95832369D01*
X140653946Y-95834405D01*
X140629978Y-95838742D01*
X140614086Y-95846154D01*
X140604316Y-95854440D01*
X140584515Y-95886301D01*
X140587204Y-95919530D01*
G36*
X140581834Y-94653772D02*
X140582213Y-94732479D01*
X140583004Y-94793570D01*
X140584341Y-94839524D01*
X140586354Y-94872821D01*
X140589177Y-94895943D01*
X140592940Y-94911369D01*
X140597776Y-94921578D01*
X140601493Y-94926520D01*
X140634029Y-94952164D01*
X140667809Y-94955266D01*
X140698497Y-94939418D01*
X140710760Y-94929055D01*
X140719121Y-94917903D01*
X140724328Y-94901742D01*
X140727128Y-94876349D01*
X140728267Y-94837505D01*
X140728492Y-94780987D01*
X140728493Y-94769887D01*
X140728493Y-94623951D01*
X140999427Y-94623951D01*
X141084825Y-94623855D01*
X141150535Y-94623418D01*
X141199445Y-94622419D01*
X141234444Y-94620635D01*
X141258420Y-94617844D01*
X141274264Y-94613824D01*
X141284862Y-94608352D01*
X141292938Y-94601373D01*
X141312783Y-94568441D01*
X141311219Y-94534061D01*
X141288577Y-94502883D01*
X141285771Y-94500593D01*
X141275163Y-94493136D01*
X141262752Y-94487454D01*
X141245521Y-94483308D01*
X141220455Y-94480457D01*
X141184538Y-94478661D01*
X141134754Y-94477679D01*
X141068088Y-94477271D01*
X140992260Y-94477196D01*
X140728493Y-94477196D01*
X140728493Y-94337834D01*
X140728089Y-94278029D01*
X140726511Y-94236625D01*
X140723218Y-94209455D01*
X140717663Y-94192353D01*
X140709302Y-94181150D01*
X140707849Y-94179790D01*
X140674610Y-94163432D01*
X140637033Y-94164879D01*
X140604316Y-94183685D01*
X140597969Y-94190957D01*
X140592937Y-94200334D01*
X140589067Y-94214316D01*
X140586208Y-94235403D01*
X140584206Y-94266096D01*
X140582910Y-94308896D01*
X140582169Y-94366302D01*
X140581829Y-94440817D01*
X140581739Y-94534940D01*
X140581738Y-94554967D01*
X140581834Y-94653772D01*
X140581834Y-94653772D01*
G37*
X140581834Y-94653772D02*
X140582213Y-94732479D01*
X140583004Y-94793570D01*
X140584341Y-94839524D01*
X140586354Y-94872821D01*
X140589177Y-94895943D01*
X140592940Y-94911369D01*
X140597776Y-94921578D01*
X140601493Y-94926520D01*
X140634029Y-94952164D01*
X140667809Y-94955266D01*
X140698497Y-94939418D01*
X140710760Y-94929055D01*
X140719121Y-94917903D01*
X140724328Y-94901742D01*
X140727128Y-94876349D01*
X140728267Y-94837505D01*
X140728492Y-94780987D01*
X140728493Y-94769887D01*
X140728493Y-94623951D01*
X140999427Y-94623951D01*
X141084825Y-94623855D01*
X141150535Y-94623418D01*
X141199445Y-94622419D01*
X141234444Y-94620635D01*
X141258420Y-94617844D01*
X141274264Y-94613824D01*
X141284862Y-94608352D01*
X141292938Y-94601373D01*
X141312783Y-94568441D01*
X141311219Y-94534061D01*
X141288577Y-94502883D01*
X141285771Y-94500593D01*
X141275163Y-94493136D01*
X141262752Y-94487454D01*
X141245521Y-94483308D01*
X141220455Y-94480457D01*
X141184538Y-94478661D01*
X141134754Y-94477679D01*
X141068088Y-94477271D01*
X140992260Y-94477196D01*
X140728493Y-94477196D01*
X140728493Y-94337834D01*
X140728089Y-94278029D01*
X140726511Y-94236625D01*
X140723218Y-94209455D01*
X140717663Y-94192353D01*
X140709302Y-94181150D01*
X140707849Y-94179790D01*
X140674610Y-94163432D01*
X140637033Y-94164879D01*
X140604316Y-94183685D01*
X140597969Y-94190957D01*
X140592937Y-94200334D01*
X140589067Y-94214316D01*
X140586208Y-94235403D01*
X140584206Y-94266096D01*
X140582910Y-94308896D01*
X140582169Y-94366302D01*
X140581829Y-94440817D01*
X140581739Y-94534940D01*
X140581738Y-94554967D01*
X140581834Y-94653772D01*
G36*
X140588548Y-93879321D02*
X140603318Y-93903034D01*
X140624898Y-93929685D01*
X140946444Y-93929685D01*
X141040501Y-93929600D01*
X141114603Y-93929236D01*
X141171375Y-93928431D01*
X141213439Y-93927020D01*
X141243419Y-93924840D01*
X141263938Y-93921728D01*
X141277620Y-93917521D01*
X141287087Y-93912055D01*
X141291753Y-93908179D01*
X141312246Y-93876741D01*
X141311410Y-93840940D01*
X141293935Y-93809580D01*
X141272355Y-93782929D01*
X140624898Y-93782929D01*
X140603318Y-93809580D01*
X140587620Y-93835301D01*
X140581738Y-93856307D01*
X140588548Y-93879321D01*
X140588548Y-93879321D01*
G37*
X140588548Y-93879321D02*
X140603318Y-93903034D01*
X140624898Y-93929685D01*
X140946444Y-93929685D01*
X141040501Y-93929600D01*
X141114603Y-93929236D01*
X141171375Y-93928431D01*
X141213439Y-93927020D01*
X141243419Y-93924840D01*
X141263938Y-93921728D01*
X141277620Y-93917521D01*
X141287087Y-93912055D01*
X141291753Y-93908179D01*
X141312246Y-93876741D01*
X141311410Y-93840940D01*
X141293935Y-93809580D01*
X141272355Y-93782929D01*
X140624898Y-93782929D01*
X140603318Y-93809580D01*
X140587620Y-93835301D01*
X140581738Y-93856307D01*
X140588548Y-93879321D01*
G36*
X140583705Y-93435372D02*
X140590706Y-93454962D01*
X140591048Y-93455717D01*
X140611349Y-93482320D01*
X140632232Y-93496977D01*
X140642023Y-93499845D01*
X140655032Y-93499703D01*
X140673566Y-93495668D01*
X140699928Y-93486853D01*
X140736423Y-93472376D01*
X140785358Y-93451352D01*
X140849036Y-93422895D01*
X140929764Y-93386122D01*
X140973887Y-93365882D01*
X141052656Y-93329332D01*
X141125094Y-93295022D01*
X141188551Y-93264259D01*
X141240379Y-93238355D01*
X141277930Y-93218617D01*
X141298555Y-93206357D01*
X141301404Y-93203931D01*
X141313973Y-93172890D01*
X141312290Y-93137828D01*
X141297003Y-93109707D01*
X141295760Y-93108561D01*
X141278825Y-93097375D01*
X141245841Y-93078611D01*
X141201051Y-93054582D01*
X141148703Y-93027604D01*
X141129413Y-93017908D01*
X140982821Y-92944721D01*
X141142064Y-92864947D01*
X141197086Y-92836474D01*
X141244803Y-92810057D01*
X141281564Y-92787855D01*
X141303715Y-92772026D01*
X141308412Y-92766661D01*
X141314773Y-92724964D01*
X141301404Y-92690556D01*
X141287117Y-92680435D01*
X141255363Y-92662921D01*
X141209268Y-92639442D01*
X141151956Y-92611427D01*
X141086551Y-92580306D01*
X141016178Y-92547506D01*
X140943962Y-92514457D01*
X140873026Y-92482588D01*
X140806496Y-92453326D01*
X140747497Y-92428102D01*
X140699152Y-92408343D01*
X140664586Y-92395479D01*
X140646924Y-92390938D01*
X140646284Y-92390984D01*
X140624059Y-92402033D01*
X140601424Y-92424117D01*
X140600439Y-92425417D01*
X140585096Y-92452560D01*
X140585245Y-92477665D01*
X140588137Y-92487075D01*
X140594389Y-92498541D01*
X140606685Y-92510717D01*
X140627579Y-92525064D01*
X140659620Y-92543043D01*
X140705359Y-92566114D01*
X140767348Y-92595737D01*
X140824569Y-92622452D01*
X140890897Y-92653187D01*
X140950545Y-92680728D01*
X141000396Y-92703645D01*
X141037335Y-92720505D01*
X141058244Y-92729880D01*
X141061516Y-92731247D01*
X141056168Y-92737396D01*
X141033780Y-92751529D01*
X140997617Y-92771764D01*
X140950948Y-92796222D01*
X140931693Y-92805955D01*
X140866675Y-92838924D01*
X140819325Y-92864350D01*
X140786890Y-92884319D01*
X140766617Y-92900917D01*
X140755753Y-92916231D01*
X140751546Y-92932347D01*
X140751071Y-92942850D01*
X140752713Y-92961377D01*
X140759502Y-92977611D01*
X140774237Y-92993742D01*
X140799715Y-93011958D01*
X140838732Y-93034446D01*
X140894085Y-93063396D01*
X140925574Y-93079369D01*
X140975758Y-93105277D01*
X141017375Y-93127874D01*
X141046913Y-93145165D01*
X141060860Y-93155157D01*
X141061441Y-93156516D01*
X141050464Y-93162968D01*
X141021961Y-93177415D01*
X140978915Y-93198410D01*
X140924309Y-93224504D01*
X140861125Y-93254253D01*
X140829742Y-93268887D01*
X140748749Y-93306957D01*
X140686427Y-93337612D01*
X140640742Y-93362444D01*
X140609660Y-93383044D01*
X140591149Y-93401005D01*
X140583175Y-93417917D01*
X140583705Y-93435372D01*
X140583705Y-93435372D01*
G37*
X140583705Y-93435372D02*
X140590706Y-93454962D01*
X140591048Y-93455717D01*
X140611349Y-93482320D01*
X140632232Y-93496977D01*
X140642023Y-93499845D01*
X140655032Y-93499703D01*
X140673566Y-93495668D01*
X140699928Y-93486853D01*
X140736423Y-93472376D01*
X140785358Y-93451352D01*
X140849036Y-93422895D01*
X140929764Y-93386122D01*
X140973887Y-93365882D01*
X141052656Y-93329332D01*
X141125094Y-93295022D01*
X141188551Y-93264259D01*
X141240379Y-93238355D01*
X141277930Y-93218617D01*
X141298555Y-93206357D01*
X141301404Y-93203931D01*
X141313973Y-93172890D01*
X141312290Y-93137828D01*
X141297003Y-93109707D01*
X141295760Y-93108561D01*
X141278825Y-93097375D01*
X141245841Y-93078611D01*
X141201051Y-93054582D01*
X141148703Y-93027604D01*
X141129413Y-93017908D01*
X140982821Y-92944721D01*
X141142064Y-92864947D01*
X141197086Y-92836474D01*
X141244803Y-92810057D01*
X141281564Y-92787855D01*
X141303715Y-92772026D01*
X141308412Y-92766661D01*
X141314773Y-92724964D01*
X141301404Y-92690556D01*
X141287117Y-92680435D01*
X141255363Y-92662921D01*
X141209268Y-92639442D01*
X141151956Y-92611427D01*
X141086551Y-92580306D01*
X141016178Y-92547506D01*
X140943962Y-92514457D01*
X140873026Y-92482588D01*
X140806496Y-92453326D01*
X140747497Y-92428102D01*
X140699152Y-92408343D01*
X140664586Y-92395479D01*
X140646924Y-92390938D01*
X140646284Y-92390984D01*
X140624059Y-92402033D01*
X140601424Y-92424117D01*
X140600439Y-92425417D01*
X140585096Y-92452560D01*
X140585245Y-92477665D01*
X140588137Y-92487075D01*
X140594389Y-92498541D01*
X140606685Y-92510717D01*
X140627579Y-92525064D01*
X140659620Y-92543043D01*
X140705359Y-92566114D01*
X140767348Y-92595737D01*
X140824569Y-92622452D01*
X140890897Y-92653187D01*
X140950545Y-92680728D01*
X141000396Y-92703645D01*
X141037335Y-92720505D01*
X141058244Y-92729880D01*
X141061516Y-92731247D01*
X141056168Y-92737396D01*
X141033780Y-92751529D01*
X140997617Y-92771764D01*
X140950948Y-92796222D01*
X140931693Y-92805955D01*
X140866675Y-92838924D01*
X140819325Y-92864350D01*
X140786890Y-92884319D01*
X140766617Y-92900917D01*
X140755753Y-92916231D01*
X140751546Y-92932347D01*
X140751071Y-92942850D01*
X140752713Y-92961377D01*
X140759502Y-92977611D01*
X140774237Y-92993742D01*
X140799715Y-93011958D01*
X140838732Y-93034446D01*
X140894085Y-93063396D01*
X140925574Y-93079369D01*
X140975758Y-93105277D01*
X141017375Y-93127874D01*
X141046913Y-93145165D01*
X141060860Y-93155157D01*
X141061441Y-93156516D01*
X141050464Y-93162968D01*
X141021961Y-93177415D01*
X140978915Y-93198410D01*
X140924309Y-93224504D01*
X140861125Y-93254253D01*
X140829742Y-93268887D01*
X140748749Y-93306957D01*
X140686427Y-93337612D01*
X140640742Y-93362444D01*
X140609660Y-93383044D01*
X140591149Y-93401005D01*
X140583175Y-93417917D01*
X140583705Y-93435372D01*
G36*
X140581946Y-90709016D02*
X140586307Y-90837995D01*
X140599532Y-90947698D01*
X140622412Y-91039933D01*
X140655741Y-91116509D01*
X140700309Y-91179234D01*
X140756907Y-91229919D01*
X140826329Y-91270370D01*
X140828022Y-91271166D01*
X140890154Y-91295308D01*
X140945180Y-91303910D01*
X141000558Y-91296938D01*
X141063744Y-91274361D01*
X141073360Y-91270079D01*
X141129637Y-91240879D01*
X141173122Y-91208063D01*
X141210088Y-91165709D01*
X141246806Y-91107897D01*
X141248723Y-91104538D01*
X141272898Y-91054211D01*
X141290953Y-90997328D01*
X141303510Y-90930234D01*
X141311193Y-90849272D01*
X141314624Y-90750789D01*
X141314922Y-90715993D01*
X141315516Y-90550301D01*
X141285771Y-90526904D01*
X141275990Y-90519964D01*
X141264568Y-90514549D01*
X141248766Y-90510472D01*
X141225846Y-90507544D01*
X141193067Y-90505574D01*
X141168760Y-90504932D01*
X141168760Y-90661551D01*
X141168760Y-90755433D01*
X141167154Y-90810371D01*
X141162926Y-90866767D01*
X141156963Y-90913052D01*
X141156461Y-90915846D01*
X141134407Y-90998055D01*
X141101271Y-91061821D01*
X141055518Y-91109159D01*
X140995610Y-91142089D01*
X140979732Y-91147815D01*
X140955004Y-91153428D01*
X140930573Y-91150998D01*
X140898071Y-91139174D01*
X140882105Y-91132047D01*
X140839677Y-91108707D01*
X140809911Y-91080587D01*
X140789182Y-91049647D01*
X140762208Y-90987673D01*
X140742669Y-90908358D01*
X140731417Y-90815960D01*
X140728941Y-90749040D01*
X140728493Y-90661551D01*
X141168760Y-90661551D01*
X141168760Y-90504932D01*
X141147692Y-90504375D01*
X141086982Y-90503757D01*
X141008197Y-90503532D01*
X140946591Y-90503507D01*
X140637156Y-90503507D01*
X140609447Y-90531216D01*
X140598215Y-90543513D01*
X140590524Y-90556810D01*
X140585711Y-90575379D01*
X140583117Y-90603493D01*
X140582081Y-90645424D01*
X140581941Y-90705444D01*
X140581946Y-90709016D01*
X140581946Y-90709016D01*
G37*
X140581946Y-90709016D02*
X140586307Y-90837995D01*
X140599532Y-90947698D01*
X140622412Y-91039933D01*
X140655741Y-91116509D01*
X140700309Y-91179234D01*
X140756907Y-91229919D01*
X140826329Y-91270370D01*
X140828022Y-91271166D01*
X140890154Y-91295308D01*
X140945180Y-91303910D01*
X141000558Y-91296938D01*
X141063744Y-91274361D01*
X141073360Y-91270079D01*
X141129637Y-91240879D01*
X141173122Y-91208063D01*
X141210088Y-91165709D01*
X141246806Y-91107897D01*
X141248723Y-91104538D01*
X141272898Y-91054211D01*
X141290953Y-90997328D01*
X141303510Y-90930234D01*
X141311193Y-90849272D01*
X141314624Y-90750789D01*
X141314922Y-90715993D01*
X141315516Y-90550301D01*
X141285771Y-90526904D01*
X141275990Y-90519964D01*
X141264568Y-90514549D01*
X141248766Y-90510472D01*
X141225846Y-90507544D01*
X141193067Y-90505574D01*
X141168760Y-90504932D01*
X141168760Y-90661551D01*
X141168760Y-90755433D01*
X141167154Y-90810371D01*
X141162926Y-90866767D01*
X141156963Y-90913052D01*
X141156461Y-90915846D01*
X141134407Y-90998055D01*
X141101271Y-91061821D01*
X141055518Y-91109159D01*
X140995610Y-91142089D01*
X140979732Y-91147815D01*
X140955004Y-91153428D01*
X140930573Y-91150998D01*
X140898071Y-91139174D01*
X140882105Y-91132047D01*
X140839677Y-91108707D01*
X140809911Y-91080587D01*
X140789182Y-91049647D01*
X140762208Y-90987673D01*
X140742669Y-90908358D01*
X140731417Y-90815960D01*
X140728941Y-90749040D01*
X140728493Y-90661551D01*
X141168760Y-90661551D01*
X141168760Y-90504932D01*
X141147692Y-90504375D01*
X141086982Y-90503757D01*
X141008197Y-90503532D01*
X140946591Y-90503507D01*
X140637156Y-90503507D01*
X140609447Y-90531216D01*
X140598215Y-90543513D01*
X140590524Y-90556810D01*
X140585711Y-90575379D01*
X140583117Y-90603493D01*
X140582081Y-90645424D01*
X140581941Y-90705444D01*
X140581946Y-90709016D01*
G36*
X140581931Y-89921050D02*
X140582845Y-89997408D01*
X140584982Y-90055924D01*
X140588846Y-90098962D01*
X140594938Y-90128890D01*
X140603761Y-90148075D01*
X140615817Y-90158883D01*
X140631610Y-90163680D01*
X140651641Y-90164834D01*
X140654006Y-90164840D01*
X140676663Y-90163838D01*
X140694174Y-90159103D01*
X140707245Y-90148040D01*
X140716584Y-90128055D01*
X140722898Y-90096553D01*
X140726893Y-90050939D01*
X140729277Y-89988620D01*
X140730757Y-89907000D01*
X140731085Y-89881984D01*
X140734138Y-89639907D01*
X140799049Y-89636521D01*
X140863960Y-89633136D01*
X140863960Y-89801283D01*
X140864202Y-89866973D01*
X140865227Y-89913879D01*
X140867482Y-89945790D01*
X140871413Y-89966498D01*
X140877469Y-89979791D01*
X140886095Y-89989462D01*
X140886164Y-89989524D01*
X140919783Y-90007063D01*
X140956119Y-90006429D01*
X140987094Y-89988021D01*
X140990278Y-89984378D01*
X140998483Y-89971448D01*
X141004192Y-89953731D01*
X141007833Y-89927277D01*
X141009838Y-89888139D01*
X141010635Y-89832369D01*
X141010716Y-89796701D01*
X141010716Y-89634262D01*
X141168760Y-89634262D01*
X141168760Y-89880868D01*
X141168902Y-89962287D01*
X141169485Y-90024117D01*
X141170739Y-90069344D01*
X141172898Y-90100955D01*
X141176194Y-90121938D01*
X141180860Y-90135280D01*
X141187128Y-90143968D01*
X141189404Y-90146157D01*
X141220951Y-90162321D01*
X141256839Y-90163504D01*
X141287956Y-90150243D01*
X141297942Y-90139750D01*
X141303440Y-90128836D01*
X141307693Y-90111924D01*
X141310851Y-90086340D01*
X141313063Y-90049408D01*
X141314477Y-89998453D01*
X141315243Y-89930801D01*
X141315509Y-89843776D01*
X141315516Y-89824101D01*
X141315458Y-89735618D01*
X141315138Y-89666934D01*
X141314338Y-89615271D01*
X141312838Y-89577852D01*
X141310420Y-89551897D01*
X141306865Y-89534629D01*
X141301953Y-89523269D01*
X141295466Y-89515039D01*
X141290809Y-89510524D01*
X141282560Y-89503728D01*
X141272340Y-89498419D01*
X141257471Y-89494413D01*
X141235273Y-89491528D01*
X141203064Y-89489581D01*
X141158167Y-89488388D01*
X141097899Y-89487768D01*
X141019582Y-89487536D01*
X140953665Y-89487507D01*
X140861299Y-89487578D01*
X140788788Y-89487915D01*
X140733408Y-89488705D01*
X140692436Y-89490133D01*
X140663149Y-89492386D01*
X140642824Y-89495650D01*
X140628737Y-89500111D01*
X140618166Y-89505955D01*
X140611482Y-89510904D01*
X140581738Y-89534301D01*
X140581738Y-89824481D01*
X140581931Y-89921050D01*
X140581931Y-89921050D01*
G37*
X140581931Y-89921050D02*
X140582845Y-89997408D01*
X140584982Y-90055924D01*
X140588846Y-90098962D01*
X140594938Y-90128890D01*
X140603761Y-90148075D01*
X140615817Y-90158883D01*
X140631610Y-90163680D01*
X140651641Y-90164834D01*
X140654006Y-90164840D01*
X140676663Y-90163838D01*
X140694174Y-90159103D01*
X140707245Y-90148040D01*
X140716584Y-90128055D01*
X140722898Y-90096553D01*
X140726893Y-90050939D01*
X140729277Y-89988620D01*
X140730757Y-89907000D01*
X140731085Y-89881984D01*
X140734138Y-89639907D01*
X140799049Y-89636521D01*
X140863960Y-89633136D01*
X140863960Y-89801283D01*
X140864202Y-89866973D01*
X140865227Y-89913879D01*
X140867482Y-89945790D01*
X140871413Y-89966498D01*
X140877469Y-89979791D01*
X140886095Y-89989462D01*
X140886164Y-89989524D01*
X140919783Y-90007063D01*
X140956119Y-90006429D01*
X140987094Y-89988021D01*
X140990278Y-89984378D01*
X140998483Y-89971448D01*
X141004192Y-89953731D01*
X141007833Y-89927277D01*
X141009838Y-89888139D01*
X141010635Y-89832369D01*
X141010716Y-89796701D01*
X141010716Y-89634262D01*
X141168760Y-89634262D01*
X141168760Y-89880868D01*
X141168902Y-89962287D01*
X141169485Y-90024117D01*
X141170739Y-90069344D01*
X141172898Y-90100955D01*
X141176194Y-90121938D01*
X141180860Y-90135280D01*
X141187128Y-90143968D01*
X141189404Y-90146157D01*
X141220951Y-90162321D01*
X141256839Y-90163504D01*
X141287956Y-90150243D01*
X141297942Y-90139750D01*
X141303440Y-90128836D01*
X141307693Y-90111924D01*
X141310851Y-90086340D01*
X141313063Y-90049408D01*
X141314477Y-89998453D01*
X141315243Y-89930801D01*
X141315509Y-89843776D01*
X141315516Y-89824101D01*
X141315458Y-89735618D01*
X141315138Y-89666934D01*
X141314338Y-89615271D01*
X141312838Y-89577852D01*
X141310420Y-89551897D01*
X141306865Y-89534629D01*
X141301953Y-89523269D01*
X141295466Y-89515039D01*
X141290809Y-89510524D01*
X141282560Y-89503728D01*
X141272340Y-89498419D01*
X141257471Y-89494413D01*
X141235273Y-89491528D01*
X141203064Y-89489581D01*
X141158167Y-89488388D01*
X141097899Y-89487768D01*
X141019582Y-89487536D01*
X140953665Y-89487507D01*
X140861299Y-89487578D01*
X140788788Y-89487915D01*
X140733408Y-89488705D01*
X140692436Y-89490133D01*
X140663149Y-89492386D01*
X140642824Y-89495650D01*
X140628737Y-89500111D01*
X140618166Y-89505955D01*
X140611482Y-89510904D01*
X140581738Y-89534301D01*
X140581738Y-89824481D01*
X140581931Y-89921050D01*
G36*
X140586119Y-88390593D02*
X140599944Y-88414159D01*
X140622552Y-88444972D01*
X140655009Y-88484629D01*
X140698379Y-88534727D01*
X140753729Y-88596864D01*
X140822122Y-88672635D01*
X140900755Y-88759373D01*
X141064549Y-88939996D01*
X140844700Y-88945640D01*
X140769022Y-88947678D01*
X140712665Y-88949644D01*
X140672377Y-88951973D01*
X140644906Y-88955101D01*
X140627000Y-88959462D01*
X140615408Y-88965491D01*
X140606879Y-88973623D01*
X140603294Y-88977935D01*
X140584341Y-89012466D01*
X140587112Y-89045324D01*
X140603304Y-89071389D01*
X140624870Y-89098040D01*
X140939822Y-89101355D01*
X141032450Y-89102272D01*
X141105215Y-89102739D01*
X141160832Y-89102594D01*
X141202013Y-89101675D01*
X141231474Y-89099820D01*
X141251926Y-89096868D01*
X141266084Y-89092657D01*
X141276662Y-89087025D01*
X141285145Y-89080780D01*
X141300878Y-89067268D01*
X141311307Y-89053824D01*
X141315310Y-89038583D01*
X141311765Y-89019681D01*
X141299550Y-88995252D01*
X141277542Y-88963434D01*
X141244620Y-88922359D01*
X141199662Y-88870165D01*
X141141546Y-88804985D01*
X141074770Y-88731151D01*
X140834129Y-88465862D01*
X141053260Y-88460218D01*
X141128799Y-88458176D01*
X141185025Y-88456205D01*
X141225195Y-88453868D01*
X141252567Y-88450726D01*
X141270399Y-88446343D01*
X141281950Y-88440283D01*
X141290478Y-88432107D01*
X141293953Y-88427923D01*
X141313043Y-88390942D01*
X141310164Y-88355999D01*
X141285771Y-88325571D01*
X141275957Y-88318610D01*
X141264497Y-88313184D01*
X141248639Y-88309104D01*
X141225634Y-88306178D01*
X141192733Y-88304215D01*
X141147187Y-88303024D01*
X141086244Y-88302415D01*
X141007157Y-88302196D01*
X140948627Y-88302173D01*
X140857078Y-88302247D01*
X140785358Y-88302594D01*
X140730716Y-88303406D01*
X140690403Y-88304874D01*
X140661669Y-88307188D01*
X140641764Y-88310540D01*
X140627939Y-88315119D01*
X140617443Y-88321118D01*
X140611482Y-88325571D01*
X140597362Y-88336857D01*
X140586700Y-88347406D01*
X140580563Y-88358814D01*
X140580014Y-88372677D01*
X140586119Y-88390593D01*
X140586119Y-88390593D01*
G37*
X140586119Y-88390593D02*
X140599944Y-88414159D01*
X140622552Y-88444972D01*
X140655009Y-88484629D01*
X140698379Y-88534727D01*
X140753729Y-88596864D01*
X140822122Y-88672635D01*
X140900755Y-88759373D01*
X141064549Y-88939996D01*
X140844700Y-88945640D01*
X140769022Y-88947678D01*
X140712665Y-88949644D01*
X140672377Y-88951973D01*
X140644906Y-88955101D01*
X140627000Y-88959462D01*
X140615408Y-88965491D01*
X140606879Y-88973623D01*
X140603294Y-88977935D01*
X140584341Y-89012466D01*
X140587112Y-89045324D01*
X140603304Y-89071389D01*
X140624870Y-89098040D01*
X140939822Y-89101355D01*
X141032450Y-89102272D01*
X141105215Y-89102739D01*
X141160832Y-89102594D01*
X141202013Y-89101675D01*
X141231474Y-89099820D01*
X141251926Y-89096868D01*
X141266084Y-89092657D01*
X141276662Y-89087025D01*
X141285145Y-89080780D01*
X141300878Y-89067268D01*
X141311307Y-89053824D01*
X141315310Y-89038583D01*
X141311765Y-89019681D01*
X141299550Y-88995252D01*
X141277542Y-88963434D01*
X141244620Y-88922359D01*
X141199662Y-88870165D01*
X141141546Y-88804985D01*
X141074770Y-88731151D01*
X140834129Y-88465862D01*
X141053260Y-88460218D01*
X141128799Y-88458176D01*
X141185025Y-88456205D01*
X141225195Y-88453868D01*
X141252567Y-88450726D01*
X141270399Y-88446343D01*
X141281950Y-88440283D01*
X141290478Y-88432107D01*
X141293953Y-88427923D01*
X141313043Y-88390942D01*
X141310164Y-88355999D01*
X141285771Y-88325571D01*
X141275957Y-88318610D01*
X141264497Y-88313184D01*
X141248639Y-88309104D01*
X141225634Y-88306178D01*
X141192733Y-88304215D01*
X141147187Y-88303024D01*
X141086244Y-88302415D01*
X141007157Y-88302196D01*
X140948627Y-88302173D01*
X140857078Y-88302247D01*
X140785358Y-88302594D01*
X140730716Y-88303406D01*
X140690403Y-88304874D01*
X140661669Y-88307188D01*
X140641764Y-88310540D01*
X140627939Y-88315119D01*
X140617443Y-88321118D01*
X140611482Y-88325571D01*
X140597362Y-88336857D01*
X140586700Y-88347406D01*
X140580563Y-88358814D01*
X140580014Y-88372677D01*
X140586119Y-88390593D01*
G36*
X140587270Y-87740626D02*
X140598766Y-87809142D01*
X140616638Y-87861764D01*
X140640170Y-87895999D01*
X140653595Y-87905328D01*
X140684819Y-87914814D01*
X140713066Y-87908430D01*
X140739853Y-87888277D01*
X140752384Y-87856962D01*
X140751367Y-87811524D01*
X140744577Y-87776381D01*
X140731642Y-87698288D01*
X140730413Y-87618481D01*
X140740912Y-87529152D01*
X140745361Y-87504478D01*
X140768779Y-87421416D01*
X140803616Y-87356434D01*
X140849275Y-87310246D01*
X140905165Y-87283562D01*
X140934059Y-87278044D01*
X140992683Y-87281656D01*
X141044550Y-87304978D01*
X141088649Y-87345883D01*
X141123970Y-87402248D01*
X141149500Y-87471947D01*
X141164230Y-87552855D01*
X141167149Y-87642847D01*
X141157246Y-87739797D01*
X141156312Y-87745271D01*
X141149130Y-87783832D01*
X141142192Y-87805213D01*
X141131898Y-87814480D01*
X141114647Y-87816701D01*
X141105512Y-87816751D01*
X141067160Y-87816751D01*
X141067160Y-87748276D01*
X141063018Y-87687807D01*
X141049818Y-87646542D01*
X141026401Y-87622532D01*
X140991607Y-87613830D01*
X140987065Y-87613724D01*
X140957325Y-87618815D01*
X140936090Y-87636274D01*
X140922037Y-87668768D01*
X140913844Y-87718964D01*
X140910832Y-87767584D01*
X140909104Y-87838251D01*
X140911741Y-87889509D01*
X140921471Y-87924468D01*
X140941024Y-87946237D01*
X140973127Y-87957927D01*
X141020509Y-87962647D01*
X141082742Y-87963507D01*
X141152206Y-87962098D01*
X141199457Y-87957859D01*
X141224683Y-87950771D01*
X141226659Y-87949396D01*
X141258179Y-87910479D01*
X141283141Y-87853421D01*
X141301011Y-87781838D01*
X141311257Y-87699349D01*
X141313344Y-87609568D01*
X141306739Y-87516115D01*
X141298627Y-87461151D01*
X141274225Y-87374941D01*
X141234333Y-87294815D01*
X141182558Y-87227730D01*
X141172210Y-87217534D01*
X141128706Y-87184405D01*
X141074789Y-87154513D01*
X141018263Y-87131350D01*
X140966930Y-87118409D01*
X140947215Y-87116849D01*
X140906090Y-87123489D01*
X140854923Y-87141139D01*
X140801065Y-87166410D01*
X140751866Y-87195918D01*
X140719005Y-87221988D01*
X140670123Y-87282942D01*
X140631216Y-87361738D01*
X140603165Y-87455550D01*
X140586850Y-87561557D01*
X140582863Y-87658707D01*
X140587270Y-87740626D01*
X140587270Y-87740626D01*
G37*
X140587270Y-87740626D02*
X140598766Y-87809142D01*
X140616638Y-87861764D01*
X140640170Y-87895999D01*
X140653595Y-87905328D01*
X140684819Y-87914814D01*
X140713066Y-87908430D01*
X140739853Y-87888277D01*
X140752384Y-87856962D01*
X140751367Y-87811524D01*
X140744577Y-87776381D01*
X140731642Y-87698288D01*
X140730413Y-87618481D01*
X140740912Y-87529152D01*
X140745361Y-87504478D01*
X140768779Y-87421416D01*
X140803616Y-87356434D01*
X140849275Y-87310246D01*
X140905165Y-87283562D01*
X140934059Y-87278044D01*
X140992683Y-87281656D01*
X141044550Y-87304978D01*
X141088649Y-87345883D01*
X141123970Y-87402248D01*
X141149500Y-87471947D01*
X141164230Y-87552855D01*
X141167149Y-87642847D01*
X141157246Y-87739797D01*
X141156312Y-87745271D01*
X141149130Y-87783832D01*
X141142192Y-87805213D01*
X141131898Y-87814480D01*
X141114647Y-87816701D01*
X141105512Y-87816751D01*
X141067160Y-87816751D01*
X141067160Y-87748276D01*
X141063018Y-87687807D01*
X141049818Y-87646542D01*
X141026401Y-87622532D01*
X140991607Y-87613830D01*
X140987065Y-87613724D01*
X140957325Y-87618815D01*
X140936090Y-87636274D01*
X140922037Y-87668768D01*
X140913844Y-87718964D01*
X140910832Y-87767584D01*
X140909104Y-87838251D01*
X140911741Y-87889509D01*
X140921471Y-87924468D01*
X140941024Y-87946237D01*
X140973127Y-87957927D01*
X141020509Y-87962647D01*
X141082742Y-87963507D01*
X141152206Y-87962098D01*
X141199457Y-87957859D01*
X141224683Y-87950771D01*
X141226659Y-87949396D01*
X141258179Y-87910479D01*
X141283141Y-87853421D01*
X141301011Y-87781838D01*
X141311257Y-87699349D01*
X141313344Y-87609568D01*
X141306739Y-87516115D01*
X141298627Y-87461151D01*
X141274225Y-87374941D01*
X141234333Y-87294815D01*
X141182558Y-87227730D01*
X141172210Y-87217534D01*
X141128706Y-87184405D01*
X141074789Y-87154513D01*
X141018263Y-87131350D01*
X140966930Y-87118409D01*
X140947215Y-87116849D01*
X140906090Y-87123489D01*
X140854923Y-87141139D01*
X140801065Y-87166410D01*
X140751866Y-87195918D01*
X140719005Y-87221988D01*
X140670123Y-87282942D01*
X140631216Y-87361738D01*
X140603165Y-87455550D01*
X140586850Y-87561557D01*
X140582863Y-87658707D01*
X140587270Y-87740626D01*
G36*
X140604316Y-86766885D02*
X140611889Y-86773465D01*
X140621658Y-86778628D01*
X140636242Y-86782543D01*
X140658256Y-86785383D01*
X140690319Y-86787320D01*
X140735046Y-86788524D01*
X140795056Y-86789168D01*
X140872965Y-86789423D01*
X140948627Y-86789462D01*
X141042473Y-86789393D01*
X141116360Y-86789069D01*
X141172903Y-86788321D01*
X141214720Y-86786975D01*
X141244428Y-86784861D01*
X141264644Y-86781807D01*
X141277985Y-86777641D01*
X141287069Y-86772191D01*
X141292938Y-86766885D01*
X141312618Y-86733881D01*
X141310852Y-86698716D01*
X141289388Y-86667252D01*
X141281008Y-86660023D01*
X141271285Y-86654373D01*
X141257532Y-86650108D01*
X141237060Y-86647034D01*
X141207183Y-86644955D01*
X141165212Y-86643677D01*
X141108460Y-86643006D01*
X141034238Y-86642748D01*
X140950208Y-86642707D01*
X140637156Y-86642707D01*
X140609447Y-86670416D01*
X140586134Y-86704570D01*
X140585294Y-86737701D01*
X140604316Y-86766885D01*
X140604316Y-86766885D01*
G37*
X140604316Y-86766885D02*
X140611889Y-86773465D01*
X140621658Y-86778628D01*
X140636242Y-86782543D01*
X140658256Y-86785383D01*
X140690319Y-86787320D01*
X140735046Y-86788524D01*
X140795056Y-86789168D01*
X140872965Y-86789423D01*
X140948627Y-86789462D01*
X141042473Y-86789393D01*
X141116360Y-86789069D01*
X141172903Y-86788321D01*
X141214720Y-86786975D01*
X141244428Y-86784861D01*
X141264644Y-86781807D01*
X141277985Y-86777641D01*
X141287069Y-86772191D01*
X141292938Y-86766885D01*
X141312618Y-86733881D01*
X141310852Y-86698716D01*
X141289388Y-86667252D01*
X141281008Y-86660023D01*
X141271285Y-86654373D01*
X141257532Y-86650108D01*
X141237060Y-86647034D01*
X141207183Y-86644955D01*
X141165212Y-86643677D01*
X141108460Y-86643006D01*
X141034238Y-86642748D01*
X140950208Y-86642707D01*
X140637156Y-86642707D01*
X140609447Y-86670416D01*
X140586134Y-86704570D01*
X140585294Y-86737701D01*
X140604316Y-86766885D01*
G36*
X140583022Y-85999004D02*
X140588252Y-86073819D01*
X140596421Y-86143401D01*
X140607221Y-86203705D01*
X140620344Y-86250687D01*
X140635484Y-86280301D01*
X140639940Y-86284847D01*
X140674521Y-86300653D01*
X140710022Y-86295860D01*
X140740396Y-86271343D01*
X140741267Y-86270173D01*
X140750625Y-86255753D01*
X140755547Y-86240699D01*
X140756144Y-86219702D01*
X140752532Y-86187450D01*
X140744825Y-86138634D01*
X140744176Y-86134707D01*
X140735240Y-86061968D01*
X140730832Y-85983490D01*
X140730790Y-85904780D01*
X140734950Y-85831346D01*
X140743150Y-85768696D01*
X140755228Y-85722337D01*
X140756442Y-85719291D01*
X140775286Y-85685659D01*
X140794356Y-85673843D01*
X140813110Y-85683093D01*
X140831008Y-85712660D01*
X140847508Y-85761796D01*
X140862067Y-85829750D01*
X140869077Y-85875062D01*
X140882560Y-85969251D01*
X140894885Y-86044163D01*
X140907120Y-86102990D01*
X140920332Y-86148922D01*
X140935588Y-86185152D01*
X140953956Y-86214869D01*
X140976502Y-86241265D01*
X140998642Y-86262477D01*
X141029490Y-86287642D01*
X141056016Y-86300026D01*
X141088697Y-86303899D01*
X141100666Y-86304040D01*
X141140383Y-86301131D01*
X141169930Y-86289505D01*
X141196157Y-86269384D01*
X141236247Y-86228491D01*
X141266820Y-86182890D01*
X141288874Y-86129194D01*
X141303406Y-86064015D01*
X141311412Y-85983963D01*
X141313889Y-85885650D01*
X141313848Y-85869418D01*
X141312489Y-85803858D01*
X141309401Y-85738841D01*
X141305027Y-85681455D01*
X141299811Y-85638785D01*
X141299212Y-85635335D01*
X141289162Y-85592911D01*
X141276467Y-85556927D01*
X141264861Y-85536557D01*
X141234243Y-85517600D01*
X141198589Y-85516280D01*
X141166815Y-85532622D01*
X141163222Y-85536278D01*
X141152547Y-85551392D01*
X141147947Y-85570292D01*
X141148730Y-85599545D01*
X141152798Y-85635056D01*
X141156433Y-85674737D01*
X141159499Y-85730362D01*
X141161724Y-85795301D01*
X141162835Y-85862922D01*
X141162908Y-85880707D01*
X141162635Y-85948579D01*
X141161317Y-85998253D01*
X141158498Y-86034097D01*
X141153721Y-86060483D01*
X141146528Y-86081781D01*
X141140538Y-86094581D01*
X141123904Y-86122707D01*
X141108839Y-86140639D01*
X141104568Y-86143260D01*
X141086934Y-86137731D01*
X141069863Y-86111447D01*
X141054129Y-86066229D01*
X141040509Y-86003899D01*
X141037475Y-85985536D01*
X141022409Y-85889617D01*
X141009817Y-85813066D01*
X140998782Y-85752927D01*
X140988391Y-85706247D01*
X140977727Y-85670070D01*
X140965876Y-85641442D01*
X140951922Y-85617409D01*
X140934952Y-85595015D01*
X140914049Y-85571305D01*
X140906720Y-85563327D01*
X140879370Y-85535354D01*
X140857700Y-85520547D01*
X140832903Y-85514755D01*
X140801654Y-85513818D01*
X140740376Y-85524132D01*
X140688311Y-85554955D01*
X140645629Y-85606112D01*
X140612496Y-85677424D01*
X140597635Y-85728307D01*
X140588037Y-85783607D01*
X140582607Y-85849854D01*
X140581038Y-85923001D01*
X140583022Y-85999004D01*
X140583022Y-85999004D01*
G37*
X140583022Y-85999004D02*
X140588252Y-86073819D01*
X140596421Y-86143401D01*
X140607221Y-86203705D01*
X140620344Y-86250687D01*
X140635484Y-86280301D01*
X140639940Y-86284847D01*
X140674521Y-86300653D01*
X140710022Y-86295860D01*
X140740396Y-86271343D01*
X140741267Y-86270173D01*
X140750625Y-86255753D01*
X140755547Y-86240699D01*
X140756144Y-86219702D01*
X140752532Y-86187450D01*
X140744825Y-86138634D01*
X140744176Y-86134707D01*
X140735240Y-86061968D01*
X140730832Y-85983490D01*
X140730790Y-85904780D01*
X140734950Y-85831346D01*
X140743150Y-85768696D01*
X140755228Y-85722337D01*
X140756442Y-85719291D01*
X140775286Y-85685659D01*
X140794356Y-85673843D01*
X140813110Y-85683093D01*
X140831008Y-85712660D01*
X140847508Y-85761796D01*
X140862067Y-85829750D01*
X140869077Y-85875062D01*
X140882560Y-85969251D01*
X140894885Y-86044163D01*
X140907120Y-86102990D01*
X140920332Y-86148922D01*
X140935588Y-86185152D01*
X140953956Y-86214869D01*
X140976502Y-86241265D01*
X140998642Y-86262477D01*
X141029490Y-86287642D01*
X141056016Y-86300026D01*
X141088697Y-86303899D01*
X141100666Y-86304040D01*
X141140383Y-86301131D01*
X141169930Y-86289505D01*
X141196157Y-86269384D01*
X141236247Y-86228491D01*
X141266820Y-86182890D01*
X141288874Y-86129194D01*
X141303406Y-86064015D01*
X141311412Y-85983963D01*
X141313889Y-85885650D01*
X141313848Y-85869418D01*
X141312489Y-85803858D01*
X141309401Y-85738841D01*
X141305027Y-85681455D01*
X141299811Y-85638785D01*
X141299212Y-85635335D01*
X141289162Y-85592911D01*
X141276467Y-85556927D01*
X141264861Y-85536557D01*
X141234243Y-85517600D01*
X141198589Y-85516280D01*
X141166815Y-85532622D01*
X141163222Y-85536278D01*
X141152547Y-85551392D01*
X141147947Y-85570292D01*
X141148730Y-85599545D01*
X141152798Y-85635056D01*
X141156433Y-85674737D01*
X141159499Y-85730362D01*
X141161724Y-85795301D01*
X141162835Y-85862922D01*
X141162908Y-85880707D01*
X141162635Y-85948579D01*
X141161317Y-85998253D01*
X141158498Y-86034097D01*
X141153721Y-86060483D01*
X141146528Y-86081781D01*
X141140538Y-86094581D01*
X141123904Y-86122707D01*
X141108839Y-86140639D01*
X141104568Y-86143260D01*
X141086934Y-86137731D01*
X141069863Y-86111447D01*
X141054129Y-86066229D01*
X141040509Y-86003899D01*
X141037475Y-85985536D01*
X141022409Y-85889617D01*
X141009817Y-85813066D01*
X140998782Y-85752927D01*
X140988391Y-85706247D01*
X140977727Y-85670070D01*
X140965876Y-85641442D01*
X140951922Y-85617409D01*
X140934952Y-85595015D01*
X140914049Y-85571305D01*
X140906720Y-85563327D01*
X140879370Y-85535354D01*
X140857700Y-85520547D01*
X140832903Y-85514755D01*
X140801654Y-85513818D01*
X140740376Y-85524132D01*
X140688311Y-85554955D01*
X140645629Y-85606112D01*
X140612496Y-85677424D01*
X140597635Y-85728307D01*
X140588037Y-85783607D01*
X140582607Y-85849854D01*
X140581038Y-85923001D01*
X140583022Y-85999004D01*
G36*
X140581817Y-84977913D02*
X140582189Y-85047321D01*
X140583056Y-85099710D01*
X140584617Y-85137860D01*
X140587074Y-85164548D01*
X140590628Y-85182554D01*
X140595481Y-85194658D01*
X140601832Y-85203638D01*
X140604755Y-85206889D01*
X140635813Y-85226664D01*
X140671499Y-85230225D01*
X140703181Y-85217216D01*
X140709584Y-85211201D01*
X140715792Y-85201472D01*
X140720581Y-85185806D01*
X140724185Y-85161299D01*
X140726835Y-85125046D01*
X140728766Y-85074142D01*
X140730210Y-85005681D01*
X140731089Y-84943090D01*
X140734138Y-84695373D01*
X140799049Y-84691988D01*
X140863960Y-84688602D01*
X140863960Y-84856749D01*
X140864590Y-84929748D01*
X140867224Y-84983190D01*
X140872980Y-85020079D01*
X140882975Y-85043419D01*
X140898327Y-85056213D01*
X140920153Y-85061465D01*
X140940409Y-85062262D01*
X140965263Y-85059784D01*
X140983577Y-85050430D01*
X140996308Y-85031324D01*
X141004412Y-84999589D01*
X141008847Y-84952348D01*
X141010570Y-84886724D01*
X141010716Y-84850906D01*
X141010716Y-84689729D01*
X141168760Y-84689729D01*
X141168760Y-84938085D01*
X141168873Y-85019494D01*
X141169383Y-85081365D01*
X141170541Y-85126739D01*
X141172601Y-85158653D01*
X141175817Y-85180148D01*
X141180443Y-85194264D01*
X141186730Y-85204039D01*
X141191338Y-85209018D01*
X141218231Y-85226097D01*
X141242138Y-85231596D01*
X141271338Y-85223744D01*
X141292938Y-85209018D01*
X141299737Y-85201161D01*
X141305017Y-85191019D01*
X141308969Y-85175863D01*
X141311784Y-85152966D01*
X141313653Y-85119598D01*
X141314769Y-85073032D01*
X141315322Y-85010540D01*
X141315504Y-84929393D01*
X141315516Y-84887285D01*
X141315436Y-84797109D01*
X141315069Y-84726783D01*
X141314223Y-84673578D01*
X141312707Y-84634767D01*
X141310330Y-84607620D01*
X141306900Y-84589409D01*
X141302225Y-84577407D01*
X141296115Y-84568885D01*
X141292938Y-84565551D01*
X141285341Y-84558952D01*
X141275541Y-84553780D01*
X141260910Y-84549861D01*
X141238823Y-84547023D01*
X141206653Y-84545092D01*
X141161774Y-84543895D01*
X141101560Y-84543259D01*
X141023384Y-84543010D01*
X140950594Y-84542973D01*
X140857378Y-84543007D01*
X140784102Y-84543242D01*
X140728129Y-84543877D01*
X140686822Y-84545113D01*
X140657543Y-84547151D01*
X140637655Y-84550190D01*
X140624521Y-84554430D01*
X140615503Y-84560072D01*
X140607964Y-84567316D01*
X140606283Y-84569101D01*
X140598843Y-84577762D01*
X140593080Y-84587825D01*
X140588783Y-84602082D01*
X140585735Y-84623324D01*
X140583722Y-84654343D01*
X140582531Y-84697930D01*
X140581946Y-84756876D01*
X140581754Y-84833973D01*
X140581738Y-84888706D01*
X140581817Y-84977913D01*
X140581817Y-84977913D01*
G37*
X140581817Y-84977913D02*
X140582189Y-85047321D01*
X140583056Y-85099710D01*
X140584617Y-85137860D01*
X140587074Y-85164548D01*
X140590628Y-85182554D01*
X140595481Y-85194658D01*
X140601832Y-85203638D01*
X140604755Y-85206889D01*
X140635813Y-85226664D01*
X140671499Y-85230225D01*
X140703181Y-85217216D01*
X140709584Y-85211201D01*
X140715792Y-85201472D01*
X140720581Y-85185806D01*
X140724185Y-85161299D01*
X140726835Y-85125046D01*
X140728766Y-85074142D01*
X140730210Y-85005681D01*
X140731089Y-84943090D01*
X140734138Y-84695373D01*
X140799049Y-84691988D01*
X140863960Y-84688602D01*
X140863960Y-84856749D01*
X140864590Y-84929748D01*
X140867224Y-84983190D01*
X140872980Y-85020079D01*
X140882975Y-85043419D01*
X140898327Y-85056213D01*
X140920153Y-85061465D01*
X140940409Y-85062262D01*
X140965263Y-85059784D01*
X140983577Y-85050430D01*
X140996308Y-85031324D01*
X141004412Y-84999589D01*
X141008847Y-84952348D01*
X141010570Y-84886724D01*
X141010716Y-84850906D01*
X141010716Y-84689729D01*
X141168760Y-84689729D01*
X141168760Y-84938085D01*
X141168873Y-85019494D01*
X141169383Y-85081365D01*
X141170541Y-85126739D01*
X141172601Y-85158653D01*
X141175817Y-85180148D01*
X141180443Y-85194264D01*
X141186730Y-85204039D01*
X141191338Y-85209018D01*
X141218231Y-85226097D01*
X141242138Y-85231596D01*
X141271338Y-85223744D01*
X141292938Y-85209018D01*
X141299737Y-85201161D01*
X141305017Y-85191019D01*
X141308969Y-85175863D01*
X141311784Y-85152966D01*
X141313653Y-85119598D01*
X141314769Y-85073032D01*
X141315322Y-85010540D01*
X141315504Y-84929393D01*
X141315516Y-84887285D01*
X141315436Y-84797109D01*
X141315069Y-84726783D01*
X141314223Y-84673578D01*
X141312707Y-84634767D01*
X141310330Y-84607620D01*
X141306900Y-84589409D01*
X141302225Y-84577407D01*
X141296115Y-84568885D01*
X141292938Y-84565551D01*
X141285341Y-84558952D01*
X141275541Y-84553780D01*
X141260910Y-84549861D01*
X141238823Y-84547023D01*
X141206653Y-84545092D01*
X141161774Y-84543895D01*
X141101560Y-84543259D01*
X141023384Y-84543010D01*
X140950594Y-84542973D01*
X140857378Y-84543007D01*
X140784102Y-84543242D01*
X140728129Y-84543877D01*
X140686822Y-84545113D01*
X140657543Y-84547151D01*
X140637655Y-84550190D01*
X140624521Y-84554430D01*
X140615503Y-84560072D01*
X140607964Y-84567316D01*
X140606283Y-84569101D01*
X140598843Y-84577762D01*
X140593080Y-84587825D01*
X140588783Y-84602082D01*
X140585735Y-84623324D01*
X140583722Y-84654343D01*
X140582531Y-84697930D01*
X140581946Y-84756876D01*
X140581754Y-84833973D01*
X140581738Y-84888706D01*
X140581817Y-84977913D01*
G36*
X140581737Y-83569336D02*
X140582138Y-83608818D01*
X140584930Y-83724507D01*
X140593221Y-83821396D01*
X140607903Y-83902788D01*
X140629864Y-83971984D01*
X140659993Y-84032287D01*
X140699181Y-84086999D01*
X140716203Y-84106540D01*
X140756034Y-84138957D01*
X140810084Y-84168187D01*
X140869994Y-84190716D01*
X140927410Y-84203028D01*
X140948627Y-84204307D01*
X141007440Y-84196290D01*
X141071684Y-84174808D01*
X141132492Y-84143708D01*
X141181001Y-84106841D01*
X141186853Y-84100853D01*
X141227992Y-84050128D01*
X141260106Y-83994582D01*
X141284036Y-83931011D01*
X141300624Y-83856213D01*
X141310712Y-83766985D01*
X141315140Y-83660125D01*
X141315516Y-83611179D01*
X141315216Y-83548945D01*
X141313963Y-83505179D01*
X141311225Y-83475776D01*
X141306472Y-83456628D01*
X141299172Y-83443630D01*
X141292938Y-83436662D01*
X141285365Y-83430081D01*
X141275595Y-83424919D01*
X141261011Y-83421004D01*
X141238997Y-83418164D01*
X141206935Y-83416227D01*
X141162207Y-83415023D01*
X141102197Y-83414379D01*
X141024288Y-83414124D01*
X140948627Y-83414085D01*
X140847712Y-83413837D01*
X140767098Y-83413890D01*
X140728493Y-83414850D01*
X140728493Y-83560840D01*
X141168760Y-83560840D01*
X141168675Y-83653973D01*
X141167067Y-83710014D01*
X141162927Y-83768708D01*
X141157135Y-83817679D01*
X141156897Y-83819169D01*
X141137761Y-83898315D01*
X141107958Y-83959705D01*
X141065549Y-84006402D01*
X141019632Y-84036072D01*
X140968697Y-84054354D01*
X140920871Y-84052936D01*
X140869604Y-84031719D01*
X140816570Y-83990218D01*
X140777271Y-83932709D01*
X140751002Y-83857957D01*
X140741706Y-83807999D01*
X140735178Y-83751291D01*
X140730453Y-83691188D01*
X140728488Y-83640068D01*
X140728479Y-83637040D01*
X140728493Y-83560840D01*
X140728493Y-83414850D01*
X140704522Y-83415447D01*
X140657726Y-83419709D01*
X140624449Y-83427877D01*
X140602430Y-83441151D01*
X140589410Y-83460733D01*
X140583128Y-83487824D01*
X140581324Y-83523625D01*
X140581737Y-83569336D01*
X140581737Y-83569336D01*
G37*
X140581737Y-83569336D02*
X140582138Y-83608818D01*
X140584930Y-83724507D01*
X140593221Y-83821396D01*
X140607903Y-83902788D01*
X140629864Y-83971984D01*
X140659993Y-84032287D01*
X140699181Y-84086999D01*
X140716203Y-84106540D01*
X140756034Y-84138957D01*
X140810084Y-84168187D01*
X140869994Y-84190716D01*
X140927410Y-84203028D01*
X140948627Y-84204307D01*
X141007440Y-84196290D01*
X141071684Y-84174808D01*
X141132492Y-84143708D01*
X141181001Y-84106841D01*
X141186853Y-84100853D01*
X141227992Y-84050128D01*
X141260106Y-83994582D01*
X141284036Y-83931011D01*
X141300624Y-83856213D01*
X141310712Y-83766985D01*
X141315140Y-83660125D01*
X141315516Y-83611179D01*
X141315216Y-83548945D01*
X141313963Y-83505179D01*
X141311225Y-83475776D01*
X141306472Y-83456628D01*
X141299172Y-83443630D01*
X141292938Y-83436662D01*
X141285365Y-83430081D01*
X141275595Y-83424919D01*
X141261011Y-83421004D01*
X141238997Y-83418164D01*
X141206935Y-83416227D01*
X141162207Y-83415023D01*
X141102197Y-83414379D01*
X141024288Y-83414124D01*
X140948627Y-83414085D01*
X140847712Y-83413837D01*
X140767098Y-83413890D01*
X140728493Y-83414850D01*
X140728493Y-83560840D01*
X141168760Y-83560840D01*
X141168675Y-83653973D01*
X141167067Y-83710014D01*
X141162927Y-83768708D01*
X141157135Y-83817679D01*
X141156897Y-83819169D01*
X141137761Y-83898315D01*
X141107958Y-83959705D01*
X141065549Y-84006402D01*
X141019632Y-84036072D01*
X140968697Y-84054354D01*
X140920871Y-84052936D01*
X140869604Y-84031719D01*
X140816570Y-83990218D01*
X140777271Y-83932709D01*
X140751002Y-83857957D01*
X140741706Y-83807999D01*
X140735178Y-83751291D01*
X140730453Y-83691188D01*
X140728488Y-83640068D01*
X140728479Y-83637040D01*
X140728493Y-83560840D01*
X140728493Y-83414850D01*
X140704522Y-83415447D01*
X140657726Y-83419709D01*
X140624449Y-83427877D01*
X140602430Y-83441151D01*
X140589410Y-83460733D01*
X140583128Y-83487824D01*
X140581324Y-83523625D01*
X140581737Y-83569336D01*
M02*
