M48
;DRILL file {KiCad (5.0.0-3-g5ebb6b6)} date Sunday, 14 de October de 2018, 10:55:33
;FORMAT={-:-/ absolute / inch / decimal}
FMAT,2
INCH,TZ
T1C0.0130
T2C0.0354
T3C0.0394
T4C0.0400
%
G90
G05
M72
T1
X5.0511Y-4.2325
X5.1011Y-3.8075
X5.1011Y-3.9075
X5.1011Y-4.0075
X5.1692Y-4.4626
X5.179Y-3.5965
X5.2386Y-3.7063
X5.3011Y-3.97
X5.307Y-3.5965
X5.3464Y-3.439
X5.3857Y-3.5965
X5.3886Y-4.02
X5.4636Y-3.995
X5.4743Y-3.8918
X5.522Y-3.6591
X5.5386Y-4.07
X5.5432Y-4.2362
X5.5432Y-4.4626
X5.6613Y-3.439
X5.6613Y-3.5965
X5.6613Y-3.7933
X5.7007Y-3.5965
X5.7401Y-3.439
X5.7401Y-3.5965
X5.7401Y-4.0492
X5.7794Y-3.5965
X5.7794Y-3.6555
X5.7886Y-3.9075
X5.8188Y-3.439
X5.8188Y-3.5965
X5.8385Y-4.4626
X5.8582Y-3.439
X5.8582Y-3.4784
X5.8582Y-3.5177
X5.8582Y-3.5571
X5.8582Y-3.5965
X5.9511Y-4.2325
T2
X5.7794Y-3.2422
T3
X5.0511Y-4.3575
X5.0511Y-4.4575
X5.9511Y-4.3575
X5.9511Y-4.4575
T4
X5.0511Y-3.4575
X5.0511Y-3.5575
X5.0511Y-3.6575
X5.0511Y-3.7575
X5.0511Y-3.8575
X5.0511Y-3.9575
X5.0511Y-4.0575
X5.0511Y-4.1575
X5.9511Y-3.4575
X5.9511Y-3.5575
X5.9511Y-3.6575
X5.9511Y-3.7575
X5.9511Y-3.8575
X5.9511Y-3.9575
X5.9511Y-4.0575
X5.9511Y-4.1575
T0
M30
