%TF.GenerationSoftware,KiCad,Pcbnew,(5.0.0-3-g5ebb6b6)*%
%TF.CreationDate,2018-10-14T10:55:47+02:00*%
%TF.ProjectId,BricoLabs_ESP8266_LoRa_shield,427269636F4C6162735F455350383236,rev?*%
%TF.SameCoordinates,Original*%
%TF.FileFunction,Soldermask,Top*%
%TF.FilePolarity,Negative*%
%FSLAX46Y46*%
G04 Gerber Fmt 4.6, Leading zero omitted, Abs format (unit mm)*
G04 Created by KiCad (PCBNEW (5.0.0-3-g5ebb6b6)) date Sunday, 14 de October de 2018, 10:55:47*
%MOMM*%
%LPD*%
G01*
G04 APERTURE LIST*
%ADD10C,0.150000*%
%ADD11C,0.100000*%
%ADD12R,1.416000X2.432000*%
%ADD13R,1.924000X4.464000*%
%ADD14R,1.400000X2.400000*%
%ADD15C,2.200000*%
%ADD16O,2.100000X2.100000*%
%ADD17R,2.100000X2.100000*%
%ADD18R,2.200000X2.200000*%
%ADD19O,2.200000X2.200000*%
%ADD20R,1.800000X1.695000*%
%ADD21C,0.500000*%
%ADD22R,1.900000X1.400000*%
G04 APERTURE END LIST*
D10*
X140878600Y-80062000D02*
G75*
G02X141878600Y-81062000I0J-1000000D01*
G01*
X151620379Y-81068606D02*
G75*
G02X152628600Y-83312000I-1991779J-2243394D01*
G01*
X140878600Y-80062000D02*
X130225800Y-80060800D01*
X152628600Y-114452400D02*
X152628600Y-83312000D01*
X126976364Y-83308794D02*
G75*
G02X130225800Y-80060800I3779835J-532077D01*
G01*
X151628600Y-81062000D02*
X141878600Y-81062000D01*
X127027671Y-114490707D02*
X126974600Y-83312000D01*
X127027671Y-114490707D02*
X152628600Y-114452400D01*
D11*
G36*
X144945071Y-82989707D02*
X144945071Y-85326507D01*
X145859471Y-85326507D01*
X145859471Y-82989707D01*
X144945071Y-82989707D01*
G37*
G36*
X147735871Y-82989707D02*
X147735871Y-85326507D01*
X148650271Y-85326507D01*
X148650271Y-82989707D01*
X147735871Y-82989707D01*
G37*
D12*
X146797671Y-85148707D03*
D13*
X144257671Y-84132707D03*
X149337671Y-84132707D03*
D14*
X132797671Y-105350707D03*
X134797671Y-105350707D03*
X136797671Y-105350707D03*
X138797671Y-105350707D03*
X140797671Y-105350707D03*
X142797671Y-105350707D03*
X144797671Y-105350707D03*
X146797671Y-105350707D03*
X146797671Y-89350707D03*
X144797671Y-89350707D03*
X142797671Y-89350707D03*
X140797671Y-89350707D03*
X138797671Y-89350707D03*
X136797671Y-89350707D03*
X134797671Y-89350707D03*
X132797671Y-89350707D03*
D15*
X146797671Y-82350707D03*
D16*
X128297671Y-110680707D03*
D17*
X128297671Y-113220707D03*
X151157671Y-113220707D03*
D16*
X151157671Y-110680707D03*
D18*
X151157671Y-105600707D03*
D19*
X151157671Y-103060707D03*
X151157671Y-100520707D03*
X151157671Y-97980707D03*
X151157671Y-95440707D03*
X151157671Y-92900707D03*
X151157671Y-90360707D03*
X151157671Y-87820707D03*
D18*
X128297671Y-105600707D03*
D19*
X128297671Y-103060707D03*
X128297671Y-100520707D03*
X128297671Y-97980707D03*
X128297671Y-95440707D03*
X128297671Y-92900707D03*
X128297671Y-90360707D03*
X128297671Y-87820707D03*
D20*
X137822671Y-83345707D03*
X137822671Y-85280707D03*
X140362671Y-85280707D03*
X140362671Y-83345707D03*
D21*
X134965171Y-85628207D03*
D11*
G36*
X134019014Y-85039189D02*
X134030395Y-85001670D01*
X134048877Y-84967093D01*
X134073750Y-84936786D01*
X134104057Y-84911913D01*
X134138634Y-84893431D01*
X134176153Y-84882050D01*
X134215171Y-84878207D01*
X134465171Y-84878207D01*
X134465171Y-84728207D01*
X134469014Y-84689189D01*
X134480395Y-84651670D01*
X134498877Y-84617093D01*
X134523750Y-84586786D01*
X134554057Y-84561913D01*
X134588634Y-84543431D01*
X134626153Y-84532050D01*
X134665171Y-84528207D01*
X135265171Y-84528207D01*
X135304189Y-84532050D01*
X135341708Y-84543431D01*
X135376285Y-84561913D01*
X135406592Y-84586786D01*
X135431465Y-84617093D01*
X135449947Y-84651670D01*
X135461328Y-84689189D01*
X135465171Y-84728207D01*
X135465171Y-84878207D01*
X135715171Y-84878207D01*
X135754189Y-84882050D01*
X135791708Y-84893431D01*
X135826285Y-84911913D01*
X135856592Y-84936786D01*
X135881465Y-84967093D01*
X135899947Y-85001670D01*
X135911328Y-85039189D01*
X135915171Y-85078207D01*
X135915171Y-85628207D01*
X135914569Y-85634319D01*
X135914569Y-85652741D01*
X135913606Y-85672347D01*
X135908796Y-85721178D01*
X135905917Y-85740587D01*
X135896345Y-85788712D01*
X135891575Y-85807755D01*
X135877331Y-85854710D01*
X135870720Y-85873187D01*
X135851943Y-85918520D01*
X135843548Y-85936268D01*
X135820417Y-85979541D01*
X135810331Y-85996369D01*
X135783071Y-86037168D01*
X135771376Y-86052937D01*
X135740248Y-86090866D01*
X135727068Y-86105407D01*
X135692371Y-86140104D01*
X135677830Y-86153284D01*
X135639901Y-86184412D01*
X135624132Y-86196107D01*
X135583333Y-86223367D01*
X135566505Y-86233453D01*
X135523232Y-86256584D01*
X135505484Y-86264979D01*
X135460151Y-86283756D01*
X135441674Y-86290367D01*
X135394719Y-86304611D01*
X135375676Y-86309381D01*
X135327551Y-86318953D01*
X135308142Y-86321832D01*
X135259311Y-86326642D01*
X135239705Y-86327605D01*
X135221283Y-86327605D01*
X135215171Y-86328207D01*
X134715171Y-86328207D01*
X134709059Y-86327605D01*
X134690637Y-86327605D01*
X134671031Y-86326642D01*
X134622200Y-86321832D01*
X134602791Y-86318953D01*
X134554666Y-86309381D01*
X134535623Y-86304611D01*
X134488668Y-86290367D01*
X134470191Y-86283756D01*
X134424858Y-86264979D01*
X134407110Y-86256584D01*
X134363837Y-86233453D01*
X134347009Y-86223367D01*
X134306210Y-86196107D01*
X134290441Y-86184412D01*
X134252512Y-86153284D01*
X134237971Y-86140104D01*
X134203274Y-86105407D01*
X134190094Y-86090866D01*
X134158966Y-86052937D01*
X134147271Y-86037168D01*
X134120011Y-85996369D01*
X134109925Y-85979541D01*
X134086794Y-85936268D01*
X134078399Y-85918520D01*
X134059622Y-85873187D01*
X134053011Y-85854710D01*
X134038767Y-85807755D01*
X134033997Y-85788712D01*
X134024425Y-85740587D01*
X134021546Y-85721178D01*
X134016736Y-85672347D01*
X134015773Y-85652741D01*
X134015773Y-85634319D01*
X134015171Y-85628207D01*
X134015171Y-85078207D01*
X134019014Y-85039189D01*
X134019014Y-85039189D01*
G37*
D21*
X134965171Y-83028207D03*
D11*
G36*
X134015773Y-83022095D02*
X134015773Y-83003673D01*
X134016736Y-82984067D01*
X134021546Y-82935236D01*
X134024425Y-82915827D01*
X134033997Y-82867702D01*
X134038767Y-82848659D01*
X134053011Y-82801704D01*
X134059622Y-82783227D01*
X134078399Y-82737894D01*
X134086794Y-82720146D01*
X134109925Y-82676873D01*
X134120011Y-82660045D01*
X134147271Y-82619246D01*
X134158966Y-82603477D01*
X134190094Y-82565548D01*
X134203274Y-82551007D01*
X134237971Y-82516310D01*
X134252512Y-82503130D01*
X134290441Y-82472002D01*
X134306210Y-82460307D01*
X134347009Y-82433047D01*
X134363837Y-82422961D01*
X134407110Y-82399830D01*
X134424858Y-82391435D01*
X134470191Y-82372658D01*
X134488668Y-82366047D01*
X134535623Y-82351803D01*
X134554666Y-82347033D01*
X134602791Y-82337461D01*
X134622200Y-82334582D01*
X134671031Y-82329772D01*
X134690637Y-82328809D01*
X134709059Y-82328809D01*
X134715171Y-82328207D01*
X135215171Y-82328207D01*
X135221283Y-82328809D01*
X135239705Y-82328809D01*
X135259311Y-82329772D01*
X135308142Y-82334582D01*
X135327551Y-82337461D01*
X135375676Y-82347033D01*
X135394719Y-82351803D01*
X135441674Y-82366047D01*
X135460151Y-82372658D01*
X135505484Y-82391435D01*
X135523232Y-82399830D01*
X135566505Y-82422961D01*
X135583333Y-82433047D01*
X135624132Y-82460307D01*
X135639901Y-82472002D01*
X135677830Y-82503130D01*
X135692371Y-82516310D01*
X135727068Y-82551007D01*
X135740248Y-82565548D01*
X135771376Y-82603477D01*
X135783071Y-82619246D01*
X135810331Y-82660045D01*
X135820417Y-82676873D01*
X135843548Y-82720146D01*
X135851943Y-82737894D01*
X135870720Y-82783227D01*
X135877331Y-82801704D01*
X135891575Y-82848659D01*
X135896345Y-82867702D01*
X135905917Y-82915827D01*
X135908796Y-82935236D01*
X135913606Y-82984067D01*
X135914569Y-83003673D01*
X135914569Y-83022095D01*
X135915171Y-83028207D01*
X135915171Y-83578207D01*
X135911328Y-83617225D01*
X135899947Y-83654744D01*
X135881465Y-83689321D01*
X135856592Y-83719628D01*
X135826285Y-83744501D01*
X135791708Y-83762983D01*
X135754189Y-83774364D01*
X135715171Y-83778207D01*
X134215171Y-83778207D01*
X134176153Y-83774364D01*
X134138634Y-83762983D01*
X134104057Y-83744501D01*
X134073750Y-83719628D01*
X134048877Y-83689321D01*
X134030395Y-83654744D01*
X134019014Y-83617225D01*
X134015171Y-83578207D01*
X134015171Y-83028207D01*
X134015773Y-83022095D01*
X134015773Y-83022095D01*
G37*
D22*
X134965171Y-84328207D03*
M02*
