%TF.GenerationSoftware,KiCad,Pcbnew,(5.0.0-3-g5ebb6b6)*%
%TF.CreationDate,2018-10-14T10:55:46+02:00*%
%TF.ProjectId,BricoLabs_ESP8266_LoRa_shield,427269636F4C6162735F455350383236,rev?*%
%TF.SameCoordinates,Original*%
%TF.FileFunction,Legend,Top*%
%TF.FilePolarity,Positive*%
%FSLAX46Y46*%
G04 Gerber Fmt 4.6, Leading zero omitted, Abs format (unit mm)*
G04 Created by KiCad (PCBNEW (5.0.0-3-g5ebb6b6)) date Sunday, 14 de October de 2018, 10:55:46*
%MOMM*%
%LPD*%
G01*
G04 APERTURE LIST*
%ADD10C,0.200000*%
%ADD11C,0.300000*%
%ADD12C,0.150000*%
%ADD13C,0.250000*%
%ADD14C,0.122500*%
%ADD15C,0.800000*%
%ADD16C,0.010000*%
%ADD17C,0.120000*%
G04 APERTURE END LIST*
D10*
X139410171Y-86203207D02*
X139410171Y-82393207D01*
X141315171Y-86203207D02*
X139410171Y-86203207D01*
X141315171Y-82393207D02*
X141315171Y-86203207D01*
X139410171Y-82393207D02*
X141315171Y-82393207D01*
X138775171Y-82393207D02*
X136870171Y-82393207D01*
X138775171Y-86203207D02*
X138775171Y-82393207D01*
X136870171Y-86203207D02*
X138775171Y-86203207D01*
X136870171Y-82393207D02*
X136870171Y-86203207D01*
D11*
X141976242Y-100064992D02*
X141261956Y-100564992D01*
X141976242Y-100922135D02*
X140476242Y-100922135D01*
X140476242Y-100350707D01*
X140547671Y-100207849D01*
X140619099Y-100136421D01*
X140761956Y-100064992D01*
X140976242Y-100064992D01*
X141119099Y-100136421D01*
X141190528Y-100207849D01*
X141261956Y-100350707D01*
X141261956Y-100922135D01*
X141190528Y-98922135D02*
X141190528Y-99422135D01*
X141976242Y-99422135D02*
X140476242Y-99422135D01*
X140476242Y-98707849D01*
X141976242Y-98136421D02*
X140476242Y-98136421D01*
X141547671Y-97636421D01*
X140476242Y-97136421D01*
X141976242Y-97136421D01*
X141976242Y-96350707D02*
X141976242Y-96064992D01*
X141904813Y-95922135D01*
X141833385Y-95850707D01*
X141619099Y-95707849D01*
X141333385Y-95636421D01*
X140761956Y-95636421D01*
X140619099Y-95707849D01*
X140547671Y-95779278D01*
X140476242Y-95922135D01*
X140476242Y-96207849D01*
X140547671Y-96350707D01*
X140619099Y-96422135D01*
X140761956Y-96493564D01*
X141119099Y-96493564D01*
X141261956Y-96422135D01*
X141333385Y-96350707D01*
X141404813Y-96207849D01*
X141404813Y-95922135D01*
X141333385Y-95779278D01*
X141261956Y-95707849D01*
X141119099Y-95636421D01*
X140476242Y-95136421D02*
X141976242Y-94136421D01*
X140476242Y-94136421D02*
X141976242Y-95136421D01*
D10*
X129567671Y-87820707D02*
G75*
G03X129567671Y-87820707I-1270000J0D01*
G01*
X152427671Y-100520707D02*
G75*
G03X152427671Y-100520707I-1270000J0D01*
G01*
X152427671Y-97980707D02*
G75*
G03X152427671Y-97980707I-1270000J0D01*
G01*
X129567671Y-92900707D02*
G75*
G03X129567671Y-92900707I-1270000J0D01*
G01*
X129567671Y-95440707D02*
G75*
G03X129567671Y-95440707I-1270000J0D01*
G01*
X129567671Y-97980707D02*
G75*
G03X129567671Y-97980707I-1270000J0D01*
G01*
X129567671Y-100520707D02*
G75*
G03X129567671Y-100520707I-1270000J0D01*
G01*
X129567671Y-103060707D02*
G75*
G03X129567671Y-103060707I-1270000J0D01*
G01*
D12*
X140878600Y-80062000D02*
G75*
G02X141878600Y-81062000I0J-1000000D01*
G01*
D13*
X139353028Y-109428087D02*
X139591123Y-110428087D01*
X139781599Y-109713802D01*
X139972075Y-110428087D01*
X140210171Y-109428087D01*
X140972075Y-110380468D02*
X140876837Y-110428087D01*
X140686361Y-110428087D01*
X140591123Y-110380468D01*
X140543504Y-110285230D01*
X140543504Y-109904278D01*
X140591123Y-109809040D01*
X140686361Y-109761421D01*
X140876837Y-109761421D01*
X140972075Y-109809040D01*
X141019694Y-109904278D01*
X141019694Y-109999516D01*
X140543504Y-110094754D01*
X141448266Y-110428087D02*
X141448266Y-109761421D01*
X141448266Y-109856659D02*
X141495885Y-109809040D01*
X141591123Y-109761421D01*
X141733980Y-109761421D01*
X141829218Y-109809040D01*
X141876837Y-109904278D01*
X141876837Y-110428087D01*
X141876837Y-109904278D02*
X141924456Y-109809040D01*
X142019694Y-109761421D01*
X142162551Y-109761421D01*
X142257790Y-109809040D01*
X142305409Y-109904278D01*
X142305409Y-110428087D01*
X142924456Y-110428087D02*
X142829218Y-110380468D01*
X142781599Y-110332849D01*
X142733980Y-110237611D01*
X142733980Y-109951897D01*
X142781599Y-109856659D01*
X142829218Y-109809040D01*
X142924456Y-109761421D01*
X143067313Y-109761421D01*
X143162551Y-109809040D01*
X143210171Y-109856659D01*
X143257790Y-109951897D01*
X143257790Y-110237611D01*
X143210171Y-110332849D01*
X143162551Y-110380468D01*
X143067313Y-110428087D01*
X142924456Y-110428087D01*
X143638742Y-110380468D02*
X143733980Y-110428087D01*
X143924456Y-110428087D01*
X144019694Y-110380468D01*
X144067313Y-110285230D01*
X144067313Y-110237611D01*
X144019694Y-110142373D01*
X143924456Y-110094754D01*
X143781599Y-110094754D01*
X143686361Y-110047135D01*
X143638742Y-109951897D01*
X143638742Y-109904278D01*
X143686361Y-109809040D01*
X143781599Y-109761421D01*
X143924456Y-109761421D01*
X144019694Y-109809040D01*
X145257790Y-110428087D02*
X145257790Y-109428087D01*
X145495885Y-109428087D01*
X145638742Y-109475707D01*
X145733980Y-109570945D01*
X145781599Y-109666183D01*
X145829218Y-109856659D01*
X145829218Y-109999516D01*
X145781599Y-110189992D01*
X145733980Y-110285230D01*
X145638742Y-110380468D01*
X145495885Y-110428087D01*
X145257790Y-110428087D01*
X146781599Y-110428087D02*
X146210171Y-110428087D01*
X146495885Y-110428087D02*
X146495885Y-109428087D01*
X146400647Y-109570945D01*
X146305409Y-109666183D01*
X146210171Y-109713802D01*
X139924456Y-112178087D02*
X139448266Y-112178087D01*
X139448266Y-111178087D01*
X140400647Y-112178087D02*
X140305409Y-112130468D01*
X140257790Y-112082849D01*
X140210171Y-111987611D01*
X140210171Y-111701897D01*
X140257790Y-111606659D01*
X140305409Y-111559040D01*
X140400647Y-111511421D01*
X140543504Y-111511421D01*
X140638742Y-111559040D01*
X140686361Y-111606659D01*
X140733980Y-111701897D01*
X140733980Y-111987611D01*
X140686361Y-112082849D01*
X140638742Y-112130468D01*
X140543504Y-112178087D01*
X140400647Y-112178087D01*
X141733980Y-112178087D02*
X141400647Y-111701897D01*
X141162551Y-112178087D02*
X141162551Y-111178087D01*
X141543504Y-111178087D01*
X141638742Y-111225707D01*
X141686361Y-111273326D01*
X141733980Y-111368564D01*
X141733980Y-111511421D01*
X141686361Y-111606659D01*
X141638742Y-111654278D01*
X141543504Y-111701897D01*
X141162551Y-111701897D01*
X142591123Y-112178087D02*
X142591123Y-111654278D01*
X142543504Y-111559040D01*
X142448266Y-111511421D01*
X142257790Y-111511421D01*
X142162551Y-111559040D01*
X142591123Y-112130468D02*
X142495885Y-112178087D01*
X142257790Y-112178087D01*
X142162551Y-112130468D01*
X142114932Y-112035230D01*
X142114932Y-111939992D01*
X142162551Y-111844754D01*
X142257790Y-111797135D01*
X142495885Y-111797135D01*
X142591123Y-111749516D01*
X143781599Y-112130468D02*
X143924456Y-112178087D01*
X144162551Y-112178087D01*
X144257790Y-112130468D01*
X144305409Y-112082849D01*
X144353028Y-111987611D01*
X144353028Y-111892373D01*
X144305409Y-111797135D01*
X144257790Y-111749516D01*
X144162551Y-111701897D01*
X143972075Y-111654278D01*
X143876837Y-111606659D01*
X143829218Y-111559040D01*
X143781599Y-111463802D01*
X143781599Y-111368564D01*
X143829218Y-111273326D01*
X143876837Y-111225707D01*
X143972075Y-111178087D01*
X144210171Y-111178087D01*
X144353028Y-111225707D01*
X144781599Y-112178087D02*
X144781599Y-111178087D01*
X145210171Y-112178087D02*
X145210171Y-111654278D01*
X145162551Y-111559040D01*
X145067313Y-111511421D01*
X144924456Y-111511421D01*
X144829218Y-111559040D01*
X144781599Y-111606659D01*
X145686361Y-112178087D02*
X145686361Y-111511421D01*
X145686361Y-111178087D02*
X145638742Y-111225707D01*
X145686361Y-111273326D01*
X145733980Y-111225707D01*
X145686361Y-111178087D01*
X145686361Y-111273326D01*
X146543504Y-112130468D02*
X146448266Y-112178087D01*
X146257790Y-112178087D01*
X146162551Y-112130468D01*
X146114932Y-112035230D01*
X146114932Y-111654278D01*
X146162551Y-111559040D01*
X146257790Y-111511421D01*
X146448266Y-111511421D01*
X146543504Y-111559040D01*
X146591123Y-111654278D01*
X146591123Y-111749516D01*
X146114932Y-111844754D01*
X147162551Y-112178087D02*
X147067313Y-112130468D01*
X147019694Y-112035230D01*
X147019694Y-111178087D01*
X147972075Y-112178087D02*
X147972075Y-111178087D01*
X147972075Y-112130468D02*
X147876837Y-112178087D01*
X147686361Y-112178087D01*
X147591123Y-112130468D01*
X147543504Y-112082849D01*
X147495885Y-111987611D01*
X147495885Y-111701897D01*
X147543504Y-111606659D01*
X147591123Y-111559040D01*
X147686361Y-111511421D01*
X147876837Y-111511421D01*
X147972075Y-111559040D01*
D14*
X149569337Y-111415707D02*
X148869337Y-111415707D01*
X148869337Y-111299040D01*
X148902671Y-111229040D01*
X148969337Y-111182373D01*
X149036004Y-111159040D01*
X149169337Y-111135707D01*
X149269337Y-111135707D01*
X149402671Y-111159040D01*
X149469337Y-111182373D01*
X149536004Y-111229040D01*
X149569337Y-111299040D01*
X149569337Y-111415707D01*
X149569337Y-110925707D02*
X148869337Y-110925707D01*
X148869337Y-110599040D02*
X148869337Y-110505707D01*
X148902671Y-110459040D01*
X148969337Y-110412373D01*
X149102671Y-110389040D01*
X149336004Y-110389040D01*
X149469337Y-110412373D01*
X149536004Y-110459040D01*
X149569337Y-110505707D01*
X149569337Y-110599040D01*
X149536004Y-110645707D01*
X149469337Y-110692373D01*
X149336004Y-110715707D01*
X149102671Y-110715707D01*
X148969337Y-110692373D01*
X148902671Y-110645707D01*
X148869337Y-110599040D01*
X148869337Y-110225707D02*
X148869337Y-109922373D01*
X149136004Y-110085707D01*
X149136004Y-110015707D01*
X149169337Y-109969040D01*
X149202671Y-109945707D01*
X149269337Y-109922373D01*
X149436004Y-109922373D01*
X149502671Y-109945707D01*
X149536004Y-109969040D01*
X149569337Y-110015707D01*
X149569337Y-110155707D01*
X149536004Y-110202373D01*
X149502671Y-110225707D01*
X149569337Y-113955707D02*
X148869337Y-113955707D01*
X148869337Y-113839040D01*
X148902671Y-113769040D01*
X148969337Y-113722373D01*
X149036004Y-113699040D01*
X149169337Y-113675707D01*
X149269337Y-113675707D01*
X149402671Y-113699040D01*
X149469337Y-113722373D01*
X149536004Y-113769040D01*
X149569337Y-113839040D01*
X149569337Y-113955707D01*
X149569337Y-113465707D02*
X148869337Y-113465707D01*
X148869337Y-113139040D02*
X148869337Y-113045707D01*
X148902671Y-112999040D01*
X148969337Y-112952373D01*
X149102671Y-112929040D01*
X149336004Y-112929040D01*
X149469337Y-112952373D01*
X149536004Y-112999040D01*
X149569337Y-113045707D01*
X149569337Y-113139040D01*
X149536004Y-113185707D01*
X149469337Y-113232373D01*
X149336004Y-113255707D01*
X149102671Y-113255707D01*
X148969337Y-113232373D01*
X148902671Y-113185707D01*
X148869337Y-113139040D01*
X149102671Y-112509040D02*
X149569337Y-112509040D01*
X148836004Y-112625707D02*
X149336004Y-112742373D01*
X149336004Y-112439040D01*
X130519337Y-110949040D02*
X130186004Y-111112373D01*
X130519337Y-111229040D02*
X129819337Y-111229040D01*
X129819337Y-111042373D01*
X129852671Y-110995707D01*
X129886004Y-110972373D01*
X129952671Y-110949040D01*
X130052671Y-110949040D01*
X130119337Y-110972373D01*
X130152671Y-110995707D01*
X130186004Y-111042373D01*
X130186004Y-111229040D01*
X130486004Y-110762373D02*
X130519337Y-110692373D01*
X130519337Y-110575707D01*
X130486004Y-110529040D01*
X130452671Y-110505707D01*
X130386004Y-110482373D01*
X130319337Y-110482373D01*
X130252671Y-110505707D01*
X130219337Y-110529040D01*
X130186004Y-110575707D01*
X130152671Y-110669040D01*
X130119337Y-110715707D01*
X130086004Y-110739040D01*
X130019337Y-110762373D01*
X129952671Y-110762373D01*
X129886004Y-110739040D01*
X129852671Y-110715707D01*
X129819337Y-110669040D01*
X129819337Y-110552373D01*
X129852671Y-110482373D01*
X129819337Y-110342373D02*
X129819337Y-110062373D01*
X130519337Y-110202373D02*
X129819337Y-110202373D01*
X130519337Y-113797000D02*
X129819337Y-113797000D01*
X129819337Y-113680333D01*
X129852671Y-113610333D01*
X129919337Y-113563666D01*
X129986004Y-113540333D01*
X130119337Y-113517000D01*
X130219337Y-113517000D01*
X130352671Y-113540333D01*
X130419337Y-113563666D01*
X130486004Y-113610333D01*
X130519337Y-113680333D01*
X130519337Y-113797000D01*
X130519337Y-113307000D02*
X129819337Y-113307000D01*
X129819337Y-112980333D02*
X129819337Y-112887000D01*
X129852671Y-112840333D01*
X129919337Y-112793666D01*
X130052671Y-112770333D01*
X130286004Y-112770333D01*
X130419337Y-112793666D01*
X130486004Y-112840333D01*
X130519337Y-112887000D01*
X130519337Y-112980333D01*
X130486004Y-113027000D01*
X130419337Y-113073666D01*
X130286004Y-113097000D01*
X130052671Y-113097000D01*
X129919337Y-113073666D01*
X129852671Y-113027000D01*
X129819337Y-112980333D01*
X129819337Y-112327000D02*
X129819337Y-112560333D01*
X130152671Y-112583666D01*
X130119337Y-112560333D01*
X130086004Y-112513666D01*
X130086004Y-112397000D01*
X130119337Y-112350333D01*
X130152671Y-112327000D01*
X130219337Y-112303666D01*
X130386004Y-112303666D01*
X130452671Y-112327000D01*
X130486004Y-112350333D01*
X130519337Y-112397000D01*
X130519337Y-112513666D01*
X130486004Y-112560333D01*
X130452671Y-112583666D01*
D12*
X151620379Y-81068606D02*
G75*
G02X152628600Y-83312000I-1991779J-2243394D01*
G01*
D14*
X148869337Y-105694040D02*
X148869337Y-105927373D01*
X149202671Y-105950707D01*
X149169337Y-105927373D01*
X149136004Y-105880707D01*
X149136004Y-105764040D01*
X149169337Y-105717373D01*
X149202671Y-105694040D01*
X149269337Y-105670707D01*
X149436004Y-105670707D01*
X149502671Y-105694040D01*
X149536004Y-105717373D01*
X149569337Y-105764040D01*
X149569337Y-105880707D01*
X149536004Y-105927373D01*
X149502671Y-105950707D01*
X148869337Y-105530707D02*
X149569337Y-105367373D01*
X148869337Y-105204040D01*
X148902671Y-103434040D02*
X148869337Y-103480707D01*
X148869337Y-103550707D01*
X148902671Y-103620707D01*
X148969337Y-103667373D01*
X149036004Y-103690707D01*
X149169337Y-103714040D01*
X149269337Y-103714040D01*
X149402671Y-103690707D01*
X149469337Y-103667373D01*
X149536004Y-103620707D01*
X149569337Y-103550707D01*
X149569337Y-103504040D01*
X149536004Y-103434040D01*
X149502671Y-103410707D01*
X149269337Y-103410707D01*
X149269337Y-103504040D01*
X149569337Y-103200707D02*
X148869337Y-103200707D01*
X149569337Y-102920707D01*
X148869337Y-102920707D01*
X149569337Y-102687373D02*
X148869337Y-102687373D01*
X148869337Y-102570707D01*
X148902671Y-102500707D01*
X148969337Y-102454040D01*
X149036004Y-102430707D01*
X149169337Y-102407373D01*
X149269337Y-102407373D01*
X149402671Y-102430707D01*
X149469337Y-102454040D01*
X149536004Y-102500707D01*
X149569337Y-102570707D01*
X149569337Y-102687373D01*
X149569337Y-100882373D02*
X148869337Y-100882373D01*
X148869337Y-100765707D01*
X148902671Y-100695707D01*
X148969337Y-100649040D01*
X149036004Y-100625707D01*
X149169337Y-100602373D01*
X149269337Y-100602373D01*
X149402671Y-100625707D01*
X149469337Y-100649040D01*
X149536004Y-100695707D01*
X149569337Y-100765707D01*
X149569337Y-100882373D01*
X149102671Y-100182373D02*
X149569337Y-100182373D01*
X148836004Y-100299040D02*
X149336004Y-100415707D01*
X149336004Y-100112373D01*
X149569337Y-98342373D02*
X148869337Y-98342373D01*
X148869337Y-98225707D01*
X148902671Y-98155707D01*
X148969337Y-98109040D01*
X149036004Y-98085707D01*
X149169337Y-98062373D01*
X149269337Y-98062373D01*
X149402671Y-98085707D01*
X149469337Y-98109040D01*
X149536004Y-98155707D01*
X149569337Y-98225707D01*
X149569337Y-98342373D01*
X148869337Y-97899040D02*
X148869337Y-97595707D01*
X149136004Y-97759040D01*
X149136004Y-97689040D01*
X149169337Y-97642373D01*
X149202671Y-97619040D01*
X149269337Y-97595707D01*
X149436004Y-97595707D01*
X149502671Y-97619040D01*
X149536004Y-97642373D01*
X149569337Y-97689040D01*
X149569337Y-97829040D01*
X149536004Y-97875707D01*
X149502671Y-97899040D01*
X149569337Y-95802373D02*
X148869337Y-95802373D01*
X148869337Y-95685707D01*
X148902671Y-95615707D01*
X148969337Y-95569040D01*
X149036004Y-95545707D01*
X149169337Y-95522373D01*
X149269337Y-95522373D01*
X149402671Y-95545707D01*
X149469337Y-95569040D01*
X149536004Y-95615707D01*
X149569337Y-95685707D01*
X149569337Y-95802373D01*
X148936004Y-95335707D02*
X148902671Y-95312373D01*
X148869337Y-95265707D01*
X148869337Y-95149040D01*
X148902671Y-95102373D01*
X148936004Y-95079040D01*
X149002671Y-95055707D01*
X149069337Y-95055707D01*
X149169337Y-95079040D01*
X149569337Y-95359040D01*
X149569337Y-95055707D01*
X149569337Y-93262373D02*
X148869337Y-93262373D01*
X148869337Y-93145707D01*
X148902671Y-93075707D01*
X148969337Y-93029040D01*
X149036004Y-93005707D01*
X149169337Y-92982373D01*
X149269337Y-92982373D01*
X149402671Y-93005707D01*
X149469337Y-93029040D01*
X149536004Y-93075707D01*
X149569337Y-93145707D01*
X149569337Y-93262373D01*
X149569337Y-92515707D02*
X149569337Y-92795707D01*
X149569337Y-92655707D02*
X148869337Y-92655707D01*
X148969337Y-92702373D01*
X149036004Y-92749040D01*
X149069337Y-92795707D01*
X149886837Y-90442373D02*
X149553504Y-90605707D01*
X149886837Y-90722373D02*
X149186837Y-90722373D01*
X149186837Y-90535707D01*
X149220171Y-90489040D01*
X149253504Y-90465707D01*
X149320171Y-90442373D01*
X149420171Y-90442373D01*
X149486837Y-90465707D01*
X149520171Y-90489040D01*
X149553504Y-90535707D01*
X149553504Y-90722373D01*
X149186837Y-90279040D02*
X149886837Y-89952373D01*
X149186837Y-89952373D02*
X149886837Y-90279040D01*
X149186837Y-88194040D02*
X149186837Y-87914040D01*
X149886837Y-88054040D02*
X149186837Y-88054040D01*
X149186837Y-87797373D02*
X149886837Y-87470707D01*
X149186837Y-87470707D02*
X149886837Y-87797373D01*
X130519337Y-88089040D02*
X130186004Y-88252373D01*
X130519337Y-88369040D02*
X129819337Y-88369040D01*
X129819337Y-88182373D01*
X129852671Y-88135707D01*
X129886004Y-88112373D01*
X129952671Y-88089040D01*
X130052671Y-88089040D01*
X130119337Y-88112373D01*
X130152671Y-88135707D01*
X130186004Y-88182373D01*
X130186004Y-88369040D01*
X130486004Y-87902373D02*
X130519337Y-87832373D01*
X130519337Y-87715707D01*
X130486004Y-87669040D01*
X130452671Y-87645707D01*
X130386004Y-87622373D01*
X130319337Y-87622373D01*
X130252671Y-87645707D01*
X130219337Y-87669040D01*
X130186004Y-87715707D01*
X130152671Y-87809040D01*
X130119337Y-87855707D01*
X130086004Y-87879040D01*
X130019337Y-87902373D01*
X129952671Y-87902373D01*
X129886004Y-87879040D01*
X129852671Y-87855707D01*
X129819337Y-87809040D01*
X129819337Y-87692373D01*
X129852671Y-87622373D01*
X129819337Y-87482373D02*
X129819337Y-87202373D01*
X130519337Y-87342373D02*
X129819337Y-87342373D01*
X130319337Y-90710707D02*
X130319337Y-90477373D01*
X130519337Y-90757373D02*
X129819337Y-90594040D01*
X130519337Y-90430707D01*
X129819337Y-90174040D02*
X129819337Y-90127373D01*
X129852671Y-90080707D01*
X129886004Y-90057373D01*
X129952671Y-90034040D01*
X130086004Y-90010707D01*
X130252671Y-90010707D01*
X130386004Y-90034040D01*
X130452671Y-90057373D01*
X130486004Y-90080707D01*
X130519337Y-90127373D01*
X130519337Y-90174040D01*
X130486004Y-90220707D01*
X130452671Y-90244040D01*
X130386004Y-90267373D01*
X130252671Y-90290707D01*
X130086004Y-90290707D01*
X129952671Y-90267373D01*
X129886004Y-90244040D01*
X129852671Y-90220707D01*
X129819337Y-90174040D01*
X130519337Y-93262373D02*
X129819337Y-93262373D01*
X129819337Y-93145707D01*
X129852671Y-93075707D01*
X129919337Y-93029040D01*
X129986004Y-93005707D01*
X130119337Y-92982373D01*
X130219337Y-92982373D01*
X130352671Y-93005707D01*
X130419337Y-93029040D01*
X130486004Y-93075707D01*
X130519337Y-93145707D01*
X130519337Y-93262373D01*
X129819337Y-92679040D02*
X129819337Y-92632373D01*
X129852671Y-92585707D01*
X129886004Y-92562373D01*
X129952671Y-92539040D01*
X130086004Y-92515707D01*
X130252671Y-92515707D01*
X130386004Y-92539040D01*
X130452671Y-92562373D01*
X130486004Y-92585707D01*
X130519337Y-92632373D01*
X130519337Y-92679040D01*
X130486004Y-92725707D01*
X130452671Y-92749040D01*
X130386004Y-92772373D01*
X130252671Y-92795707D01*
X130086004Y-92795707D01*
X129952671Y-92772373D01*
X129886004Y-92749040D01*
X129852671Y-92725707D01*
X129819337Y-92679040D01*
X130519337Y-95802373D02*
X129819337Y-95802373D01*
X129819337Y-95685707D01*
X129852671Y-95615707D01*
X129919337Y-95569040D01*
X129986004Y-95545707D01*
X130119337Y-95522373D01*
X130219337Y-95522373D01*
X130352671Y-95545707D01*
X130419337Y-95569040D01*
X130486004Y-95615707D01*
X130519337Y-95685707D01*
X130519337Y-95802373D01*
X129819337Y-95079040D02*
X129819337Y-95312373D01*
X130152671Y-95335707D01*
X130119337Y-95312373D01*
X130086004Y-95265707D01*
X130086004Y-95149040D01*
X130119337Y-95102373D01*
X130152671Y-95079040D01*
X130219337Y-95055707D01*
X130386004Y-95055707D01*
X130452671Y-95079040D01*
X130486004Y-95102373D01*
X130519337Y-95149040D01*
X130519337Y-95265707D01*
X130486004Y-95312373D01*
X130452671Y-95335707D01*
X130519337Y-98342373D02*
X129819337Y-98342373D01*
X129819337Y-98225707D01*
X129852671Y-98155707D01*
X129919337Y-98109040D01*
X129986004Y-98085707D01*
X130119337Y-98062373D01*
X130219337Y-98062373D01*
X130352671Y-98085707D01*
X130419337Y-98109040D01*
X130486004Y-98155707D01*
X130519337Y-98225707D01*
X130519337Y-98342373D01*
X129819337Y-97642373D02*
X129819337Y-97735707D01*
X129852671Y-97782373D01*
X129886004Y-97805707D01*
X129986004Y-97852373D01*
X130119337Y-97875707D01*
X130386004Y-97875707D01*
X130452671Y-97852373D01*
X130486004Y-97829040D01*
X130519337Y-97782373D01*
X130519337Y-97689040D01*
X130486004Y-97642373D01*
X130452671Y-97619040D01*
X130386004Y-97595707D01*
X130219337Y-97595707D01*
X130152671Y-97619040D01*
X130119337Y-97642373D01*
X130086004Y-97689040D01*
X130086004Y-97782373D01*
X130119337Y-97829040D01*
X130152671Y-97852373D01*
X130219337Y-97875707D01*
X130519337Y-100882373D02*
X129819337Y-100882373D01*
X129819337Y-100765707D01*
X129852671Y-100695707D01*
X129919337Y-100649040D01*
X129986004Y-100625707D01*
X130119337Y-100602373D01*
X130219337Y-100602373D01*
X130352671Y-100625707D01*
X130419337Y-100649040D01*
X130486004Y-100695707D01*
X130519337Y-100765707D01*
X130519337Y-100882373D01*
X129819337Y-100439040D02*
X129819337Y-100112373D01*
X130519337Y-100322373D01*
X130519337Y-103422373D02*
X129819337Y-103422373D01*
X129819337Y-103305707D01*
X129852671Y-103235707D01*
X129919337Y-103189040D01*
X129986004Y-103165707D01*
X130119337Y-103142373D01*
X130219337Y-103142373D01*
X130352671Y-103165707D01*
X130419337Y-103189040D01*
X130486004Y-103235707D01*
X130519337Y-103305707D01*
X130519337Y-103422373D01*
X130119337Y-102862373D02*
X130086004Y-102909040D01*
X130052671Y-102932373D01*
X129986004Y-102955707D01*
X129952671Y-102955707D01*
X129886004Y-102932373D01*
X129852671Y-102909040D01*
X129819337Y-102862373D01*
X129819337Y-102769040D01*
X129852671Y-102722373D01*
X129886004Y-102699040D01*
X129952671Y-102675707D01*
X129986004Y-102675707D01*
X130052671Y-102699040D01*
X130086004Y-102722373D01*
X130119337Y-102769040D01*
X130119337Y-102862373D01*
X130152671Y-102909040D01*
X130186004Y-102932373D01*
X130252671Y-102955707D01*
X130386004Y-102955707D01*
X130452671Y-102932373D01*
X130486004Y-102909040D01*
X130519337Y-102862373D01*
X130519337Y-102769040D01*
X130486004Y-102722373D01*
X130452671Y-102699040D01*
X130386004Y-102675707D01*
X130252671Y-102675707D01*
X130186004Y-102699040D01*
X130152671Y-102722373D01*
X130119337Y-102769040D01*
X129831837Y-106091540D02*
X129831837Y-105788207D01*
X130098504Y-105951540D01*
X130098504Y-105881540D01*
X130131837Y-105834873D01*
X130165171Y-105811540D01*
X130231837Y-105788207D01*
X130398504Y-105788207D01*
X130465171Y-105811540D01*
X130498504Y-105834873D01*
X130531837Y-105881540D01*
X130531837Y-106021540D01*
X130498504Y-106068207D01*
X130465171Y-106091540D01*
X130465171Y-105578207D02*
X130498504Y-105554873D01*
X130531837Y-105578207D01*
X130498504Y-105601540D01*
X130465171Y-105578207D01*
X130531837Y-105578207D01*
X129831837Y-105391540D02*
X129831837Y-105088207D01*
X130098504Y-105251540D01*
X130098504Y-105181540D01*
X130131837Y-105134873D01*
X130165171Y-105111540D01*
X130231837Y-105088207D01*
X130398504Y-105088207D01*
X130465171Y-105111540D01*
X130498504Y-105134873D01*
X130531837Y-105181540D01*
X130531837Y-105321540D01*
X130498504Y-105368207D01*
X130465171Y-105391540D01*
D15*
X131297671Y-106850707D02*
X131297671Y-106850707D01*
D12*
X131297671Y-105850707D02*
X131797671Y-105850707D01*
X148297671Y-105850707D02*
X147797671Y-105850707D01*
X148297671Y-88850707D02*
X147797671Y-88850707D01*
X131297671Y-88850707D02*
X131797671Y-88850707D01*
X131297671Y-105850707D02*
X131297671Y-88850707D01*
X148297671Y-105850707D02*
X148297671Y-88850707D01*
D14*
X146447671Y-107724040D02*
X146414337Y-107770707D01*
X146414337Y-107840707D01*
X146447671Y-107910707D01*
X146514337Y-107957373D01*
X146581004Y-107980707D01*
X146714337Y-108004040D01*
X146814337Y-108004040D01*
X146947671Y-107980707D01*
X147014337Y-107957373D01*
X147081004Y-107910707D01*
X147114337Y-107840707D01*
X147114337Y-107794040D01*
X147081004Y-107724040D01*
X147047671Y-107700707D01*
X146814337Y-107700707D01*
X146814337Y-107794040D01*
X147114337Y-107490707D02*
X146414337Y-107490707D01*
X147114337Y-107210707D01*
X146414337Y-107210707D01*
X147114337Y-106977373D02*
X146414337Y-106977373D01*
X146414337Y-106860707D01*
X146447671Y-106790707D01*
X146514337Y-106744040D01*
X146581004Y-106720707D01*
X146714337Y-106697373D01*
X146814337Y-106697373D01*
X146947671Y-106720707D01*
X147014337Y-106744040D01*
X147081004Y-106790707D01*
X147114337Y-106860707D01*
X147114337Y-106977373D01*
X145114337Y-108190707D02*
X144414337Y-108190707D01*
X144414337Y-108074040D01*
X144447671Y-108004040D01*
X144514337Y-107957373D01*
X144581004Y-107934040D01*
X144714337Y-107910707D01*
X144814337Y-107910707D01*
X144947671Y-107934040D01*
X145014337Y-107957373D01*
X145081004Y-108004040D01*
X145114337Y-108074040D01*
X145114337Y-108190707D01*
X145114337Y-107700707D02*
X144414337Y-107700707D01*
X144414337Y-107374040D02*
X144414337Y-107280707D01*
X144447671Y-107234040D01*
X144514337Y-107187373D01*
X144647671Y-107164040D01*
X144881004Y-107164040D01*
X145014337Y-107187373D01*
X145081004Y-107234040D01*
X145114337Y-107280707D01*
X145114337Y-107374040D01*
X145081004Y-107420707D01*
X145014337Y-107467373D01*
X144881004Y-107490707D01*
X144647671Y-107490707D01*
X144514337Y-107467373D01*
X144447671Y-107420707D01*
X144414337Y-107374040D01*
X144414337Y-106720707D02*
X144414337Y-106954040D01*
X144747671Y-106977373D01*
X144714337Y-106954040D01*
X144681004Y-106907373D01*
X144681004Y-106790707D01*
X144714337Y-106744040D01*
X144747671Y-106720707D01*
X144814337Y-106697373D01*
X144981004Y-106697373D01*
X145047671Y-106720707D01*
X145081004Y-106744040D01*
X145114337Y-106790707D01*
X145114337Y-106907373D01*
X145081004Y-106954040D01*
X145047671Y-106977373D01*
X143114337Y-107537373D02*
X142781004Y-107700706D01*
X143114337Y-107817373D02*
X142414337Y-107817373D01*
X142414337Y-107630706D01*
X142447671Y-107584040D01*
X142481004Y-107560706D01*
X142547671Y-107537373D01*
X142647671Y-107537373D01*
X142714337Y-107560706D01*
X142747671Y-107584040D01*
X142781004Y-107630706D01*
X142781004Y-107817373D01*
X143081004Y-107350706D02*
X143114337Y-107280706D01*
X143114337Y-107164040D01*
X143081004Y-107117373D01*
X143047671Y-107094040D01*
X142981004Y-107070706D01*
X142914337Y-107070706D01*
X142847671Y-107094040D01*
X142814337Y-107117373D01*
X142781004Y-107164040D01*
X142747671Y-107257373D01*
X142714337Y-107304040D01*
X142681004Y-107327373D01*
X142614337Y-107350706D01*
X142547671Y-107350706D01*
X142481004Y-107327373D01*
X142447671Y-107304040D01*
X142414337Y-107257373D01*
X142414337Y-107140706D01*
X142447671Y-107070706D01*
X142414337Y-106930706D02*
X142414337Y-106650706D01*
X143114337Y-106790706D02*
X142414337Y-106790706D01*
X141114337Y-107934040D02*
X140414337Y-107934040D01*
X141114337Y-107654040D01*
X140414337Y-107654040D01*
X141081004Y-107444040D02*
X141114337Y-107374040D01*
X141114337Y-107257374D01*
X141081004Y-107210707D01*
X141047671Y-107187374D01*
X140981004Y-107164040D01*
X140914337Y-107164040D01*
X140847671Y-107187374D01*
X140814337Y-107210707D01*
X140781004Y-107257374D01*
X140747671Y-107350707D01*
X140714337Y-107397374D01*
X140681004Y-107420707D01*
X140614337Y-107444040D01*
X140547671Y-107444040D01*
X140481004Y-107420707D01*
X140447671Y-107397374D01*
X140414337Y-107350707D01*
X140414337Y-107234040D01*
X140447671Y-107164040D01*
X141081004Y-106977374D02*
X141114337Y-106907374D01*
X141114337Y-106790707D01*
X141081004Y-106744040D01*
X141047671Y-106720707D01*
X140981004Y-106697374D01*
X140914337Y-106697374D01*
X140847671Y-106720707D01*
X140814337Y-106744040D01*
X140781004Y-106790707D01*
X140747671Y-106884040D01*
X140714337Y-106930707D01*
X140681004Y-106954040D01*
X140614337Y-106977374D01*
X140547671Y-106977374D01*
X140481004Y-106954040D01*
X140447671Y-106930707D01*
X140414337Y-106884040D01*
X140414337Y-106767374D01*
X140447671Y-106697374D01*
X139081004Y-107957374D02*
X139114337Y-107887374D01*
X139114337Y-107770707D01*
X139081004Y-107724040D01*
X139047671Y-107700707D01*
X138981004Y-107677374D01*
X138914337Y-107677374D01*
X138847671Y-107700707D01*
X138814337Y-107724040D01*
X138781004Y-107770707D01*
X138747671Y-107864040D01*
X138714337Y-107910707D01*
X138681004Y-107934040D01*
X138614337Y-107957374D01*
X138547671Y-107957374D01*
X138481004Y-107934040D01*
X138447671Y-107910707D01*
X138414337Y-107864040D01*
X138414337Y-107747374D01*
X138447671Y-107677374D01*
X139047671Y-107187374D02*
X139081004Y-107210707D01*
X139114337Y-107280707D01*
X139114337Y-107327374D01*
X139081004Y-107397374D01*
X139014337Y-107444040D01*
X138947671Y-107467374D01*
X138814337Y-107490707D01*
X138714337Y-107490707D01*
X138581004Y-107467374D01*
X138514337Y-107444040D01*
X138447671Y-107397374D01*
X138414337Y-107327374D01*
X138414337Y-107280707D01*
X138447671Y-107210707D01*
X138481004Y-107187374D01*
X139114337Y-106977374D02*
X138414337Y-106977374D01*
X139114337Y-106697374D02*
X138714337Y-106907374D01*
X138414337Y-106697374D02*
X138814337Y-106977374D01*
X137114337Y-108260707D02*
X136414337Y-108260707D01*
X136914337Y-108097373D01*
X136414337Y-107934040D01*
X137114337Y-107934040D01*
X136414337Y-107607373D02*
X136414337Y-107514040D01*
X136447671Y-107467373D01*
X136514337Y-107420707D01*
X136647671Y-107397373D01*
X136881004Y-107397373D01*
X137014337Y-107420707D01*
X137081004Y-107467373D01*
X137114337Y-107514040D01*
X137114337Y-107607373D01*
X137081004Y-107654040D01*
X137014337Y-107700707D01*
X136881004Y-107724040D01*
X136647671Y-107724040D01*
X136514337Y-107700707D01*
X136447671Y-107654040D01*
X136414337Y-107607373D01*
X137081004Y-107210707D02*
X137114337Y-107140707D01*
X137114337Y-107024040D01*
X137081004Y-106977373D01*
X137047671Y-106954040D01*
X136981004Y-106930707D01*
X136914337Y-106930707D01*
X136847671Y-106954040D01*
X136814337Y-106977373D01*
X136781004Y-107024040D01*
X136747671Y-107117373D01*
X136714337Y-107164040D01*
X136681004Y-107187373D01*
X136614337Y-107210707D01*
X136547671Y-107210707D01*
X136481004Y-107187373D01*
X136447671Y-107164040D01*
X136414337Y-107117373D01*
X136414337Y-107000707D01*
X136447671Y-106930707D01*
X137114337Y-106720707D02*
X136414337Y-106720707D01*
X135114337Y-108260707D02*
X134414337Y-108260707D01*
X134914337Y-108097373D01*
X134414337Y-107934040D01*
X135114337Y-107934040D01*
X135114337Y-107700707D02*
X134414337Y-107700707D01*
X135081004Y-107490707D02*
X135114337Y-107420707D01*
X135114337Y-107304040D01*
X135081004Y-107257373D01*
X135047671Y-107234040D01*
X134981004Y-107210707D01*
X134914337Y-107210707D01*
X134847671Y-107234040D01*
X134814337Y-107257373D01*
X134781004Y-107304040D01*
X134747671Y-107397373D01*
X134714337Y-107444040D01*
X134681004Y-107467373D01*
X134614337Y-107490707D01*
X134547671Y-107490707D01*
X134481004Y-107467373D01*
X134447671Y-107444040D01*
X134414337Y-107397373D01*
X134414337Y-107280707D01*
X134447671Y-107210707D01*
X134414337Y-106907373D02*
X134414337Y-106814040D01*
X134447671Y-106767373D01*
X134514337Y-106720707D01*
X134647671Y-106697373D01*
X134881004Y-106697373D01*
X135014337Y-106720707D01*
X135081004Y-106767373D01*
X135114337Y-106814040D01*
X135114337Y-106907373D01*
X135081004Y-106954040D01*
X135014337Y-107000707D01*
X134881004Y-107024040D01*
X134647671Y-107024040D01*
X134514337Y-107000707D01*
X134447671Y-106954040D01*
X134414337Y-106907373D01*
X133114337Y-88085707D02*
X132414337Y-88085707D01*
X132414337Y-87969040D01*
X132447671Y-87899040D01*
X132514337Y-87852373D01*
X132581004Y-87829040D01*
X132714337Y-87805707D01*
X132814337Y-87805707D01*
X132947671Y-87829040D01*
X133014337Y-87852373D01*
X133081004Y-87899040D01*
X133114337Y-87969040D01*
X133114337Y-88085707D01*
X133114337Y-87595707D02*
X132414337Y-87595707D01*
X132414337Y-87269040D02*
X132414337Y-87175707D01*
X132447671Y-87129040D01*
X132514337Y-87082373D01*
X132647671Y-87059040D01*
X132881004Y-87059040D01*
X133014337Y-87082373D01*
X133081004Y-87129040D01*
X133114337Y-87175707D01*
X133114337Y-87269040D01*
X133081004Y-87315707D01*
X133014337Y-87362373D01*
X132881004Y-87385707D01*
X132647671Y-87385707D01*
X132514337Y-87362373D01*
X132447671Y-87315707D01*
X132414337Y-87269040D01*
X132481004Y-86872373D02*
X132447671Y-86849040D01*
X132414337Y-86802373D01*
X132414337Y-86685707D01*
X132447671Y-86639040D01*
X132481004Y-86615707D01*
X132547671Y-86592373D01*
X132614337Y-86592373D01*
X132714337Y-86615707D01*
X133114337Y-86895707D01*
X133114337Y-86592373D01*
X146914337Y-87910707D02*
X146914337Y-87677373D01*
X147114337Y-87957373D02*
X146414337Y-87794040D01*
X147114337Y-87630707D01*
X147114337Y-87467373D02*
X146414337Y-87467373D01*
X147114337Y-87187373D01*
X146414337Y-87187373D01*
X146414337Y-87024040D02*
X146414337Y-86744040D01*
X147114337Y-86884040D02*
X146414337Y-86884040D01*
X144447671Y-87724040D02*
X144414337Y-87770707D01*
X144414337Y-87840707D01*
X144447671Y-87910707D01*
X144514337Y-87957373D01*
X144581004Y-87980707D01*
X144714337Y-88004040D01*
X144814337Y-88004040D01*
X144947671Y-87980707D01*
X145014337Y-87957373D01*
X145081004Y-87910707D01*
X145114337Y-87840707D01*
X145114337Y-87794040D01*
X145081004Y-87724040D01*
X145047671Y-87700707D01*
X144814337Y-87700707D01*
X144814337Y-87794040D01*
X145114337Y-87490707D02*
X144414337Y-87490707D01*
X145114337Y-87210707D01*
X144414337Y-87210707D01*
X145114337Y-86977373D02*
X144414337Y-86977373D01*
X144414337Y-86860707D01*
X144447671Y-86790707D01*
X144514337Y-86744040D01*
X144581004Y-86720707D01*
X144714337Y-86697373D01*
X144814337Y-86697373D01*
X144947671Y-86720707D01*
X145014337Y-86744040D01*
X145081004Y-86790707D01*
X145114337Y-86860707D01*
X145114337Y-86977373D01*
X143114337Y-88085707D02*
X142414337Y-88085707D01*
X142414337Y-87969040D01*
X142447671Y-87899040D01*
X142514337Y-87852373D01*
X142581004Y-87829040D01*
X142714337Y-87805707D01*
X142814337Y-87805707D01*
X142947671Y-87829040D01*
X143014337Y-87852373D01*
X143081004Y-87899040D01*
X143114337Y-87969040D01*
X143114337Y-88085707D01*
X143114337Y-87595707D02*
X142414337Y-87595707D01*
X142414337Y-87269040D02*
X142414337Y-87175707D01*
X142447671Y-87129040D01*
X142514337Y-87082373D01*
X142647671Y-87059040D01*
X142881004Y-87059040D01*
X143014337Y-87082373D01*
X143081004Y-87129040D01*
X143114337Y-87175707D01*
X143114337Y-87269040D01*
X143081004Y-87315707D01*
X143014337Y-87362373D01*
X142881004Y-87385707D01*
X142647671Y-87385707D01*
X142514337Y-87362373D01*
X142447671Y-87315707D01*
X142414337Y-87269040D01*
X142414337Y-86895707D02*
X142414337Y-86592373D01*
X142681004Y-86755707D01*
X142681004Y-86685707D01*
X142714337Y-86639040D01*
X142747671Y-86615707D01*
X142814337Y-86592373D01*
X142981004Y-86592373D01*
X143047671Y-86615707D01*
X143081004Y-86639040D01*
X143114337Y-86685707D01*
X143114337Y-86825707D01*
X143081004Y-86872373D01*
X143047671Y-86895707D01*
X141114337Y-88085707D02*
X140414337Y-88085707D01*
X140414337Y-87969040D01*
X140447671Y-87899040D01*
X140514337Y-87852373D01*
X140581004Y-87829040D01*
X140714337Y-87805707D01*
X140814337Y-87805707D01*
X140947671Y-87829040D01*
X141014337Y-87852373D01*
X141081004Y-87899040D01*
X141114337Y-87969040D01*
X141114337Y-88085707D01*
X141114337Y-87595707D02*
X140414337Y-87595707D01*
X140414337Y-87269040D02*
X140414337Y-87175707D01*
X140447671Y-87129040D01*
X140514337Y-87082373D01*
X140647671Y-87059040D01*
X140881004Y-87059040D01*
X141014337Y-87082373D01*
X141081004Y-87129040D01*
X141114337Y-87175707D01*
X141114337Y-87269040D01*
X141081004Y-87315707D01*
X141014337Y-87362373D01*
X140881004Y-87385707D01*
X140647671Y-87385707D01*
X140514337Y-87362373D01*
X140447671Y-87315707D01*
X140414337Y-87269040D01*
X140647671Y-86639040D02*
X141114337Y-86639040D01*
X140381004Y-86755707D02*
X140881004Y-86872373D01*
X140881004Y-86569040D01*
X138414337Y-88074040D02*
X138414337Y-87770707D01*
X138681004Y-87934040D01*
X138681004Y-87864040D01*
X138714337Y-87817373D01*
X138747671Y-87794040D01*
X138814337Y-87770707D01*
X138981004Y-87770707D01*
X139047671Y-87794040D01*
X139081004Y-87817373D01*
X139114337Y-87864040D01*
X139114337Y-88004040D01*
X139081004Y-88050707D01*
X139047671Y-88074040D01*
X139047671Y-87560707D02*
X139081004Y-87537373D01*
X139114337Y-87560707D01*
X139081004Y-87584040D01*
X139047671Y-87560707D01*
X139114337Y-87560707D01*
X138414337Y-87374040D02*
X138414337Y-87070707D01*
X138681004Y-87234040D01*
X138681004Y-87164040D01*
X138714337Y-87117373D01*
X138747671Y-87094040D01*
X138814337Y-87070707D01*
X138981004Y-87070707D01*
X139047671Y-87094040D01*
X139081004Y-87117373D01*
X139114337Y-87164040D01*
X139114337Y-87304040D01*
X139081004Y-87350707D01*
X139047671Y-87374040D01*
X138414337Y-86930707D02*
X139114337Y-86767373D01*
X138414337Y-86604040D01*
X137114337Y-88085707D02*
X136414337Y-88085707D01*
X136414337Y-87969040D01*
X136447671Y-87899040D01*
X136514337Y-87852373D01*
X136581004Y-87829040D01*
X136714337Y-87805707D01*
X136814337Y-87805707D01*
X136947671Y-87829040D01*
X137014337Y-87852373D01*
X137081004Y-87899040D01*
X137114337Y-87969040D01*
X137114337Y-88085707D01*
X137114337Y-87595707D02*
X136414337Y-87595707D01*
X136414337Y-87269040D02*
X136414337Y-87175707D01*
X136447671Y-87129040D01*
X136514337Y-87082373D01*
X136647671Y-87059040D01*
X136881004Y-87059040D01*
X137014337Y-87082373D01*
X137081004Y-87129040D01*
X137114337Y-87175707D01*
X137114337Y-87269040D01*
X137081004Y-87315707D01*
X137014337Y-87362373D01*
X136881004Y-87385707D01*
X136647671Y-87385707D01*
X136514337Y-87362373D01*
X136447671Y-87315707D01*
X136414337Y-87269040D01*
X136414337Y-86755707D02*
X136414337Y-86709040D01*
X136447671Y-86662373D01*
X136481004Y-86639040D01*
X136547671Y-86615707D01*
X136681004Y-86592373D01*
X136847671Y-86592373D01*
X136981004Y-86615707D01*
X137047671Y-86639040D01*
X137081004Y-86662373D01*
X137114337Y-86709040D01*
X137114337Y-86755707D01*
X137081004Y-86802373D01*
X137047671Y-86825707D01*
X136981004Y-86849040D01*
X136847671Y-86872373D01*
X136681004Y-86872373D01*
X136547671Y-86849040D01*
X136481004Y-86825707D01*
X136447671Y-86802373D01*
X136414337Y-86755707D01*
X135114337Y-88085707D02*
X134414337Y-88085707D01*
X134414337Y-87969040D01*
X134447671Y-87899040D01*
X134514337Y-87852373D01*
X134581004Y-87829040D01*
X134714337Y-87805707D01*
X134814337Y-87805707D01*
X134947671Y-87829040D01*
X135014337Y-87852373D01*
X135081004Y-87899040D01*
X135114337Y-87969040D01*
X135114337Y-88085707D01*
X135114337Y-87595707D02*
X134414337Y-87595707D01*
X134414337Y-87269040D02*
X134414337Y-87175707D01*
X134447671Y-87129040D01*
X134514337Y-87082373D01*
X134647671Y-87059040D01*
X134881004Y-87059040D01*
X135014337Y-87082373D01*
X135081004Y-87129040D01*
X135114337Y-87175707D01*
X135114337Y-87269040D01*
X135081004Y-87315707D01*
X135014337Y-87362373D01*
X134881004Y-87385707D01*
X134647671Y-87385707D01*
X134514337Y-87362373D01*
X134447671Y-87315707D01*
X134414337Y-87269040D01*
X135114337Y-86592373D02*
X135114337Y-86872373D01*
X135114337Y-86732373D02*
X134414337Y-86732373D01*
X134514337Y-86779040D01*
X134581004Y-86825707D01*
X134614337Y-86872373D01*
X132447671Y-107724040D02*
X132414337Y-107770707D01*
X132414337Y-107840707D01*
X132447671Y-107910707D01*
X132514337Y-107957373D01*
X132581004Y-107980707D01*
X132714337Y-108004040D01*
X132814337Y-108004040D01*
X132947671Y-107980707D01*
X133014337Y-107957373D01*
X133081004Y-107910707D01*
X133114337Y-107840707D01*
X133114337Y-107794040D01*
X133081004Y-107724040D01*
X133047671Y-107700707D01*
X132814337Y-107700707D01*
X132814337Y-107794040D01*
X133114337Y-107490707D02*
X132414337Y-107490707D01*
X133114337Y-107210707D01*
X132414337Y-107210707D01*
X133114337Y-106977373D02*
X132414337Y-106977373D01*
X132414337Y-106860707D01*
X132447671Y-106790707D01*
X132514337Y-106744040D01*
X132581004Y-106720707D01*
X132714337Y-106697373D01*
X132814337Y-106697373D01*
X132947671Y-106720707D01*
X133014337Y-106744040D01*
X133081004Y-106790707D01*
X133114337Y-106860707D01*
X133114337Y-106977373D01*
D12*
X140878600Y-80062000D02*
X130225800Y-80060800D01*
X152628600Y-114452400D02*
X152628600Y-83312000D01*
X126976364Y-83308794D02*
G75*
G02X130225800Y-80060800I3779835J-532077D01*
G01*
X151628600Y-81062000D02*
X141878600Y-81062000D01*
X127027671Y-114490707D02*
X126974600Y-83312000D01*
X127027671Y-114490707D02*
X152628600Y-114452400D01*
D16*
G36*
X130624081Y-80618055D02*
X130702625Y-80618485D01*
X130759469Y-80619649D01*
X130798276Y-80621914D01*
X130822709Y-80625647D01*
X130836433Y-80631213D01*
X130843111Y-80638980D01*
X130846407Y-80649312D01*
X130846727Y-80650650D01*
X130851733Y-80674786D01*
X130861000Y-80722408D01*
X130873563Y-80788448D01*
X130888458Y-80867835D01*
X130904722Y-80955503D01*
X130905290Y-80958582D01*
X130921581Y-81044496D01*
X130936823Y-81120403D01*
X130950032Y-81181752D01*
X130960225Y-81223989D01*
X130966419Y-81242562D01*
X130966714Y-81242891D01*
X130984959Y-81251960D01*
X131022576Y-81267074D01*
X131071442Y-81284969D01*
X131071714Y-81285065D01*
X131133264Y-81308200D01*
X131205828Y-81337672D01*
X131274228Y-81367304D01*
X131277465Y-81368769D01*
X131388873Y-81419333D01*
X131635570Y-81250867D01*
X131711248Y-81199510D01*
X131779802Y-81153596D01*
X131837259Y-81115737D01*
X131879647Y-81088544D01*
X131902996Y-81074628D01*
X131905213Y-81073596D01*
X131922181Y-81078191D01*
X131953872Y-81100362D01*
X132001523Y-81141154D01*
X132066369Y-81201612D01*
X132132568Y-81265934D01*
X132196385Y-81329319D01*
X132253500Y-81387158D01*
X132300476Y-81435882D01*
X132333874Y-81471917D01*
X132350256Y-81491691D01*
X132350865Y-81492709D01*
X132352676Y-81506279D01*
X132345854Y-81528440D01*
X132328711Y-81562185D01*
X132299564Y-81610507D01*
X132256726Y-81676399D01*
X132199619Y-81761224D01*
X132148937Y-81835884D01*
X132103632Y-81902847D01*
X132066321Y-81958223D01*
X132039623Y-81998127D01*
X132026156Y-82018669D01*
X132025308Y-82020063D01*
X132026952Y-82039745D01*
X132039416Y-82078000D01*
X132060219Y-82127596D01*
X132067633Y-82143435D01*
X132099985Y-82213997D01*
X132134499Y-82294060D01*
X132162536Y-82363336D01*
X132182739Y-82414752D01*
X132198786Y-82453826D01*
X132208059Y-82474248D01*
X132209212Y-82475821D01*
X132226267Y-82478428D01*
X132266469Y-82485570D01*
X132324473Y-82496230D01*
X132394934Y-82509392D01*
X132472506Y-82524040D01*
X132551843Y-82539156D01*
X132627602Y-82553725D01*
X132694435Y-82566729D01*
X132746999Y-82577152D01*
X132779947Y-82583977D01*
X132788028Y-82585906D01*
X132796376Y-82590669D01*
X132802677Y-82601425D01*
X132807216Y-82621805D01*
X132810275Y-82655441D01*
X132812138Y-82705962D01*
X132813089Y-82776999D01*
X132813411Y-82872183D01*
X132813428Y-82911199D01*
X132813428Y-83228506D01*
X132737228Y-83243546D01*
X132694834Y-83251702D01*
X132631571Y-83263606D01*
X132555133Y-83277823D01*
X132473214Y-83292917D01*
X132450571Y-83297062D01*
X132374977Y-83311760D01*
X132309124Y-83326212D01*
X132258537Y-83339082D01*
X132228745Y-83349029D01*
X132223783Y-83351994D01*
X132211597Y-83372990D01*
X132194124Y-83413674D01*
X132174748Y-83466029D01*
X132170905Y-83477307D01*
X132145510Y-83547230D01*
X132113988Y-83626125D01*
X132083140Y-83696973D01*
X132082988Y-83697302D01*
X132031618Y-83808440D01*
X132200570Y-84056960D01*
X132369523Y-84305479D01*
X132152600Y-84522765D01*
X132086990Y-84587433D01*
X132027150Y-84644440D01*
X131976438Y-84690740D01*
X131938217Y-84723291D01*
X131915846Y-84739050D01*
X131912637Y-84740050D01*
X131893797Y-84732176D01*
X131855351Y-84710285D01*
X131801501Y-84676974D01*
X131736447Y-84634838D01*
X131666111Y-84587650D01*
X131594726Y-84539517D01*
X131531079Y-84497635D01*
X131479212Y-84464578D01*
X131443166Y-84442925D01*
X131427038Y-84435250D01*
X131407360Y-84441744D01*
X131370046Y-84458857D01*
X131322792Y-84483033D01*
X131317783Y-84485720D01*
X131254148Y-84517634D01*
X131210512Y-84533286D01*
X131183373Y-84533452D01*
X131169228Y-84518911D01*
X131169146Y-84518707D01*
X131162076Y-84501486D01*
X131145213Y-84460606D01*
X131119866Y-84399232D01*
X131087342Y-84320526D01*
X131048949Y-84227654D01*
X131005993Y-84123779D01*
X130964393Y-84023209D01*
X130918675Y-83912223D01*
X130876697Y-83809410D01*
X130839719Y-83717922D01*
X130808998Y-83640908D01*
X130785793Y-83581522D01*
X130771361Y-83542916D01*
X130766914Y-83528507D01*
X130778067Y-83511979D01*
X130807240Y-83485637D01*
X130846142Y-83456594D01*
X130956928Y-83364746D01*
X131043522Y-83259466D01*
X131104887Y-83142973D01*
X131139986Y-83017483D01*
X131147779Y-82885214D01*
X131142114Y-82824164D01*
X131111249Y-82697502D01*
X131058091Y-82585648D01*
X130985938Y-82489708D01*
X130898088Y-82410783D01*
X130797836Y-82349977D01*
X130688481Y-82308394D01*
X130573318Y-82287135D01*
X130455646Y-82287306D01*
X130338761Y-82310008D01*
X130225960Y-82356345D01*
X130120540Y-82427420D01*
X130076539Y-82467618D01*
X129992150Y-82570836D01*
X129933393Y-82683632D01*
X129899875Y-82802717D01*
X129891206Y-82924802D01*
X129906994Y-83046600D01*
X129946849Y-83164823D01*
X130010378Y-83276182D01*
X130097192Y-83377391D01*
X130194200Y-83456594D01*
X130234608Y-83486869D01*
X130263153Y-83512926D01*
X130273428Y-83528532D01*
X130268048Y-83545550D01*
X130252746Y-83586207D01*
X130228783Y-83647349D01*
X130197415Y-83725826D01*
X130159903Y-83818487D01*
X130117504Y-83922179D01*
X130075834Y-84023233D01*
X130029861Y-84134314D01*
X129987278Y-84237248D01*
X129949392Y-84328872D01*
X129917511Y-84406023D01*
X129892942Y-84465538D01*
X129876991Y-84504251D01*
X129871081Y-84518707D01*
X129857119Y-84533392D01*
X129830111Y-84533349D01*
X129786584Y-84517806D01*
X129723061Y-84485991D01*
X129722559Y-84485720D01*
X129674731Y-84461030D01*
X129636068Y-84443045D01*
X129614266Y-84435321D01*
X129613304Y-84435250D01*
X129596892Y-84443085D01*
X129560658Y-84464872D01*
X129508645Y-84498035D01*
X129444896Y-84539998D01*
X129374231Y-84587650D01*
X129302287Y-84635898D01*
X129237445Y-84677858D01*
X129183906Y-84710934D01*
X129145868Y-84732528D01*
X129127704Y-84740050D01*
X129110979Y-84730164D01*
X129077351Y-84702533D01*
X129030181Y-84660202D01*
X128972829Y-84606212D01*
X128908655Y-84543606D01*
X128887668Y-84522690D01*
X128670670Y-84305330D01*
X128835839Y-84062927D01*
X128886035Y-83988488D01*
X128930090Y-83921679D01*
X128965533Y-83866372D01*
X128989890Y-83826436D01*
X129000693Y-83805743D01*
X129001009Y-83804270D01*
X128995314Y-83784765D01*
X128979997Y-83745529D01*
X128957708Y-83693137D01*
X128942064Y-83658062D01*
X128912812Y-83590908D01*
X128885265Y-83523065D01*
X128863908Y-83465741D01*
X128858106Y-83448279D01*
X128841623Y-83401645D01*
X128825511Y-83365612D01*
X128816661Y-83351994D01*
X128797131Y-83343659D01*
X128754505Y-83331844D01*
X128694316Y-83317888D01*
X128622093Y-83303129D01*
X128589771Y-83297062D01*
X128507693Y-83281980D01*
X128428966Y-83267376D01*
X128361280Y-83254687D01*
X128312331Y-83245349D01*
X128303114Y-83243546D01*
X128226914Y-83228506D01*
X128226914Y-82911199D01*
X128227085Y-82806861D01*
X128227787Y-82727920D01*
X128229305Y-82670745D01*
X128231920Y-82631706D01*
X128235917Y-82607172D01*
X128241580Y-82593512D01*
X128249191Y-82587096D01*
X128252314Y-82585906D01*
X128271149Y-82581687D01*
X128312759Y-82573269D01*
X128371801Y-82561668D01*
X128442928Y-82547902D01*
X128520796Y-82532987D01*
X128600058Y-82517939D01*
X128675369Y-82503776D01*
X128741384Y-82491513D01*
X128792758Y-82482168D01*
X128824146Y-82476757D01*
X128831130Y-82475821D01*
X128837456Y-82463303D01*
X128851461Y-82429953D01*
X128870526Y-82382084D01*
X128877805Y-82363336D01*
X128907167Y-82290902D01*
X128941742Y-82210877D01*
X128972708Y-82143435D01*
X128995494Y-82091866D01*
X129010653Y-82049492D01*
X129015713Y-82023541D01*
X129014907Y-82020063D01*
X129004212Y-82003643D01*
X128979791Y-81967124D01*
X128944266Y-81914394D01*
X128900258Y-81849342D01*
X128850388Y-81775858D01*
X128840527Y-81761352D01*
X128782663Y-81675411D01*
X128740127Y-81609968D01*
X128711225Y-81562011D01*
X128694261Y-81528527D01*
X128687538Y-81506502D01*
X128689361Y-81492924D01*
X128689407Y-81492838D01*
X128703757Y-81475004D01*
X128735494Y-81440524D01*
X128781181Y-81392975D01*
X128837375Y-81335929D01*
X128900639Y-81272962D01*
X128907773Y-81265934D01*
X128987501Y-81188727D01*
X129049028Y-81132037D01*
X129093592Y-81094817D01*
X129122428Y-81076022D01*
X129135129Y-81073596D01*
X129153665Y-81084178D01*
X129192132Y-81108623D01*
X129246557Y-81144319D01*
X129312969Y-81188654D01*
X129387396Y-81239018D01*
X129404772Y-81250867D01*
X129651468Y-81419333D01*
X129762877Y-81368769D01*
X129830628Y-81339302D01*
X129903354Y-81309666D01*
X129965874Y-81286037D01*
X129968628Y-81285065D01*
X130017531Y-81267164D01*
X130055228Y-81252027D01*
X130073596Y-81242917D01*
X130073627Y-81242891D01*
X130079456Y-81226424D01*
X130089363Y-81185926D01*
X130102366Y-81125949D01*
X130117480Y-81051047D01*
X130133723Y-80965771D01*
X130135052Y-80958582D01*
X130151346Y-80870721D01*
X130166304Y-80790967D01*
X130178962Y-80724388D01*
X130188357Y-80676054D01*
X130193525Y-80651032D01*
X130193615Y-80650650D01*
X130196760Y-80640006D01*
X130202875Y-80631969D01*
X130215624Y-80626174D01*
X130238671Y-80622254D01*
X130275680Y-80619842D01*
X130330315Y-80618572D01*
X130406238Y-80618078D01*
X130507115Y-80617993D01*
X130520171Y-80617993D01*
X130624081Y-80618055D01*
X130624081Y-80618055D01*
G37*
X130624081Y-80618055D02*
X130702625Y-80618485D01*
X130759469Y-80619649D01*
X130798276Y-80621914D01*
X130822709Y-80625647D01*
X130836433Y-80631213D01*
X130843111Y-80638980D01*
X130846407Y-80649312D01*
X130846727Y-80650650D01*
X130851733Y-80674786D01*
X130861000Y-80722408D01*
X130873563Y-80788448D01*
X130888458Y-80867835D01*
X130904722Y-80955503D01*
X130905290Y-80958582D01*
X130921581Y-81044496D01*
X130936823Y-81120403D01*
X130950032Y-81181752D01*
X130960225Y-81223989D01*
X130966419Y-81242562D01*
X130966714Y-81242891D01*
X130984959Y-81251960D01*
X131022576Y-81267074D01*
X131071442Y-81284969D01*
X131071714Y-81285065D01*
X131133264Y-81308200D01*
X131205828Y-81337672D01*
X131274228Y-81367304D01*
X131277465Y-81368769D01*
X131388873Y-81419333D01*
X131635570Y-81250867D01*
X131711248Y-81199510D01*
X131779802Y-81153596D01*
X131837259Y-81115737D01*
X131879647Y-81088544D01*
X131902996Y-81074628D01*
X131905213Y-81073596D01*
X131922181Y-81078191D01*
X131953872Y-81100362D01*
X132001523Y-81141154D01*
X132066369Y-81201612D01*
X132132568Y-81265934D01*
X132196385Y-81329319D01*
X132253500Y-81387158D01*
X132300476Y-81435882D01*
X132333874Y-81471917D01*
X132350256Y-81491691D01*
X132350865Y-81492709D01*
X132352676Y-81506279D01*
X132345854Y-81528440D01*
X132328711Y-81562185D01*
X132299564Y-81610507D01*
X132256726Y-81676399D01*
X132199619Y-81761224D01*
X132148937Y-81835884D01*
X132103632Y-81902847D01*
X132066321Y-81958223D01*
X132039623Y-81998127D01*
X132026156Y-82018669D01*
X132025308Y-82020063D01*
X132026952Y-82039745D01*
X132039416Y-82078000D01*
X132060219Y-82127596D01*
X132067633Y-82143435D01*
X132099985Y-82213997D01*
X132134499Y-82294060D01*
X132162536Y-82363336D01*
X132182739Y-82414752D01*
X132198786Y-82453826D01*
X132208059Y-82474248D01*
X132209212Y-82475821D01*
X132226267Y-82478428D01*
X132266469Y-82485570D01*
X132324473Y-82496230D01*
X132394934Y-82509392D01*
X132472506Y-82524040D01*
X132551843Y-82539156D01*
X132627602Y-82553725D01*
X132694435Y-82566729D01*
X132746999Y-82577152D01*
X132779947Y-82583977D01*
X132788028Y-82585906D01*
X132796376Y-82590669D01*
X132802677Y-82601425D01*
X132807216Y-82621805D01*
X132810275Y-82655441D01*
X132812138Y-82705962D01*
X132813089Y-82776999D01*
X132813411Y-82872183D01*
X132813428Y-82911199D01*
X132813428Y-83228506D01*
X132737228Y-83243546D01*
X132694834Y-83251702D01*
X132631571Y-83263606D01*
X132555133Y-83277823D01*
X132473214Y-83292917D01*
X132450571Y-83297062D01*
X132374977Y-83311760D01*
X132309124Y-83326212D01*
X132258537Y-83339082D01*
X132228745Y-83349029D01*
X132223783Y-83351994D01*
X132211597Y-83372990D01*
X132194124Y-83413674D01*
X132174748Y-83466029D01*
X132170905Y-83477307D01*
X132145510Y-83547230D01*
X132113988Y-83626125D01*
X132083140Y-83696973D01*
X132082988Y-83697302D01*
X132031618Y-83808440D01*
X132200570Y-84056960D01*
X132369523Y-84305479D01*
X132152600Y-84522765D01*
X132086990Y-84587433D01*
X132027150Y-84644440D01*
X131976438Y-84690740D01*
X131938217Y-84723291D01*
X131915846Y-84739050D01*
X131912637Y-84740050D01*
X131893797Y-84732176D01*
X131855351Y-84710285D01*
X131801501Y-84676974D01*
X131736447Y-84634838D01*
X131666111Y-84587650D01*
X131594726Y-84539517D01*
X131531079Y-84497635D01*
X131479212Y-84464578D01*
X131443166Y-84442925D01*
X131427038Y-84435250D01*
X131407360Y-84441744D01*
X131370046Y-84458857D01*
X131322792Y-84483033D01*
X131317783Y-84485720D01*
X131254148Y-84517634D01*
X131210512Y-84533286D01*
X131183373Y-84533452D01*
X131169228Y-84518911D01*
X131169146Y-84518707D01*
X131162076Y-84501486D01*
X131145213Y-84460606D01*
X131119866Y-84399232D01*
X131087342Y-84320526D01*
X131048949Y-84227654D01*
X131005993Y-84123779D01*
X130964393Y-84023209D01*
X130918675Y-83912223D01*
X130876697Y-83809410D01*
X130839719Y-83717922D01*
X130808998Y-83640908D01*
X130785793Y-83581522D01*
X130771361Y-83542916D01*
X130766914Y-83528507D01*
X130778067Y-83511979D01*
X130807240Y-83485637D01*
X130846142Y-83456594D01*
X130956928Y-83364746D01*
X131043522Y-83259466D01*
X131104887Y-83142973D01*
X131139986Y-83017483D01*
X131147779Y-82885214D01*
X131142114Y-82824164D01*
X131111249Y-82697502D01*
X131058091Y-82585648D01*
X130985938Y-82489708D01*
X130898088Y-82410783D01*
X130797836Y-82349977D01*
X130688481Y-82308394D01*
X130573318Y-82287135D01*
X130455646Y-82287306D01*
X130338761Y-82310008D01*
X130225960Y-82356345D01*
X130120540Y-82427420D01*
X130076539Y-82467618D01*
X129992150Y-82570836D01*
X129933393Y-82683632D01*
X129899875Y-82802717D01*
X129891206Y-82924802D01*
X129906994Y-83046600D01*
X129946849Y-83164823D01*
X130010378Y-83276182D01*
X130097192Y-83377391D01*
X130194200Y-83456594D01*
X130234608Y-83486869D01*
X130263153Y-83512926D01*
X130273428Y-83528532D01*
X130268048Y-83545550D01*
X130252746Y-83586207D01*
X130228783Y-83647349D01*
X130197415Y-83725826D01*
X130159903Y-83818487D01*
X130117504Y-83922179D01*
X130075834Y-84023233D01*
X130029861Y-84134314D01*
X129987278Y-84237248D01*
X129949392Y-84328872D01*
X129917511Y-84406023D01*
X129892942Y-84465538D01*
X129876991Y-84504251D01*
X129871081Y-84518707D01*
X129857119Y-84533392D01*
X129830111Y-84533349D01*
X129786584Y-84517806D01*
X129723061Y-84485991D01*
X129722559Y-84485720D01*
X129674731Y-84461030D01*
X129636068Y-84443045D01*
X129614266Y-84435321D01*
X129613304Y-84435250D01*
X129596892Y-84443085D01*
X129560658Y-84464872D01*
X129508645Y-84498035D01*
X129444896Y-84539998D01*
X129374231Y-84587650D01*
X129302287Y-84635898D01*
X129237445Y-84677858D01*
X129183906Y-84710934D01*
X129145868Y-84732528D01*
X129127704Y-84740050D01*
X129110979Y-84730164D01*
X129077351Y-84702533D01*
X129030181Y-84660202D01*
X128972829Y-84606212D01*
X128908655Y-84543606D01*
X128887668Y-84522690D01*
X128670670Y-84305330D01*
X128835839Y-84062927D01*
X128886035Y-83988488D01*
X128930090Y-83921679D01*
X128965533Y-83866372D01*
X128989890Y-83826436D01*
X129000693Y-83805743D01*
X129001009Y-83804270D01*
X128995314Y-83784765D01*
X128979997Y-83745529D01*
X128957708Y-83693137D01*
X128942064Y-83658062D01*
X128912812Y-83590908D01*
X128885265Y-83523065D01*
X128863908Y-83465741D01*
X128858106Y-83448279D01*
X128841623Y-83401645D01*
X128825511Y-83365612D01*
X128816661Y-83351994D01*
X128797131Y-83343659D01*
X128754505Y-83331844D01*
X128694316Y-83317888D01*
X128622093Y-83303129D01*
X128589771Y-83297062D01*
X128507693Y-83281980D01*
X128428966Y-83267376D01*
X128361280Y-83254687D01*
X128312331Y-83245349D01*
X128303114Y-83243546D01*
X128226914Y-83228506D01*
X128226914Y-82911199D01*
X128227085Y-82806861D01*
X128227787Y-82727920D01*
X128229305Y-82670745D01*
X128231920Y-82631706D01*
X128235917Y-82607172D01*
X128241580Y-82593512D01*
X128249191Y-82587096D01*
X128252314Y-82585906D01*
X128271149Y-82581687D01*
X128312759Y-82573269D01*
X128371801Y-82561668D01*
X128442928Y-82547902D01*
X128520796Y-82532987D01*
X128600058Y-82517939D01*
X128675369Y-82503776D01*
X128741384Y-82491513D01*
X128792758Y-82482168D01*
X128824146Y-82476757D01*
X128831130Y-82475821D01*
X128837456Y-82463303D01*
X128851461Y-82429953D01*
X128870526Y-82382084D01*
X128877805Y-82363336D01*
X128907167Y-82290902D01*
X128941742Y-82210877D01*
X128972708Y-82143435D01*
X128995494Y-82091866D01*
X129010653Y-82049492D01*
X129015713Y-82023541D01*
X129014907Y-82020063D01*
X129004212Y-82003643D01*
X128979791Y-81967124D01*
X128944266Y-81914394D01*
X128900258Y-81849342D01*
X128850388Y-81775858D01*
X128840527Y-81761352D01*
X128782663Y-81675411D01*
X128740127Y-81609968D01*
X128711225Y-81562011D01*
X128694261Y-81528527D01*
X128687538Y-81506502D01*
X128689361Y-81492924D01*
X128689407Y-81492838D01*
X128703757Y-81475004D01*
X128735494Y-81440524D01*
X128781181Y-81392975D01*
X128837375Y-81335929D01*
X128900639Y-81272962D01*
X128907773Y-81265934D01*
X128987501Y-81188727D01*
X129049028Y-81132037D01*
X129093592Y-81094817D01*
X129122428Y-81076022D01*
X129135129Y-81073596D01*
X129153665Y-81084178D01*
X129192132Y-81108623D01*
X129246557Y-81144319D01*
X129312969Y-81188654D01*
X129387396Y-81239018D01*
X129404772Y-81250867D01*
X129651468Y-81419333D01*
X129762877Y-81368769D01*
X129830628Y-81339302D01*
X129903354Y-81309666D01*
X129965874Y-81286037D01*
X129968628Y-81285065D01*
X130017531Y-81267164D01*
X130055228Y-81252027D01*
X130073596Y-81242917D01*
X130073627Y-81242891D01*
X130079456Y-81226424D01*
X130089363Y-81185926D01*
X130102366Y-81125949D01*
X130117480Y-81051047D01*
X130133723Y-80965771D01*
X130135052Y-80958582D01*
X130151346Y-80870721D01*
X130166304Y-80790967D01*
X130178962Y-80724388D01*
X130188357Y-80676054D01*
X130193525Y-80651032D01*
X130193615Y-80650650D01*
X130196760Y-80640006D01*
X130202875Y-80631969D01*
X130215624Y-80626174D01*
X130238671Y-80622254D01*
X130275680Y-80619842D01*
X130330315Y-80618572D01*
X130406238Y-80618078D01*
X130507115Y-80617993D01*
X130520171Y-80617993D01*
X130624081Y-80618055D01*
G36*
X133673766Y-85342673D02*
X133731192Y-85380204D01*
X133758890Y-85413803D01*
X133780833Y-85474771D01*
X133782576Y-85523015D01*
X133778628Y-85587523D01*
X133629857Y-85652641D01*
X133557520Y-85685909D01*
X133510255Y-85712671D01*
X133485678Y-85735851D01*
X133481408Y-85758374D01*
X133495060Y-85783162D01*
X133510114Y-85799593D01*
X133553917Y-85825942D01*
X133601560Y-85827788D01*
X133645316Y-85807253D01*
X133677460Y-85766459D01*
X133683209Y-85752054D01*
X133710747Y-85707063D01*
X133742429Y-85687889D01*
X133785885Y-85671486D01*
X133785885Y-85733673D01*
X133782043Y-85775990D01*
X133766994Y-85811676D01*
X133735451Y-85852650D01*
X133730763Y-85857974D01*
X133695677Y-85894427D01*
X133665518Y-85913990D01*
X133627786Y-85922990D01*
X133596506Y-85925937D01*
X133540556Y-85926672D01*
X133500726Y-85917367D01*
X133475879Y-85903553D01*
X133436827Y-85873174D01*
X133409796Y-85840320D01*
X133392688Y-85799001D01*
X133383409Y-85743228D01*
X133379864Y-85667012D01*
X133379581Y-85628329D01*
X133380543Y-85581954D01*
X133468178Y-85581954D01*
X133469194Y-85606833D01*
X133471727Y-85610907D01*
X133488445Y-85605372D01*
X133524420Y-85590724D01*
X133572502Y-85569897D01*
X133582557Y-85565421D01*
X133643323Y-85534521D01*
X133676803Y-85507364D01*
X133684161Y-85481927D01*
X133666562Y-85456188D01*
X133652027Y-85444816D01*
X133599581Y-85422071D01*
X133550493Y-85425829D01*
X133509398Y-85453591D01*
X133480929Y-85502859D01*
X133471802Y-85541964D01*
X133468178Y-85581954D01*
X133380543Y-85581954D01*
X133381456Y-85537956D01*
X133388367Y-85471091D01*
X133402055Y-85422402D01*
X133424267Y-85386556D01*
X133456745Y-85358220D01*
X133470904Y-85349062D01*
X133535224Y-85325214D01*
X133605644Y-85323713D01*
X133673766Y-85342673D01*
X133673766Y-85342673D01*
G37*
X133673766Y-85342673D02*
X133731192Y-85380204D01*
X133758890Y-85413803D01*
X133780833Y-85474771D01*
X133782576Y-85523015D01*
X133778628Y-85587523D01*
X133629857Y-85652641D01*
X133557520Y-85685909D01*
X133510255Y-85712671D01*
X133485678Y-85735851D01*
X133481408Y-85758374D01*
X133495060Y-85783162D01*
X133510114Y-85799593D01*
X133553917Y-85825942D01*
X133601560Y-85827788D01*
X133645316Y-85807253D01*
X133677460Y-85766459D01*
X133683209Y-85752054D01*
X133710747Y-85707063D01*
X133742429Y-85687889D01*
X133785885Y-85671486D01*
X133785885Y-85733673D01*
X133782043Y-85775990D01*
X133766994Y-85811676D01*
X133735451Y-85852650D01*
X133730763Y-85857974D01*
X133695677Y-85894427D01*
X133665518Y-85913990D01*
X133627786Y-85922990D01*
X133596506Y-85925937D01*
X133540556Y-85926672D01*
X133500726Y-85917367D01*
X133475879Y-85903553D01*
X133436827Y-85873174D01*
X133409796Y-85840320D01*
X133392688Y-85799001D01*
X133383409Y-85743228D01*
X133379864Y-85667012D01*
X133379581Y-85628329D01*
X133380543Y-85581954D01*
X133468178Y-85581954D01*
X133469194Y-85606833D01*
X133471727Y-85610907D01*
X133488445Y-85605372D01*
X133524420Y-85590724D01*
X133572502Y-85569897D01*
X133582557Y-85565421D01*
X133643323Y-85534521D01*
X133676803Y-85507364D01*
X133684161Y-85481927D01*
X133666562Y-85456188D01*
X133652027Y-85444816D01*
X133599581Y-85422071D01*
X133550493Y-85425829D01*
X133509398Y-85453591D01*
X133480929Y-85502859D01*
X133471802Y-85541964D01*
X133468178Y-85581954D01*
X133380543Y-85581954D01*
X133381456Y-85537956D01*
X133388367Y-85471091D01*
X133402055Y-85422402D01*
X133424267Y-85386556D01*
X133456745Y-85358220D01*
X133470904Y-85349062D01*
X133535224Y-85325214D01*
X133605644Y-85323713D01*
X133673766Y-85342673D01*
G36*
X133172771Y-85334459D02*
X133190119Y-85342041D01*
X133231527Y-85374835D01*
X133266936Y-85422254D01*
X133288835Y-85472858D01*
X133292400Y-85497805D01*
X133280450Y-85532634D01*
X133254238Y-85551064D01*
X133226135Y-85562223D01*
X133213266Y-85564279D01*
X133207000Y-85549356D01*
X133194627Y-85516882D01*
X133189199Y-85502209D01*
X133158761Y-85451451D01*
X133114691Y-85426134D01*
X133058181Y-85426913D01*
X133053996Y-85427910D01*
X133023826Y-85442214D01*
X133001647Y-85470100D01*
X132986498Y-85514994D01*
X132977421Y-85580322D01*
X132973457Y-85669511D01*
X132973085Y-85716968D01*
X132972901Y-85791778D01*
X132971693Y-85842776D01*
X132968480Y-85875178D01*
X132962280Y-85894202D01*
X132952111Y-85905063D01*
X132936990Y-85912979D01*
X132936117Y-85913377D01*
X132906999Y-85925688D01*
X132892574Y-85930221D01*
X132890357Y-85916516D01*
X132888460Y-85878632D01*
X132887018Y-85821422D01*
X132886169Y-85749734D01*
X132886000Y-85697272D01*
X132886863Y-85595754D01*
X132890241Y-85518739D01*
X132897313Y-85461730D01*
X132909259Y-85420233D01*
X132927261Y-85389750D01*
X132952498Y-85365787D01*
X132977418Y-85349062D01*
X133037342Y-85326804D01*
X133107082Y-85321783D01*
X133172771Y-85334459D01*
X133172771Y-85334459D01*
G37*
X133172771Y-85334459D02*
X133190119Y-85342041D01*
X133231527Y-85374835D01*
X133266936Y-85422254D01*
X133288835Y-85472858D01*
X133292400Y-85497805D01*
X133280450Y-85532634D01*
X133254238Y-85551064D01*
X133226135Y-85562223D01*
X133213266Y-85564279D01*
X133207000Y-85549356D01*
X133194627Y-85516882D01*
X133189199Y-85502209D01*
X133158761Y-85451451D01*
X133114691Y-85426134D01*
X133058181Y-85426913D01*
X133053996Y-85427910D01*
X133023826Y-85442214D01*
X133001647Y-85470100D01*
X132986498Y-85514994D01*
X132977421Y-85580322D01*
X132973457Y-85669511D01*
X132973085Y-85716968D01*
X132972901Y-85791778D01*
X132971693Y-85842776D01*
X132968480Y-85875178D01*
X132962280Y-85894202D01*
X132952111Y-85905063D01*
X132936990Y-85912979D01*
X132936117Y-85913377D01*
X132906999Y-85925688D01*
X132892574Y-85930221D01*
X132890357Y-85916516D01*
X132888460Y-85878632D01*
X132887018Y-85821422D01*
X132886169Y-85749734D01*
X132886000Y-85697272D01*
X132886863Y-85595754D01*
X132890241Y-85518739D01*
X132897313Y-85461730D01*
X132909259Y-85420233D01*
X132927261Y-85389750D01*
X132952498Y-85365787D01*
X132977418Y-85349062D01*
X133037342Y-85326804D01*
X133107082Y-85321783D01*
X133172771Y-85334459D01*
G36*
X132665047Y-85332042D02*
X132706838Y-85351051D01*
X132739640Y-85374085D01*
X132763674Y-85399840D01*
X132780268Y-85433065D01*
X132790748Y-85478507D01*
X132796442Y-85540914D01*
X132798678Y-85625034D01*
X132798914Y-85680428D01*
X132798914Y-85896533D01*
X132761945Y-85913377D01*
X132732827Y-85925688D01*
X132718402Y-85930221D01*
X132715643Y-85916732D01*
X132713453Y-85880360D01*
X132712113Y-85827249D01*
X132711828Y-85785079D01*
X132710605Y-85724154D01*
X132707307Y-85675822D01*
X132702492Y-85646225D01*
X132698667Y-85639936D01*
X132672954Y-85646359D01*
X132632589Y-85662832D01*
X132585850Y-85685165D01*
X132541016Y-85709164D01*
X132506364Y-85730637D01*
X132490173Y-85745392D01*
X132490109Y-85745552D01*
X132491501Y-85772859D01*
X132503989Y-85798926D01*
X132525914Y-85820099D01*
X132557914Y-85827181D01*
X132585263Y-85826356D01*
X132623997Y-85825749D01*
X132644329Y-85834823D01*
X132656540Y-85858799D01*
X132658080Y-85863320D01*
X132663374Y-85897513D01*
X132649218Y-85918275D01*
X132612319Y-85928169D01*
X132572460Y-85929999D01*
X132500733Y-85916434D01*
X132463603Y-85897062D01*
X132417747Y-85851552D01*
X132393427Y-85795690D01*
X132391244Y-85736664D01*
X132411800Y-85681660D01*
X132442720Y-85647193D01*
X132473591Y-85627896D01*
X132522113Y-85603466D01*
X132578656Y-85578692D01*
X132588081Y-85574906D01*
X132650190Y-85547498D01*
X132685993Y-85523341D01*
X132697508Y-85499326D01*
X132686751Y-85472342D01*
X132668285Y-85451250D01*
X132624640Y-85425279D01*
X132576617Y-85423331D01*
X132532577Y-85443344D01*
X132500880Y-85483258D01*
X132496720Y-85493555D01*
X132472498Y-85531431D01*
X132437136Y-85559549D01*
X132392514Y-85582624D01*
X132392514Y-85517192D01*
X132395140Y-85477213D01*
X132406401Y-85445704D01*
X132431370Y-85412085D01*
X132455340Y-85386191D01*
X132492612Y-85349524D01*
X132521572Y-85329828D01*
X132552676Y-85321927D01*
X132587884Y-85320621D01*
X132665047Y-85332042D01*
X132665047Y-85332042D01*
G37*
X132665047Y-85332042D02*
X132706838Y-85351051D01*
X132739640Y-85374085D01*
X132763674Y-85399840D01*
X132780268Y-85433065D01*
X132790748Y-85478507D01*
X132796442Y-85540914D01*
X132798678Y-85625034D01*
X132798914Y-85680428D01*
X132798914Y-85896533D01*
X132761945Y-85913377D01*
X132732827Y-85925688D01*
X132718402Y-85930221D01*
X132715643Y-85916732D01*
X132713453Y-85880360D01*
X132712113Y-85827249D01*
X132711828Y-85785079D01*
X132710605Y-85724154D01*
X132707307Y-85675822D01*
X132702492Y-85646225D01*
X132698667Y-85639936D01*
X132672954Y-85646359D01*
X132632589Y-85662832D01*
X132585850Y-85685165D01*
X132541016Y-85709164D01*
X132506364Y-85730637D01*
X132490173Y-85745392D01*
X132490109Y-85745552D01*
X132491501Y-85772859D01*
X132503989Y-85798926D01*
X132525914Y-85820099D01*
X132557914Y-85827181D01*
X132585263Y-85826356D01*
X132623997Y-85825749D01*
X132644329Y-85834823D01*
X132656540Y-85858799D01*
X132658080Y-85863320D01*
X132663374Y-85897513D01*
X132649218Y-85918275D01*
X132612319Y-85928169D01*
X132572460Y-85929999D01*
X132500733Y-85916434D01*
X132463603Y-85897062D01*
X132417747Y-85851552D01*
X132393427Y-85795690D01*
X132391244Y-85736664D01*
X132411800Y-85681660D01*
X132442720Y-85647193D01*
X132473591Y-85627896D01*
X132522113Y-85603466D01*
X132578656Y-85578692D01*
X132588081Y-85574906D01*
X132650190Y-85547498D01*
X132685993Y-85523341D01*
X132697508Y-85499326D01*
X132686751Y-85472342D01*
X132668285Y-85451250D01*
X132624640Y-85425279D01*
X132576617Y-85423331D01*
X132532577Y-85443344D01*
X132500880Y-85483258D01*
X132496720Y-85493555D01*
X132472498Y-85531431D01*
X132437136Y-85559549D01*
X132392514Y-85582624D01*
X132392514Y-85517192D01*
X132395140Y-85477213D01*
X132406401Y-85445704D01*
X132431370Y-85412085D01*
X132455340Y-85386191D01*
X132492612Y-85349524D01*
X132521572Y-85329828D01*
X132552676Y-85321927D01*
X132587884Y-85320621D01*
X132665047Y-85332042D01*
G36*
X132300004Y-85334370D02*
X132302219Y-85372557D01*
X132303955Y-85430593D01*
X132305070Y-85503887D01*
X132305428Y-85580762D01*
X132305428Y-85840903D01*
X132259497Y-85886834D01*
X132227846Y-85915136D01*
X132200061Y-85926600D01*
X132162086Y-85925875D01*
X132147011Y-85924028D01*
X132099897Y-85918655D01*
X132060927Y-85915576D01*
X132051428Y-85915292D01*
X132019404Y-85917152D01*
X131973603Y-85921821D01*
X131955845Y-85924028D01*
X131912228Y-85927442D01*
X131882916Y-85920027D01*
X131853851Y-85897134D01*
X131843359Y-85886834D01*
X131797428Y-85840903D01*
X131797428Y-85354309D01*
X131834397Y-85337465D01*
X131866230Y-85324989D01*
X131884854Y-85320621D01*
X131889629Y-85334425D01*
X131894092Y-85372993D01*
X131897946Y-85432063D01*
X131900893Y-85507370D01*
X131902314Y-85570993D01*
X131906285Y-85821364D01*
X131940930Y-85826263D01*
X131972439Y-85822838D01*
X131987879Y-85811748D01*
X131992194Y-85791015D01*
X131995879Y-85746852D01*
X131998640Y-85684853D01*
X132000183Y-85610616D01*
X132000406Y-85572413D01*
X132000628Y-85352490D01*
X132046337Y-85336556D01*
X132078689Y-85325722D01*
X132096286Y-85320669D01*
X132096794Y-85320621D01*
X132098559Y-85334355D01*
X132100500Y-85372437D01*
X132102453Y-85430189D01*
X132104255Y-85502934D01*
X132105514Y-85570993D01*
X132109485Y-85821364D01*
X132196571Y-85821364D01*
X132200567Y-85592947D01*
X132204563Y-85364529D01*
X132247018Y-85342575D01*
X132278363Y-85327500D01*
X132296915Y-85320658D01*
X132297450Y-85320621D01*
X132300004Y-85334370D01*
X132300004Y-85334370D01*
G37*
X132300004Y-85334370D02*
X132302219Y-85372557D01*
X132303955Y-85430593D01*
X132305070Y-85503887D01*
X132305428Y-85580762D01*
X132305428Y-85840903D01*
X132259497Y-85886834D01*
X132227846Y-85915136D01*
X132200061Y-85926600D01*
X132162086Y-85925875D01*
X132147011Y-85924028D01*
X132099897Y-85918655D01*
X132060927Y-85915576D01*
X132051428Y-85915292D01*
X132019404Y-85917152D01*
X131973603Y-85921821D01*
X131955845Y-85924028D01*
X131912228Y-85927442D01*
X131882916Y-85920027D01*
X131853851Y-85897134D01*
X131843359Y-85886834D01*
X131797428Y-85840903D01*
X131797428Y-85354309D01*
X131834397Y-85337465D01*
X131866230Y-85324989D01*
X131884854Y-85320621D01*
X131889629Y-85334425D01*
X131894092Y-85372993D01*
X131897946Y-85432063D01*
X131900893Y-85507370D01*
X131902314Y-85570993D01*
X131906285Y-85821364D01*
X131940930Y-85826263D01*
X131972439Y-85822838D01*
X131987879Y-85811748D01*
X131992194Y-85791015D01*
X131995879Y-85746852D01*
X131998640Y-85684853D01*
X132000183Y-85610616D01*
X132000406Y-85572413D01*
X132000628Y-85352490D01*
X132046337Y-85336556D01*
X132078689Y-85325722D01*
X132096286Y-85320669D01*
X132096794Y-85320621D01*
X132098559Y-85334355D01*
X132100500Y-85372437D01*
X132102453Y-85430189D01*
X132104255Y-85502934D01*
X132105514Y-85570993D01*
X132109485Y-85821364D01*
X132196571Y-85821364D01*
X132200567Y-85592947D01*
X132204563Y-85364529D01*
X132247018Y-85342575D01*
X132278363Y-85327500D01*
X132296915Y-85320658D01*
X132297450Y-85320621D01*
X132300004Y-85334370D01*
G36*
X131710288Y-85441065D02*
X131710104Y-85549544D01*
X131709390Y-85632994D01*
X131707846Y-85695411D01*
X131705172Y-85740792D01*
X131701065Y-85773136D01*
X131695226Y-85796440D01*
X131687353Y-85814702D01*
X131681392Y-85825125D01*
X131632026Y-85881652D01*
X131569435Y-85917084D01*
X131500184Y-85929797D01*
X131430839Y-85918170D01*
X131389546Y-85897275D01*
X131346196Y-85861129D01*
X131316652Y-85816983D01*
X131298826Y-85759169D01*
X131290634Y-85682020D01*
X131289473Y-85625421D01*
X131289629Y-85621354D01*
X131391028Y-85621354D01*
X131391647Y-85686257D01*
X131394485Y-85729221D01*
X131401011Y-85757329D01*
X131412694Y-85777660D01*
X131426654Y-85792995D01*
X131473536Y-85822597D01*
X131523872Y-85825126D01*
X131571447Y-85800412D01*
X131575150Y-85797063D01*
X131590954Y-85779642D01*
X131600864Y-85758916D01*
X131606229Y-85728069D01*
X131608399Y-85680284D01*
X131608742Y-85627455D01*
X131607998Y-85561088D01*
X131604919Y-85516813D01*
X131598232Y-85487716D01*
X131586667Y-85466880D01*
X131577184Y-85455814D01*
X131533131Y-85427905D01*
X131482395Y-85424550D01*
X131433967Y-85445866D01*
X131424621Y-85453780D01*
X131408711Y-85471354D01*
X131398781Y-85492294D01*
X131393449Y-85523489D01*
X131391334Y-85571829D01*
X131391028Y-85621354D01*
X131289629Y-85621354D01*
X131292981Y-85534275D01*
X131304897Y-85465793D01*
X131327306Y-85414307D01*
X131362295Y-85374150D01*
X131389546Y-85353568D01*
X131439078Y-85331332D01*
X131496487Y-85321011D01*
X131549853Y-85323774D01*
X131579714Y-85334919D01*
X131591432Y-85338090D01*
X131599208Y-85326264D01*
X131604636Y-85294573D01*
X131608742Y-85246300D01*
X131613238Y-85192536D01*
X131619484Y-85160189D01*
X131630847Y-85141692D01*
X131650699Y-85129477D01*
X131663171Y-85124069D01*
X131710342Y-85104308D01*
X131710288Y-85441065D01*
X131710288Y-85441065D01*
G37*
X131710288Y-85441065D02*
X131710104Y-85549544D01*
X131709390Y-85632994D01*
X131707846Y-85695411D01*
X131705172Y-85740792D01*
X131701065Y-85773136D01*
X131695226Y-85796440D01*
X131687353Y-85814702D01*
X131681392Y-85825125D01*
X131632026Y-85881652D01*
X131569435Y-85917084D01*
X131500184Y-85929797D01*
X131430839Y-85918170D01*
X131389546Y-85897275D01*
X131346196Y-85861129D01*
X131316652Y-85816983D01*
X131298826Y-85759169D01*
X131290634Y-85682020D01*
X131289473Y-85625421D01*
X131289629Y-85621354D01*
X131391028Y-85621354D01*
X131391647Y-85686257D01*
X131394485Y-85729221D01*
X131401011Y-85757329D01*
X131412694Y-85777660D01*
X131426654Y-85792995D01*
X131473536Y-85822597D01*
X131523872Y-85825126D01*
X131571447Y-85800412D01*
X131575150Y-85797063D01*
X131590954Y-85779642D01*
X131600864Y-85758916D01*
X131606229Y-85728069D01*
X131608399Y-85680284D01*
X131608742Y-85627455D01*
X131607998Y-85561088D01*
X131604919Y-85516813D01*
X131598232Y-85487716D01*
X131586667Y-85466880D01*
X131577184Y-85455814D01*
X131533131Y-85427905D01*
X131482395Y-85424550D01*
X131433967Y-85445866D01*
X131424621Y-85453780D01*
X131408711Y-85471354D01*
X131398781Y-85492294D01*
X131393449Y-85523489D01*
X131391334Y-85571829D01*
X131391028Y-85621354D01*
X131289629Y-85621354D01*
X131292981Y-85534275D01*
X131304897Y-85465793D01*
X131327306Y-85414307D01*
X131362295Y-85374150D01*
X131389546Y-85353568D01*
X131439078Y-85331332D01*
X131496487Y-85321011D01*
X131549853Y-85323774D01*
X131579714Y-85334919D01*
X131591432Y-85338090D01*
X131599208Y-85326264D01*
X131604636Y-85294573D01*
X131608742Y-85246300D01*
X131613238Y-85192536D01*
X131619484Y-85160189D01*
X131630847Y-85141692D01*
X131650699Y-85129477D01*
X131663171Y-85124069D01*
X131710342Y-85104308D01*
X131710288Y-85441065D01*
G36*
X131050097Y-85325462D02*
X131116029Y-85349791D01*
X131169444Y-85392824D01*
X131190335Y-85423116D01*
X131213110Y-85478701D01*
X131212637Y-85518893D01*
X131188733Y-85545924D01*
X131179888Y-85550520D01*
X131141701Y-85564851D01*
X131122199Y-85561179D01*
X131115593Y-85537114D01*
X131115257Y-85523821D01*
X131103163Y-85474917D01*
X131071642Y-85440706D01*
X131027830Y-85424183D01*
X130978866Y-85428341D01*
X130939065Y-85449934D01*
X130925621Y-85462251D01*
X130916092Y-85477194D01*
X130909656Y-85499782D01*
X130905488Y-85535035D01*
X130902768Y-85587973D01*
X130900673Y-85663614D01*
X130900131Y-85687564D01*
X130898152Y-85769497D01*
X130895902Y-85827162D01*
X130892528Y-85865315D01*
X130887177Y-85888711D01*
X130878995Y-85902105D01*
X130867130Y-85910252D01*
X130859533Y-85913851D01*
X130827273Y-85926159D01*
X130808282Y-85930221D01*
X130802007Y-85916655D01*
X130798177Y-85875641D01*
X130796771Y-85806706D01*
X130797769Y-85709376D01*
X130798079Y-85694364D01*
X130800272Y-85605566D01*
X130802864Y-85540726D01*
X130806553Y-85494774D01*
X130812035Y-85462642D01*
X130820006Y-85439260D01*
X130831164Y-85419559D01*
X130837001Y-85411117D01*
X130870467Y-85373764D01*
X130907898Y-85344710D01*
X130912480Y-85342174D01*
X130979597Y-85322150D01*
X131050097Y-85325462D01*
X131050097Y-85325462D01*
G37*
X131050097Y-85325462D02*
X131116029Y-85349791D01*
X131169444Y-85392824D01*
X131190335Y-85423116D01*
X131213110Y-85478701D01*
X131212637Y-85518893D01*
X131188733Y-85545924D01*
X131179888Y-85550520D01*
X131141701Y-85564851D01*
X131122199Y-85561179D01*
X131115593Y-85537114D01*
X131115257Y-85523821D01*
X131103163Y-85474917D01*
X131071642Y-85440706D01*
X131027830Y-85424183D01*
X130978866Y-85428341D01*
X130939065Y-85449934D01*
X130925621Y-85462251D01*
X130916092Y-85477194D01*
X130909656Y-85499782D01*
X130905488Y-85535035D01*
X130902768Y-85587973D01*
X130900673Y-85663614D01*
X130900131Y-85687564D01*
X130898152Y-85769497D01*
X130895902Y-85827162D01*
X130892528Y-85865315D01*
X130887177Y-85888711D01*
X130878995Y-85902105D01*
X130867130Y-85910252D01*
X130859533Y-85913851D01*
X130827273Y-85926159D01*
X130808282Y-85930221D01*
X130802007Y-85916655D01*
X130798177Y-85875641D01*
X130796771Y-85806706D01*
X130797769Y-85709376D01*
X130798079Y-85694364D01*
X130800272Y-85605566D01*
X130802864Y-85540726D01*
X130806553Y-85494774D01*
X130812035Y-85462642D01*
X130820006Y-85439260D01*
X130831164Y-85419559D01*
X130837001Y-85411117D01*
X130870467Y-85373764D01*
X130907898Y-85344710D01*
X130912480Y-85342174D01*
X130979597Y-85322150D01*
X131050097Y-85325462D01*
G36*
X130559915Y-85326675D02*
X130616787Y-85347794D01*
X130617438Y-85348200D01*
X130652611Y-85374087D01*
X130678578Y-85404340D01*
X130696841Y-85443765D01*
X130708903Y-85497169D01*
X130716267Y-85569358D01*
X130720435Y-85665139D01*
X130720800Y-85678785D01*
X130726047Y-85884549D01*
X130681887Y-85907385D01*
X130649934Y-85922817D01*
X130630641Y-85930130D01*
X130629749Y-85930221D01*
X130626410Y-85916729D01*
X130623758Y-85880333D01*
X130622127Y-85827159D01*
X130621771Y-85784100D01*
X130621763Y-85714348D01*
X130618574Y-85670544D01*
X130607459Y-85649651D01*
X130583672Y-85648632D01*
X130542467Y-85664448D01*
X130480257Y-85693522D01*
X130434512Y-85717670D01*
X130410984Y-85738620D01*
X130404067Y-85761454D01*
X130404057Y-85762584D01*
X130415470Y-85801919D01*
X130449263Y-85823169D01*
X130500980Y-85826246D01*
X130538232Y-85825713D01*
X130557874Y-85836442D01*
X130570123Y-85862212D01*
X130577173Y-85895044D01*
X130567013Y-85913673D01*
X130563188Y-85916339D01*
X130527172Y-85927047D01*
X130476737Y-85928563D01*
X130424797Y-85921466D01*
X130387993Y-85908495D01*
X130337109Y-85865292D01*
X130308185Y-85805153D01*
X130302457Y-85758169D01*
X130306828Y-85715789D01*
X130322646Y-85681195D01*
X130353968Y-85650470D01*
X130404849Y-85619697D01*
X130479347Y-85584959D01*
X130483885Y-85582995D01*
X130550992Y-85551994D01*
X130592403Y-85526569D01*
X130610152Y-85503721D01*
X130606278Y-85480452D01*
X130582814Y-85453763D01*
X130575798Y-85447621D01*
X130528801Y-85423807D01*
X130480104Y-85424810D01*
X130437693Y-85448158D01*
X130409555Y-85491382D01*
X130406940Y-85499867D01*
X130381479Y-85541015D01*
X130349172Y-85560835D01*
X130302457Y-85580477D01*
X130302457Y-85529657D01*
X130316667Y-85455789D01*
X130358846Y-85388034D01*
X130380795Y-85365368D01*
X130430688Y-85336276D01*
X130494138Y-85323107D01*
X130559915Y-85326675D01*
X130559915Y-85326675D01*
G37*
X130559915Y-85326675D02*
X130616787Y-85347794D01*
X130617438Y-85348200D01*
X130652611Y-85374087D01*
X130678578Y-85404340D01*
X130696841Y-85443765D01*
X130708903Y-85497169D01*
X130716267Y-85569358D01*
X130720435Y-85665139D01*
X130720800Y-85678785D01*
X130726047Y-85884549D01*
X130681887Y-85907385D01*
X130649934Y-85922817D01*
X130630641Y-85930130D01*
X130629749Y-85930221D01*
X130626410Y-85916729D01*
X130623758Y-85880333D01*
X130622127Y-85827159D01*
X130621771Y-85784100D01*
X130621763Y-85714348D01*
X130618574Y-85670544D01*
X130607459Y-85649651D01*
X130583672Y-85648632D01*
X130542467Y-85664448D01*
X130480257Y-85693522D01*
X130434512Y-85717670D01*
X130410984Y-85738620D01*
X130404067Y-85761454D01*
X130404057Y-85762584D01*
X130415470Y-85801919D01*
X130449263Y-85823169D01*
X130500980Y-85826246D01*
X130538232Y-85825713D01*
X130557874Y-85836442D01*
X130570123Y-85862212D01*
X130577173Y-85895044D01*
X130567013Y-85913673D01*
X130563188Y-85916339D01*
X130527172Y-85927047D01*
X130476737Y-85928563D01*
X130424797Y-85921466D01*
X130387993Y-85908495D01*
X130337109Y-85865292D01*
X130308185Y-85805153D01*
X130302457Y-85758169D01*
X130306828Y-85715789D01*
X130322646Y-85681195D01*
X130353968Y-85650470D01*
X130404849Y-85619697D01*
X130479347Y-85584959D01*
X130483885Y-85582995D01*
X130550992Y-85551994D01*
X130592403Y-85526569D01*
X130610152Y-85503721D01*
X130606278Y-85480452D01*
X130582814Y-85453763D01*
X130575798Y-85447621D01*
X130528801Y-85423807D01*
X130480104Y-85424810D01*
X130437693Y-85448158D01*
X130409555Y-85491382D01*
X130406940Y-85499867D01*
X130381479Y-85541015D01*
X130349172Y-85560835D01*
X130302457Y-85580477D01*
X130302457Y-85529657D01*
X130316667Y-85455789D01*
X130358846Y-85388034D01*
X130380795Y-85365368D01*
X130430688Y-85336276D01*
X130494138Y-85323107D01*
X130559915Y-85326675D01*
G36*
X129896057Y-85226996D02*
X129900310Y-85286320D01*
X129905196Y-85321279D01*
X129911966Y-85336527D01*
X129921873Y-85336722D01*
X129925085Y-85334902D01*
X129967815Y-85321722D01*
X130023398Y-85322492D01*
X130079908Y-85336040D01*
X130115253Y-85353568D01*
X130151492Y-85381568D01*
X130177984Y-85413256D01*
X130196170Y-85453520D01*
X130207493Y-85507250D01*
X130213393Y-85579333D01*
X130215314Y-85674658D01*
X130215348Y-85692944D01*
X130215371Y-85898353D01*
X130169662Y-85914287D01*
X130137198Y-85925127D01*
X130119386Y-85930175D01*
X130118862Y-85930221D01*
X130117108Y-85916535D01*
X130115615Y-85878783D01*
X130114497Y-85821931D01*
X130113868Y-85750941D01*
X130113771Y-85707780D01*
X130113569Y-85622680D01*
X130112529Y-85561688D01*
X130110002Y-85519884D01*
X130105335Y-85492349D01*
X130097878Y-85474163D01*
X130086982Y-85460405D01*
X130080178Y-85453780D01*
X130033443Y-85427082D01*
X129982443Y-85425082D01*
X129936172Y-85447662D01*
X129927615Y-85455814D01*
X129915064Y-85471143D01*
X129906359Y-85489325D01*
X129900802Y-85515616D01*
X129897697Y-85555269D01*
X129896347Y-85613539D01*
X129896057Y-85693880D01*
X129896057Y-85898353D01*
X129850348Y-85914287D01*
X129817884Y-85925127D01*
X129800072Y-85930175D01*
X129799548Y-85930221D01*
X129798208Y-85916330D01*
X129796999Y-85877146D01*
X129795972Y-85816407D01*
X129795173Y-85737848D01*
X129794652Y-85645205D01*
X129794457Y-85542216D01*
X129794457Y-85145049D01*
X129841628Y-85125151D01*
X129888800Y-85105254D01*
X129896057Y-85226996D01*
X129896057Y-85226996D01*
G37*
X129896057Y-85226996D02*
X129900310Y-85286320D01*
X129905196Y-85321279D01*
X129911966Y-85336527D01*
X129921873Y-85336722D01*
X129925085Y-85334902D01*
X129967815Y-85321722D01*
X130023398Y-85322492D01*
X130079908Y-85336040D01*
X130115253Y-85353568D01*
X130151492Y-85381568D01*
X130177984Y-85413256D01*
X130196170Y-85453520D01*
X130207493Y-85507250D01*
X130213393Y-85579333D01*
X130215314Y-85674658D01*
X130215348Y-85692944D01*
X130215371Y-85898353D01*
X130169662Y-85914287D01*
X130137198Y-85925127D01*
X130119386Y-85930175D01*
X130118862Y-85930221D01*
X130117108Y-85916535D01*
X130115615Y-85878783D01*
X130114497Y-85821931D01*
X130113868Y-85750941D01*
X130113771Y-85707780D01*
X130113569Y-85622680D01*
X130112529Y-85561688D01*
X130110002Y-85519884D01*
X130105335Y-85492349D01*
X130097878Y-85474163D01*
X130086982Y-85460405D01*
X130080178Y-85453780D01*
X130033443Y-85427082D01*
X129982443Y-85425082D01*
X129936172Y-85447662D01*
X129927615Y-85455814D01*
X129915064Y-85471143D01*
X129906359Y-85489325D01*
X129900802Y-85515616D01*
X129897697Y-85555269D01*
X129896347Y-85613539D01*
X129896057Y-85693880D01*
X129896057Y-85898353D01*
X129850348Y-85914287D01*
X129817884Y-85925127D01*
X129800072Y-85930175D01*
X129799548Y-85930221D01*
X129798208Y-85916330D01*
X129796999Y-85877146D01*
X129795972Y-85816407D01*
X129795173Y-85737848D01*
X129794652Y-85645205D01*
X129794457Y-85542216D01*
X129794457Y-85145049D01*
X129841628Y-85125151D01*
X129888800Y-85105254D01*
X129896057Y-85226996D01*
G36*
X128688474Y-85306946D02*
X128745698Y-85345442D01*
X128789920Y-85401042D01*
X128816338Y-85471793D01*
X128821681Y-85523869D01*
X128821074Y-85545600D01*
X128815993Y-85562238D01*
X128802026Y-85577144D01*
X128774760Y-85593680D01*
X128729783Y-85615205D01*
X128662682Y-85645081D01*
X128662342Y-85645231D01*
X128600578Y-85673520D01*
X128549930Y-85698640D01*
X128515575Y-85717886D01*
X128502689Y-85728555D01*
X128502685Y-85728641D01*
X128514043Y-85751873D01*
X128540602Y-85777481D01*
X128571094Y-85795928D01*
X128586541Y-85799593D01*
X128628686Y-85786919D01*
X128664979Y-85755178D01*
X128682688Y-85720279D01*
X128699723Y-85694552D01*
X128733093Y-85665253D01*
X128772320Y-85639942D01*
X128806927Y-85626178D01*
X128814164Y-85625421D01*
X128822310Y-85637867D01*
X128822801Y-85669679D01*
X128816814Y-85712573D01*
X128805528Y-85758265D01*
X128790121Y-85798468D01*
X128789342Y-85800029D01*
X128742975Y-85864769D01*
X128682882Y-85908804D01*
X128614636Y-85930418D01*
X128543809Y-85927892D01*
X128475975Y-85899511D01*
X128472959Y-85897515D01*
X128419598Y-85849155D01*
X128384511Y-85786059D01*
X128365093Y-85703094D01*
X128362487Y-85679785D01*
X128357872Y-85569762D01*
X128363404Y-85518455D01*
X128502685Y-85518455D01*
X128504495Y-85550460D01*
X128514393Y-85559800D01*
X128539069Y-85552812D01*
X128577966Y-85536294D01*
X128621446Y-85515588D01*
X128622527Y-85515040D01*
X128659380Y-85495656D01*
X128674171Y-85482720D01*
X128670524Y-85469158D01*
X128655166Y-85451339D01*
X128616094Y-85425552D01*
X128574017Y-85423657D01*
X128536274Y-85442424D01*
X128510205Y-85478622D01*
X128502685Y-85518455D01*
X128363404Y-85518455D01*
X128367365Y-85481734D01*
X128391721Y-85411919D01*
X128425627Y-85363009D01*
X128486824Y-85313585D01*
X128554234Y-85289066D01*
X128623051Y-85287504D01*
X128688474Y-85306946D01*
X128688474Y-85306946D01*
G37*
X128688474Y-85306946D02*
X128745698Y-85345442D01*
X128789920Y-85401042D01*
X128816338Y-85471793D01*
X128821681Y-85523869D01*
X128821074Y-85545600D01*
X128815993Y-85562238D01*
X128802026Y-85577144D01*
X128774760Y-85593680D01*
X128729783Y-85615205D01*
X128662682Y-85645081D01*
X128662342Y-85645231D01*
X128600578Y-85673520D01*
X128549930Y-85698640D01*
X128515575Y-85717886D01*
X128502689Y-85728555D01*
X128502685Y-85728641D01*
X128514043Y-85751873D01*
X128540602Y-85777481D01*
X128571094Y-85795928D01*
X128586541Y-85799593D01*
X128628686Y-85786919D01*
X128664979Y-85755178D01*
X128682688Y-85720279D01*
X128699723Y-85694552D01*
X128733093Y-85665253D01*
X128772320Y-85639942D01*
X128806927Y-85626178D01*
X128814164Y-85625421D01*
X128822310Y-85637867D01*
X128822801Y-85669679D01*
X128816814Y-85712573D01*
X128805528Y-85758265D01*
X128790121Y-85798468D01*
X128789342Y-85800029D01*
X128742975Y-85864769D01*
X128682882Y-85908804D01*
X128614636Y-85930418D01*
X128543809Y-85927892D01*
X128475975Y-85899511D01*
X128472959Y-85897515D01*
X128419598Y-85849155D01*
X128384511Y-85786059D01*
X128365093Y-85703094D01*
X128362487Y-85679785D01*
X128357872Y-85569762D01*
X128363404Y-85518455D01*
X128502685Y-85518455D01*
X128504495Y-85550460D01*
X128514393Y-85559800D01*
X128539069Y-85552812D01*
X128577966Y-85536294D01*
X128621446Y-85515588D01*
X128622527Y-85515040D01*
X128659380Y-85495656D01*
X128674171Y-85482720D01*
X128670524Y-85469158D01*
X128655166Y-85451339D01*
X128616094Y-85425552D01*
X128574017Y-85423657D01*
X128536274Y-85442424D01*
X128510205Y-85478622D01*
X128502685Y-85518455D01*
X128363404Y-85518455D01*
X128367365Y-85481734D01*
X128391721Y-85411919D01*
X128425627Y-85363009D01*
X128486824Y-85313585D01*
X128554234Y-85289066D01*
X128623051Y-85287504D01*
X128688474Y-85306946D01*
G36*
X127561286Y-85297669D02*
X127629316Y-85333440D01*
X127679522Y-85391008D01*
X127697356Y-85428019D01*
X127711234Y-85483589D01*
X127718338Y-85553803D01*
X127719011Y-85630434D01*
X127713598Y-85705259D01*
X127702441Y-85770049D01*
X127685885Y-85816580D01*
X127680797Y-85824594D01*
X127620526Y-85884414D01*
X127548940Y-85920242D01*
X127471263Y-85930727D01*
X127392719Y-85914517D01*
X127370860Y-85904799D01*
X127328293Y-85874850D01*
X127290934Y-85835140D01*
X127287403Y-85830104D01*
X127273052Y-85805831D01*
X127263565Y-85779885D01*
X127257961Y-85745729D01*
X127255257Y-85696826D01*
X127254470Y-85626642D01*
X127254457Y-85610907D01*
X127254493Y-85605899D01*
X127399600Y-85605899D01*
X127400444Y-85672137D01*
X127403767Y-85716093D01*
X127410754Y-85744486D01*
X127422587Y-85764032D01*
X127428628Y-85770564D01*
X127463357Y-85795387D01*
X127497074Y-85794255D01*
X127531166Y-85772723D01*
X127551500Y-85749736D01*
X127563542Y-85716185D01*
X127570305Y-85663276D01*
X127570769Y-85657106D01*
X127571923Y-85561220D01*
X127559859Y-85490006D01*
X127534741Y-85443901D01*
X127496731Y-85423342D01*
X127483163Y-85422221D01*
X127447535Y-85427859D01*
X127423165Y-85447393D01*
X127408264Y-85484749D01*
X127401046Y-85543857D01*
X127399600Y-85605899D01*
X127254493Y-85605899D01*
X127254997Y-85536120D01*
X127257267Y-85483866D01*
X127262239Y-85447656D01*
X127270884Y-85421006D01*
X127284176Y-85397429D01*
X127287114Y-85393045D01*
X127336484Y-85333956D01*
X127390280Y-85299654D01*
X127455773Y-85286038D01*
X127478013Y-85285372D01*
X127561286Y-85297669D01*
X127561286Y-85297669D01*
G37*
X127561286Y-85297669D02*
X127629316Y-85333440D01*
X127679522Y-85391008D01*
X127697356Y-85428019D01*
X127711234Y-85483589D01*
X127718338Y-85553803D01*
X127719011Y-85630434D01*
X127713598Y-85705259D01*
X127702441Y-85770049D01*
X127685885Y-85816580D01*
X127680797Y-85824594D01*
X127620526Y-85884414D01*
X127548940Y-85920242D01*
X127471263Y-85930727D01*
X127392719Y-85914517D01*
X127370860Y-85904799D01*
X127328293Y-85874850D01*
X127290934Y-85835140D01*
X127287403Y-85830104D01*
X127273052Y-85805831D01*
X127263565Y-85779885D01*
X127257961Y-85745729D01*
X127255257Y-85696826D01*
X127254470Y-85626642D01*
X127254457Y-85610907D01*
X127254493Y-85605899D01*
X127399600Y-85605899D01*
X127400444Y-85672137D01*
X127403767Y-85716093D01*
X127410754Y-85744486D01*
X127422587Y-85764032D01*
X127428628Y-85770564D01*
X127463357Y-85795387D01*
X127497074Y-85794255D01*
X127531166Y-85772723D01*
X127551500Y-85749736D01*
X127563542Y-85716185D01*
X127570305Y-85663276D01*
X127570769Y-85657106D01*
X127571923Y-85561220D01*
X127559859Y-85490006D01*
X127534741Y-85443901D01*
X127496731Y-85423342D01*
X127483163Y-85422221D01*
X127447535Y-85427859D01*
X127423165Y-85447393D01*
X127408264Y-85484749D01*
X127401046Y-85543857D01*
X127399600Y-85605899D01*
X127254493Y-85605899D01*
X127254997Y-85536120D01*
X127257267Y-85483866D01*
X127262239Y-85447656D01*
X127270884Y-85421006D01*
X127284176Y-85397429D01*
X127287114Y-85393045D01*
X127336484Y-85333956D01*
X127390280Y-85299654D01*
X127455773Y-85286038D01*
X127478013Y-85285372D01*
X127561286Y-85297669D01*
G36*
X129236264Y-85303487D02*
X129282843Y-85330430D01*
X129315228Y-85357173D01*
X129338913Y-85385191D01*
X129355230Y-85419455D01*
X129365510Y-85464934D01*
X129371085Y-85526599D01*
X129373287Y-85609418D01*
X129373542Y-85668953D01*
X129373542Y-85888098D01*
X129311857Y-85915751D01*
X129250171Y-85943404D01*
X129242914Y-85703377D01*
X129239915Y-85613735D01*
X129236769Y-85548669D01*
X129232872Y-85503733D01*
X129227618Y-85474477D01*
X129220402Y-85456455D01*
X129210621Y-85445218D01*
X129207483Y-85442786D01*
X129159932Y-85423790D01*
X129111868Y-85431307D01*
X129083257Y-85451250D01*
X129071618Y-85465382D01*
X129063562Y-85483927D01*
X129058442Y-85512041D01*
X129055612Y-85554880D01*
X129054427Y-85617602D01*
X129054228Y-85682968D01*
X129054189Y-85764975D01*
X129052785Y-85823023D01*
X129048085Y-85862172D01*
X129038158Y-85887487D01*
X129021074Y-85904030D01*
X128994903Y-85916863D01*
X128959946Y-85930198D01*
X128921767Y-85944714D01*
X128926312Y-85687096D01*
X128928142Y-85594226D01*
X128930283Y-85525596D01*
X128933352Y-85476418D01*
X128937965Y-85441905D01*
X128944739Y-85417269D01*
X128954290Y-85397723D01*
X128965805Y-85380477D01*
X129021361Y-85325387D01*
X129089151Y-85293529D01*
X129162884Y-85285898D01*
X129236264Y-85303487D01*
X129236264Y-85303487D01*
G37*
X129236264Y-85303487D02*
X129282843Y-85330430D01*
X129315228Y-85357173D01*
X129338913Y-85385191D01*
X129355230Y-85419455D01*
X129365510Y-85464934D01*
X129371085Y-85526599D01*
X129373287Y-85609418D01*
X129373542Y-85668953D01*
X129373542Y-85888098D01*
X129311857Y-85915751D01*
X129250171Y-85943404D01*
X129242914Y-85703377D01*
X129239915Y-85613735D01*
X129236769Y-85548669D01*
X129232872Y-85503733D01*
X129227618Y-85474477D01*
X129220402Y-85456455D01*
X129210621Y-85445218D01*
X129207483Y-85442786D01*
X129159932Y-85423790D01*
X129111868Y-85431307D01*
X129083257Y-85451250D01*
X129071618Y-85465382D01*
X129063562Y-85483927D01*
X129058442Y-85512041D01*
X129055612Y-85554880D01*
X129054427Y-85617602D01*
X129054228Y-85682968D01*
X129054189Y-85764975D01*
X129052785Y-85823023D01*
X129048085Y-85862172D01*
X129038158Y-85887487D01*
X129021074Y-85904030D01*
X128994903Y-85916863D01*
X128959946Y-85930198D01*
X128921767Y-85944714D01*
X128926312Y-85687096D01*
X128928142Y-85594226D01*
X128930283Y-85525596D01*
X128933352Y-85476418D01*
X128937965Y-85441905D01*
X128944739Y-85417269D01*
X128954290Y-85397723D01*
X128965805Y-85380477D01*
X129021361Y-85325387D01*
X129089151Y-85293529D01*
X129162884Y-85285898D01*
X129236264Y-85303487D01*
G36*
X128119915Y-85295625D02*
X128175372Y-85323275D01*
X128224319Y-85374187D01*
X128237800Y-85393045D01*
X128252485Y-85417722D01*
X128262013Y-85444523D01*
X128267464Y-85480294D01*
X128269918Y-85531876D01*
X128270457Y-85599974D01*
X128268023Y-85693295D01*
X128259565Y-85763364D01*
X128243345Y-85815638D01*
X128217625Y-85855576D01*
X128180668Y-85888636D01*
X128177953Y-85890593D01*
X128141531Y-85910615D01*
X128097673Y-85920522D01*
X128041895Y-85922964D01*
X127951219Y-85922964D01*
X127951181Y-86010990D01*
X127950337Y-86060015D01*
X127945195Y-86088772D01*
X127931758Y-86106018D01*
X127906029Y-86120515D01*
X127899850Y-86123476D01*
X127870935Y-86137355D01*
X127848547Y-86146121D01*
X127831900Y-86146878D01*
X127820207Y-86136730D01*
X127812681Y-86112780D01*
X127808537Y-86072133D01*
X127806986Y-86011893D01*
X127807242Y-85929162D01*
X127808520Y-85821046D01*
X127808919Y-85788707D01*
X127810356Y-85677231D01*
X127811643Y-85604310D01*
X127951142Y-85604310D01*
X127951926Y-85666206D01*
X127955411Y-85706704D01*
X127963295Y-85733415D01*
X127977276Y-85753951D01*
X127986768Y-85763967D01*
X128025575Y-85793274D01*
X128059934Y-85795659D01*
X128095387Y-85771457D01*
X128096285Y-85770564D01*
X128110710Y-85751860D01*
X128119484Y-85726439D01*
X128123910Y-85687291D01*
X128125289Y-85627404D01*
X128125314Y-85614137D01*
X128121983Y-85531608D01*
X128111140Y-85474398D01*
X128091511Y-85439473D01*
X128061821Y-85423801D01*
X128044662Y-85422221D01*
X128003937Y-85429633D01*
X127976003Y-85454037D01*
X127959188Y-85498687D01*
X127951821Y-85566837D01*
X127951142Y-85604310D01*
X127811643Y-85604310D01*
X127811879Y-85590952D01*
X127813848Y-85526040D01*
X127816621Y-85478665D01*
X127820559Y-85444997D01*
X127826020Y-85421205D01*
X127833363Y-85403460D01*
X127842948Y-85387931D01*
X127847058Y-85382088D01*
X127901576Y-85326892D01*
X127970507Y-85295597D01*
X128050243Y-85286872D01*
X128119915Y-85295625D01*
X128119915Y-85295625D01*
G37*
X128119915Y-85295625D02*
X128175372Y-85323275D01*
X128224319Y-85374187D01*
X128237800Y-85393045D01*
X128252485Y-85417722D01*
X128262013Y-85444523D01*
X128267464Y-85480294D01*
X128269918Y-85531876D01*
X128270457Y-85599974D01*
X128268023Y-85693295D01*
X128259565Y-85763364D01*
X128243345Y-85815638D01*
X128217625Y-85855576D01*
X128180668Y-85888636D01*
X128177953Y-85890593D01*
X128141531Y-85910615D01*
X128097673Y-85920522D01*
X128041895Y-85922964D01*
X127951219Y-85922964D01*
X127951181Y-86010990D01*
X127950337Y-86060015D01*
X127945195Y-86088772D01*
X127931758Y-86106018D01*
X127906029Y-86120515D01*
X127899850Y-86123476D01*
X127870935Y-86137355D01*
X127848547Y-86146121D01*
X127831900Y-86146878D01*
X127820207Y-86136730D01*
X127812681Y-86112780D01*
X127808537Y-86072133D01*
X127806986Y-86011893D01*
X127807242Y-85929162D01*
X127808520Y-85821046D01*
X127808919Y-85788707D01*
X127810356Y-85677231D01*
X127811643Y-85604310D01*
X127951142Y-85604310D01*
X127951926Y-85666206D01*
X127955411Y-85706704D01*
X127963295Y-85733415D01*
X127977276Y-85753951D01*
X127986768Y-85763967D01*
X128025575Y-85793274D01*
X128059934Y-85795659D01*
X128095387Y-85771457D01*
X128096285Y-85770564D01*
X128110710Y-85751860D01*
X128119484Y-85726439D01*
X128123910Y-85687291D01*
X128125289Y-85627404D01*
X128125314Y-85614137D01*
X128121983Y-85531608D01*
X128111140Y-85474398D01*
X128091511Y-85439473D01*
X128061821Y-85423801D01*
X128044662Y-85422221D01*
X128003937Y-85429633D01*
X127976003Y-85454037D01*
X127959188Y-85498687D01*
X127951821Y-85566837D01*
X127951142Y-85604310D01*
X127811643Y-85604310D01*
X127811879Y-85590952D01*
X127813848Y-85526040D01*
X127816621Y-85478665D01*
X127820559Y-85444997D01*
X127826020Y-85421205D01*
X127833363Y-85403460D01*
X127842948Y-85387931D01*
X127847058Y-85382088D01*
X127901576Y-85326892D01*
X127970507Y-85295597D01*
X128050243Y-85286872D01*
X128119915Y-85295625D01*
D17*
X136165171Y-85528207D02*
X136465171Y-85228207D01*
X136465171Y-85828207D02*
X136465171Y-85228207D01*
X136165171Y-85528207D02*
X136465171Y-85828207D01*
X135265171Y-86378207D02*
X134665171Y-86378207D01*
X135965171Y-82928207D02*
X135965171Y-85728207D01*
X134665171Y-82278207D02*
X135265171Y-82278207D01*
X133965171Y-85728207D02*
X133965171Y-82928207D01*
X133965171Y-82978207D02*
G75*
G02X134665171Y-82278207I700000J0D01*
G01*
X135265171Y-82278207D02*
G75*
G02X135965171Y-82978207I0J-700000D01*
G01*
X135965171Y-85678207D02*
G75*
G02X135265171Y-86378207I-700000J0D01*
G01*
X134665171Y-86378207D02*
G75*
G02X133965171Y-85678207I0J700000D01*
G01*
D16*
G36*
X135904561Y-108975201D02*
X135956109Y-108986943D01*
X135970020Y-108996108D01*
X135983989Y-109027815D01*
X135999260Y-109084873D01*
X136010427Y-109142794D01*
X136022591Y-109209716D01*
X136034558Y-109261643D01*
X136042490Y-109284582D01*
X136065386Y-109302508D01*
X136113714Y-109330461D01*
X136177225Y-109362535D01*
X136180265Y-109363975D01*
X136339510Y-109459528D01*
X136472380Y-109580804D01*
X136577495Y-109723488D01*
X136653471Y-109883264D01*
X136698930Y-110055818D01*
X136712490Y-110236834D01*
X136692771Y-110421997D01*
X136638391Y-110606991D01*
X136603479Y-110686500D01*
X136560876Y-110756970D01*
X136494103Y-110845648D01*
X136408724Y-110945383D01*
X136366670Y-110990953D01*
X136263757Y-111105518D01*
X136187807Y-111203291D01*
X136134160Y-111290434D01*
X136122440Y-111313897D01*
X136094557Y-111375885D01*
X136076743Y-111427918D01*
X136066770Y-111482199D01*
X136062411Y-111550932D01*
X136061441Y-111646320D01*
X136061441Y-111648195D01*
X136062274Y-111743203D01*
X136066314Y-111811228D01*
X136075869Y-111864352D01*
X136093250Y-111914659D01*
X136120765Y-111974231D01*
X136125659Y-111984205D01*
X136215934Y-112124409D01*
X136335241Y-112239138D01*
X136457752Y-112314746D01*
X136513421Y-112338307D01*
X136571092Y-112352312D01*
X136643780Y-112358984D01*
X136725748Y-112360550D01*
X136814402Y-112359447D01*
X136877115Y-112353886D01*
X136926987Y-112341188D01*
X136977112Y-112318676D01*
X136984863Y-112314499D01*
X137563671Y-112314499D01*
X137580674Y-112357690D01*
X137614925Y-112384348D01*
X137657097Y-112388477D01*
X137697865Y-112364077D01*
X137709595Y-112348465D01*
X137725692Y-112308049D01*
X137714213Y-112266728D01*
X137710993Y-112260541D01*
X137673793Y-112222602D01*
X137628094Y-112215453D01*
X137587110Y-112239069D01*
X137573242Y-112260774D01*
X137563671Y-112314499D01*
X136984863Y-112314499D01*
X137005608Y-112303320D01*
X137123317Y-112218571D01*
X137210303Y-112113501D01*
X137264082Y-111992108D01*
X137282165Y-111858450D01*
X137265275Y-111736804D01*
X137218611Y-111629226D01*
X137146610Y-111542484D01*
X137053708Y-111483345D01*
X137030564Y-111474596D01*
X136942141Y-111454657D01*
X136865385Y-111462645D01*
X136791291Y-111495422D01*
X136727937Y-111544633D01*
X136699500Y-111605022D01*
X136699706Y-111670220D01*
X136707785Y-111696699D01*
X136729043Y-111712261D01*
X136773219Y-111721461D01*
X136819458Y-111726244D01*
X136896540Y-111737815D01*
X136942262Y-111759994D01*
X136964140Y-111799407D01*
X136969680Y-111858711D01*
X136951544Y-111930148D01*
X136899428Y-111989943D01*
X136817818Y-112033309D01*
X136800633Y-112038914D01*
X136699127Y-112050980D01*
X136602889Y-112024566D01*
X136511424Y-111959508D01*
X136486136Y-111933839D01*
X136417381Y-111833269D01*
X136382140Y-111722484D01*
X136378257Y-111607229D01*
X136403575Y-111493246D01*
X136455938Y-111386277D01*
X136533190Y-111292066D01*
X136633173Y-111216354D01*
X136753732Y-111164884D01*
X136777224Y-111158692D01*
X136934373Y-111139755D01*
X137085304Y-111158916D01*
X137227579Y-111215378D01*
X137358760Y-111308344D01*
X137419730Y-111368597D01*
X137507062Y-111482694D01*
X137564999Y-111605304D01*
X137596936Y-111745527D01*
X137605865Y-111867592D01*
X137607931Y-111946521D01*
X137610015Y-112010561D01*
X137611773Y-112049629D01*
X137612306Y-112055990D01*
X137628041Y-112076090D01*
X137666623Y-112111145D01*
X137713226Y-112148527D01*
X137766776Y-112194270D01*
X137806423Y-112237251D01*
X137821724Y-112263546D01*
X137817760Y-112306117D01*
X137795560Y-112364287D01*
X137762462Y-112424581D01*
X137725805Y-112473527D01*
X137694462Y-112497212D01*
X137656870Y-112496332D01*
X137600397Y-112481616D01*
X137566978Y-112468861D01*
X137480621Y-112438373D01*
X137413688Y-112433098D01*
X137354979Y-112453978D01*
X137305638Y-112490817D01*
X137218982Y-112552555D01*
X137108976Y-112610373D01*
X136991201Y-112657001D01*
X136893958Y-112682918D01*
X136737740Y-112700434D01*
X136586729Y-112689891D01*
X136481518Y-112667413D01*
X136303083Y-112601192D01*
X136143244Y-112501766D01*
X136003967Y-112371290D01*
X135887222Y-112211923D01*
X135794974Y-112025820D01*
X135738512Y-111852938D01*
X135699833Y-111721203D01*
X135657333Y-111616559D01*
X135604966Y-111527081D01*
X135536691Y-111440847D01*
X135520518Y-111422856D01*
X135395851Y-111310889D01*
X135329410Y-111274221D01*
X135723315Y-111274221D01*
X135742964Y-111311723D01*
X135787163Y-111334099D01*
X135838836Y-111332983D01*
X135881235Y-111310650D01*
X135894135Y-111291207D01*
X135897920Y-111238482D01*
X135873906Y-111194227D01*
X135832302Y-111166214D01*
X135783316Y-111162216D01*
X135747750Y-111179754D01*
X135723556Y-111221781D01*
X135723315Y-111274221D01*
X135329410Y-111274221D01*
X135257580Y-111234580D01*
X135101761Y-111192115D01*
X134997087Y-111182081D01*
X134824583Y-111190895D01*
X134674343Y-111231708D01*
X134546544Y-111304424D01*
X134441364Y-111408949D01*
X134371364Y-111519801D01*
X134334698Y-111596610D01*
X134314043Y-111658291D01*
X134305004Y-111723043D01*
X134303173Y-111802242D01*
X134305603Y-111886999D01*
X134315167Y-111949354D01*
X134335676Y-112005841D01*
X134361789Y-112056585D01*
X134438254Y-112161305D01*
X134533637Y-112238785D01*
X134641506Y-112286925D01*
X134755434Y-112303623D01*
X134868988Y-112286779D01*
X134952283Y-112249536D01*
X135029660Y-112188380D01*
X135076515Y-112112786D01*
X135096145Y-112015836D01*
X135096357Y-111947141D01*
X135076356Y-111889966D01*
X135026960Y-111853741D01*
X134966045Y-111843169D01*
X134920008Y-111848217D01*
X134890522Y-111870309D01*
X134864787Y-111916438D01*
X134825863Y-111974599D01*
X134780151Y-111994890D01*
X134725415Y-111977661D01*
X134682318Y-111945068D01*
X134641118Y-111901653D01*
X134622796Y-111857474D01*
X134618851Y-111798609D01*
X134636755Y-111702734D01*
X134686112Y-111620256D01*
X134760383Y-111555410D01*
X134853034Y-111512432D01*
X134957529Y-111495557D01*
X135066228Y-111508720D01*
X135181786Y-111558727D01*
X135277256Y-111637428D01*
X135350194Y-111738651D01*
X135398155Y-111856225D01*
X135418697Y-111983977D01*
X135409374Y-112115735D01*
X135367744Y-112245327D01*
X135362359Y-112256613D01*
X135277776Y-112385069D01*
X135161773Y-112491198D01*
X135038016Y-112563451D01*
X134975594Y-112589734D01*
X134917315Y-112605370D01*
X134848982Y-112612918D01*
X134756397Y-112614936D01*
X134752364Y-112614938D01*
X134659550Y-112613171D01*
X134591220Y-112606065D01*
X134532870Y-112590916D01*
X134469998Y-112565019D01*
X134460111Y-112560429D01*
X134387301Y-112523384D01*
X134319105Y-112483814D01*
X134280684Y-112457852D01*
X134220545Y-112422409D01*
X134159248Y-112412346D01*
X134085696Y-112427318D01*
X134026922Y-112449941D01*
X133965411Y-112471261D01*
X133912781Y-112480955D01*
X133893418Y-112479907D01*
X133866237Y-112459331D01*
X133829828Y-112415786D01*
X133792333Y-112361306D01*
X133765946Y-112315036D01*
X133870158Y-112315036D01*
X133885753Y-112358544D01*
X133918949Y-112383826D01*
X133960833Y-112384744D01*
X134002490Y-112355161D01*
X134008536Y-112347190D01*
X134027904Y-112309586D01*
X134020165Y-112276934D01*
X134012289Y-112264152D01*
X133971243Y-112225787D01*
X133926744Y-112219161D01*
X133889567Y-112244663D01*
X133881081Y-112259440D01*
X133870158Y-112315036D01*
X133765946Y-112315036D01*
X133761891Y-112307926D01*
X133746643Y-112267683D01*
X133746133Y-112262166D01*
X133759304Y-112242635D01*
X133794320Y-112203814D01*
X133844435Y-112153052D01*
X133861222Y-112136770D01*
X133976311Y-112026233D01*
X133975615Y-111832124D01*
X133985866Y-111657708D01*
X134020044Y-111505341D01*
X134081256Y-111364001D01*
X134130550Y-111282464D01*
X134238949Y-111151301D01*
X134375808Y-111036335D01*
X134531810Y-110943773D01*
X134697634Y-110879821D01*
X134757003Y-110865193D01*
X134854864Y-110853072D01*
X134972007Y-110850897D01*
X135093708Y-110857868D01*
X135205243Y-110873182D01*
X135286437Y-110894027D01*
X135466594Y-110940773D01*
X135642406Y-110952583D01*
X135809797Y-110930830D01*
X135964690Y-110876891D01*
X136103007Y-110792140D01*
X136220674Y-110677952D01*
X136306092Y-110550132D01*
X136340850Y-110479584D01*
X136362008Y-110417927D01*
X136373684Y-110348982D01*
X136379812Y-110260553D01*
X136375789Y-110109636D01*
X136346491Y-109982877D01*
X136289289Y-109872586D01*
X136217921Y-109787215D01*
X136122121Y-109704066D01*
X136024442Y-109652073D01*
X135911400Y-109625077D01*
X135850377Y-109619348D01*
X135713577Y-109624146D01*
X135600941Y-109657662D01*
X135508809Y-109721175D01*
X135483522Y-109747516D01*
X135409102Y-109855691D01*
X135372157Y-109966789D01*
X135373227Y-110078354D01*
X135394765Y-110150439D01*
X135438405Y-110220961D01*
X135496615Y-110269984D01*
X135561246Y-110295224D01*
X135624150Y-110294393D01*
X135677177Y-110265205D01*
X135699365Y-110235903D01*
X135717620Y-110195309D01*
X135715094Y-110161935D01*
X135695095Y-110121973D01*
X135666949Y-110061194D01*
X135665951Y-110016434D01*
X135692495Y-109975228D01*
X135699979Y-109967476D01*
X135759065Y-109933899D01*
X135832537Y-109928580D01*
X135908482Y-109950878D01*
X135955137Y-109981218D01*
X136025999Y-110063552D01*
X136062894Y-110158561D01*
X136066244Y-110260357D01*
X136036468Y-110363054D01*
X135973989Y-110460765D01*
X135916738Y-110518218D01*
X135808749Y-110586907D01*
X135689796Y-110621850D01*
X135565748Y-110624567D01*
X135442472Y-110596578D01*
X135325836Y-110539404D01*
X135221706Y-110454564D01*
X135135951Y-110343581D01*
X135117665Y-110311158D01*
X135093003Y-110259959D01*
X135077509Y-110212506D01*
X135069104Y-110157101D01*
X135065703Y-110082043D01*
X135065189Y-110016323D01*
X135066155Y-109922612D01*
X135070793Y-109855743D01*
X135081359Y-109803509D01*
X135100107Y-109753699D01*
X135122087Y-109708232D01*
X135195221Y-109595920D01*
X135293368Y-109490084D01*
X135404162Y-109402824D01*
X135475287Y-109362647D01*
X135553490Y-109322973D01*
X135602878Y-109287245D01*
X135631336Y-109245987D01*
X135646749Y-109189723D01*
X135652424Y-109149766D01*
X135656464Y-109121760D01*
X135743822Y-109121760D01*
X135758176Y-109165865D01*
X135793752Y-109197739D01*
X135826979Y-109205476D01*
X135875534Y-109189426D01*
X135898655Y-109157209D01*
X135906965Y-109103511D01*
X135882196Y-109064797D01*
X135829740Y-109049197D01*
X135826979Y-109049169D01*
X135780684Y-109061742D01*
X135758114Y-109079055D01*
X135743822Y-109121760D01*
X135656464Y-109121760D01*
X135664557Y-109065664D01*
X135680913Y-109013134D01*
X135708644Y-108984780D01*
X135754902Y-108973205D01*
X135825274Y-108971015D01*
X135904561Y-108975201D01*
X135904561Y-108975201D01*
G37*
X135904561Y-108975201D02*
X135956109Y-108986943D01*
X135970020Y-108996108D01*
X135983989Y-109027815D01*
X135999260Y-109084873D01*
X136010427Y-109142794D01*
X136022591Y-109209716D01*
X136034558Y-109261643D01*
X136042490Y-109284582D01*
X136065386Y-109302508D01*
X136113714Y-109330461D01*
X136177225Y-109362535D01*
X136180265Y-109363975D01*
X136339510Y-109459528D01*
X136472380Y-109580804D01*
X136577495Y-109723488D01*
X136653471Y-109883264D01*
X136698930Y-110055818D01*
X136712490Y-110236834D01*
X136692771Y-110421997D01*
X136638391Y-110606991D01*
X136603479Y-110686500D01*
X136560876Y-110756970D01*
X136494103Y-110845648D01*
X136408724Y-110945383D01*
X136366670Y-110990953D01*
X136263757Y-111105518D01*
X136187807Y-111203291D01*
X136134160Y-111290434D01*
X136122440Y-111313897D01*
X136094557Y-111375885D01*
X136076743Y-111427918D01*
X136066770Y-111482199D01*
X136062411Y-111550932D01*
X136061441Y-111646320D01*
X136061441Y-111648195D01*
X136062274Y-111743203D01*
X136066314Y-111811228D01*
X136075869Y-111864352D01*
X136093250Y-111914659D01*
X136120765Y-111974231D01*
X136125659Y-111984205D01*
X136215934Y-112124409D01*
X136335241Y-112239138D01*
X136457752Y-112314746D01*
X136513421Y-112338307D01*
X136571092Y-112352312D01*
X136643780Y-112358984D01*
X136725748Y-112360550D01*
X136814402Y-112359447D01*
X136877115Y-112353886D01*
X136926987Y-112341188D01*
X136977112Y-112318676D01*
X136984863Y-112314499D01*
X137563671Y-112314499D01*
X137580674Y-112357690D01*
X137614925Y-112384348D01*
X137657097Y-112388477D01*
X137697865Y-112364077D01*
X137709595Y-112348465D01*
X137725692Y-112308049D01*
X137714213Y-112266728D01*
X137710993Y-112260541D01*
X137673793Y-112222602D01*
X137628094Y-112215453D01*
X137587110Y-112239069D01*
X137573242Y-112260774D01*
X137563671Y-112314499D01*
X136984863Y-112314499D01*
X137005608Y-112303320D01*
X137123317Y-112218571D01*
X137210303Y-112113501D01*
X137264082Y-111992108D01*
X137282165Y-111858450D01*
X137265275Y-111736804D01*
X137218611Y-111629226D01*
X137146610Y-111542484D01*
X137053708Y-111483345D01*
X137030564Y-111474596D01*
X136942141Y-111454657D01*
X136865385Y-111462645D01*
X136791291Y-111495422D01*
X136727937Y-111544633D01*
X136699500Y-111605022D01*
X136699706Y-111670220D01*
X136707785Y-111696699D01*
X136729043Y-111712261D01*
X136773219Y-111721461D01*
X136819458Y-111726244D01*
X136896540Y-111737815D01*
X136942262Y-111759994D01*
X136964140Y-111799407D01*
X136969680Y-111858711D01*
X136951544Y-111930148D01*
X136899428Y-111989943D01*
X136817818Y-112033309D01*
X136800633Y-112038914D01*
X136699127Y-112050980D01*
X136602889Y-112024566D01*
X136511424Y-111959508D01*
X136486136Y-111933839D01*
X136417381Y-111833269D01*
X136382140Y-111722484D01*
X136378257Y-111607229D01*
X136403575Y-111493246D01*
X136455938Y-111386277D01*
X136533190Y-111292066D01*
X136633173Y-111216354D01*
X136753732Y-111164884D01*
X136777224Y-111158692D01*
X136934373Y-111139755D01*
X137085304Y-111158916D01*
X137227579Y-111215378D01*
X137358760Y-111308344D01*
X137419730Y-111368597D01*
X137507062Y-111482694D01*
X137564999Y-111605304D01*
X137596936Y-111745527D01*
X137605865Y-111867592D01*
X137607931Y-111946521D01*
X137610015Y-112010561D01*
X137611773Y-112049629D01*
X137612306Y-112055990D01*
X137628041Y-112076090D01*
X137666623Y-112111145D01*
X137713226Y-112148527D01*
X137766776Y-112194270D01*
X137806423Y-112237251D01*
X137821724Y-112263546D01*
X137817760Y-112306117D01*
X137795560Y-112364287D01*
X137762462Y-112424581D01*
X137725805Y-112473527D01*
X137694462Y-112497212D01*
X137656870Y-112496332D01*
X137600397Y-112481616D01*
X137566978Y-112468861D01*
X137480621Y-112438373D01*
X137413688Y-112433098D01*
X137354979Y-112453978D01*
X137305638Y-112490817D01*
X137218982Y-112552555D01*
X137108976Y-112610373D01*
X136991201Y-112657001D01*
X136893958Y-112682918D01*
X136737740Y-112700434D01*
X136586729Y-112689891D01*
X136481518Y-112667413D01*
X136303083Y-112601192D01*
X136143244Y-112501766D01*
X136003967Y-112371290D01*
X135887222Y-112211923D01*
X135794974Y-112025820D01*
X135738512Y-111852938D01*
X135699833Y-111721203D01*
X135657333Y-111616559D01*
X135604966Y-111527081D01*
X135536691Y-111440847D01*
X135520518Y-111422856D01*
X135395851Y-111310889D01*
X135329410Y-111274221D01*
X135723315Y-111274221D01*
X135742964Y-111311723D01*
X135787163Y-111334099D01*
X135838836Y-111332983D01*
X135881235Y-111310650D01*
X135894135Y-111291207D01*
X135897920Y-111238482D01*
X135873906Y-111194227D01*
X135832302Y-111166214D01*
X135783316Y-111162216D01*
X135747750Y-111179754D01*
X135723556Y-111221781D01*
X135723315Y-111274221D01*
X135329410Y-111274221D01*
X135257580Y-111234580D01*
X135101761Y-111192115D01*
X134997087Y-111182081D01*
X134824583Y-111190895D01*
X134674343Y-111231708D01*
X134546544Y-111304424D01*
X134441364Y-111408949D01*
X134371364Y-111519801D01*
X134334698Y-111596610D01*
X134314043Y-111658291D01*
X134305004Y-111723043D01*
X134303173Y-111802242D01*
X134305603Y-111886999D01*
X134315167Y-111949354D01*
X134335676Y-112005841D01*
X134361789Y-112056585D01*
X134438254Y-112161305D01*
X134533637Y-112238785D01*
X134641506Y-112286925D01*
X134755434Y-112303623D01*
X134868988Y-112286779D01*
X134952283Y-112249536D01*
X135029660Y-112188380D01*
X135076515Y-112112786D01*
X135096145Y-112015836D01*
X135096357Y-111947141D01*
X135076356Y-111889966D01*
X135026960Y-111853741D01*
X134966045Y-111843169D01*
X134920008Y-111848217D01*
X134890522Y-111870309D01*
X134864787Y-111916438D01*
X134825863Y-111974599D01*
X134780151Y-111994890D01*
X134725415Y-111977661D01*
X134682318Y-111945068D01*
X134641118Y-111901653D01*
X134622796Y-111857474D01*
X134618851Y-111798609D01*
X134636755Y-111702734D01*
X134686112Y-111620256D01*
X134760383Y-111555410D01*
X134853034Y-111512432D01*
X134957529Y-111495557D01*
X135066228Y-111508720D01*
X135181786Y-111558727D01*
X135277256Y-111637428D01*
X135350194Y-111738651D01*
X135398155Y-111856225D01*
X135418697Y-111983977D01*
X135409374Y-112115735D01*
X135367744Y-112245327D01*
X135362359Y-112256613D01*
X135277776Y-112385069D01*
X135161773Y-112491198D01*
X135038016Y-112563451D01*
X134975594Y-112589734D01*
X134917315Y-112605370D01*
X134848982Y-112612918D01*
X134756397Y-112614936D01*
X134752364Y-112614938D01*
X134659550Y-112613171D01*
X134591220Y-112606065D01*
X134532870Y-112590916D01*
X134469998Y-112565019D01*
X134460111Y-112560429D01*
X134387301Y-112523384D01*
X134319105Y-112483814D01*
X134280684Y-112457852D01*
X134220545Y-112422409D01*
X134159248Y-112412346D01*
X134085696Y-112427318D01*
X134026922Y-112449941D01*
X133965411Y-112471261D01*
X133912781Y-112480955D01*
X133893418Y-112479907D01*
X133866237Y-112459331D01*
X133829828Y-112415786D01*
X133792333Y-112361306D01*
X133765946Y-112315036D01*
X133870158Y-112315036D01*
X133885753Y-112358544D01*
X133918949Y-112383826D01*
X133960833Y-112384744D01*
X134002490Y-112355161D01*
X134008536Y-112347190D01*
X134027904Y-112309586D01*
X134020165Y-112276934D01*
X134012289Y-112264152D01*
X133971243Y-112225787D01*
X133926744Y-112219161D01*
X133889567Y-112244663D01*
X133881081Y-112259440D01*
X133870158Y-112315036D01*
X133765946Y-112315036D01*
X133761891Y-112307926D01*
X133746643Y-112267683D01*
X133746133Y-112262166D01*
X133759304Y-112242635D01*
X133794320Y-112203814D01*
X133844435Y-112153052D01*
X133861222Y-112136770D01*
X133976311Y-112026233D01*
X133975615Y-111832124D01*
X133985866Y-111657708D01*
X134020044Y-111505341D01*
X134081256Y-111364001D01*
X134130550Y-111282464D01*
X134238949Y-111151301D01*
X134375808Y-111036335D01*
X134531810Y-110943773D01*
X134697634Y-110879821D01*
X134757003Y-110865193D01*
X134854864Y-110853072D01*
X134972007Y-110850897D01*
X135093708Y-110857868D01*
X135205243Y-110873182D01*
X135286437Y-110894027D01*
X135466594Y-110940773D01*
X135642406Y-110952583D01*
X135809797Y-110930830D01*
X135964690Y-110876891D01*
X136103007Y-110792140D01*
X136220674Y-110677952D01*
X136306092Y-110550132D01*
X136340850Y-110479584D01*
X136362008Y-110417927D01*
X136373684Y-110348982D01*
X136379812Y-110260553D01*
X136375789Y-110109636D01*
X136346491Y-109982877D01*
X136289289Y-109872586D01*
X136217921Y-109787215D01*
X136122121Y-109704066D01*
X136024442Y-109652073D01*
X135911400Y-109625077D01*
X135850377Y-109619348D01*
X135713577Y-109624146D01*
X135600941Y-109657662D01*
X135508809Y-109721175D01*
X135483522Y-109747516D01*
X135409102Y-109855691D01*
X135372157Y-109966789D01*
X135373227Y-110078354D01*
X135394765Y-110150439D01*
X135438405Y-110220961D01*
X135496615Y-110269984D01*
X135561246Y-110295224D01*
X135624150Y-110294393D01*
X135677177Y-110265205D01*
X135699365Y-110235903D01*
X135717620Y-110195309D01*
X135715094Y-110161935D01*
X135695095Y-110121973D01*
X135666949Y-110061194D01*
X135665951Y-110016434D01*
X135692495Y-109975228D01*
X135699979Y-109967476D01*
X135759065Y-109933899D01*
X135832537Y-109928580D01*
X135908482Y-109950878D01*
X135955137Y-109981218D01*
X136025999Y-110063552D01*
X136062894Y-110158561D01*
X136066244Y-110260357D01*
X136036468Y-110363054D01*
X135973989Y-110460765D01*
X135916738Y-110518218D01*
X135808749Y-110586907D01*
X135689796Y-110621850D01*
X135565748Y-110624567D01*
X135442472Y-110596578D01*
X135325836Y-110539404D01*
X135221706Y-110454564D01*
X135135951Y-110343581D01*
X135117665Y-110311158D01*
X135093003Y-110259959D01*
X135077509Y-110212506D01*
X135069104Y-110157101D01*
X135065703Y-110082043D01*
X135065189Y-110016323D01*
X135066155Y-109922612D01*
X135070793Y-109855743D01*
X135081359Y-109803509D01*
X135100107Y-109753699D01*
X135122087Y-109708232D01*
X135195221Y-109595920D01*
X135293368Y-109490084D01*
X135404162Y-109402824D01*
X135475287Y-109362647D01*
X135553490Y-109322973D01*
X135602878Y-109287245D01*
X135631336Y-109245987D01*
X135646749Y-109189723D01*
X135652424Y-109149766D01*
X135656464Y-109121760D01*
X135743822Y-109121760D01*
X135758176Y-109165865D01*
X135793752Y-109197739D01*
X135826979Y-109205476D01*
X135875534Y-109189426D01*
X135898655Y-109157209D01*
X135906965Y-109103511D01*
X135882196Y-109064797D01*
X135829740Y-109049197D01*
X135826979Y-109049169D01*
X135780684Y-109061742D01*
X135758114Y-109079055D01*
X135743822Y-109121760D01*
X135656464Y-109121760D01*
X135664557Y-109065664D01*
X135680913Y-109013134D01*
X135708644Y-108984780D01*
X135754902Y-108973205D01*
X135825274Y-108971015D01*
X135904561Y-108975201D01*
G36*
X135918048Y-108160590D02*
X136007435Y-108165246D01*
X136071565Y-108179226D01*
X136116170Y-108207618D01*
X136146980Y-108255511D01*
X136169727Y-108327993D01*
X136190143Y-108430154D01*
X136206271Y-108522944D01*
X136229330Y-108650933D01*
X136249619Y-108747179D01*
X136269643Y-108818657D01*
X136291905Y-108872342D01*
X136318909Y-108915212D01*
X136353160Y-108954241D01*
X136365521Y-108966533D01*
X136428070Y-109011293D01*
X136517289Y-109054986D01*
X136620901Y-109093551D01*
X136726631Y-109122925D01*
X136822204Y-109139047D01*
X136887277Y-109139167D01*
X136945305Y-109128437D01*
X136997616Y-109110251D01*
X137051566Y-109080115D01*
X137114515Y-109033532D01*
X137193820Y-108966008D01*
X137243518Y-108921531D01*
X137342530Y-108835495D01*
X137421065Y-108776158D01*
X137484339Y-108740780D01*
X137537568Y-108726618D01*
X137585970Y-108730931D01*
X137598741Y-108734857D01*
X137646348Y-108759998D01*
X137711774Y-108805544D01*
X137786310Y-108864110D01*
X137861249Y-108928312D01*
X137927880Y-108990765D01*
X137977494Y-109044085D01*
X137998300Y-109073642D01*
X138015058Y-109116625D01*
X138018589Y-109161697D01*
X138006914Y-109214805D01*
X137978055Y-109281892D01*
X137930032Y-109368906D01*
X137864265Y-109476385D01*
X137795346Y-109590979D01*
X137749311Y-109683260D01*
X137724993Y-109761715D01*
X137721228Y-109834833D01*
X137736850Y-109911100D01*
X137770694Y-109999004D01*
X137787454Y-110035861D01*
X137845611Y-110153976D01*
X137899755Y-110243343D01*
X137956623Y-110307908D01*
X138022954Y-110351616D01*
X138105488Y-110378411D01*
X138210962Y-110392238D01*
X138346115Y-110397042D01*
X138404924Y-110397323D01*
X138534815Y-110398580D01*
X138631608Y-110403373D01*
X138701227Y-110413227D01*
X138749599Y-110429672D01*
X138782650Y-110454234D01*
X138806305Y-110488442D01*
X138813291Y-110502607D01*
X138831644Y-110556410D01*
X138850535Y-110634850D01*
X138868208Y-110726962D01*
X138882904Y-110821783D01*
X138892866Y-110908350D01*
X138896337Y-110975699D01*
X138893932Y-111005680D01*
X138875751Y-111051218D01*
X138839558Y-111090887D01*
X138780240Y-111127876D01*
X138692682Y-111165373D01*
X138571792Y-111206562D01*
X138452112Y-111245719D01*
X138363395Y-111278474D01*
X138298798Y-111308311D01*
X138251478Y-111338718D01*
X138214592Y-111373180D01*
X138192770Y-111399671D01*
X138165455Y-111449752D01*
X138135869Y-111526306D01*
X138107527Y-111617162D01*
X138083943Y-111710148D01*
X138068634Y-111793090D01*
X138064699Y-111843169D01*
X138073729Y-111910312D01*
X138102408Y-111976428D01*
X138154361Y-112046334D01*
X138233216Y-112124848D01*
X138342599Y-112216787D01*
X138350862Y-112223351D01*
X138451947Y-112306063D01*
X138523964Y-112372392D01*
X138570590Y-112427279D01*
X138595501Y-112475668D01*
X138602374Y-112522500D01*
X138598554Y-112556323D01*
X138582109Y-112603591D01*
X138549481Y-112671796D01*
X138506141Y-112751694D01*
X138457555Y-112834042D01*
X138409193Y-112909598D01*
X138366523Y-112969117D01*
X138335013Y-113003358D01*
X138333346Y-113004584D01*
X138282292Y-113026487D01*
X138225568Y-113035015D01*
X138194640Y-113027841D01*
X138133847Y-113007941D01*
X138049341Y-112977742D01*
X137947276Y-112939675D01*
X137833803Y-112896169D01*
X137715077Y-112849653D01*
X137597248Y-112802557D01*
X137486471Y-112757310D01*
X137388897Y-112716341D01*
X137310680Y-112682081D01*
X137257971Y-112656958D01*
X137238547Y-112645287D01*
X137245032Y-112628261D01*
X137276906Y-112597332D01*
X137316109Y-112567290D01*
X137408411Y-112502230D01*
X137496926Y-112537612D01*
X137569153Y-112559960D01*
X137642895Y-112573117D01*
X137663534Y-112574427D01*
X137706726Y-112572921D01*
X137737955Y-112561612D01*
X137767372Y-112533210D01*
X137805126Y-112480425D01*
X137815025Y-112465616D01*
X137855248Y-112398768D01*
X137886602Y-112334926D01*
X137900796Y-112293506D01*
X137904485Y-112260685D01*
X137897036Y-112231853D01*
X137873248Y-112198588D01*
X137827921Y-112152467D01*
X137793937Y-112120443D01*
X137674704Y-112009246D01*
X137710841Y-111638015D01*
X137729049Y-111406272D01*
X137734477Y-111204350D01*
X137726086Y-111024798D01*
X137702838Y-110860166D01*
X137663697Y-110703004D01*
X137607623Y-110545860D01*
X137536631Y-110387553D01*
X137403144Y-110156582D01*
X137238550Y-109946362D01*
X137046751Y-109760497D01*
X136831647Y-109602590D01*
X136597140Y-109476246D01*
X136510825Y-109440003D01*
X136412273Y-109399900D01*
X136315078Y-109357440D01*
X136226575Y-109316141D01*
X136154101Y-109279522D01*
X136104989Y-109251100D01*
X136087740Y-109237061D01*
X136078463Y-109208861D01*
X136068076Y-109155303D01*
X136061593Y-109109667D01*
X136045346Y-109022551D01*
X136017330Y-108964889D01*
X135970588Y-108931074D01*
X135898161Y-108915497D01*
X135816832Y-108912399D01*
X135729157Y-108915057D01*
X135669934Y-108927591D01*
X135631030Y-108956843D01*
X135604313Y-109009654D01*
X135581650Y-109092868D01*
X135576749Y-109114382D01*
X135561073Y-109180921D01*
X135548125Y-109229941D01*
X135540566Y-109251418D01*
X135540330Y-109251619D01*
X135497196Y-109272860D01*
X135428120Y-109303499D01*
X135343719Y-109339131D01*
X135254608Y-109375348D01*
X135171402Y-109407745D01*
X135111832Y-109429479D01*
X134889093Y-109526474D01*
X134677252Y-109657805D01*
X134480977Y-109819230D01*
X134304933Y-110006508D01*
X134153788Y-110215397D01*
X134057675Y-110387553D01*
X133952465Y-110644395D01*
X133885526Y-110907867D01*
X133857097Y-111176666D01*
X133865064Y-111426519D01*
X133874167Y-111540206D01*
X133881596Y-111668881D01*
X133886012Y-111788458D01*
X133886457Y-111811801D01*
X133889284Y-112005125D01*
X133778090Y-112104878D01*
X133714129Y-112168159D01*
X133676328Y-112218819D01*
X133667437Y-112245847D01*
X133678540Y-112294618D01*
X133706385Y-112360281D01*
X133744212Y-112430751D01*
X133785258Y-112493943D01*
X133822762Y-112537772D01*
X133836371Y-112547792D01*
X133866401Y-112559263D01*
X133902225Y-112560132D01*
X133954417Y-112549312D01*
X134025063Y-112528388D01*
X134166897Y-112483906D01*
X134270136Y-112548083D01*
X134329236Y-112588832D01*
X134352656Y-112615569D01*
X134347946Y-112626356D01*
X134302025Y-112649492D01*
X134229715Y-112683144D01*
X134137184Y-112724688D01*
X134030600Y-112771498D01*
X133916131Y-112820950D01*
X133799945Y-112870419D01*
X133688209Y-112917280D01*
X133587091Y-112958909D01*
X133502759Y-112992679D01*
X133441382Y-113015967D01*
X133409126Y-113026148D01*
X133408177Y-113026294D01*
X133351164Y-113026852D01*
X133306518Y-113017284D01*
X133266418Y-112992220D01*
X133224019Y-112948782D01*
X133175182Y-112881743D01*
X133115764Y-112785873D01*
X133094842Y-112749990D01*
X133045478Y-112658569D01*
X133016553Y-112588773D01*
X133004538Y-112531365D01*
X133003671Y-112511295D01*
X133007507Y-112468229D01*
X133021871Y-112428094D01*
X133051047Y-112385821D01*
X133099321Y-112336338D01*
X133170977Y-112274576D01*
X133270300Y-112195463D01*
X133271071Y-112194861D01*
X133341967Y-112135526D01*
X133407679Y-112073646D01*
X133456490Y-112020432D01*
X133465076Y-112009246D01*
X133492022Y-111969014D01*
X133508577Y-111932204D01*
X133517146Y-111887617D01*
X133520131Y-111824055D01*
X133520119Y-111752741D01*
X133510714Y-111601596D01*
X133482482Y-111481281D01*
X133431654Y-111386567D01*
X133354463Y-111312224D01*
X133247141Y-111253024D01*
X133129593Y-111210758D01*
X133004231Y-111171514D01*
X132910901Y-111139222D01*
X132843797Y-111111078D01*
X132797113Y-111084277D01*
X132765041Y-111056015D01*
X132741776Y-111023486D01*
X132741749Y-111023440D01*
X132725562Y-110993744D01*
X132716193Y-110966072D01*
X132713539Y-110931721D01*
X132717499Y-110881990D01*
X132727971Y-110808174D01*
X132738461Y-110741657D01*
X132755027Y-110648284D01*
X132772935Y-110564429D01*
X132789774Y-110500585D01*
X132800640Y-110471373D01*
X132824256Y-110433231D01*
X132853705Y-110406015D01*
X132895362Y-110388127D01*
X132955599Y-110377969D01*
X133040791Y-110373942D01*
X133157312Y-110374450D01*
X133185217Y-110374960D01*
X133317790Y-110376049D01*
X133418589Y-110372118D01*
X133494787Y-110361300D01*
X133553561Y-110341728D01*
X133602084Y-110311536D01*
X133647532Y-110268856D01*
X133664335Y-110250287D01*
X133757048Y-110127875D01*
X133822707Y-110004202D01*
X133858041Y-109886240D01*
X133863364Y-109825998D01*
X133860582Y-109770371D01*
X133850203Y-109717378D01*
X133829181Y-109660168D01*
X133794468Y-109591889D01*
X133743016Y-109505690D01*
X133671778Y-109394722D01*
X133670959Y-109393470D01*
X133609698Y-109292259D01*
X133575190Y-109212088D01*
X133567327Y-109145615D01*
X133586001Y-109085501D01*
X133631102Y-109024403D01*
X133664999Y-108989771D01*
X133777569Y-108885823D01*
X133870037Y-108810975D01*
X133945668Y-108763001D01*
X134007724Y-108739680D01*
X134036617Y-108736553D01*
X134076391Y-108739080D01*
X134113783Y-108749291D01*
X134155118Y-108771134D01*
X134206722Y-108808555D01*
X134274920Y-108865503D01*
X134351825Y-108933248D01*
X134422633Y-108993828D01*
X134490911Y-109047941D01*
X134546337Y-109087585D01*
X134566748Y-109099875D01*
X134653019Y-109126922D01*
X134760957Y-109133253D01*
X134880223Y-109120573D01*
X135000478Y-109090584D01*
X135111384Y-109044991D01*
X135187557Y-108997569D01*
X135228959Y-108959838D01*
X135263666Y-108912189D01*
X135294065Y-108848716D01*
X135322545Y-108763512D01*
X135351495Y-108650673D01*
X135379379Y-108523225D01*
X135407591Y-108397182D01*
X135432890Y-108305498D01*
X135456680Y-108243696D01*
X135477362Y-108210610D01*
X135495685Y-108190762D01*
X135515322Y-108176951D01*
X135543223Y-108168084D01*
X135586340Y-108163064D01*
X135651622Y-108160799D01*
X135746022Y-108160192D01*
X135797671Y-108160169D01*
X135918048Y-108160590D01*
X135918048Y-108160590D01*
G37*
X135918048Y-108160590D02*
X136007435Y-108165246D01*
X136071565Y-108179226D01*
X136116170Y-108207618D01*
X136146980Y-108255511D01*
X136169727Y-108327993D01*
X136190143Y-108430154D01*
X136206271Y-108522944D01*
X136229330Y-108650933D01*
X136249619Y-108747179D01*
X136269643Y-108818657D01*
X136291905Y-108872342D01*
X136318909Y-108915212D01*
X136353160Y-108954241D01*
X136365521Y-108966533D01*
X136428070Y-109011293D01*
X136517289Y-109054986D01*
X136620901Y-109093551D01*
X136726631Y-109122925D01*
X136822204Y-109139047D01*
X136887277Y-109139167D01*
X136945305Y-109128437D01*
X136997616Y-109110251D01*
X137051566Y-109080115D01*
X137114515Y-109033532D01*
X137193820Y-108966008D01*
X137243518Y-108921531D01*
X137342530Y-108835495D01*
X137421065Y-108776158D01*
X137484339Y-108740780D01*
X137537568Y-108726618D01*
X137585970Y-108730931D01*
X137598741Y-108734857D01*
X137646348Y-108759998D01*
X137711774Y-108805544D01*
X137786310Y-108864110D01*
X137861249Y-108928312D01*
X137927880Y-108990765D01*
X137977494Y-109044085D01*
X137998300Y-109073642D01*
X138015058Y-109116625D01*
X138018589Y-109161697D01*
X138006914Y-109214805D01*
X137978055Y-109281892D01*
X137930032Y-109368906D01*
X137864265Y-109476385D01*
X137795346Y-109590979D01*
X137749311Y-109683260D01*
X137724993Y-109761715D01*
X137721228Y-109834833D01*
X137736850Y-109911100D01*
X137770694Y-109999004D01*
X137787454Y-110035861D01*
X137845611Y-110153976D01*
X137899755Y-110243343D01*
X137956623Y-110307908D01*
X138022954Y-110351616D01*
X138105488Y-110378411D01*
X138210962Y-110392238D01*
X138346115Y-110397042D01*
X138404924Y-110397323D01*
X138534815Y-110398580D01*
X138631608Y-110403373D01*
X138701227Y-110413227D01*
X138749599Y-110429672D01*
X138782650Y-110454234D01*
X138806305Y-110488442D01*
X138813291Y-110502607D01*
X138831644Y-110556410D01*
X138850535Y-110634850D01*
X138868208Y-110726962D01*
X138882904Y-110821783D01*
X138892866Y-110908350D01*
X138896337Y-110975699D01*
X138893932Y-111005680D01*
X138875751Y-111051218D01*
X138839558Y-111090887D01*
X138780240Y-111127876D01*
X138692682Y-111165373D01*
X138571792Y-111206562D01*
X138452112Y-111245719D01*
X138363395Y-111278474D01*
X138298798Y-111308311D01*
X138251478Y-111338718D01*
X138214592Y-111373180D01*
X138192770Y-111399671D01*
X138165455Y-111449752D01*
X138135869Y-111526306D01*
X138107527Y-111617162D01*
X138083943Y-111710148D01*
X138068634Y-111793090D01*
X138064699Y-111843169D01*
X138073729Y-111910312D01*
X138102408Y-111976428D01*
X138154361Y-112046334D01*
X138233216Y-112124848D01*
X138342599Y-112216787D01*
X138350862Y-112223351D01*
X138451947Y-112306063D01*
X138523964Y-112372392D01*
X138570590Y-112427279D01*
X138595501Y-112475668D01*
X138602374Y-112522500D01*
X138598554Y-112556323D01*
X138582109Y-112603591D01*
X138549481Y-112671796D01*
X138506141Y-112751694D01*
X138457555Y-112834042D01*
X138409193Y-112909598D01*
X138366523Y-112969117D01*
X138335013Y-113003358D01*
X138333346Y-113004584D01*
X138282292Y-113026487D01*
X138225568Y-113035015D01*
X138194640Y-113027841D01*
X138133847Y-113007941D01*
X138049341Y-112977742D01*
X137947276Y-112939675D01*
X137833803Y-112896169D01*
X137715077Y-112849653D01*
X137597248Y-112802557D01*
X137486471Y-112757310D01*
X137388897Y-112716341D01*
X137310680Y-112682081D01*
X137257971Y-112656958D01*
X137238547Y-112645287D01*
X137245032Y-112628261D01*
X137276906Y-112597332D01*
X137316109Y-112567290D01*
X137408411Y-112502230D01*
X137496926Y-112537612D01*
X137569153Y-112559960D01*
X137642895Y-112573117D01*
X137663534Y-112574427D01*
X137706726Y-112572921D01*
X137737955Y-112561612D01*
X137767372Y-112533210D01*
X137805126Y-112480425D01*
X137815025Y-112465616D01*
X137855248Y-112398768D01*
X137886602Y-112334926D01*
X137900796Y-112293506D01*
X137904485Y-112260685D01*
X137897036Y-112231853D01*
X137873248Y-112198588D01*
X137827921Y-112152467D01*
X137793937Y-112120443D01*
X137674704Y-112009246D01*
X137710841Y-111638015D01*
X137729049Y-111406272D01*
X137734477Y-111204350D01*
X137726086Y-111024798D01*
X137702838Y-110860166D01*
X137663697Y-110703004D01*
X137607623Y-110545860D01*
X137536631Y-110387553D01*
X137403144Y-110156582D01*
X137238550Y-109946362D01*
X137046751Y-109760497D01*
X136831647Y-109602590D01*
X136597140Y-109476246D01*
X136510825Y-109440003D01*
X136412273Y-109399900D01*
X136315078Y-109357440D01*
X136226575Y-109316141D01*
X136154101Y-109279522D01*
X136104989Y-109251100D01*
X136087740Y-109237061D01*
X136078463Y-109208861D01*
X136068076Y-109155303D01*
X136061593Y-109109667D01*
X136045346Y-109022551D01*
X136017330Y-108964889D01*
X135970588Y-108931074D01*
X135898161Y-108915497D01*
X135816832Y-108912399D01*
X135729157Y-108915057D01*
X135669934Y-108927591D01*
X135631030Y-108956843D01*
X135604313Y-109009654D01*
X135581650Y-109092868D01*
X135576749Y-109114382D01*
X135561073Y-109180921D01*
X135548125Y-109229941D01*
X135540566Y-109251418D01*
X135540330Y-109251619D01*
X135497196Y-109272860D01*
X135428120Y-109303499D01*
X135343719Y-109339131D01*
X135254608Y-109375348D01*
X135171402Y-109407745D01*
X135111832Y-109429479D01*
X134889093Y-109526474D01*
X134677252Y-109657805D01*
X134480977Y-109819230D01*
X134304933Y-110006508D01*
X134153788Y-110215397D01*
X134057675Y-110387553D01*
X133952465Y-110644395D01*
X133885526Y-110907867D01*
X133857097Y-111176666D01*
X133865064Y-111426519D01*
X133874167Y-111540206D01*
X133881596Y-111668881D01*
X133886012Y-111788458D01*
X133886457Y-111811801D01*
X133889284Y-112005125D01*
X133778090Y-112104878D01*
X133714129Y-112168159D01*
X133676328Y-112218819D01*
X133667437Y-112245847D01*
X133678540Y-112294618D01*
X133706385Y-112360281D01*
X133744212Y-112430751D01*
X133785258Y-112493943D01*
X133822762Y-112537772D01*
X133836371Y-112547792D01*
X133866401Y-112559263D01*
X133902225Y-112560132D01*
X133954417Y-112549312D01*
X134025063Y-112528388D01*
X134166897Y-112483906D01*
X134270136Y-112548083D01*
X134329236Y-112588832D01*
X134352656Y-112615569D01*
X134347946Y-112626356D01*
X134302025Y-112649492D01*
X134229715Y-112683144D01*
X134137184Y-112724688D01*
X134030600Y-112771498D01*
X133916131Y-112820950D01*
X133799945Y-112870419D01*
X133688209Y-112917280D01*
X133587091Y-112958909D01*
X133502759Y-112992679D01*
X133441382Y-113015967D01*
X133409126Y-113026148D01*
X133408177Y-113026294D01*
X133351164Y-113026852D01*
X133306518Y-113017284D01*
X133266418Y-112992220D01*
X133224019Y-112948782D01*
X133175182Y-112881743D01*
X133115764Y-112785873D01*
X133094842Y-112749990D01*
X133045478Y-112658569D01*
X133016553Y-112588773D01*
X133004538Y-112531365D01*
X133003671Y-112511295D01*
X133007507Y-112468229D01*
X133021871Y-112428094D01*
X133051047Y-112385821D01*
X133099321Y-112336338D01*
X133170977Y-112274576D01*
X133270300Y-112195463D01*
X133271071Y-112194861D01*
X133341967Y-112135526D01*
X133407679Y-112073646D01*
X133456490Y-112020432D01*
X133465076Y-112009246D01*
X133492022Y-111969014D01*
X133508577Y-111932204D01*
X133517146Y-111887617D01*
X133520131Y-111824055D01*
X133520119Y-111752741D01*
X133510714Y-111601596D01*
X133482482Y-111481281D01*
X133431654Y-111386567D01*
X133354463Y-111312224D01*
X133247141Y-111253024D01*
X133129593Y-111210758D01*
X133004231Y-111171514D01*
X132910901Y-111139222D01*
X132843797Y-111111078D01*
X132797113Y-111084277D01*
X132765041Y-111056015D01*
X132741776Y-111023486D01*
X132741749Y-111023440D01*
X132725562Y-110993744D01*
X132716193Y-110966072D01*
X132713539Y-110931721D01*
X132717499Y-110881990D01*
X132727971Y-110808174D01*
X132738461Y-110741657D01*
X132755027Y-110648284D01*
X132772935Y-110564429D01*
X132789774Y-110500585D01*
X132800640Y-110471373D01*
X132824256Y-110433231D01*
X132853705Y-110406015D01*
X132895362Y-110388127D01*
X132955599Y-110377969D01*
X133040791Y-110373942D01*
X133157312Y-110374450D01*
X133185217Y-110374960D01*
X133317790Y-110376049D01*
X133418589Y-110372118D01*
X133494787Y-110361300D01*
X133553561Y-110341728D01*
X133602084Y-110311536D01*
X133647532Y-110268856D01*
X133664335Y-110250287D01*
X133757048Y-110127875D01*
X133822707Y-110004202D01*
X133858041Y-109886240D01*
X133863364Y-109825998D01*
X133860582Y-109770371D01*
X133850203Y-109717378D01*
X133829181Y-109660168D01*
X133794468Y-109591889D01*
X133743016Y-109505690D01*
X133671778Y-109394722D01*
X133670959Y-109393470D01*
X133609698Y-109292259D01*
X133575190Y-109212088D01*
X133567327Y-109145615D01*
X133586001Y-109085501D01*
X133631102Y-109024403D01*
X133664999Y-108989771D01*
X133777569Y-108885823D01*
X133870037Y-108810975D01*
X133945668Y-108763001D01*
X134007724Y-108739680D01*
X134036617Y-108736553D01*
X134076391Y-108739080D01*
X134113783Y-108749291D01*
X134155118Y-108771134D01*
X134206722Y-108808555D01*
X134274920Y-108865503D01*
X134351825Y-108933248D01*
X134422633Y-108993828D01*
X134490911Y-109047941D01*
X134546337Y-109087585D01*
X134566748Y-109099875D01*
X134653019Y-109126922D01*
X134760957Y-109133253D01*
X134880223Y-109120573D01*
X135000478Y-109090584D01*
X135111384Y-109044991D01*
X135187557Y-108997569D01*
X135228959Y-108959838D01*
X135263666Y-108912189D01*
X135294065Y-108848716D01*
X135322545Y-108763512D01*
X135351495Y-108650673D01*
X135379379Y-108523225D01*
X135407591Y-108397182D01*
X135432890Y-108305498D01*
X135456680Y-108243696D01*
X135477362Y-108210610D01*
X135495685Y-108190762D01*
X135515322Y-108176951D01*
X135543223Y-108168084D01*
X135586340Y-108163064D01*
X135651622Y-108160799D01*
X135746022Y-108160192D01*
X135797671Y-108160169D01*
X135918048Y-108160590D01*
G36*
X134543765Y-113260449D02*
X134564348Y-113299394D01*
X134555832Y-113344733D01*
X134546431Y-113358338D01*
X134505531Y-113382436D01*
X134453243Y-113385002D01*
X134407490Y-113367110D01*
X134391660Y-113349046D01*
X134380412Y-113296516D01*
X134404666Y-113255879D01*
X134444928Y-113237123D01*
X134501489Y-113236744D01*
X134543765Y-113260449D01*
X134543765Y-113260449D01*
G37*
X134543765Y-113260449D02*
X134564348Y-113299394D01*
X134555832Y-113344733D01*
X134546431Y-113358338D01*
X134505531Y-113382436D01*
X134453243Y-113385002D01*
X134407490Y-113367110D01*
X134391660Y-113349046D01*
X134380412Y-113296516D01*
X134404666Y-113255879D01*
X134444928Y-113237123D01*
X134501489Y-113236744D01*
X134543765Y-113260449D01*
G36*
X136300733Y-113233474D02*
X136346312Y-113240156D01*
X136352903Y-113242253D01*
X136369343Y-113254352D01*
X136362801Y-113276122D01*
X136334962Y-113312136D01*
X136315714Y-113336783D01*
X136302326Y-113362035D01*
X136293737Y-113395196D01*
X136288885Y-113443571D01*
X136286709Y-113514462D01*
X136286146Y-113615175D01*
X136286133Y-113648068D01*
X136287676Y-113778056D01*
X136292392Y-113870773D01*
X136300412Y-113927905D01*
X136309579Y-113949415D01*
X136343589Y-113964955D01*
X136396682Y-113972674D01*
X136406083Y-113972861D01*
X136458973Y-113965937D01*
X136510251Y-113940915D01*
X136569723Y-113894463D01*
X136620343Y-113855145D01*
X136661028Y-113831621D01*
X136680478Y-113828532D01*
X136690328Y-113854313D01*
X136689781Y-113902401D01*
X136680812Y-113958037D01*
X136665395Y-114006461D01*
X136654114Y-114025622D01*
X136633797Y-114036161D01*
X136590193Y-114043615D01*
X136518964Y-114048326D01*
X136415769Y-114050637D01*
X136332587Y-114051015D01*
X136229236Y-114050374D01*
X136141240Y-114048605D01*
X136075267Y-114045940D01*
X136037989Y-114042612D01*
X136032133Y-114040558D01*
X136041788Y-114018574D01*
X136065142Y-113979787D01*
X136066325Y-113977976D01*
X136080510Y-113949341D01*
X136090852Y-113908901D01*
X136098159Y-113849965D01*
X136103238Y-113765845D01*
X136106895Y-113649850D01*
X136107138Y-113639524D01*
X136113759Y-113353198D01*
X136061539Y-113312121D01*
X136029778Y-113279288D01*
X136020855Y-113253057D01*
X136021879Y-113250722D01*
X136045892Y-113241504D01*
X136097350Y-113234874D01*
X136164686Y-113231128D01*
X136236336Y-113230563D01*
X136300733Y-113233474D01*
X136300733Y-113233474D01*
G37*
X136300733Y-113233474D02*
X136346312Y-113240156D01*
X136352903Y-113242253D01*
X136369343Y-113254352D01*
X136362801Y-113276122D01*
X136334962Y-113312136D01*
X136315714Y-113336783D01*
X136302326Y-113362035D01*
X136293737Y-113395196D01*
X136288885Y-113443571D01*
X136286709Y-113514462D01*
X136286146Y-113615175D01*
X136286133Y-113648068D01*
X136287676Y-113778056D01*
X136292392Y-113870773D01*
X136300412Y-113927905D01*
X136309579Y-113949415D01*
X136343589Y-113964955D01*
X136396682Y-113972674D01*
X136406083Y-113972861D01*
X136458973Y-113965937D01*
X136510251Y-113940915D01*
X136569723Y-113894463D01*
X136620343Y-113855145D01*
X136661028Y-113831621D01*
X136680478Y-113828532D01*
X136690328Y-113854313D01*
X136689781Y-113902401D01*
X136680812Y-113958037D01*
X136665395Y-114006461D01*
X136654114Y-114025622D01*
X136633797Y-114036161D01*
X136590193Y-114043615D01*
X136518964Y-114048326D01*
X136415769Y-114050637D01*
X136332587Y-114051015D01*
X136229236Y-114050374D01*
X136141240Y-114048605D01*
X136075267Y-114045940D01*
X136037989Y-114042612D01*
X136032133Y-114040558D01*
X136041788Y-114018574D01*
X136065142Y-113979787D01*
X136066325Y-113977976D01*
X136080510Y-113949341D01*
X136090852Y-113908901D01*
X136098159Y-113849965D01*
X136103238Y-113765845D01*
X136106895Y-113649850D01*
X136107138Y-113639524D01*
X136113759Y-113353198D01*
X136061539Y-113312121D01*
X136029778Y-113279288D01*
X136020855Y-113253057D01*
X136021879Y-113250722D01*
X136045892Y-113241504D01*
X136097350Y-113234874D01*
X136164686Y-113231128D01*
X136236336Y-113230563D01*
X136300733Y-113233474D01*
G36*
X134550867Y-113727939D02*
X134556222Y-113833263D01*
X134563549Y-113906403D01*
X134573945Y-113954239D01*
X134588508Y-113983655D01*
X134592402Y-113988362D01*
X134617566Y-114020835D01*
X134625364Y-114037900D01*
X134607370Y-114043990D01*
X134559551Y-114048577D01*
X134491155Y-114050883D01*
X134469056Y-114051015D01*
X134396469Y-114049114D01*
X134341809Y-114044064D01*
X134314319Y-114036840D01*
X134312748Y-114034505D01*
X134325813Y-114010387D01*
X134351825Y-113982630D01*
X134371987Y-113958292D01*
X134383892Y-113923910D01*
X134389532Y-113869683D01*
X134390902Y-113790361D01*
X134389363Y-113707728D01*
X134383285Y-113653574D01*
X134370480Y-113617372D01*
X134348981Y-113588833D01*
X134307060Y-113544210D01*
X134360022Y-113524074D01*
X134419263Y-113509375D01*
X134477639Y-113503938D01*
X134542293Y-113503938D01*
X134550867Y-113727939D01*
X134550867Y-113727939D01*
G37*
X134550867Y-113727939D02*
X134556222Y-113833263D01*
X134563549Y-113906403D01*
X134573945Y-113954239D01*
X134588508Y-113983655D01*
X134592402Y-113988362D01*
X134617566Y-114020835D01*
X134625364Y-114037900D01*
X134607370Y-114043990D01*
X134559551Y-114048577D01*
X134491155Y-114050883D01*
X134469056Y-114051015D01*
X134396469Y-114049114D01*
X134341809Y-114044064D01*
X134314319Y-114036840D01*
X134312748Y-114034505D01*
X134325813Y-114010387D01*
X134351825Y-113982630D01*
X134371987Y-113958292D01*
X134383892Y-113923910D01*
X134389532Y-113869683D01*
X134390902Y-113790361D01*
X134389363Y-113707728D01*
X134383285Y-113653574D01*
X134370480Y-113617372D01*
X134348981Y-113588833D01*
X134307060Y-113544210D01*
X134360022Y-113524074D01*
X134419263Y-113509375D01*
X134477639Y-113503938D01*
X134542293Y-113503938D01*
X134550867Y-113727939D01*
G36*
X133979521Y-113515395D02*
X133999282Y-113541425D01*
X134021698Y-113583310D01*
X134077432Y-113543624D01*
X134141151Y-113511584D01*
X134191949Y-113511899D01*
X134224721Y-113542943D01*
X134234595Y-113593678D01*
X134220098Y-113635719D01*
X134180255Y-113651316D01*
X134127624Y-113640894D01*
X134076340Y-113636346D01*
X134038654Y-113667521D01*
X134013811Y-113735108D01*
X134011425Y-113746921D01*
X134008276Y-113817125D01*
X134019942Y-113892278D01*
X134042853Y-113957019D01*
X134068443Y-113992337D01*
X134087681Y-114019825D01*
X134086688Y-114033690D01*
X134063784Y-114042324D01*
X134015233Y-114047925D01*
X133952459Y-114050485D01*
X133886885Y-114049998D01*
X133829935Y-114046458D01*
X133793034Y-114039856D01*
X133785210Y-114033869D01*
X133798577Y-114008405D01*
X133814518Y-113992400D01*
X133831497Y-113958218D01*
X133841847Y-113897114D01*
X133845636Y-113820663D01*
X133842931Y-113740440D01*
X133833799Y-113668021D01*
X133818308Y-113614983D01*
X133812256Y-113604331D01*
X133793604Y-113566124D01*
X133804080Y-113540051D01*
X133847419Y-113522000D01*
X133895692Y-113512508D01*
X133949559Y-113506960D01*
X133979521Y-113515395D01*
X133979521Y-113515395D01*
G37*
X133979521Y-113515395D02*
X133999282Y-113541425D01*
X134021698Y-113583310D01*
X134077432Y-113543624D01*
X134141151Y-113511584D01*
X134191949Y-113511899D01*
X134224721Y-113542943D01*
X134234595Y-113593678D01*
X134220098Y-113635719D01*
X134180255Y-113651316D01*
X134127624Y-113640894D01*
X134076340Y-113636346D01*
X134038654Y-113667521D01*
X134013811Y-113735108D01*
X134011425Y-113746921D01*
X134008276Y-113817125D01*
X134019942Y-113892278D01*
X134042853Y-113957019D01*
X134068443Y-113992337D01*
X134087681Y-114019825D01*
X134086688Y-114033690D01*
X134063784Y-114042324D01*
X134015233Y-114047925D01*
X133952459Y-114050485D01*
X133886885Y-114049998D01*
X133829935Y-114046458D01*
X133793034Y-114039856D01*
X133785210Y-114033869D01*
X133798577Y-114008405D01*
X133814518Y-113992400D01*
X133831497Y-113958218D01*
X133841847Y-113897114D01*
X133845636Y-113820663D01*
X133842931Y-113740440D01*
X133833799Y-113668021D01*
X133818308Y-113614983D01*
X133812256Y-113604331D01*
X133793604Y-113566124D01*
X133804080Y-113540051D01*
X133847419Y-113522000D01*
X133895692Y-113512508D01*
X133949559Y-113506960D01*
X133979521Y-113515395D01*
G36*
X133271957Y-113232349D02*
X133356035Y-113236636D01*
X133425589Y-113244253D01*
X133457052Y-113250720D01*
X133534107Y-113287992D01*
X133585187Y-113344780D01*
X133607730Y-113412852D01*
X133599174Y-113483975D01*
X133556957Y-113549916D01*
X133551754Y-113554999D01*
X133494145Y-113609373D01*
X133571293Y-113675409D01*
X133618433Y-113720259D01*
X133641336Y-113759209D01*
X133648246Y-113808083D01*
X133648441Y-113823498D01*
X133640346Y-113900375D01*
X133613532Y-113958980D01*
X133564201Y-114001325D01*
X133488557Y-114029423D01*
X133382804Y-114045286D01*
X133243144Y-114050926D01*
X133219222Y-114051015D01*
X133128581Y-114049731D01*
X133054162Y-114046233D01*
X133003506Y-114041050D01*
X132984151Y-114034711D01*
X132984133Y-114034505D01*
X132997197Y-114010387D01*
X133023210Y-113982630D01*
X133038348Y-113965946D01*
X133048999Y-113943459D01*
X133055942Y-113908626D01*
X133059952Y-113854902D01*
X133060995Y-113810388D01*
X133235279Y-113810388D01*
X133239427Y-113877818D01*
X133250694Y-113934824D01*
X133268886Y-113969233D01*
X133272325Y-113971768D01*
X133325658Y-113983536D01*
X133388422Y-113969838D01*
X133438402Y-113939003D01*
X133465460Y-113891614D01*
X133472680Y-113827362D01*
X133460396Y-113762853D01*
X133434015Y-113719358D01*
X133378900Y-113681662D01*
X133316110Y-113663104D01*
X133267484Y-113667295D01*
X133249114Y-113692953D01*
X133238444Y-113744708D01*
X133235279Y-113810388D01*
X133060995Y-113810388D01*
X133061807Y-113775743D01*
X133062285Y-113664605D01*
X133062287Y-113653592D01*
X133062076Y-113582092D01*
X133236348Y-113582092D01*
X133304229Y-113582092D01*
X133359602Y-113573565D01*
X133401230Y-113552895D01*
X133402785Y-113551418D01*
X133440024Y-113492125D01*
X133445644Y-113429367D01*
X133423372Y-113372952D01*
X133376936Y-113332685D01*
X133314178Y-113318323D01*
X133247902Y-113318323D01*
X133242125Y-113450207D01*
X133236348Y-113582092D01*
X133062076Y-113582092D01*
X133061950Y-113539864D01*
X133060361Y-113458412D01*
X133056651Y-113402438D01*
X133049950Y-113365143D01*
X133039389Y-113339728D01*
X133024100Y-113319394D01*
X133018837Y-113313668D01*
X132991442Y-113279869D01*
X132991228Y-113259955D01*
X133004183Y-113249208D01*
X133039469Y-113239821D01*
X133102986Y-113233906D01*
X133184045Y-113231427D01*
X133271957Y-113232349D01*
X133271957Y-113232349D01*
G37*
X133271957Y-113232349D02*
X133356035Y-113236636D01*
X133425589Y-113244253D01*
X133457052Y-113250720D01*
X133534107Y-113287992D01*
X133585187Y-113344780D01*
X133607730Y-113412852D01*
X133599174Y-113483975D01*
X133556957Y-113549916D01*
X133551754Y-113554999D01*
X133494145Y-113609373D01*
X133571293Y-113675409D01*
X133618433Y-113720259D01*
X133641336Y-113759209D01*
X133648246Y-113808083D01*
X133648441Y-113823498D01*
X133640346Y-113900375D01*
X133613532Y-113958980D01*
X133564201Y-114001325D01*
X133488557Y-114029423D01*
X133382804Y-114045286D01*
X133243144Y-114050926D01*
X133219222Y-114051015D01*
X133128581Y-114049731D01*
X133054162Y-114046233D01*
X133003506Y-114041050D01*
X132984151Y-114034711D01*
X132984133Y-114034505D01*
X132997197Y-114010387D01*
X133023210Y-113982630D01*
X133038348Y-113965946D01*
X133048999Y-113943459D01*
X133055942Y-113908626D01*
X133059952Y-113854902D01*
X133060995Y-113810388D01*
X133235279Y-113810388D01*
X133239427Y-113877818D01*
X133250694Y-113934824D01*
X133268886Y-113969233D01*
X133272325Y-113971768D01*
X133325658Y-113983536D01*
X133388422Y-113969838D01*
X133438402Y-113939003D01*
X133465460Y-113891614D01*
X133472680Y-113827362D01*
X133460396Y-113762853D01*
X133434015Y-113719358D01*
X133378900Y-113681662D01*
X133316110Y-113663104D01*
X133267484Y-113667295D01*
X133249114Y-113692953D01*
X133238444Y-113744708D01*
X133235279Y-113810388D01*
X133060995Y-113810388D01*
X133061807Y-113775743D01*
X133062285Y-113664605D01*
X133062287Y-113653592D01*
X133062076Y-113582092D01*
X133236348Y-113582092D01*
X133304229Y-113582092D01*
X133359602Y-113573565D01*
X133401230Y-113552895D01*
X133402785Y-113551418D01*
X133440024Y-113492125D01*
X133445644Y-113429367D01*
X133423372Y-113372952D01*
X133376936Y-113332685D01*
X133314178Y-113318323D01*
X133247902Y-113318323D01*
X133242125Y-113450207D01*
X133236348Y-113582092D01*
X133062076Y-113582092D01*
X133061950Y-113539864D01*
X133060361Y-113458412D01*
X133056651Y-113402438D01*
X133049950Y-113365143D01*
X133039389Y-113339728D01*
X133024100Y-113319394D01*
X133018837Y-113313668D01*
X132991442Y-113279869D01*
X132991228Y-113259955D01*
X133004183Y-113249208D01*
X133039469Y-113239821D01*
X133102986Y-113233906D01*
X133184045Y-113231427D01*
X133271957Y-113232349D01*
G36*
X138372147Y-113491091D02*
X138451192Y-113499766D01*
X138499010Y-113510600D01*
X138523386Y-113528051D01*
X138532102Y-113556576D01*
X138533056Y-113583245D01*
X138524976Y-113627095D01*
X138499429Y-113637810D01*
X138454452Y-113615759D01*
X138435364Y-113601630D01*
X138391815Y-113578810D01*
X138339404Y-113565611D01*
X138291360Y-113563478D01*
X138260915Y-113573859D01*
X138256587Y-113582092D01*
X138252136Y-113619807D01*
X138251702Y-113624631D01*
X138266988Y-113643729D01*
X138309275Y-113673750D01*
X138370220Y-113708949D01*
X138386518Y-113717438D01*
X138473876Y-113768349D01*
X138527112Y-113816959D01*
X138550331Y-113869064D01*
X138547638Y-113930465D01*
X138545108Y-113941416D01*
X138511708Y-114003811D01*
X138447950Y-114044020D01*
X138353099Y-114062289D01*
X138226419Y-114058862D01*
X138201073Y-114056068D01*
X138141625Y-114041126D01*
X138111928Y-114008694D01*
X138103516Y-113949433D01*
X138103509Y-113948438D01*
X138113283Y-113905921D01*
X138140166Y-113896722D01*
X138179518Y-113921693D01*
X138190002Y-113932534D01*
X138241096Y-113972128D01*
X138299079Y-113992833D01*
X138354064Y-113994576D01*
X138396166Y-113977279D01*
X138415498Y-113940868D01*
X138415825Y-113934263D01*
X138404958Y-113906030D01*
X138368576Y-113875839D01*
X138301003Y-113839104D01*
X138293710Y-113835567D01*
X138211359Y-113792228D01*
X138159769Y-113753756D01*
X138132489Y-113713091D01*
X138123069Y-113663173D01*
X138122748Y-113648479D01*
X138133737Y-113593472D01*
X138172043Y-113544626D01*
X138185735Y-113532565D01*
X138223903Y-113503586D01*
X138259132Y-113489198D01*
X138305590Y-113486250D01*
X138372147Y-113491091D01*
X138372147Y-113491091D01*
G37*
X138372147Y-113491091D02*
X138451192Y-113499766D01*
X138499010Y-113510600D01*
X138523386Y-113528051D01*
X138532102Y-113556576D01*
X138533056Y-113583245D01*
X138524976Y-113627095D01*
X138499429Y-113637810D01*
X138454452Y-113615759D01*
X138435364Y-113601630D01*
X138391815Y-113578810D01*
X138339404Y-113565611D01*
X138291360Y-113563478D01*
X138260915Y-113573859D01*
X138256587Y-113582092D01*
X138252136Y-113619807D01*
X138251702Y-113624631D01*
X138266988Y-113643729D01*
X138309275Y-113673750D01*
X138370220Y-113708949D01*
X138386518Y-113717438D01*
X138473876Y-113768349D01*
X138527112Y-113816959D01*
X138550331Y-113869064D01*
X138547638Y-113930465D01*
X138545108Y-113941416D01*
X138511708Y-114003811D01*
X138447950Y-114044020D01*
X138353099Y-114062289D01*
X138226419Y-114058862D01*
X138201073Y-114056068D01*
X138141625Y-114041126D01*
X138111928Y-114008694D01*
X138103516Y-113949433D01*
X138103509Y-113948438D01*
X138113283Y-113905921D01*
X138140166Y-113896722D01*
X138179518Y-113921693D01*
X138190002Y-113932534D01*
X138241096Y-113972128D01*
X138299079Y-113992833D01*
X138354064Y-113994576D01*
X138396166Y-113977279D01*
X138415498Y-113940868D01*
X138415825Y-113934263D01*
X138404958Y-113906030D01*
X138368576Y-113875839D01*
X138301003Y-113839104D01*
X138293710Y-113835567D01*
X138211359Y-113792228D01*
X138159769Y-113753756D01*
X138132489Y-113713091D01*
X138123069Y-113663173D01*
X138122748Y-113648479D01*
X138133737Y-113593472D01*
X138172043Y-113544626D01*
X138185735Y-113532565D01*
X138223903Y-113503586D01*
X138259132Y-113489198D01*
X138305590Y-113486250D01*
X138372147Y-113491091D01*
G36*
X137574880Y-113200602D02*
X137584050Y-113223486D01*
X137594018Y-113275382D01*
X137602986Y-113346315D01*
X137605070Y-113368198D01*
X137619017Y-113525755D01*
X137724386Y-113512590D01*
X137785606Y-113506479D01*
X137825637Y-113511196D01*
X137860466Y-113532401D01*
X137906081Y-113575751D01*
X137907867Y-113577537D01*
X137959443Y-113637162D01*
X137983778Y-113689152D01*
X137988049Y-113721447D01*
X137986673Y-113829504D01*
X137972274Y-113908464D01*
X137941302Y-113967144D01*
X137890205Y-114014359D01*
X137862802Y-114032336D01*
X137810405Y-114058402D01*
X137758980Y-114066812D01*
X137693423Y-114058836D01*
X137653825Y-114049883D01*
X137599046Y-114041069D01*
X137556820Y-114041844D01*
X137554001Y-114042557D01*
X137508218Y-114044114D01*
X137490501Y-114039598D01*
X137478396Y-114030594D01*
X137469730Y-114010573D01*
X137463951Y-113973893D01*
X137460511Y-113914916D01*
X137458858Y-113828001D01*
X137458772Y-113803709D01*
X137614748Y-113803709D01*
X137624776Y-113895427D01*
X137653662Y-113958431D01*
X137699614Y-113989571D01*
X137722210Y-113992400D01*
X137769065Y-113976839D01*
X137799256Y-113948975D01*
X137819842Y-113895518D01*
X137829300Y-113815171D01*
X137829671Y-113793757D01*
X137820129Y-113705001D01*
X137793905Y-113637565D01*
X137754606Y-113596899D01*
X137705840Y-113588454D01*
X137695523Y-113591029D01*
X137652422Y-113621741D01*
X137625966Y-113682808D01*
X137615136Y-113776910D01*
X137614748Y-113803709D01*
X137458772Y-113803709D01*
X137458441Y-113711133D01*
X137457909Y-113589136D01*
X137455847Y-113499090D01*
X137451548Y-113433878D01*
X137444311Y-113386383D01*
X137433431Y-113349487D01*
X137419659Y-113318902D01*
X137397787Y-113271148D01*
X137388143Y-113240001D01*
X137388830Y-113234882D01*
X137415021Y-113223637D01*
X137462898Y-113211868D01*
X137516413Y-113202532D01*
X137559516Y-113198586D01*
X137574880Y-113200602D01*
X137574880Y-113200602D01*
G37*
X137574880Y-113200602D02*
X137584050Y-113223486D01*
X137594018Y-113275382D01*
X137602986Y-113346315D01*
X137605070Y-113368198D01*
X137619017Y-113525755D01*
X137724386Y-113512590D01*
X137785606Y-113506479D01*
X137825637Y-113511196D01*
X137860466Y-113532401D01*
X137906081Y-113575751D01*
X137907867Y-113577537D01*
X137959443Y-113637162D01*
X137983778Y-113689152D01*
X137988049Y-113721447D01*
X137986673Y-113829504D01*
X137972274Y-113908464D01*
X137941302Y-113967144D01*
X137890205Y-114014359D01*
X137862802Y-114032336D01*
X137810405Y-114058402D01*
X137758980Y-114066812D01*
X137693423Y-114058836D01*
X137653825Y-114049883D01*
X137599046Y-114041069D01*
X137556820Y-114041844D01*
X137554001Y-114042557D01*
X137508218Y-114044114D01*
X137490501Y-114039598D01*
X137478396Y-114030594D01*
X137469730Y-114010573D01*
X137463951Y-113973893D01*
X137460511Y-113914916D01*
X137458858Y-113828001D01*
X137458772Y-113803709D01*
X137614748Y-113803709D01*
X137624776Y-113895427D01*
X137653662Y-113958431D01*
X137699614Y-113989571D01*
X137722210Y-113992400D01*
X137769065Y-113976839D01*
X137799256Y-113948975D01*
X137819842Y-113895518D01*
X137829300Y-113815171D01*
X137829671Y-113793757D01*
X137820129Y-113705001D01*
X137793905Y-113637565D01*
X137754606Y-113596899D01*
X137705840Y-113588454D01*
X137695523Y-113591029D01*
X137652422Y-113621741D01*
X137625966Y-113682808D01*
X137615136Y-113776910D01*
X137614748Y-113803709D01*
X137458772Y-113803709D01*
X137458441Y-113711133D01*
X137457909Y-113589136D01*
X137455847Y-113499090D01*
X137451548Y-113433878D01*
X137444311Y-113386383D01*
X137433431Y-113349487D01*
X137419659Y-113318902D01*
X137397787Y-113271148D01*
X137388143Y-113240001D01*
X137388830Y-113234882D01*
X137415021Y-113223637D01*
X137462898Y-113211868D01*
X137516413Y-113202532D01*
X137559516Y-113198586D01*
X137574880Y-113200602D01*
G36*
X137112072Y-113518801D02*
X137166882Y-113537980D01*
X137200743Y-113577090D01*
X137218217Y-113641980D01*
X137223866Y-113738494D01*
X137223979Y-113760103D01*
X137225670Y-113842568D01*
X137232112Y-113896203D01*
X137245358Y-113931157D01*
X137263056Y-113953323D01*
X137295780Y-113993618D01*
X137294068Y-114021460D01*
X137256347Y-114045542D01*
X137245524Y-114050184D01*
X137194815Y-114063457D01*
X137147668Y-114051871D01*
X137132759Y-114044592D01*
X137087283Y-114026498D01*
X137050690Y-114031262D01*
X137028175Y-114042361D01*
X136947408Y-114067849D01*
X136869545Y-114055724D01*
X136826076Y-114030058D01*
X136784922Y-113980819D01*
X136774595Y-113924015D01*
X136774769Y-113923253D01*
X136919547Y-113923253D01*
X136923293Y-113942138D01*
X136950276Y-113966206D01*
X136993316Y-113971672D01*
X137033589Y-113957546D01*
X137043046Y-113948438D01*
X137067442Y-113902636D01*
X137077500Y-113853613D01*
X137071515Y-113815884D01*
X137059909Y-113804851D01*
X137013590Y-113805400D01*
X136967500Y-113832608D01*
X136932525Y-113875538D01*
X136919547Y-113923253D01*
X136774769Y-113923253D01*
X136788378Y-113863745D01*
X136832091Y-113813744D01*
X136909273Y-113770819D01*
X136969379Y-113748368D01*
X137035854Y-113721893D01*
X137069165Y-113694212D01*
X137074801Y-113658360D01*
X137065734Y-113626053D01*
X137038372Y-113589415D01*
X136996126Y-113588094D01*
X136938220Y-113622121D01*
X136926233Y-113631869D01*
X136872724Y-113666249D01*
X136830825Y-113673170D01*
X136807009Y-113652585D01*
X136803902Y-113632779D01*
X136822056Y-113584570D01*
X136872061Y-113546341D01*
X136947236Y-113521584D01*
X137031754Y-113513707D01*
X137112072Y-113518801D01*
X137112072Y-113518801D01*
G37*
X137112072Y-113518801D02*
X137166882Y-113537980D01*
X137200743Y-113577090D01*
X137218217Y-113641980D01*
X137223866Y-113738494D01*
X137223979Y-113760103D01*
X137225670Y-113842568D01*
X137232112Y-113896203D01*
X137245358Y-113931157D01*
X137263056Y-113953323D01*
X137295780Y-113993618D01*
X137294068Y-114021460D01*
X137256347Y-114045542D01*
X137245524Y-114050184D01*
X137194815Y-114063457D01*
X137147668Y-114051871D01*
X137132759Y-114044592D01*
X137087283Y-114026498D01*
X137050690Y-114031262D01*
X137028175Y-114042361D01*
X136947408Y-114067849D01*
X136869545Y-114055724D01*
X136826076Y-114030058D01*
X136784922Y-113980819D01*
X136774595Y-113924015D01*
X136774769Y-113923253D01*
X136919547Y-113923253D01*
X136923293Y-113942138D01*
X136950276Y-113966206D01*
X136993316Y-113971672D01*
X137033589Y-113957546D01*
X137043046Y-113948438D01*
X137067442Y-113902636D01*
X137077500Y-113853613D01*
X137071515Y-113815884D01*
X137059909Y-113804851D01*
X137013590Y-113805400D01*
X136967500Y-113832608D01*
X136932525Y-113875538D01*
X136919547Y-113923253D01*
X136774769Y-113923253D01*
X136788378Y-113863745D01*
X136832091Y-113813744D01*
X136909273Y-113770819D01*
X136969379Y-113748368D01*
X137035854Y-113721893D01*
X137069165Y-113694212D01*
X137074801Y-113658360D01*
X137065734Y-113626053D01*
X137038372Y-113589415D01*
X136996126Y-113588094D01*
X136938220Y-113622121D01*
X136926233Y-113631869D01*
X136872724Y-113666249D01*
X136830825Y-113673170D01*
X136807009Y-113652585D01*
X136803902Y-113632779D01*
X136822056Y-113584570D01*
X136872061Y-113546341D01*
X136947236Y-113521584D01*
X137031754Y-113513707D01*
X137112072Y-113518801D01*
G36*
X135723168Y-113506911D02*
X135808496Y-113551122D01*
X135862008Y-113604386D01*
X135892090Y-113673502D01*
X135901555Y-113760313D01*
X135890295Y-113849251D01*
X135864163Y-113915213D01*
X135798031Y-113992328D01*
X135710787Y-114042065D01*
X135611693Y-114061633D01*
X135510008Y-114048239D01*
X135471698Y-114033502D01*
X135394905Y-113978630D01*
X135345336Y-113903315D01*
X135323349Y-113815488D01*
X135328545Y-113734783D01*
X135492541Y-113734783D01*
X135494053Y-113817652D01*
X135510617Y-113896011D01*
X135535340Y-113948438D01*
X135577772Y-113983900D01*
X135630695Y-113991743D01*
X135679078Y-113971651D01*
X135696376Y-113951831D01*
X135723073Y-113881867D01*
X135733861Y-113793921D01*
X135727683Y-113706157D01*
X135713581Y-113656635D01*
X135672671Y-113588867D01*
X135622556Y-113558461D01*
X135569119Y-113563853D01*
X135530994Y-113597410D01*
X135505162Y-113657878D01*
X135492541Y-113734783D01*
X135328545Y-113734783D01*
X135329299Y-113723081D01*
X135363543Y-113634025D01*
X135426437Y-113556252D01*
X135449408Y-113537444D01*
X135532409Y-113498253D01*
X135627400Y-113488681D01*
X135723168Y-113506911D01*
X135723168Y-113506911D01*
G37*
X135723168Y-113506911D02*
X135808496Y-113551122D01*
X135862008Y-113604386D01*
X135892090Y-113673502D01*
X135901555Y-113760313D01*
X135890295Y-113849251D01*
X135864163Y-113915213D01*
X135798031Y-113992328D01*
X135710787Y-114042065D01*
X135611693Y-114061633D01*
X135510008Y-114048239D01*
X135471698Y-114033502D01*
X135394905Y-113978630D01*
X135345336Y-113903315D01*
X135323349Y-113815488D01*
X135328545Y-113734783D01*
X135492541Y-113734783D01*
X135494053Y-113817652D01*
X135510617Y-113896011D01*
X135535340Y-113948438D01*
X135577772Y-113983900D01*
X135630695Y-113991743D01*
X135679078Y-113971651D01*
X135696376Y-113951831D01*
X135723073Y-113881867D01*
X135733861Y-113793921D01*
X135727683Y-113706157D01*
X135713581Y-113656635D01*
X135672671Y-113588867D01*
X135622556Y-113558461D01*
X135569119Y-113563853D01*
X135530994Y-113597410D01*
X135505162Y-113657878D01*
X135492541Y-113734783D01*
X135328545Y-113734783D01*
X135329299Y-113723081D01*
X135363543Y-113634025D01*
X135426437Y-113556252D01*
X135449408Y-113537444D01*
X135532409Y-113498253D01*
X135627400Y-113488681D01*
X135723168Y-113506911D01*
G36*
X135122047Y-113507835D02*
X135181631Y-113531468D01*
X135209041Y-113570543D01*
X135211518Y-113591395D01*
X135205171Y-113633159D01*
X135182651Y-113648550D01*
X135138738Y-113638413D01*
X135083904Y-113612071D01*
X135005603Y-113582410D01*
X134946210Y-113586851D01*
X134905607Y-113625485D01*
X134883675Y-113698402D01*
X134879364Y-113767926D01*
X134884715Y-113833331D01*
X134906123Y-113880790D01*
X134938762Y-113918034D01*
X134972147Y-113948749D01*
X135002607Y-113964809D01*
X135040868Y-113967361D01*
X135097658Y-113957548D01*
X135162326Y-113941894D01*
X135199678Y-113936337D01*
X135210249Y-113949980D01*
X135208510Y-113965373D01*
X135184039Y-114002239D01*
X135132029Y-114035664D01*
X135063964Y-114060203D01*
X134991329Y-114070412D01*
X134986825Y-114070450D01*
X134917428Y-114060338D01*
X134852053Y-114035700D01*
X134846233Y-114032336D01*
X134771292Y-113969571D01*
X134729428Y-113890019D01*
X134717115Y-113800225D01*
X134732233Y-113691175D01*
X134778618Y-113603052D01*
X134852470Y-113539546D01*
X134949986Y-113504348D01*
X135027965Y-113498469D01*
X135122047Y-113507835D01*
X135122047Y-113507835D01*
G37*
X135122047Y-113507835D02*
X135181631Y-113531468D01*
X135209041Y-113570543D01*
X135211518Y-113591395D01*
X135205171Y-113633159D01*
X135182651Y-113648550D01*
X135138738Y-113638413D01*
X135083904Y-113612071D01*
X135005603Y-113582410D01*
X134946210Y-113586851D01*
X134905607Y-113625485D01*
X134883675Y-113698402D01*
X134879364Y-113767926D01*
X134884715Y-113833331D01*
X134906123Y-113880790D01*
X134938762Y-113918034D01*
X134972147Y-113948749D01*
X135002607Y-113964809D01*
X135040868Y-113967361D01*
X135097658Y-113957548D01*
X135162326Y-113941894D01*
X135199678Y-113936337D01*
X135210249Y-113949980D01*
X135208510Y-113965373D01*
X135184039Y-114002239D01*
X135132029Y-114035664D01*
X135063964Y-114060203D01*
X134991329Y-114070412D01*
X134986825Y-114070450D01*
X134917428Y-114060338D01*
X134852053Y-114035700D01*
X134846233Y-114032336D01*
X134771292Y-113969571D01*
X134729428Y-113890019D01*
X134717115Y-113800225D01*
X134732233Y-113691175D01*
X134778618Y-113603052D01*
X134852470Y-113539546D01*
X134949986Y-113504348D01*
X135027965Y-113498469D01*
X135122047Y-113507835D01*
D14*
X138072671Y-81659873D02*
X138106004Y-81683207D01*
X138139337Y-81753207D01*
X138139337Y-81799873D01*
X138106004Y-81869873D01*
X138039337Y-81916540D01*
X137972671Y-81939873D01*
X137839337Y-81963207D01*
X137739337Y-81963207D01*
X137606004Y-81939873D01*
X137539337Y-81916540D01*
X137472671Y-81869873D01*
X137439337Y-81799873D01*
X137439337Y-81753207D01*
X137472671Y-81683207D01*
X137506004Y-81659873D01*
X138139337Y-81193207D02*
X138139337Y-81473207D01*
X138139337Y-81333207D02*
X137439337Y-81333207D01*
X137539337Y-81379873D01*
X137606004Y-81426540D01*
X137639337Y-81473207D01*
X140547671Y-81659873D02*
X140581004Y-81683207D01*
X140614337Y-81753207D01*
X140614337Y-81799873D01*
X140581004Y-81869873D01*
X140514337Y-81916540D01*
X140447671Y-81939873D01*
X140314337Y-81963207D01*
X140214337Y-81963207D01*
X140081004Y-81939873D01*
X140014337Y-81916540D01*
X139947671Y-81869873D01*
X139914337Y-81799873D01*
X139914337Y-81753207D01*
X139947671Y-81683207D01*
X139981004Y-81659873D01*
X139981004Y-81473207D02*
X139947671Y-81449873D01*
X139914337Y-81403207D01*
X139914337Y-81286540D01*
X139947671Y-81239873D01*
X139981004Y-81216540D01*
X140047671Y-81193207D01*
X140114337Y-81193207D01*
X140214337Y-81216540D01*
X140614337Y-81496540D01*
X140614337Y-81193207D01*
X134581837Y-81759040D02*
X135081837Y-81759040D01*
X135181837Y-81782373D01*
X135248504Y-81829040D01*
X135281837Y-81899040D01*
X135281837Y-81945707D01*
X135281837Y-81525707D02*
X134581837Y-81525707D01*
X134581837Y-81339040D01*
X134615171Y-81292373D01*
X134648504Y-81269040D01*
X134715171Y-81245707D01*
X134815171Y-81245707D01*
X134881837Y-81269040D01*
X134915171Y-81292373D01*
X134948504Y-81339040D01*
X134948504Y-81525707D01*
X135281837Y-80779040D02*
X135281837Y-81059040D01*
X135281837Y-80919040D02*
X134581837Y-80919040D01*
X134681837Y-80965707D01*
X134748504Y-81012373D01*
X134781837Y-81059040D01*
M02*
